<svg width="321" height="502" viewBox="0 0 321 502" fill="none" xmlns="http://www.w3.org/2000/svg">
<g opacity="0.7">
<g clip-path="url(#clip0_1_2511)">
<path fill-rule="evenodd" clip-rule="evenodd" d="M372.345 403.081C342.529 429.386 300.133 441.156 260.715 435.935C225.785 431.309 205.079 397.037 176.041 377.08C152.109 360.632 120.774 354.21 105.695 329.393C90.0825 303.698 95.1703 272.219 94.0704 242.173C92.6561 203.534 73.0258 158.304 98.3626 129.098C123.523 100.094 170.8 106.15 209.037 109.648C240.393 112.516 263.586 136.536 293.307 146.931C330.2 159.836 377.802 148.2 403.485 177.661C429.928 207.996 427.053 254.177 421.546 294.04C415.953 334.532 402.997 376.038 372.345 403.081Z" fill="#F6F9FC"/>
</g>
</g>
<defs>
<clipPath id="clip0_1_2511">
<rect width="319.999" height="388.61" fill="white" transform="translate(501.53 274.97) rotate(135)"/>
</clipPath>
</defs>
</svg>
