<svg width="500" height="521" viewBox="0 0 500 521" fill="none" xmlns="http://www.w3.org/2000/svg">
<path d="M40.1992 122.648C40.1992 122.648 33.7761 127.589 39.9423 134.111C39.9952 134.166 40.0584 134.208 40.1284 134.238C40.1982 134.268 40.2732 134.283 40.3491 134.283L97.0865 133.951C97.0865 133.951 101.925 128.529 97.9107 122.273L40.1992 122.648Z" fill="#EBEBEB"/>
<path d="M68.7495 127.918C77.4583 127.918 84.5182 127.864 84.5182 127.8C84.5182 127.734 77.4583 127.682 68.7495 127.682C60.0407 127.682 52.9808 127.734 52.9808 127.8C52.9808 127.864 60.0407 127.918 68.7495 127.918Z" fill="#E0E0E0"/>
<path d="M68.2896 129.97C72.3868 129.97 75.7082 129.918 75.7082 129.853C75.7082 129.788 72.3868 129.735 68.2896 129.735C64.1923 129.735 60.8709 129.788 60.8709 129.853C60.8709 129.918 64.1923 129.97 68.2896 129.97Z" fill="#E0E0E0"/>
<path d="M90.32 133.778C90.32 133.778 90.4484 133.126 90.6197 132.078C91.0715 129.341 91.0352 126.546 90.5126 123.822C90.32 122.753 90.1487 122.143 90.1807 122.133C90.2528 122.272 90.3068 122.419 90.3414 122.571C90.4377 122.861 90.5447 123.278 90.6625 123.801C91.2693 126.538 91.2947 129.372 90.7375 132.12C90.6304 132.644 90.5234 133.062 90.4377 133.35C90.4161 133.497 90.3765 133.641 90.32 133.778Z" fill="#E0E0E0"/>
<path d="M94.5482 122.206C94.6504 122.33 94.7367 122.467 94.8051 122.611C94.9005 122.775 94.9862 122.942 95.062 123.115C95.1478 123.318 95.2655 123.543 95.3512 123.81C95.5804 124.421 95.7593 125.051 95.8863 125.692C96.1898 127.267 96.1898 128.886 95.8863 130.461C95.7669 131.104 95.5951 131.738 95.3726 132.353C95.2869 132.621 95.1798 132.845 95.0942 133.048C95.0222 133.225 94.94 133.395 94.848 133.562C94.7835 133.711 94.7008 133.851 94.6018 133.979C94.6018 133.979 94.8801 133.349 95.2119 132.301C95.4058 131.687 95.5561 131.062 95.6616 130.429C95.9363 128.877 95.9363 127.287 95.6616 125.734C95.545 125.103 95.384 124.482 95.1799 123.874C94.7945 122.837 94.5054 122.227 94.5482 122.206Z" fill="#E0E0E0"/>
<path d="M49.159 133.894C49.054 133.781 48.964 133.656 48.8914 133.519C48.7916 133.37 48.7022 133.212 48.6237 133.05C48.5121 132.837 48.4121 132.62 48.3239 132.397C48.0826 131.821 47.8961 131.222 47.7673 130.612C47.4548 129.107 47.4766 127.551 47.8315 126.055C47.9741 125.443 48.1749 124.845 48.4311 124.27C48.5264 124.051 48.6336 123.837 48.7522 123.629C48.8346 123.469 48.9276 123.316 49.0305 123.169C49.1064 123.032 49.2 122.906 49.3089 122.795C49.3089 122.795 48.9877 123.362 48.581 124.335C48.3505 124.902 48.1678 125.489 48.0349 126.088C47.71 127.558 47.6881 129.079 47.9707 130.558C48.0855 131.158 48.2502 131.748 48.4632 132.322C48.8486 133.274 49.2019 133.83 49.159 133.894Z" fill="#E0E0E0"/>
<path d="M43.0361 135.233C42.9235 135.102 42.8265 134.959 42.747 134.806C42.636 134.634 42.5359 134.455 42.4473 134.271C42.3402 134.057 42.2118 133.822 42.1047 133.544C41.829 132.897 41.6105 132.228 41.4516 131.544C41.0652 129.858 41.0287 128.112 41.3446 126.411C41.4709 125.723 41.6572 125.046 41.9013 124.39C41.9977 124.101 42.1154 123.866 42.2118 123.641C42.2896 123.454 42.379 123.272 42.4793 123.096C42.5516 122.94 42.6414 122.793 42.747 122.657C42.747 122.657 42.4258 123.321 42.0404 124.443C41.8265 125.086 41.6619 125.744 41.548 126.411C41.2633 128.081 41.2996 129.79 41.655 131.448C41.7994 132.125 41.9963 132.789 42.2438 133.436C42.6828 134.58 43.0789 135.212 43.0361 135.233Z" fill="#E0E0E0"/>
<path d="M94.9674 151.206V162.048H73.9746V151.206H94.9674Z" fill="#EBEBEB"/>
<path d="M27.1603 156.723C27.1603 156.817 27.1603 156.913 27.1603 157.013C27.2613 158.595 27.9639 160.079 29.1242 161.159C30.2843 162.241 31.8146 162.838 33.4014 162.83H95.9516V162.049H81.1036C79.6641 162.049 78.2836 161.478 77.2658 160.462C76.2479 159.444 75.6761 158.066 75.6761 156.628C75.6761 155.19 76.2479 153.811 77.2658 152.794C78.2836 151.777 79.6641 151.206 81.1036 151.206H95.9516V150.052L33.4014 150.266C32.563 150.266 31.7333 150.435 30.9618 150.763C30.1902 151.091 29.4925 151.57 28.9103 152.173C28.328 152.776 27.873 153.489 27.5723 154.271C27.2717 155.053 27.1317 155.887 27.1603 156.723Z" fill="#E0E0E0"/>
<path d="M85.3312 156.885C90.6582 156.885 94.9766 156.833 94.9766 156.768C94.9766 156.703 90.6582 156.65 85.3312 156.65C80.0042 156.65 75.6859 156.703 75.6859 156.768C75.6859 156.833 80.0042 156.885 85.3312 156.885Z" fill="#E0E0E0"/>
<path d="M85.5459 159.322C90.5832 159.322 94.6667 159.269 94.6667 159.205C94.6667 159.139 90.5832 159.087 85.5459 159.087C80.5086 159.087 76.4251 159.139 76.4251 159.205C76.4251 159.269 80.5086 159.322 85.5459 159.322Z" fill="#E0E0E0"/>
<path d="M86.7678 161.558C91.2966 161.558 94.968 161.505 94.968 161.441C94.968 161.376 91.2966 161.323 86.7678 161.323C82.239 161.323 78.5676 161.376 78.5676 161.441C78.5676 161.505 82.239 161.558 86.7678 161.558Z" fill="#E0E0E0"/>
<path d="M85.5249 154.69C90.7395 154.69 94.9668 154.637 94.9668 154.573C94.9668 154.508 90.7395 154.455 85.5249 154.455C80.3102 154.455 76.0829 154.508 76.0829 154.573C76.0829 154.637 80.3102 154.69 85.5249 154.69Z" fill="#E0E0E0"/>
<path d="M86.2639 152.501C90.905 152.501 94.6674 152.447 94.6674 152.383C94.6674 152.317 90.905 152.265 86.2639 152.265C81.6228 152.265 77.8603 152.317 77.8603 152.383C77.8603 152.447 81.6228 152.501 86.2639 152.501Z" fill="#E0E0E0"/>
<path d="M34.7389 150.448C34.2561 150.956 33.8124 151.5 33.4114 152.074C32.4627 153.444 31.9636 155.072 31.9827 156.738C32.0019 158.403 32.5386 160.02 33.5185 161.366C33.9244 161.897 34.3681 162.397 34.8459 162.864C34.6826 162.773 34.5315 162.661 34.3964 162.532C34.0027 162.215 33.6439 161.856 33.3258 161.463C32.2853 160.107 31.7125 158.452 31.6931 156.744C31.6738 155.036 32.2091 153.368 33.2188 151.989C33.5327 151.57 33.8917 151.185 34.2893 150.844C34.4203 150.692 34.5716 150.559 34.7389 150.448Z" fill="#F5F5F5"/>
<path d="M32.6312 150.211C32.15 150.705 31.7063 151.234 31.3037 151.794C30.355 153.163 29.8557 154.793 29.8749 156.457C29.8942 158.122 30.4308 159.74 31.4107 161.086C31.8284 161.636 32.2863 162.155 32.7811 162.637C32.6176 162.546 32.4665 162.434 32.3314 162.306C31.9377 161.988 31.5789 161.629 31.2609 161.237C30.2203 159.88 29.6475 158.225 29.6283 156.517C29.6089 154.809 30.1442 153.141 31.1539 151.762C31.4676 151.343 31.8266 150.959 32.2243 150.617C32.3415 150.464 32.4783 150.328 32.6312 150.211Z" fill="#F5F5F5"/>
<path d="M75.1093 150.448C74.6265 150.956 74.1827 151.5 73.7819 152.074C72.8332 153.444 72.3339 155.072 72.3532 156.738C72.3723 158.403 72.909 160.02 73.8889 161.366C74.3065 161.917 74.7646 162.435 75.2592 162.917C75.0958 162.827 74.9447 162.715 74.8096 162.586C74.416 162.268 74.0571 161.91 73.7391 161.516C72.6985 160.161 72.1257 158.505 72.1064 156.798C72.0871 155.088 72.6224 153.42 73.632 152.042C73.9459 151.622 74.3049 151.239 74.7026 150.898C74.8167 150.73 74.9536 150.579 75.1093 150.448Z" fill="#F5F5F5"/>
<path d="M72.9987 150.211C72.5176 150.705 72.0739 151.234 71.6714 151.794C70.7227 153.163 70.2234 154.793 70.2425 156.457C70.2617 158.122 70.7985 159.74 71.7784 161.086C72.1959 161.636 72.654 162.155 73.1486 162.637C72.9853 162.546 72.8341 162.434 72.6991 162.306C72.3054 161.988 71.9465 161.629 71.6285 161.237C70.588 159.88 70.0152 158.225 69.9958 156.517C69.9765 154.809 70.5118 153.141 71.5215 151.762C71.8353 151.343 72.1943 150.959 72.5919 150.617C72.7092 150.466 72.846 150.329 72.9987 150.211Z" fill="#F5F5F5"/>
<path d="M41.8589 158.243L41.7946 153.837C41.8111 153.452 41.7567 153.068 41.6341 152.704C41.5713 152.523 41.4606 152.36 41.3137 152.236C41.1667 152.113 40.9889 152.03 40.7991 151.998C40.4472 151.93 40.0828 151.977 39.7593 152.131C39.4358 152.285 39.17 152.538 39.0006 152.853C38.6673 153.516 38.5158 154.253 38.5617 154.992C38.5537 156.157 38.6109 157.32 38.7329 158.478C38.7567 159.032 38.8952 159.574 39.1398 160.072C39.266 160.319 39.4592 160.527 39.6978 160.671C39.9362 160.815 40.2102 160.888 40.4887 160.885C40.7652 160.833 41.022 160.706 41.23 160.517C41.4381 160.329 41.5891 160.084 41.6662 159.815C41.8248 159.306 41.89 158.774 41.8589 158.243Z" fill="#F5F5F5"/>
<path d="M56.0436 157.1C61.6189 157.1 66.1386 157.047 66.1386 156.982C66.1386 156.918 61.6189 156.865 56.0436 156.865C50.4683 156.865 45.9486 156.918 45.9486 156.982C45.9486 157.047 50.4683 157.1 56.0436 157.1Z" fill="#F5F5F5"/>
<path d="M37.6721 150.013L37.5543 139.747H43.1532L43.3458 150.013H37.6721Z" fill="#F5F5F5"/>
<path d="M40.2195 141.693C41.6562 141.693 42.8209 141.64 42.8209 141.576C42.8209 141.511 41.6562 141.458 40.2195 141.458C38.7828 141.458 37.6182 141.511 37.6182 141.576C37.6182 141.64 38.7828 141.693 40.2195 141.693Z" fill="#E0E0E0"/>
<path d="M40.2195 143.278C41.6562 143.278 42.8209 143.225 42.8209 143.16C42.8209 143.096 41.6562 143.043 40.2195 143.043C38.7828 143.043 37.6182 143.096 37.6182 143.16C37.6182 143.225 38.7828 143.278 40.2195 143.278Z" fill="#E0E0E0"/>
<path d="M40.2195 144.86C41.6562 144.86 42.8209 144.807 42.8209 144.743C42.8209 144.678 41.6562 144.625 40.2195 144.625C38.7828 144.625 37.6182 144.678 37.6182 144.743C37.6182 144.807 38.7828 144.86 40.2195 144.86Z" fill="#E0E0E0"/>
<path d="M40.2195 146.44C41.6562 146.44 42.8209 146.387 42.8209 146.322C42.8209 146.258 41.6562 146.205 40.2195 146.205C38.7828 146.205 37.6182 146.258 37.6182 146.322C37.6182 146.387 38.7828 146.44 40.2195 146.44Z" fill="#E0E0E0"/>
<path d="M40.2195 148.032C41.6562 148.032 42.8209 147.979 42.8209 147.915C42.8209 147.849 41.6562 147.797 40.2195 147.797C38.7828 147.797 37.6182 147.849 37.6182 147.915C37.6182 147.979 38.7828 148.032 40.2195 148.032Z" fill="#E0E0E0"/>
<path d="M37.2554 139.469H99.3453C100.058 143.135 100.058 146.903 99.3453 150.568H37.523V149.809H41.2699C41.7439 149.809 42.1987 149.621 42.534 149.287C42.8693 148.951 43.0576 148.497 43.0576 148.024V141.875C43.052 141.404 42.8611 140.956 42.5265 140.625C42.1918 140.296 41.7403 140.11 41.2699 140.11H37.2554V139.469Z" fill="#EBEBEB"/>
<path d="M51.9755 145.027H53.0459H53.1529C53.1866 145.047 53.2144 145.075 53.2332 145.109C53.2521 145.143 53.2613 145.181 53.2601 145.22C53.263 145.241 53.263 145.263 53.2601 145.284L53.1851 145.552C53.0598 145.985 52.8363 146.383 52.5321 146.716C52.4261 146.851 52.2932 146.96 52.1421 147.04C51.9908 147.119 51.8247 147.165 51.6542 147.177H51.5258C51.377 147.15 51.2362 147.089 51.1139 147C50.9915 146.911 50.8909 146.797 50.8193 146.664C50.6015 146.286 50.4939 145.858 50.5088 145.423C50.5079 145.123 50.5476 144.825 50.6265 144.535C50.7358 144.095 50.9445 143.685 51.2368 143.338C51.347 143.193 51.4873 143.074 51.6481 142.99C51.809 142.904 51.9865 142.855 52.1681 142.846C52.305 142.842 52.4407 142.873 52.5641 142.931C52.8562 143.096 53.0716 143.368 53.1637 143.691C53.1723 143.726 53.1723 143.762 53.1637 143.797C53.1728 143.832 53.1728 143.869 53.1637 143.904C53.1443 143.938 53.1161 143.965 53.0821 143.985C53.0483 144.004 53.0098 144.013 52.971 144.012H52.8318C52.7992 144.001 52.7695 143.983 52.7453 143.958C52.721 143.935 52.703 143.904 52.6926 143.873C52.6608 143.785 52.6175 143.702 52.5641 143.626C52.5147 143.539 52.4435 143.465 52.3571 143.413C52.2709 143.36 52.1727 143.331 52.0717 143.327C51.9467 143.332 51.8264 143.376 51.7292 143.456C51.4688 143.668 51.2724 143.95 51.1618 144.268C51.0037 144.637 50.9201 145.033 50.9157 145.434C50.9075 145.75 50.9696 146.063 51.0975 146.353C51.136 146.466 51.2074 146.566 51.3028 146.638C51.3983 146.71 51.5132 146.753 51.6328 146.76C51.7327 146.747 51.8289 146.713 51.9154 146.661C52.0019 146.61 52.077 146.541 52.136 146.46C52.3776 146.179 52.5597 145.852 52.6713 145.498H51.9326C51.772 145.498 51.6863 145.39 51.6863 145.251C51.6821 145.227 51.6821 145.201 51.6863 145.177C51.706 145.119 51.747 145.071 51.8008 145.045C51.8547 145.017 51.9172 145.011 51.9755 145.027Z" fill="#FAFAFA"/>
<path d="M55.4446 143.006V143.081C55.4875 143.231 55.7301 144.511 56.1725 146.92C56.1756 146.937 56.1756 146.956 56.1725 146.974C56.1826 147.012 56.1826 147.053 56.1725 147.092C56.1564 147.126 56.1308 147.156 56.0986 147.176C56.0664 147.197 56.029 147.208 55.9907 147.208C55.9503 147.204 55.9126 147.186 55.882 147.161C55.8515 147.134 55.8297 147.099 55.8193 147.059L55.5731 145.787H54.2671L53.6569 147.069C53.6353 147.101 53.6067 147.128 53.5731 147.147C53.5397 147.164 53.5025 147.175 53.4641 147.177C53.4256 147.187 53.385 147.187 53.3464 147.177C53.3144 147.158 53.2877 147.131 53.2689 147.1C53.2501 147.068 53.2399 147.032 53.2394 146.995C53.2353 146.974 53.2353 146.951 53.2394 146.93L53.4321 146.513C54.3242 144.567 54.8558 143.42 55.0271 143.071C55.0436 143.026 55.0724 142.988 55.1105 142.958C55.1485 142.93 55.1939 142.913 55.2412 142.911C55.2805 142.908 55.3196 142.915 55.3551 142.933C55.3908 142.949 55.4215 142.975 55.4446 143.006ZM55.1664 143.862L54.4812 145.316H55.4554L55.1664 143.862Z" fill="#FAFAFA"/>
<path d="M58.9123 147.207H57.0388C57.0003 147.217 56.9596 147.217 56.921 147.207C56.856 147.145 56.8175 147.061 56.814 146.972C56.814 146.893 56.9853 145.617 57.3279 143.144C57.3259 143.115 57.3259 143.086 57.3279 143.057C57.3419 143.015 57.3694 142.979 57.4061 142.954C57.4429 142.929 57.4868 142.916 57.5313 142.918H57.6383C57.6748 142.936 57.7055 142.963 57.7264 142.997C57.7473 143.032 57.7577 143.071 57.7561 143.111C57.7561 143.283 57.7133 143.639 57.6276 144.18C57.4278 145.799 57.3279 146.647 57.3279 146.725H58.9123H59.03C59.0714 146.741 59.1069 146.769 59.1318 146.805C59.1567 146.841 59.1697 146.884 59.1692 146.929C59.173 146.953 59.173 146.979 59.1692 147.004C59.1568 147.062 59.1243 147.114 59.0773 147.151C59.0305 147.188 58.9721 147.208 58.9123 147.207Z" fill="#FAFAFA"/>
<path d="M61.4606 143.008V143.082C61.5034 143.232 61.746 144.512 62.1885 146.921C62.1915 146.939 62.1915 146.957 62.1885 146.975C62.1989 147.014 62.1989 147.054 62.1885 147.093C62.1724 147.127 62.1467 147.157 62.1145 147.177C62.0824 147.198 62.0449 147.21 62.0065 147.21C61.9664 147.205 61.9285 147.189 61.898 147.162C61.8674 147.135 61.8456 147.1 61.8353 147.06L61.6104 145.778H60.2937L59.6835 147.06C59.6619 147.092 59.6333 147.119 59.5999 147.136C59.5664 147.155 59.5291 147.165 59.4909 147.168C59.4523 147.178 59.4117 147.178 59.3731 147.168C59.343 147.148 59.3185 147.121 59.3016 147.088C59.2847 147.057 59.2762 147.022 59.2767 146.985C59.2727 146.964 59.2727 146.942 59.2767 146.921L59.4694 146.504C60.3616 144.558 60.8932 143.411 61.0645 143.061C61.0808 143.017 61.1098 142.977 61.1478 142.949C61.1859 142.921 61.2312 142.904 61.2786 142.901C61.3152 142.904 61.3507 142.914 61.3822 142.933C61.4139 142.952 61.4407 142.977 61.4606 143.008ZM61.1822 143.863L60.54 145.317H61.5141L61.1822 143.863Z" fill="#FAFAFA"/>
<path d="M69.1039 142.912H69.2109C69.2458 142.931 69.2751 142.958 69.2958 142.992C69.3165 143.026 69.3278 143.065 69.3286 143.104C69.0218 145.521 68.8541 146.826 68.8256 147.018C68.782 147.401 68.6461 147.768 68.4294 148.088C68.2282 148.372 67.9311 148.573 67.5928 148.656C67.2544 148.739 66.8978 148.697 66.5882 148.537C66.3076 148.426 66.0735 148.221 65.9244 147.96C65.9162 147.924 65.9162 147.887 65.9244 147.852C65.9158 147.817 65.9158 147.781 65.9244 147.746C65.9438 147.712 65.972 147.684 66.006 147.665C66.0398 147.646 66.0783 147.637 66.1172 147.638C66.1513 147.639 66.1847 147.649 66.2145 147.666C66.2443 147.683 66.2696 147.706 66.2884 147.735C66.3923 147.895 66.5329 148.028 66.6986 148.123C66.8644 148.218 67.0503 148.271 67.2411 148.28C67.3846 148.277 67.5255 148.242 67.6534 148.178C67.7812 148.113 67.8929 148.02 67.9798 147.906C68.2334 147.565 68.3755 147.155 68.3867 146.729C68.2849 146.887 68.1454 147.016 67.9808 147.106C67.8164 147.196 67.632 147.242 67.4446 147.243H67.3161C67.1671 147.217 67.0259 147.157 66.9035 147.068C66.7811 146.979 66.6805 146.864 66.6096 146.729C66.3912 146.353 66.2836 145.923 66.2991 145.489C66.2991 145.261 66.2991 145.026 66.2991 144.783C66.2991 144.406 66.3848 143.867 66.5561 143.169V143.104C66.5681 143.06 66.5947 143.021 66.6317 142.995C66.6686 142.968 66.7135 142.954 66.7595 142.955C66.7945 142.946 66.8314 142.946 66.8665 142.955C66.9001 142.971 66.9282 142.998 66.9472 143.03C66.9661 143.062 66.9753 143.1 66.9736 143.137C66.9529 143.423 66.9172 143.71 66.8665 143.992C66.7923 144.424 66.7422 144.859 66.7166 145.297C66.7056 145.643 66.7638 145.989 66.8878 146.312C67.0164 146.62 67.2019 146.773 67.4446 146.773H67.5195C67.7512 146.691 67.9477 146.532 68.0762 146.323C68.3032 146.003 68.46 145.638 68.5364 145.254L68.8256 143.115C68.82 143.083 68.82 143.051 68.8256 143.019C68.836 142.993 68.8516 142.97 68.8715 142.95C68.8915 142.93 68.9152 142.915 68.9414 142.905C68.9675 142.895 68.9954 142.891 69.0234 142.892C69.0513 142.893 69.0787 142.9 69.1039 142.912Z" fill="#FAFAFA"/>
<path d="M96.9686 150.718C97.0336 150.718 97.0863 148.165 97.0863 145.018C97.0863 141.87 97.0336 139.318 96.9686 139.318C96.9035 139.318 96.8508 141.87 96.8508 145.018C96.8508 148.165 96.9035 150.718 96.9686 150.718Z" fill="#F5F5F5"/>
<path d="M46.1942 150.718C46.2592 150.718 46.3119 148.165 46.3119 145.018C46.3119 141.87 46.2592 139.318 46.1942 139.318C46.1291 139.318 46.0764 141.87 46.0764 145.018C46.0764 148.165 46.1291 150.718 46.1942 150.718Z" fill="#E0E0E0"/>
<path d="M98.0614 150.718C98.1265 150.718 98.1792 148.165 98.1792 145.018C98.1792 141.87 98.1265 139.318 98.0614 139.318C97.9965 139.318 97.9437 141.87 97.9437 145.018C97.9437 148.165 97.9965 150.718 98.0614 150.718Z" fill="#F5F5F5"/>
<path d="M45.1765 150.718C45.2416 150.718 45.2943 148.165 45.2943 145.018C45.2943 141.87 45.2416 139.318 45.1765 139.318C45.1114 139.318 45.0588 141.87 45.0588 145.018C45.0588 148.165 45.1114 150.718 45.1765 150.718Z" fill="#E0E0E0"/>
<path d="M81.9512 141.202L88.5134 146.485H88.5669H88.4919L87.6249 146.709L82.0903 148.164L77.0696 146.026L75.6458 145.416L75.2711 145.256L75.6458 145.405L77.0696 145.993L82.1011 148.132L87.5714 146.731L88.4492 146.506V146.57L81.9083 141.224" fill="#E0E0E0"/>
<path d="M87.8818 145.647L88.2458 145.979L88.7168 145.872L88.5134 146.322L88.7596 146.749L88.2672 146.685L87.946 147.048L87.8497 146.567L87.4001 146.364L87.839 146.129L87.8818 145.647Z" fill="#E0E0E0"/>
<path d="M81.597 147.724L81.8325 147.927L82.143 147.842L82.0252 148.141L82.1965 148.408L81.886 148.387L81.6826 148.633L81.6077 148.323L81.3079 148.215L81.5756 148.045L81.597 147.724Z" fill="#E0E0E0"/>
<path d="M74.6385 144.882L75.0347 144.903L75.2702 144.604L75.3666 144.977L75.7412 145.106L75.4093 145.32L75.3986 145.704L75.0882 145.459L74.7136 145.565L74.8634 145.202L74.6385 144.882Z" fill="#E0E0E0"/>
<path d="M90.8249 141.284L91.2103 141.306L91.4564 141.006L91.5528 141.381L91.9168 141.509L91.5849 141.723L91.5742 142.107L91.2745 141.862L90.8998 141.968L91.039 141.605L90.8249 141.284Z" fill="#E0E0E0"/>
<path d="M81.6069 141.029L81.853 141.051L82.0137 140.848L82.0779 141.093L82.3027 141.178L82.0993 141.307L82.0886 141.553L81.8959 141.404L81.6604 141.468L81.746 141.232L81.6069 141.029Z" fill="#E0E0E0"/>
<path d="M91.3009 141.156C91.3019 141.133 89.1794 141.029 86.5603 140.924C83.9411 140.82 81.8172 140.753 81.8162 140.778C81.8153 140.801 83.9377 140.905 86.5569 141.009C89.1761 141.114 91.3 141.179 91.3009 141.156Z" fill="#E0E0E0"/>
<path d="M93.7239 139.372H30.8204C29.9961 137.501 29.7499 135.726 30.8204 134.143H93.7239C94.1145 134.959 94.3173 135.853 94.3173 136.757C94.3173 137.662 94.1145 138.556 93.7239 139.372Z" fill="#E0E0E0"/>
<path d="M77.9454 135.641H43.8495V137.544H77.9454V135.641Z" fill="#EBEBEB"/>
<path d="M33.2395 139.403C33.0311 139.231 32.8628 139.016 32.7471 138.772C32.4262 138.201 32.2307 137.567 32.1735 136.914C32.1162 136.263 32.1987 135.605 32.4152 134.987C32.4868 134.726 32.6147 134.486 32.79 134.281C32.732 134.538 32.6569 134.792 32.5651 135.039C32.2293 136.261 32.3432 137.563 32.8862 138.708C33.019 138.932 33.137 139.163 33.2395 139.403Z" fill="#E0E0E0"/>
<path d="M34.5995 139.402C34.391 139.23 34.2229 139.015 34.107 138.771C33.7831 138.196 33.5859 137.559 33.5286 136.903C33.4714 136.246 33.5554 135.585 33.7752 134.963C33.8468 134.704 33.9748 134.463 34.1499 134.258C34.0918 134.516 34.0167 134.769 33.925 135.017C33.5893 136.239 33.7033 137.541 34.2463 138.685C34.3798 138.916 34.4978 139.155 34.5995 139.402Z" fill="#E0E0E0"/>
<path d="M91.2082 139.243C91.7791 137.584 91.7791 135.781 91.2082 134.121C91.6374 134.906 91.8622 135.787 91.8622 136.682C91.8622 137.577 91.6374 138.458 91.2082 139.243Z" fill="#F5F5F5"/>
<path d="M90.0304 139.243C89.9661 139.243 90.2231 138.174 90.2231 136.741C90.2231 135.308 89.9555 134.25 90.0304 134.238C90.5932 135.863 90.5932 137.63 90.0304 139.253V139.243Z" fill="#F5F5F5"/>
<path d="M145.799 61.4141L123.394 61.5352L123.522 85.274L145.928 85.1528L145.799 61.4141Z" fill="#EBEBEB"/>
<path d="M168.279 60.627L145.873 60.8508L146.111 84.5899L168.516 84.3662L168.279 60.627Z" fill="#F5F5F5"/>
<path d="M123.422 68.1096C138.308 68.2309 153.21 68.1631 168.126 67.9065C168.188 67.9065 168.249 67.8817 168.293 67.8377C168.336 67.7935 168.362 67.7337 168.362 67.6713C168.362 67.6088 168.336 67.549 168.293 67.505C168.249 67.4608 168.188 67.436 168.126 67.436C153.235 67.3505 138.312 67.436 123.422 67.7141C123.368 67.7141 123.315 67.7355 123.278 67.7735C123.239 67.8116 123.218 67.8634 123.218 67.9172C123.218 67.9711 123.239 68.0227 123.278 68.0609C123.315 68.099 123.368 68.1204 123.422 68.1204V68.1096Z" fill="#E0E0E0"/>
<path d="M150.134 84.7666L109.423 84.9867L109.528 104.331L150.238 104.111L150.134 84.7666Z" fill="#EBEBEB"/>
<path d="M190.65 84.5479L149.939 84.7679L150.043 104.112L190.755 103.892L190.65 84.5479Z" fill="#F5F5F5"/>
<path d="M109.451 90.3709C136.492 90.681 163.63 90.3709 190.681 89.9752C190.744 89.9752 190.804 89.9505 190.848 89.9063C190.893 89.8623 190.917 89.8023 190.917 89.74C190.917 89.6776 190.893 89.6178 190.848 89.5736C190.804 89.5296 190.744 89.5047 190.681 89.5047C163.64 89.3658 136.492 89.3764 109.451 89.9752C109.397 89.9752 109.345 89.9966 109.307 90.0347C109.269 90.0729 109.247 90.1245 109.247 90.1784C109.247 90.2323 109.269 90.284 109.307 90.3221C109.345 90.3602 109.397 90.3816 109.451 90.3816V90.3709Z" fill="#E0E0E0"/>
<path d="M113.388 194.283L72.6763 194.503L72.7811 213.847L113.492 213.627L113.388 194.283Z" fill="#EBEBEB"/>
<path d="M153.903 194.064L113.192 194.284L113.297 213.628L154.008 213.408L153.903 194.064Z" fill="#F5F5F5"/>
<path d="M72.6995 199.892C99.7407 200.202 126.879 199.892 153.93 199.496C153.993 199.496 154.053 199.471 154.097 199.427C154.141 199.384 154.166 199.323 154.166 199.261C154.166 199.199 154.141 199.138 154.097 199.095C154.053 199.051 153.993 199.026 153.93 199.026C126.889 198.887 99.7407 198.898 72.6995 199.496C72.6456 199.496 72.5938 199.518 72.5556 199.556C72.5175 199.594 72.496 199.645 72.496 199.699C72.496 199.753 72.5175 199.805 72.5556 199.843C72.5938 199.881 72.6456 199.902 72.6995 199.902V199.892Z" fill="#E0E0E0"/>
<path d="M58.736 53.3525L48.4699 53.408L48.7464 104.446L59.0125 104.391L58.736 53.3525Z" fill="#E0E0E0"/>
<path d="M68.7595 34.3193L58.4933 34.3748L58.8736 104.575L69.1397 104.52L68.7595 34.3193Z" fill="#EBEBEB"/>
<path d="M84.8133 47.3848L68.8522 47.471L69.1604 104.358L85.1215 104.272L84.8133 47.3848Z" fill="#F5F5F5"/>
<path d="M76.7272 58.6235C81.1318 58.6235 84.7026 58.4989 84.7026 58.3454C84.7026 58.1919 81.1318 58.0674 76.7272 58.0674C72.3225 58.0674 68.7519 58.1919 68.7519 58.3454C68.7519 58.4989 72.3225 58.6235 76.7272 58.6235Z" fill="#E0E0E0"/>
<path d="M76.7272 56.2367C81.1318 56.2367 84.7026 56.1123 84.7026 55.9587C84.7026 55.8052 81.1318 55.6807 76.7272 55.6807C72.3225 55.6807 68.7519 55.8052 68.7519 55.9587C68.7519 56.1123 72.3225 56.2367 76.7272 56.2367Z" fill="#E0E0E0"/>
<path d="M76.7272 95.9975C81.1318 95.9975 84.7026 95.8729 84.7026 95.7194C84.7026 95.5659 81.1318 95.4414 76.7272 95.4414C72.3225 95.4414 68.7519 95.5659 68.7519 95.7194C68.7519 95.8729 72.3225 95.9975 76.7272 95.9975Z" fill="#E0E0E0"/>
<path d="M76.7272 93.602C81.1318 93.602 84.7026 93.4774 84.7026 93.3239C84.7026 93.1704 81.1318 93.0459 76.7272 93.0459C72.3225 93.0459 68.7519 93.1704 68.7519 93.3239C68.7519 93.4774 72.3225 93.602 76.7272 93.602Z" fill="#E0E0E0"/>
<path d="M76.9841 88.1133C77.1378 88.1133 77.2625 82.373 77.2625 75.2921C77.2625 68.211 77.1378 62.4707 76.9841 62.4707C76.8304 62.4707 76.7058 68.211 76.7058 75.2921C76.7058 82.373 76.8304 88.1133 76.9841 88.1133Z" fill="#E0E0E0"/>
<path d="M102.236 61.3623H84.872V104.307H102.236V61.3623Z" fill="#EBEBEB"/>
<path d="M63.4742 49.2582C65.106 49.2582 66.4287 47.9368 66.4287 46.3068C66.4287 44.6768 65.106 43.3555 63.4742 43.3555C61.8423 43.3555 60.5195 44.6768 60.5195 46.3068C60.5195 47.9368 61.8423 49.2582 63.4742 49.2582Z" fill="#E0E0E0"/>
<path d="M64.3838 54.4121H62.5639V96.1695H64.3838V54.4121Z" fill="#E0E0E0"/>
<path d="M200.659 163.185H19.8598V169.364H200.659V163.185Z" fill="#E0E0E0"/>
<path d="M200.659 104.572H19.8598V110.753H200.659V104.572Z" fill="#E0E0E0"/>
<path d="M200.66 213.889H56.7616V219.717H200.66V213.889Z" fill="#E0E0E0"/>
<path d="M110.255 109.547H103.361V167.846H110.255V109.547Z" fill="#E0E0E0"/>
<path d="M63.6876 163.185H56.7935V219.699H63.6876V163.185Z" fill="#E0E0E0"/>
<path d="M144.779 136.674L140.496 142.758C140.496 142.758 150.035 145.399 150.035 153.869C150.035 162.337 144.211 163.92 137.853 163.92C131.494 163.92 125.403 162.07 125.671 153.601C125.938 145.132 133.881 141.956 133.881 141.956L129.909 136.663L144.779 136.674Z" fill="#F5F5F5"/>
<path d="M432.223 354.532H240.836V442.698H432.223V354.532Z" fill="#F5F5F5"/>
<path d="M427.664 438.549H245.215V359.172H427.664V438.549ZM246.403 437.362H426.475V360.37H246.403V437.362Z" fill="#E0E0E0"/>
<path d="M478.982 354.532H432.222V442.698H478.982V354.532Z" fill="#E0E0E0"/>
<path d="M245.803 383.735H427.074C427.138 383.735 427.199 383.71 427.244 383.664C427.289 383.62 427.314 383.558 427.314 383.495C427.314 383.43 427.289 383.37 427.244 383.324C427.199 383.278 427.138 383.254 427.074 383.254H245.803C245.739 383.254 245.678 383.278 245.633 383.324C245.588 383.37 245.562 383.43 245.562 383.495C245.562 383.558 245.588 383.62 245.633 383.664C245.678 383.71 245.739 383.735 245.803 383.735Z" fill="#E0E0E0"/>
<path d="M337.034 383.499C337.539 375.524 337.561 367.525 337.098 359.546C337.098 359.481 337.072 359.419 337.027 359.372C336.98 359.326 336.918 359.301 336.853 359.301C336.787 359.301 336.724 359.326 336.679 359.372C336.632 359.419 336.606 359.481 336.606 359.546C336.145 367.525 336.166 375.524 336.671 383.499C336.671 383.547 336.689 383.594 336.724 383.628C336.758 383.662 336.804 383.682 336.853 383.682C336.901 383.682 336.947 383.662 336.981 383.628C337.015 383.594 337.034 383.547 337.034 383.499Z" fill="#E0E0E0"/>
<path d="M383.355 373.992C384.721 373.992 385.828 372.887 385.828 371.523C385.828 370.158 384.721 369.052 383.355 369.052C381.99 369.052 380.882 370.158 380.882 371.523C380.882 372.887 381.99 373.992 383.355 373.992Z" fill="#E0E0E0"/>
<path d="M288.229 373.992C289.595 373.992 290.702 372.887 290.702 371.523C290.702 370.158 289.595 369.052 288.229 369.052C286.863 369.052 285.756 370.158 285.756 371.523C285.756 372.887 286.863 373.992 288.229 373.992Z" fill="#E0E0E0"/>
<path d="M336.444 401.337C337.81 401.337 338.917 400.231 338.917 398.866C338.917 397.502 337.81 396.396 336.444 396.396C335.078 396.396 333.971 397.502 333.971 398.866C333.971 400.231 335.078 401.337 336.444 401.337Z" fill="#E0E0E0"/>
<path d="M263.714 442.71L253.866 498.059H259.4L277.577 442.71H263.714Z" fill="#E0E0E0"/>
<path d="M418.681 442.71L426.924 498.155H421.379L404.828 442.71H418.681Z" fill="#E0E0E0"/>
<path d="M455.679 442.71L465.013 498.155H459.468L441.826 442.71H455.679Z" fill="#E0E0E0"/>
<path d="M336.272 426.284C337.638 426.284 338.745 425.178 338.745 423.815C338.745 422.45 337.638 421.344 336.272 421.344C334.907 421.344 333.799 422.45 333.799 423.815C333.799 425.178 334.907 426.284 336.272 426.284Z" fill="#E0E0E0"/>
<path d="M245.803 411.047H427.074C427.138 411.047 427.199 411.021 427.244 410.975C427.289 410.931 427.314 410.869 427.314 410.806C427.314 410.742 427.289 410.681 427.244 410.636C427.199 410.59 427.138 410.565 427.074 410.565H245.803C245.739 410.565 245.678 410.59 245.633 410.636C245.588 410.681 245.562 410.742 245.562 410.806C245.562 410.869 245.588 410.931 245.633 410.975C245.678 411.021 245.739 411.047 245.803 411.047Z" fill="#E0E0E0"/>
<path d="M374.442 324.594L374.38 312.831L316.508 313.135L316.57 324.896L374.442 324.594Z" fill="#E0E0E0"/>
<path d="M381.396 354.281L381.3 335.996L316.803 336.333L316.898 354.619L381.396 354.281Z" fill="#F5F5F5"/>
<path d="M368.988 354.166C369.159 354.166 369.298 350.072 369.298 345.023C369.298 339.974 369.159 335.881 368.988 335.881C368.817 335.881 368.678 339.974 368.678 345.023C368.678 350.072 368.817 354.166 368.988 354.166Z" fill="#E0E0E0"/>
<path d="M371.696 354.166C371.868 354.166 372.007 350.072 372.007 345.023C372.007 339.974 371.868 335.881 371.696 335.881C371.525 335.881 371.386 339.974 371.386 345.023C371.386 350.072 371.525 354.166 371.696 354.166Z" fill="#E0E0E0"/>
<path d="M326.617 354.166C326.789 354.166 326.928 350.072 326.928 345.023C326.928 339.974 326.789 335.881 326.617 335.881C326.445 335.881 326.306 339.974 326.306 345.023C326.306 350.072 326.445 354.166 326.617 354.166Z" fill="#E0E0E0"/>
<path d="M329.325 354.166C329.496 354.166 329.636 350.072 329.636 345.023C329.636 339.974 329.496 335.881 329.325 335.881C329.154 335.881 329.015 339.974 329.015 345.023C329.015 350.072 329.154 354.166 329.325 354.166Z" fill="#E0E0E0"/>
<path d="M349.772 345.632C357.801 345.632 364.31 345.488 364.31 345.31C364.31 345.134 357.801 344.99 349.772 344.99C341.743 344.99 335.235 345.134 335.235 345.31C335.235 345.488 341.743 345.632 349.772 345.632Z" fill="#E0E0E0"/>
<path d="M405.613 335.888L405.551 324.125L325.971 324.542L326.033 336.304L405.613 335.888Z" fill="#EBEBEB"/>
<path d="M394.23 334.437C396.305 334.437 397.987 332.732 397.987 330.63C397.987 328.528 396.305 326.823 394.23 326.823C392.154 326.823 390.472 328.528 390.472 330.63C390.472 332.732 392.154 334.437 394.23 334.437Z" fill="#E0E0E0"/>
<path d="M383.889 331.817V329.466H330.61V331.817H383.889Z" fill="#E0E0E0"/>
<path d="M434.244 153.647H343.561V248.069H434.244V153.647Z" fill="#E0E0E0"/>
<path d="M428.111 153.647H337.428V248.069H428.111V153.647Z" fill="#FAFAFA"/>
<path d="M428.132 248.099H337.396V153.624H428.132V248.099ZM337.449 248.046H428.068V153.678H337.449V248.046Z" fill="#E0E0E0"/>
<path d="M415.907 166.338H349.61V235.374H415.907V166.338Z" fill="white"/>
<path d="M349.577 235.833C349.107 236.529 348.557 237.168 347.939 237.737C346.869 238.806 345.391 240.367 343.722 242.014C342.051 243.661 340.511 245.115 339.439 246.152C338.866 246.757 338.223 247.292 337.523 247.745C337.988 247.053 338.535 246.417 339.151 245.853C340.221 244.784 341.699 243.222 343.379 241.576C345.06 239.929 346.591 238.464 347.715 237.426C348.27 236.824 348.896 236.289 349.577 235.833Z" fill="#E0E0E0"/>
<path d="M415.95 235.665C416.646 236.135 417.285 236.684 417.855 237.301C418.925 238.371 420.488 239.846 422.137 241.514C423.785 243.183 425.242 244.722 426.28 245.791C426.886 246.365 427.421 247.007 427.875 247.706C427.181 247.24 426.546 246.694 425.98 246.08C424.91 245.011 423.347 243.535 421.699 241.857C420.049 240.178 418.583 238.649 417.544 237.525C416.942 236.97 416.405 236.346 415.95 235.665Z" fill="#E0E0E0"/>
<path d="M415.735 166.523C416.206 165.826 416.755 165.187 417.373 164.62C418.444 163.55 419.921 161.989 421.591 160.342C423.261 158.696 424.803 157.241 425.873 156.204C426.446 155.599 427.089 155.064 427.789 154.61C427.324 155.303 426.777 155.939 426.161 156.503C425.091 157.572 423.614 159.134 421.933 160.78C420.252 162.427 418.722 163.892 417.598 164.929C417.042 165.532 416.417 166.067 415.735 166.523Z" fill="#E0E0E0"/>
<path d="M349.429 166.692C348.731 166.223 348.092 165.674 347.522 165.056C346.452 163.987 344.889 162.511 343.241 160.843C341.592 159.175 340.137 157.635 339.098 156.566C338.492 155.992 337.957 155.35 337.502 154.651C338.196 155.116 338.833 155.662 339.397 156.276C340.468 157.346 342.032 158.822 343.68 160.501C345.328 162.179 346.794 163.709 347.833 164.831C348.437 165.386 348.972 166.011 349.429 166.692Z" fill="#E0E0E0"/>
<path d="M415.736 235.374C415.731 235.263 415.731 235.152 415.736 235.043V234.08C415.736 233.214 415.736 231.941 415.736 230.349C415.736 227.076 415.736 222.317 415.672 216.276C415.672 204.182 415.597 186.965 415.543 166.338L415.8 166.595H349.686L349.974 166.305C349.974 191.649 349.974 215.345 349.974 235.342L349.717 235.086L397.591 235.213L411.037 235.277H414.591H414.645H411.133L397.645 235.481L349.611 235.609H349.354V235.352C349.354 215.356 349.354 191.659 349.354 166.317V166.027H349.578H415.694H415.951V166.284C415.897 186.976 415.854 204.256 415.822 216.382C415.822 222.402 415.822 227.139 415.758 230.391C415.758 231.984 415.758 233.214 415.758 234.069C415.758 234.465 415.758 234.775 415.758 235.01C415.761 235.131 415.754 235.254 415.736 235.374Z" fill="#E0E0E0"/>
<path d="M393.833 189.812H371.706V211.915H393.833V189.812Z" fill="#EBEBEB"/>
<path d="M169.478 443.085H104.572V451.992H169.478V443.085Z" fill="#4E36D7"/>
<path d="M169.592 452.108H104.431V442.934H169.561L169.592 452.108ZM104.687 451.883H169.368V443.2H104.687V451.883Z" fill="#4E36D7"/>
<path d="M110.587 449.025L119.932 495.06H154.499L163.534 451.988L110.587 449.025Z" fill="#4E36D7"/>
<path d="M110.587 490.707L115.575 497.55H157.593L163.534 490.707H110.587Z" fill="#455A64"/>
<path d="M134.588 450.417C134.459 450.417 134.298 429.084 134.223 402.778C134.148 376.472 134.223 355.139 134.32 355.139C134.416 355.139 134.609 376.461 134.683 402.778C134.758 429.094 134.716 450.417 134.588 450.417Z" fill="#4E36D7"/>
<path d="M149.049 396.952C149.011 397.123 148.953 397.287 148.877 397.444L148.299 398.824L147.872 399.818L147.443 401.027L146.94 402.417C146.769 402.909 146.63 403.486 146.458 403.999C145.685 406.603 145.077 409.254 144.638 411.933C144.132 415.222 143.796 418.534 143.632 421.858C143.39 427.922 143.562 433.995 144.146 440.036C144.36 442.346 144.563 444.217 144.724 445.511L144.884 446.997C144.905 447.171 144.905 447.347 144.884 447.521C144.825 447.355 144.786 447.183 144.766 447.008L144.521 445.532C144.306 444.249 144.049 442.377 143.804 440.068C143.123 434.034 142.904 427.957 143.151 421.889C143.322 418.547 143.68 415.216 144.221 411.912C144.681 409.216 145.325 406.555 146.147 403.946C146.329 403.39 146.479 402.876 146.661 402.363L147.196 400.973L147.668 399.776C147.828 399.412 147.989 399.091 148.129 398.792L148.792 397.444C148.856 397.27 148.943 397.105 149.049 396.952Z" fill="#4E36D7"/>
<path d="M147.389 379.744C147.341 379.985 147.273 380.221 147.186 380.45L146.512 382.428L146.019 383.861L145.494 385.583C145.12 386.812 144.671 388.223 144.285 389.796L143.632 392.265L143.022 394.96C142.572 396.821 142.241 398.832 141.822 400.938C141.105 405.215 140.474 409.856 140.046 414.839C139.618 419.822 139.457 424.464 139.393 428.805C139.328 433.146 139.393 436.974 139.606 440.225C139.66 441.85 139.768 443.315 139.853 444.61C139.938 445.903 140.014 447.005 140.089 447.914L140.249 450.053C140.27 450.294 140.27 450.537 140.249 450.779C140.189 450.541 140.15 450.298 140.131 450.053L139.886 447.967C139.778 447.058 139.671 445.957 139.564 444.664C139.457 443.369 139.328 441.904 139.253 440.279C139.04 437.071 138.943 433.146 138.932 428.836C138.922 424.528 139.136 419.791 139.554 414.839C139.971 409.888 140.624 405.215 141.373 400.938C141.801 398.799 142.144 396.811 142.614 394.95L143.246 392.255L143.932 389.785C144.339 388.213 144.81 386.812 145.216 385.583L145.773 383.872L146.308 382.45L147.068 380.493C147.151 380.234 147.259 379.982 147.389 379.744Z" fill="#4E36D7"/>
<path d="M130.487 454.141C130.478 454.059 130.478 453.976 130.487 453.894L130.423 453.157L130.23 450.333L129.577 439.94C129.011 431.171 128.196 419.055 126.72 405.721C125.959 399.059 125.092 392.728 124.182 386.997C123.7 384.131 123.262 381.405 122.758 378.871C122.255 376.336 121.805 373.972 121.356 371.823C120.907 369.674 120.457 367.739 120.071 366.038C119.686 364.338 119.333 362.83 119.001 361.686L118.348 358.949L118.187 358.232C118.178 358.15 118.178 358.068 118.187 357.986C118.225 358.061 118.255 358.139 118.272 358.221L118.477 358.927L119.236 361.653C119.568 362.84 119.953 364.295 120.307 365.996C120.66 367.695 121.216 369.621 121.655 371.77C122.095 373.919 122.64 376.271 123.111 378.817C123.583 381.361 124.075 384.077 124.578 386.943C125.509 392.686 126.398 399.017 127.158 405.688C128.636 419.024 129.396 431.16 129.877 439.908C130.112 444.303 130.284 447.853 130.381 450.312L130.487 453.146V453.884C130.498 453.969 130.498 454.055 130.487 454.141Z" fill="#4E36D7"/>
<path d="M134.061 365.35C133.783 362.324 130.721 360.003 127.638 360.003C126.116 360.071 124.629 360.483 123.29 361.209C121.951 361.935 120.794 362.956 119.909 364.194C118.165 366.689 116.908 369.49 116.205 372.45C113.992 379.544 113.213 387.006 113.914 394.404C114.792 401.761 117.778 409.001 123.056 414.197C123.912 415.041 125.026 415.886 126.203 415.641C126.841 415.436 127.414 415.067 127.863 414.572C133.036 409.841 137.138 404.059 139.89 397.615C142.644 391.171 143.985 384.213 143.825 377.209C143.738 374.407 143.375 371.498 141.822 369.168C140.27 366.836 136.662 364.366 134.019 365.296" fill="#455A64"/>
<path d="M134.318 355.098L95.7791 332.352C95.3541 332.169 95.0166 331.828 94.837 331.401C94.6871 330.834 95.1153 330.331 95.5222 329.861C98.1743 327.111 101.389 324.963 104.947 323.567C108.505 322.17 112.323 321.556 116.14 321.766C119.957 322.038 123.65 323.236 126.898 325.253C130.147 327.271 132.856 330.049 134.789 333.347C138.514 339.998 138.632 348.788 134.361 355.098" fill="#455A64"/>
<path d="M101.293 325.092C101.458 325.052 101.627 325.031 101.796 325.029C102.128 325.029 102.621 324.953 103.252 324.953C105.046 324.931 106.838 325.074 108.605 325.382C114.489 326.374 119.967 329.026 124.393 333.026C128.818 337.025 132.006 342.206 133.579 347.956C134.061 349.682 134.38 351.451 134.533 353.237C134.574 353.611 134.595 353.986 134.597 354.361C134.567 354.663 134.464 354.952 134.297 355.206C134.416 354.563 134.438 353.908 134.361 353.26C134.146 351.498 133.789 349.756 133.291 348.052C131.674 342.392 128.5 337.297 124.131 333.346C119.763 329.396 114.372 326.748 108.573 325.702C106.825 325.37 105.052 325.181 103.274 325.136C101.989 325.104 101.293 325.125 101.293 325.092Z" fill="#4E36D7"/>
<path d="M129.05 339.4C128.437 339.77 127.783 340.067 127.102 340.287C125.87 340.768 124.158 341.357 122.231 341.999C120.304 342.64 118.548 343.067 117.264 343.41C116.568 343.625 115.849 343.758 115.123 343.806C115.767 343.499 116.442 343.259 117.136 343.09L122.049 341.56L126.952 339.978C127.63 339.712 128.333 339.52 129.05 339.4Z" fill="#4E36D7"/>
<path d="M123.014 323.091C123.548 325.933 123.62 328.843 123.228 331.709C123.004 328.842 122.931 325.965 123.014 323.091Z" fill="#4E36D7"/>
<path d="M95.3928 331.916C96.2978 331.508 97.2361 331.179 98.1975 330.932C99.9533 330.397 102.394 329.713 105.113 329.05C107.832 328.387 110.327 327.895 112.125 327.574C113.093 327.359 114.078 327.225 115.069 327.179C114.127 327.486 113.165 327.725 112.189 327.895C110.401 328.291 107.907 328.847 105.22 329.499C102.533 330.151 100.06 330.782 98.2832 331.242C97.337 331.535 96.3711 331.76 95.3928 331.916Z" fill="#4E36D7"/>
<path d="M118.036 358.787C114.718 356.274 111.206 355.782 107.042 355.942C102.873 356.219 98.7923 357.271 95.0095 359.043C88.5007 361.887 82.3881 366.09 78.5021 372.025C74.6161 377.96 73.2565 385.83 76.1683 392.342C76.3954 393.017 76.8645 393.585 77.485 393.935C78.1967 394.13 78.9545 394.071 79.626 393.765C87.0234 391.348 94.4848 388.92 101.283 385.146C108.08 381.371 114.279 376.12 117.929 369.255C118.869 367.636 119.467 365.842 119.685 363.983C119.786 363.053 119.687 362.112 119.393 361.223C119.099 360.334 118.618 359.517 117.982 358.829" fill="#455A64"/>
<path d="M118.111 358.018C117.94 358.108 117.761 358.18 117.576 358.231L116.023 358.766L114.953 359.14C114.546 359.29 114.107 359.472 113.636 359.654C112.705 360.028 111.613 360.414 110.424 360.969L108.605 361.792C107.973 362.081 107.352 362.445 106.678 362.776C105.339 363.439 103.98 364.273 102.535 365.129C96.3388 368.969 90.8283 373.815 86.2308 379.469C85.1603 380.794 84.1968 382.035 83.3725 383.276C82.955 383.895 82.5161 384.473 82.1521 385.05L81.0817 386.74C80.3857 387.81 79.872 388.879 79.3796 389.713C79.144 390.151 78.8978 390.568 78.705 390.943L78.1912 392.012L77.4633 393.477C77.3887 393.653 77.2953 393.822 77.1849 393.979C77.2298 393.794 77.2944 393.616 77.3777 393.445L78.0306 391.937L78.5124 390.868C78.6944 390.472 78.9192 390.065 79.1547 389.605C79.6257 388.708 80.1289 387.671 80.8033 386.59L81.8738 384.868C82.2377 384.27 82.666 383.693 83.0835 383.062C83.8971 381.799 84.9034 380.548 85.9311 379.201C90.5064 373.477 96.0409 368.589 102.289 364.755C103.744 363.91 105.125 363.076 106.485 362.423C107.159 362.092 107.791 361.74 108.433 361.462L110.275 360.659C111.431 360.124 112.533 359.761 113.486 359.408C113.968 359.237 114.407 359.065 114.814 358.926L115.948 358.595L117.533 358.146C117.72 358.082 117.914 358.039 118.111 358.018Z" fill="#4E36D7"/>
<path d="M84.1223 374.629C88.6167 373.316 92.2305 372.152 92.1939 372.027C92.1575 371.902 88.4845 372.865 83.9902 374.178C79.4958 375.49 75.882 376.656 75.9186 376.781C75.955 376.905 79.628 375.942 84.1223 374.629Z" fill="#4E36D7"/>
<path d="M91.8416 389.828C91.6991 388.998 91.6381 388.156 91.6596 387.315C91.6596 385.765 91.6596 383.615 91.6596 381.241C91.6596 378.867 91.8523 376.728 91.9807 375.178C92.0057 374.336 92.1133 373.497 92.302 372.676C92.3753 373.512 92.3753 374.352 92.302 375.189L92.12 381.252L91.9915 387.325C92.0145 388.163 91.9644 388.999 91.8416 389.828Z" fill="#4E36D7"/>
<path d="M107.136 382.06C107.266 382.051 107.069 377.674 106.695 372.283C106.321 366.892 105.913 362.529 105.784 362.538C105.654 362.547 105.852 366.925 106.225 372.315C106.599 377.706 107.007 382.07 107.136 382.06Z" fill="#4E36D7"/>
<path d="M88.1143 362.122C88.9737 362.019 89.8409 361.995 90.7049 362.047C92.3 362.047 94.5053 362.101 96.9353 362.186C99.3654 362.272 101.571 362.369 103.166 362.464C104.031 362.469 104.895 362.551 105.746 362.711C104.89 362.813 104.026 362.838 103.166 362.786C101.571 362.786 99.3654 362.732 96.9353 362.647C94.5053 362.56 92.3 362.464 90.7049 362.369C89.8356 362.365 88.9685 362.282 88.1143 362.122Z" fill="#4E36D7"/>
<path d="M124.769 415.215C124.731 415.046 124.713 414.873 124.716 414.701L124.652 413.215C124.598 411.932 124.577 410.06 124.652 407.751C124.727 405.44 124.855 402.703 125.123 399.667C125.39 396.629 125.861 393.251 126.482 389.84C127.103 386.428 127.884 383.102 128.676 380.152C129.468 377.199 130.314 374.58 131.085 372.398C131.856 370.217 132.52 368.474 133.034 367.287L133.623 365.918C133.682 365.753 133.761 365.594 133.857 365.448C133.828 365.62 133.778 365.789 133.708 365.951L133.204 367.351C132.744 368.559 132.134 370.313 131.396 372.506C130.657 374.697 129.876 377.317 129.095 380.258C128.313 383.198 127.574 386.47 126.953 389.882C126.332 393.293 125.882 396.65 125.562 399.677C125.241 402.703 125.069 405.43 124.984 407.729C124.897 410.028 124.769 411.92 124.769 413.215V414.701C124.79 414.871 124.79 415.044 124.769 415.215Z" fill="#4E36D7"/>
<path d="M126.784 389.98C126.332 390.597 125.815 391.164 125.242 391.67C124.246 392.664 122.822 394 121.206 395.412C119.59 396.824 118.081 398.053 116.924 398.92C116.375 399.416 115.776 399.853 115.136 400.225C115.641 399.651 116.201 399.129 116.806 398.663L120.96 395.059L125.07 391.423C125.595 390.889 126.168 390.406 126.784 389.98Z" fill="#4E36D7"/>
<path d="M138.998 399.808C138.395 399.095 137.847 398.337 137.36 397.54L133.549 391.981L129.652 386.474C129.071 385.731 128.548 384.945 128.09 384.121C128.759 384.778 129.368 385.494 129.909 386.26C130.98 387.618 132.415 389.532 133.924 391.692C135.433 393.852 136.729 395.862 137.627 397.338C138.158 398.119 138.617 398.945 138.998 399.808Z" fill="#4E36D7"/>
<path d="M123.556 374.976C128.629 371.718 132.683 368.989 132.613 368.879C132.542 368.771 128.374 371.322 123.301 374.58C118.229 377.838 114.173 380.569 114.244 380.677C114.314 380.787 118.484 378.234 123.556 374.976Z" fill="#4E36D7"/>
<path d="M144.058 381.191C144.148 381.099 141.548 378.414 138.249 375.196C134.95 371.977 132.201 369.443 132.11 369.537C132.019 369.63 134.62 372.314 137.919 375.532C141.218 378.75 143.967 381.284 144.058 381.191Z" fill="#4E36D7"/>
<path d="M146.908 380.984L150.387 380.695C152.859 380.496 155.257 379.767 157.421 378.556C158.475 377.937 159.57 377.387 160.696 376.91C164.978 375.188 169.806 375.487 174.442 375.263C182.032 374.88 189.468 372.982 196.312 369.681C196.711 369.497 197.044 369.194 197.265 368.816C197.982 367.511 196.655 366.355 195.509 365.608C189.643 361.993 183.669 358.336 177.011 356.539C170.353 354.743 162.805 355.053 157.12 358.956C150.451 363.533 148.021 372.953 146.897 380.952" fill="#455A64"/>
<path d="M197.352 368.365C197.147 368.29 196.95 368.198 196.763 368.087L195.114 367.22C193.68 366.471 191.625 365.359 189.013 364.108C185.979 362.619 182.82 361.402 179.57 360.472C175.598 359.334 171.439 358.996 167.334 359.478C163.225 359.935 159.343 361.598 156.18 364.258C153.711 366.552 151.737 369.325 150.377 372.407C149.43 374.477 148.586 376.592 147.852 378.748L147.23 380.501C147.167 380.708 147.085 380.908 146.984 381.099C147.014 380.886 147.064 380.674 147.134 380.469L147.669 378.684C148.341 376.499 149.141 374.356 150.067 372.268C151.409 369.117 153.391 366.279 155.89 363.937C159.107 361.199 163.07 359.486 167.27 359.018C171.436 358.536 175.657 358.9 179.678 360.088C182.942 361.043 186.11 362.299 189.141 363.841C191.731 365.135 193.777 366.29 195.179 367.049L196.784 367.99C196.986 368.096 197.175 368.221 197.352 368.365Z" fill="#4E36D7"/>
<path d="M188.996 372.854C189.069 372.747 184.63 369.629 179.081 365.892C173.532 362.155 168.974 359.212 168.902 359.319C168.828 359.428 173.269 362.545 178.818 366.282C184.367 370.019 188.924 372.962 188.996 372.854Z" fill="#4E36D7"/>
<path d="M184.13 359.086C183.061 359.454 181.942 359.656 180.812 359.685C179.69 359.856 178.55 359.856 177.429 359.685C178.532 359.485 179.648 359.371 180.769 359.343C181.881 359.171 183.005 359.086 184.13 359.086Z" fill="#4E36D7"/>
<path d="M164.187 356.498C163.813 357.35 163.307 358.136 162.688 358.83C162.162 359.63 161.523 360.35 160.793 360.969C161.166 360.117 161.672 359.331 162.292 358.637C162.818 357.837 163.456 357.117 164.187 356.498Z" fill="#4E36D7"/>
<path d="M168.264 375.565C167.512 375.243 166.794 374.846 166.123 374.378C164.806 373.577 163.029 372.411 161.124 371.031C159.218 369.652 157.548 368.347 156.349 367.396C155.669 366.917 155.035 366.376 154.454 365.781C155.21 366.163 155.928 366.618 156.596 367.139L161.445 370.657C163.34 372.025 165.074 373.235 166.348 374.1C167.026 374.536 167.666 375.025 168.264 375.565Z" fill="#4E36D7"/>
<path d="M152.047 395.766C148.728 394.89 144.766 398.119 144.082 401.476C143.396 404.834 144.66 408.278 146.137 411.378C149.299 418.322 153.995 424.46 159.871 429.332C165.799 434.202 173.202 436.922 180.875 437.053C179.473 430.54 181.25 423.728 180.468 417.109C179.778 411.278 177.126 405.851 172.946 401.719C168.768 397.588 163.308 394.995 157.463 394.365C155.322 394.141 152.891 393.809 152.047 395.755" fill="#455A64"/>
<path d="M180.875 437.063C180.709 437.008 180.55 436.933 180.403 436.839C179.966 436.598 179.55 436.319 179.161 436.005C177.77 434.793 176.653 433.298 175.886 431.621C175.361 430.552 174.815 429.483 174.183 428.242L172.396 424.296C171.752 422.847 171.02 421.441 170.201 420.083C169.303 418.638 168.293 417.265 167.182 415.977C164.914 413.303 162.472 411.004 160.353 408.791C158.437 406.864 156.693 404.775 155.139 402.546C154.103 401.038 153.251 399.411 152.603 397.701C152.432 397.235 152.286 396.761 152.164 396.279C152.107 396.114 152.071 395.941 152.056 395.767C152.056 395.767 152.292 396.44 152.773 397.637C153.481 399.308 154.367 400.896 155.418 402.374C156.996 404.556 158.751 406.605 160.664 408.501C162.804 410.64 165.245 412.983 167.536 415.688C168.665 416.996 169.688 418.389 170.598 419.858C171.421 421.235 172.153 422.664 172.792 424.136L174.537 428.093C175.093 429.322 175.672 430.444 176.175 431.482C176.902 433.142 177.958 434.636 179.279 435.876C180.243 436.711 180.907 437.021 180.875 437.063Z" fill="#4E36D7"/>
<path d="M163.693 431.655C163.708 430.901 163.808 430.151 163.993 429.42C164.25 428.051 164.678 426.212 165.256 424.137C165.834 422.062 166.454 420.266 166.937 418.972C167.16 418.252 167.466 417.56 167.847 416.908C167.713 417.638 167.512 418.354 167.246 419.047C166.84 420.373 166.273 422.201 165.695 424.233C165.117 426.266 164.624 428.125 164.303 429.462C164.169 430.211 163.965 430.944 163.693 431.655Z" fill="#4E36D7"/>
<path d="M180.243 415.657C179.447 415.548 178.662 415.37 177.898 415.123C176.464 414.748 174.494 414.235 172.289 413.743C170.084 413.252 168.082 412.866 166.626 412.588C165.831 412.486 165.047 412.315 164.282 412.075C165.085 412.054 165.889 412.118 166.68 412.268C168.146 412.461 170.18 412.802 172.386 413.337C174.591 413.872 176.571 414.406 177.984 414.856C178.763 415.042 179.521 415.311 180.243 415.657Z" fill="#4E36D7"/>
<path d="M151.372 420.297C151.409 419.425 151.532 418.558 151.736 417.709C152.025 416.126 152.495 413.945 153.117 411.571C153.737 409.197 154.402 407.058 154.915 405.541C155.154 404.702 155.473 403.889 155.868 403.113C155.723 403.971 155.508 404.814 155.225 405.637C154.786 407.187 154.155 409.315 153.556 411.689C152.956 414.063 152.421 416.223 152.047 417.784C151.89 418.639 151.665 419.479 151.372 420.297Z" fill="#4E36D7"/>
<path d="M172.624 401.705C172.638 401.577 168.512 401.034 163.409 400.494C158.306 399.953 154.158 399.62 154.144 399.75C154.13 399.878 158.256 400.421 163.36 400.961C168.463 401.502 172.611 401.835 172.624 401.705Z" fill="#4E36D7"/>
<path d="M137.028 452.193C155.013 452.193 169.592 452.088 169.592 451.957C169.592 451.828 155.013 451.723 137.028 451.723C119.042 451.723 104.462 451.828 104.462 451.957C104.462 452.088 119.042 452.193 137.028 452.193Z" fill="#455A64"/>
<path d="M137.509 470.926C149.624 470.926 159.444 470.821 159.444 470.691C159.444 470.56 149.624 470.455 137.509 470.455C125.395 470.455 115.574 470.56 115.574 470.691C115.574 470.821 125.395 470.926 137.509 470.926Z" fill="#455A64"/>
<path d="M137.508 473.609C149.416 473.609 159.069 473.504 159.069 473.373C159.069 473.244 149.416 473.139 137.508 473.139C125.602 473.139 115.949 473.244 115.949 473.373C115.949 473.504 125.602 473.609 137.508 473.609Z" fill="#455A64"/>
<path d="M137.136 468.726C149.669 468.726 159.831 468.621 159.831 468.491C159.831 468.361 149.669 468.255 137.136 468.255C124.602 468.255 114.44 468.361 114.44 468.491C114.44 468.621 124.602 468.726 137.136 468.726Z" fill="#455A64"/>
<path d="M322.88 101.642L330.961 87.4203C325.965 79.3173 324.183 69.6404 325.966 60.2917C327.749 50.943 332.968 42.5986 340.598 36.8986C348.228 31.1986 357.716 28.5554 367.197 29.4884C376.679 30.4215 385.468 34.8633 391.838 41.9409C398.207 49.0185 401.695 58.2199 401.618 67.7365C401.541 77.253 397.903 86.3965 391.418 93.3696C384.935 100.343 376.075 104.641 366.579 105.42C357.084 106.199 347.64 103.402 340.104 97.579L322.88 101.642Z" fill="white"/>
<path d="M322.88 101.642L340.083 97.4718L340.008 97.675C339.987 97.6515 339.975 97.621 339.975 97.5895C339.975 97.5579 339.987 97.5275 340.008 97.504C340.029 97.4883 340.056 97.4799 340.083 97.4799C340.11 97.4799 340.135 97.4883 340.158 97.504C342.569 99.3491 345.188 100.907 347.961 102.145C351.276 103.593 354.779 104.561 358.367 105.021C360.349 105.289 362.352 105.382 364.352 105.299C365.422 105.235 366.428 105.214 367.477 105.118L370.688 104.626C380.181 102.746 388.6 97.3284 394.239 89.4732C397.368 85.1359 399.532 80.1813 400.588 74.941C401.668 69.4004 401.511 63.6898 400.127 58.2167C398.703 52.4991 395.937 47.2023 392.056 42.765L390.515 41.0754C390.012 40.5087 389.444 40.0061 388.855 39.5141C388.266 39.0222 387.785 38.4448 387.153 38.0278L385.343 36.6804C384.75 36.223 384.124 35.8085 383.471 35.44L381.565 34.2851L379.553 33.312C378.902 32.9706 378.229 32.6706 377.54 32.4138C372.182 30.2959 366.416 29.4078 360.668 29.8153C355.23 30.1803 349.938 31.7354 345.167 34.3707C336.595 39.1255 330.174 46.9825 327.225 56.3241C326.047 60.3001 325.48 64.4322 325.544 68.5785C325.714 75.2117 327.626 81.6837 331.09 87.3453C331.103 87.3644 331.11 87.3867 331.11 87.4095C331.11 87.4323 331.103 87.4546 331.09 87.4736L322.901 101.642L330.876 87.356V87.4736C327.343 81.791 325.379 75.2757 325.181 68.5893C325.1 64.4013 325.66 60.2256 326.84 56.2064C329.793 46.7498 336.27 38.7874 344.932 33.9643C349.753 31.2919 355.104 29.7112 360.604 29.3341C366.438 28.9096 372.293 29.8051 377.732 31.954C378.432 32.2138 379.116 32.5174 379.777 32.8629L381.8 33.8467L383.738 35.0229C384.398 35.395 385.032 35.813 385.633 36.2741L387.421 37.6535C388.042 38.0919 388.567 38.6587 389.145 39.1612C389.722 39.6638 390.311 40.1665 390.825 40.7438L392.377 42.4548C396.307 46.954 399.107 52.3243 400.546 58.1204C401.935 63.6738 402.077 69.4653 400.963 75.08C399.896 80.3859 397.706 85.4027 394.54 89.794C388.826 97.7047 380.315 103.148 370.731 105.021L367.52 105.503C366.45 105.588 365.378 105.62 364.308 105.674C362.291 105.748 360.27 105.644 358.271 105.364C354.664 104.871 351.145 103.866 347.822 102.38C345.034 101.117 342.404 99.5308 339.986 97.6536L340.168 97.4826C340.189 97.5061 340.201 97.5366 340.201 97.5681C340.201 97.5996 340.189 97.6301 340.168 97.6536L322.88 101.642Z" fill="#4E36D7"/>
<path d="M356.889 62.8493H359.373L364.79 55.364V50.3702C364.79 50.3702 368.621 50.1349 368.172 56.6045C367.722 63.0738 368.172 61.4271 368.172 61.4271C368.172 61.4271 376.308 61.4271 376.993 62.165C377.486 62.6782 377.71 70.7195 377.796 75.1359C377.85 76.1932 377.55 77.2386 376.94 78.105C376.332 78.9714 375.449 79.6089 374.435 79.9158C374.148 79.9915 373.853 80.031 373.557 80.0334C371.522 80.0334 361.15 78.3867 361.15 78.3867H356.868L356.889 62.8493Z" fill="#00CF71"/>
<path d="M349.792 61.4902L351.322 78.4391H355.562V61.8324L349.792 61.4902Z" fill="#00CF71"/>
<path d="M231.416 97.8779C225.447 101.673 218.504 103.653 211.429 103.577C209.192 103.577 206.944 103.31 204.707 103.503C202.446 103.595 200.282 104.434 198.55 105.887C197.708 106.629 197.106 107.607 196.826 108.693C196.546 109.78 196.598 110.926 196.977 111.982C198.241 114.87 202.329 116.025 202.951 119.115C203.401 121.339 201.741 123.457 199.868 124.75C197.994 126.045 195.811 126.889 194.225 128.535C193.29 129.522 192.631 130.738 192.315 132.061C192 133.383 192.039 134.765 192.429 136.068C192.819 137.369 193.546 138.547 194.535 139.479C195.526 140.411 196.744 141.067 198.069 141.379C199.664 141.742 201.634 141.752 202.491 143.143C202.947 144.199 203.03 145.38 202.725 146.49C202.306 148.876 202.624 151.334 203.636 153.536C204.159 154.624 204.972 155.547 205.986 156.201C207.001 156.856 208.176 157.219 209.384 157.248C210.326 157.248 211.248 156.927 212.189 156.948C212.659 156.918 213.126 157.033 213.53 157.276C213.933 157.519 214.254 157.877 214.447 158.306C214.55 158.946 214.521 159.602 214.362 160.23C214.02 163.438 217.167 165.845 220.218 166.754C226.31 168.571 233.064 166.818 238.245 163.075C243.426 159.332 246.981 153.793 249.379 147.913C251.777 142.03 253.083 135.775 254.368 129.562" fill="#263238"/>
<path d="M299.458 255.156C298.773 253.472 297.75 251.946 296.45 250.675C288.389 242.12 276.185 238.014 264.431 238.678C252.676 239.34 241.446 244.451 232.315 251.852C227.444 255.786 220.872 263.4 219.159 269.421C226.31 271.142 236.993 268.747 243.78 265.806C250.568 262.866 257.194 259.316 264.516 258.567C272.994 257.701 281.324 260.706 289.673 262.406C291.339 262.818 293.06 262.955 294.769 262.812C295.625 262.735 296.454 262.478 297.203 262.057C297.952 261.637 298.604 261.063 299.116 260.374C299.567 259.588 299.832 258.708 299.89 257.804C299.95 256.9 299.801 255.994 299.458 255.156Z" fill="#00CF71"/>
<g opacity="0.3">
<path opacity="0.3" d="M299.458 255.156C298.773 253.472 297.75 251.946 296.45 250.675C288.389 242.12 276.185 238.014 264.431 238.678C252.676 239.34 241.446 244.451 232.315 251.852C227.444 255.786 220.872 263.4 219.159 269.421C226.31 271.142 236.993 268.747 243.78 265.806C250.568 262.866 257.194 259.316 264.516 258.567C272.994 257.701 281.324 260.706 289.673 262.406C291.339 262.818 293.06 262.955 294.769 262.812C295.625 262.735 296.454 262.478 297.203 262.057C297.952 261.637 298.604 261.063 299.116 260.374C299.567 259.588 299.832 258.708 299.89 257.804C299.95 256.9 299.801 255.994 299.458 255.156Z" fill="black"/>
</g>
<path d="M293.612 357.18L314.027 343.962C314.027 343.962 334.367 360.249 338.339 358.174L314.113 317.71L281.463 336.958L293.612 357.18Z" fill="#00CF71"/>
<path d="M304.778 332.497C304.665 332.038 304.724 331.553 304.945 331.135C305.166 330.717 305.534 330.395 305.978 330.23C306.433 330.1 306.921 330.15 307.341 330.369C307.762 330.587 308.082 330.959 308.236 331.406C308.356 331.893 308.291 332.407 308.054 332.85C307.817 333.292 307.424 333.632 306.951 333.801C306.463 333.888 305.96 333.782 305.547 333.508C305.134 333.233 304.843 332.809 304.736 332.326" fill="#E0E0E0"/>
<g opacity="0.6">
<path opacity="0.6" d="M314.112 317.719L310.901 319.794L335.329 357.808C335.329 357.808 337.193 359.145 338.338 358.183L314.112 317.719Z" fill="white"/>
</g>
<path d="M314.252 344.742C314.445 344.614 313.942 343.577 313.995 342.229C314.049 340.882 314.574 339.866 314.381 339.727C314.188 339.588 313.224 340.572 313.193 342.208C313.16 343.844 314.06 344.892 314.252 344.742Z" fill="#4E36D7"/>
<path d="M318.535 347.942C318.749 347.878 318.535 346.82 319.016 345.643C319.498 344.467 320.215 343.751 320.086 343.558C319.958 343.365 318.77 343.911 318.256 345.376C317.742 346.841 318.32 348.049 318.535 347.942Z" fill="#4E36D7"/>
<path d="M325.043 347.311C324.979 347.108 323.822 347.417 323.041 348.573C322.259 349.728 322.388 350.903 322.603 350.893C322.817 350.882 323.053 349.963 323.673 349.021C324.294 348.081 325.139 347.514 325.043 347.311Z" fill="#4E36D7"/>
<path d="M309.22 347.234C309.348 347.041 308.535 346.303 307.946 345.095C307.357 343.887 307.186 342.85 306.951 342.85C306.715 342.85 306.512 344.111 307.229 345.469C307.946 346.827 309.124 347.426 309.22 347.234Z" fill="#4E36D7"/>
<path opacity="0.3" d="M296.846 327.914L306.127 349.075L303.012 351.268L292.307 330.651L296.846 327.914Z" fill="black"/>
<path d="M284.685 244.922C283.849 244.922 256.39 244.323 241.564 254.097L229.789 260.705L230.109 272.575C230.109 272.575 227.593 276.767 228.151 279.28C228.707 281.793 228.064 292.411 228.064 292.411C228.064 292.411 223.675 292.689 223.107 300.239C223.107 300.239 217.006 302.752 214.329 307.221C211.653 311.691 184.27 361.992 182.578 370.087C180.887 378.182 179.784 392.436 185.939 397.184C192.095 401.932 205.798 400.253 205.798 400.253C205.798 400.253 207.757 406.123 219.779 406.401C231.8 406.679 250.278 392.671 250.278 392.671L305.688 354.999L292.584 326.971L273.241 338.798L293.912 314.77C293.912 314.77 303.418 298.571 300.624 281.525C298.547 268.875 284.685 244.922 284.685 244.922Z" fill="#4E36D7"/>
<path d="M289.425 253.657C289.209 253.681 288.989 253.681 288.772 253.657H286.91C285.293 253.657 282.949 253.657 280.058 253.657C277.168 253.657 273.731 253.796 269.931 254.202C265.818 254.593 261.761 255.438 257.834 256.726C249.485 259.538 242.751 264.019 237.966 267.216L232.335 271.108L230.804 272.178C230.632 272.312 230.445 272.427 230.248 272.52C230.395 272.359 230.56 272.215 230.739 272.093L232.217 270.948C233.513 269.975 235.429 268.574 237.751 266.906C242.484 263.623 249.217 259.056 257.664 256.213C261.624 254.895 265.722 254.038 269.879 253.657C273.262 253.339 276.66 253.196 280.058 253.229C282.959 253.229 285.293 253.347 286.921 253.422L288.783 253.528C289.001 253.547 289.217 253.589 289.425 253.657Z" fill="#455A64"/>
<path d="M232.891 262.333C232.45 262.771 232.145 263.329 232.014 263.937C231.963 264.25 231.988 264.572 232.091 264.872C232.194 265.172 232.37 265.442 232.603 265.658C232.876 265.933 233.224 266.121 233.604 266.199C233.984 266.279 234.379 266.243 234.739 266.1C235.099 265.956 235.409 265.711 235.631 265.393C235.853 265.074 235.975 264.699 235.985 264.311C236.005 263.992 235.944 263.675 235.81 263.385C235.675 263.096 235.471 262.845 235.215 262.653C234.701 262.3 234.093 262.102 233.47 262.087C233.47 262.087 233.641 261.958 233.994 261.927C234.512 261.896 235.023 262.039 235.45 262.333C235.787 262.545 236.063 262.84 236.251 263.191C236.438 263.541 236.532 263.935 236.521 264.332C236.529 264.832 236.386 265.323 236.109 265.74C235.831 266.156 235.433 266.477 234.968 266.662C234.504 266.847 233.993 266.886 233.505 266.773C233.018 266.661 232.576 266.402 232.238 266.033C231.961 265.759 231.758 265.419 231.65 265.044C231.541 264.67 231.53 264.274 231.618 263.894C231.723 263.389 231.994 262.934 232.388 262.6C232.709 262.354 232.891 262.301 232.891 262.333Z" fill="#455A64"/>
<path d="M242.773 263.786C242.773 263.786 242.334 263.551 241.789 262.995C240.995 262.298 240.44 261.37 240.202 260.342C239.964 259.314 240.055 258.237 240.461 257.264C240.707 256.525 240.932 256.098 240.996 256.119C241.061 256.141 240.996 256.611 240.847 257.36C240.57 258.282 240.54 259.261 240.759 260.2C240.979 261.138 241.442 262.002 242.099 262.707C242.527 263.348 242.827 263.722 242.773 263.786Z" fill="#455A64"/>
<path d="M245.096 262.364C245.096 262.364 244.668 262.171 244.165 261.646C243.516 260.944 243.037 260.103 242.763 259.187C242.334 257.909 242.315 256.531 242.709 255.242C242.902 255.242 242.709 257.027 243.298 259.027C243.887 261.027 245.235 262.214 245.096 262.364Z" fill="#455A64"/>
<path d="M274.738 253.657C274.653 253.657 274.62 253.154 274.546 252.374C274.466 251.365 274.239 250.375 273.872 249.433C273.466 248.511 272.901 247.668 272.201 246.941C271.666 246.364 271.313 246.011 271.367 245.947C271.421 245.883 271.848 246.14 272.437 246.663C273.266 247.356 273.919 248.236 274.342 249.23C274.739 250.229 274.925 251.3 274.889 252.374C274.943 252.807 274.891 253.247 274.738 253.657Z" fill="#455A64"/>
<path d="M278.336 253.55C278.262 253.55 278.241 253.048 278.251 252.267C278.313 251.276 278.23 250.282 278.005 249.315C277.645 248.387 277.178 247.504 276.613 246.684C276.207 246.022 275.971 245.615 276.035 245.541C276.099 245.466 276.443 245.85 276.935 246.46C277.627 247.255 278.172 248.168 278.541 249.155C278.796 250.184 278.832 251.254 278.647 252.299C278.529 253.079 278.412 253.56 278.336 253.55Z" fill="#455A64"/>
<path d="M230.987 375.061C231.099 374.624 231.269 374.204 231.489 373.81C231.864 373.009 232.443 371.853 233.202 370.357C234.723 367.373 236.971 363.085 239.776 357.803C245.386 347.238 253.221 332.684 261.936 316.655L268.359 304.956C273.66 295.11 275.632 283.816 273.979 272.759C273.272 268.098 271.943 263.552 270.028 259.242C269.343 257.724 268.755 256.559 268.348 255.778L267.876 254.891C267.819 254.793 267.772 254.689 267.737 254.58C267.812 254.665 267.876 254.759 267.93 254.858L268.444 255.713C268.883 256.473 269.514 257.617 270.221 259.136C275.236 269.917 276.345 282.103 273.357 293.61C272.321 297.643 270.8 301.535 268.829 305.203L262.46 316.912L240.151 357.984L233.428 370.453L231.629 373.853L231.168 374.741C231.118 374.853 231.057 374.961 230.987 375.061Z" fill="#455A64"/>
<path d="M292.765 338.884C292.581 339.043 292.38 339.183 292.166 339.301L290.389 340.371L283.827 344.413C278.292 347.824 270.671 352.582 262.331 357.982C253.992 363.383 246.519 368.365 241.113 371.98L234.69 376.258L232.891 377.434C232.694 377.575 232.482 377.697 232.259 377.797C232.433 377.624 232.623 377.471 232.827 377.337L234.529 376.107L240.846 371.691C246.197 367.991 253.692 362.955 261.988 357.554C270.285 352.155 277.992 347.449 283.581 344.123C286.375 342.455 288.654 341.129 290.228 340.232L292.058 339.162C292.284 339.045 292.521 338.952 292.765 338.884Z" fill="#455A64"/>
<path d="M301.407 357.878C301.195 357.543 301.022 357.183 300.893 356.809L299.555 353.771C298.398 351.215 296.75 347.708 294.908 343.849L290.199 333.86L288.796 330.845C288.602 330.486 288.451 330.106 288.346 329.712C288.603 330.04 288.819 330.4 288.988 330.781C289.374 331.465 289.898 332.47 290.551 333.721C291.847 336.213 293.581 339.689 295.433 343.559C297.285 347.43 298.88 350.97 299.939 353.568C300.475 354.873 300.872 355.942 301.117 356.68C301.262 357.066 301.359 357.469 301.407 357.878Z" fill="#455A64"/>
<path d="M252.502 356.802C264.285 346.603 273.756 338.241 273.654 338.125C273.554 338.01 263.921 346.182 252.138 356.381C240.356 366.58 230.886 374.942 230.986 375.057C231.088 375.174 240.721 367 252.502 356.802Z" fill="#455A64"/>
<path d="M219.255 394.661C220.123 393.92 220.889 393.067 221.534 392.127C222.68 390.351 224.082 387.742 225.667 384.908C227.251 382.075 228.589 379.445 229.574 377.542C230.056 376.494 230.614 375.482 231.244 374.515C230.903 375.622 230.461 376.696 229.928 377.723C229.028 379.669 227.722 382.321 226.148 385.209C224.842 387.67 223.414 390.065 221.867 392.384C221.369 393.085 220.77 393.707 220.089 394.233C219.846 394.436 219.561 394.582 219.255 394.661Z" fill="#455A64"/>
<path d="M229.286 397.697C229.2 397.697 229.811 396.49 230.485 394.49C231.326 391.866 231.907 389.165 232.218 386.428C232.6 383.703 232.6 380.939 232.218 378.215C232.093 377.401 231.852 376.609 231.501 375.862C231.318 375.616 231.16 375.35 231.03 375.071C231.03 375.071 231.31 375.264 231.683 375.744C232.126 376.48 232.438 377.287 232.604 378.13C233.123 380.884 233.19 383.704 232.807 386.48C232.499 389.257 231.855 391.986 230.891 394.607C230.592 395.403 230.235 396.175 229.821 396.917C229.685 397.204 229.505 397.467 229.286 397.697Z" fill="#455A64"/>
<path d="M217.692 381.445C218.377 381.141 219.096 380.914 219.832 380.772C221.52 380.308 223.169 379.718 224.768 379.007C228.482 377.275 230.912 374.9 231.041 375.062C230.609 375.663 230.085 376.194 229.488 376.633C228.129 377.79 226.62 378.761 225.002 379.521C223.377 380.251 221.675 380.8 219.929 381.156C219.201 381.362 218.447 381.46 217.692 381.445Z" fill="#455A64"/>
<path d="M231.822 303.756C231.784 303.838 231.732 303.912 231.673 303.98L231.202 304.611C230.784 305.167 230.131 305.98 229.467 307.082C227.447 310.188 225.748 313.492 224.394 316.941C222.426 322.07 220.792 327.32 219.501 332.66C217.907 338.659 216.29 345.342 213.603 352.015C210.916 358.687 207.425 364.611 205.231 370.407C203.148 375.506 202.016 380.942 201.891 386.448C201.893 388.549 202.133 390.644 202.609 392.692C202.982 394.235 203.495 395.742 204.139 397.194C204.55 398.113 205.012 399.008 205.52 399.877L205.905 400.562C205.956 400.639 205.995 400.721 206.023 400.809C205.96 400.744 205.907 400.673 205.862 400.595L205.424 399.931C204.873 399.081 204.38 398.195 203.946 397.279C203.263 395.826 202.718 394.312 202.319 392.756C201.808 390.688 201.539 388.567 201.516 386.437C201.579 380.895 202.668 375.414 204.728 370.268C206.923 364.42 210.317 358.442 213.068 351.844C215.819 345.245 217.349 338.562 218.987 332.596C220.308 327.242 221.989 321.983 224.019 316.855C225.412 313.4 227.174 310.105 229.275 307.028C230.025 305.958 230.655 305.136 231.105 304.611L231.619 304.013C231.822 303.81 231.822 303.745 231.822 303.756Z" fill="#455A64"/>
<path d="M233.653 270.01C233.495 270.456 233.31 270.892 233.096 271.314C232.581 272.489 232.221 273.726 232.026 274.992C231.787 276.873 231.856 278.779 232.229 280.638C232.55 282.777 233.438 284.916 234.039 287.418C234.349 288.625 234.458 289.875 234.36 291.118C234.266 292.261 234.083 293.394 233.813 294.507C233.362 296.38 232.808 298.226 232.154 300.036C231.607 301.587 231.083 302.817 230.784 303.672C230.632 304.125 230.435 304.562 230.195 304.977C230.272 304.505 230.397 304.042 230.57 303.597L231.769 299.918C232.261 298.358 232.839 296.507 233.299 294.401C233.915 292.168 233.98 289.82 233.492 287.557C232.914 285.173 232.015 282.906 231.715 280.735C231.356 278.821 231.328 276.861 231.63 274.939C231.857 273.651 232.276 272.404 232.871 271.24C233.028 270.923 233.203 270.616 233.396 270.319C233.556 270.095 233.631 269.999 233.653 270.01Z" fill="#455A64"/>
<path d="M234.959 302.173C236.153 300.853 237.07 299.307 237.657 297.629C238.257 295.8 238.543 293.885 238.502 291.961C238.418 289.594 238.12 287.239 237.614 284.924C237.095 282.588 236.702 280.225 236.437 277.846C236.268 275.89 236.307 273.922 236.554 271.976C236.71 270.658 237.026 269.366 237.496 268.125C237.627 267.791 237.782 267.466 237.957 267.152C238.075 266.938 238.15 266.832 238.16 266.843C238.171 266.853 237.978 267.324 237.7 268.212C237.319 269.455 237.068 270.734 236.95 272.028C236.762 273.952 236.762 275.89 236.95 277.813C237.154 279.952 237.689 282.337 238.171 284.828C238.685 287.173 238.972 289.561 239.027 291.961C239.047 293.939 238.714 295.906 238.042 297.768C237.59 299.021 236.916 300.185 236.051 301.2C235.813 301.471 235.555 301.725 235.28 301.959C235.034 302.109 234.97 302.184 234.959 302.173Z" fill="#455A64"/>
<path d="M262.106 293.746C261.685 293.871 261.25 293.95 260.811 293.981C259.977 294.088 258.766 294.28 257.289 294.537C249.55 295.872 242.078 298.447 235.161 302.162C233.834 302.868 232.775 303.466 232.047 303.894C231.681 304.14 231.29 304.344 230.88 304.503C231.206 304.2 231.564 303.935 231.95 303.712C232.646 303.231 233.685 302.579 234.991 301.82C241.859 297.884 249.41 295.282 257.247 294.153C258.745 293.939 259.965 293.821 260.811 293.767C261.241 293.713 261.675 293.706 262.106 293.746Z" fill="#455A64"/>
<path d="M263.852 282.093C263.852 282.2 262.268 282.168 259.773 282.564C258.324 282.796 256.893 283.131 255.492 283.569C252.033 284.65 248.798 286.346 245.943 288.574C244.776 289.484 243.678 290.477 242.657 291.546C240.922 293.375 240.044 294.69 239.958 294.626C240.102 294.283 240.289 293.959 240.515 293.664C241.071 292.82 241.69 292.019 242.367 291.268C243.349 290.147 244.424 289.11 245.578 288.167C248.453 285.85 251.756 284.121 255.299 283.077C256.741 282.651 258.216 282.347 259.709 282.168C260.71 282.04 261.72 281.986 262.728 282.008C263.105 281.986 263.482 282.015 263.852 282.093Z" fill="#455A64"/>
<path d="M266.25 306.548C265.866 306.745 265.46 306.899 265.041 307.007C264.259 307.264 263.125 307.648 261.732 308.14C254.467 310.701 247.532 314.114 241.071 318.31C239.829 319.112 238.834 319.774 238.15 320.245C237.819 320.508 237.459 320.735 237.078 320.919C237.37 320.602 237.697 320.319 238.053 320.075C238.695 319.55 239.659 318.834 240.88 317.989C247.259 313.586 254.253 310.146 261.637 307.777C263.049 307.328 264.206 306.996 265.019 306.804C265.419 306.674 265.832 306.588 266.25 306.548Z" fill="#455A64"/>
<path d="M299.993 278.574C299.626 278.485 299.268 278.364 298.923 278.211C298.258 277.964 297.285 277.591 296.032 277.142C292.551 276.002 288.965 275.218 285.327 274.8L285.595 274.554C285.713 279.153 285.69 284.627 285.273 290.445C284.89 296.122 284.136 301.771 283.014 307.35V307.233C284.003 310.468 285.19 313.639 286.569 316.728C287.071 317.797 287.533 318.675 287.853 319.252C288.042 319.53 288.207 319.823 288.346 320.129C288.116 319.883 287.911 319.614 287.736 319.327C287.22 318.528 286.751 317.699 286.333 316.845C284.857 313.781 283.602 310.615 282.576 307.372V307.318V307.254C283.624 301.684 284.339 296.057 284.716 290.401C285.124 284.595 285.188 279.141 285.113 274.554V274.276H285.391C289.043 274.732 292.633 275.589 296.096 276.831C297.349 277.292 298.312 277.698 298.954 277.997C299.319 278.154 299.667 278.348 299.993 278.574Z" fill="#455A64"/>
<path d="M300.86 283.204C300.092 283.072 299.34 282.868 298.611 282.594C297.241 282.177 295.325 281.654 293.194 281.152C288.912 280.156 285.423 279.515 285.444 279.344C286.227 279.313 287.012 279.382 287.778 279.548C289.201 279.751 291.171 280.104 293.322 280.617C295.946 281.113 298.485 281.985 300.86 283.204Z" fill="#455A64"/>
<path d="M295.721 266.749C294.577 266.543 293.444 266.279 292.327 265.957C289.607 265.319 286.846 264.88 284.063 264.642C281.278 264.427 278.481 264.387 275.692 264.525C274.535 264.635 273.374 264.678 272.213 264.653C272.506 264.534 272.817 264.463 273.133 264.439C273.732 264.332 274.599 264.225 275.671 264.129C278.48 263.888 281.306 263.888 284.117 264.129C286.93 264.36 289.715 264.858 292.435 265.615C293.505 265.915 294.307 266.182 294.875 266.396C295.173 266.471 295.458 266.59 295.721 266.749Z" fill="#455A64"/>
<path d="M273.936 271.567C273.481 271.766 273.008 271.916 272.522 272.017C271.602 272.252 270.254 272.562 268.562 272.851C264.16 273.624 259.68 273.847 255.223 273.513C252.643 273.257 250.063 272.979 248.05 271.718C247.1 271.13 246.331 270.295 245.824 269.301C245.398 268.421 245.263 267.428 245.438 266.466C245.662 265.125 246.065 263.819 246.638 262.584C246.815 262.117 247.072 261.683 247.397 261.302C247.397 261.302 247.173 261.783 246.841 262.671C246.359 263.91 246.021 265.202 245.834 266.52C245.696 267.405 245.839 268.309 246.242 269.108C246.749 270 247.488 270.74 248.382 271.247C250.256 272.391 252.771 272.679 255.331 272.926C259.742 273.246 264.176 273.076 268.551 272.423C270.231 272.187 271.591 271.931 272.522 271.76C272.987 271.655 273.46 271.59 273.936 271.567Z" fill="#455A64"/>
<path d="M271.208 79.9138C266.091 68.8355 253.426 71.0169 247.367 73.9576C241.27 76.821 236.481 81.8826 233.965 88.1263C232.176 92.4036 230.754 97.2797 227.178 99.8889C225.528 100.865 223.827 101.75 222.082 102.541C221.188 102.975 220.404 103.606 219.789 104.385C219.173 105.165 218.742 106.073 218.528 107.043C217.992 110.721 221.739 113.277 224.822 114.763C222.959 116.025 222.478 118.88 223.131 121.179C223.918 123.377 225.167 125.383 226.792 127.061C232.255 133.085 238.501 138.35 245.366 142.716C251.21 146.341 255 146.779 261.273 144.169C263.821 143.1 266.197 141.368 268.917 141.058C272.075 140.695 275.104 142.32 278.22 142.972C281.335 143.625 285.285 142.727 286.303 139.444C286.556 138.139 286.7 136.815 286.73 135.487C286.902 134.172 287.543 132.738 288.732 132.439C289.695 132.194 290.659 132.782 291.612 133.091C293.87 133.84 297.275 150.585 299.437 149.57C299.437 149.57 302.584 121.19 296.515 104.583C294.577 99.2366 290.456 87.9873 287.147 83.5923C282.609 77.5612 271.732 78.8979 271.186 79.9673" fill="#263238"/>
<path d="M264.722 81.7518C256.672 78.9394 245.794 85.1201 243.311 93.2791C240.571 102.347 237.574 113.522 237.06 120.633C235.988 134.95 246.19 139.185 246.19 139.185L242.048 161.566L276.989 150.286L289.172 97.535L290.307 93.0973L264.722 81.7518Z" fill="#FFBE9D"/>
<path d="M243.322 104.315C243.451 104.614 245.099 104.176 246.919 104.892C248.74 105.609 249.714 107.031 250.002 106.903C250.291 106.774 250.077 106.357 249.66 105.705C249.084 104.849 248.258 104.191 247.294 103.823C246.347 103.448 245.304 103.384 244.318 103.641C243.6 103.845 243.258 104.176 243.322 104.315Z" fill="#263238"/>
<path d="M261.393 109.063C261.606 109.32 263.053 108.39 265 108.529C266.949 108.668 268.319 109.737 268.544 109.513C268.769 109.288 268.458 108.967 267.859 108.443C267.053 107.806 266.07 107.432 265.043 107.374C264.028 107.3 263.015 107.551 262.153 108.09C261.532 108.539 261.297 108.956 261.393 109.063Z" fill="#263238"/>
<path d="M253.234 117.074C252.303 116.525 251.306 116.094 250.269 115.791C249.798 115.631 249.359 115.417 249.348 115.075C249.424 114.561 249.655 114.084 250.012 113.706L252.367 110.37C255.578 105.568 258.072 101.569 257.88 101.441C257.687 101.312 254.904 105.098 251.66 109.91L249.402 113.31C248.954 113.824 248.704 114.48 248.695 115.16C248.724 115.348 248.798 115.527 248.907 115.682C249.016 115.838 249.16 115.966 249.326 116.058C249.579 116.195 249.849 116.3 250.13 116.369C251.131 116.733 252.174 116.97 253.234 117.074Z" fill="#263238"/>
<path d="M246.19 139.239C252.828 140.902 259.794 140.725 266.338 138.725C266.338 138.725 259.55 147.344 245.548 142.725L246.19 139.239Z" fill="#EB996E"/>
<path d="M252.239 123.478C252.056 123.241 252.327 123.77 252.239 123.478V123.478Z" fill="#EB996E"/>
<path d="M258.459 122.547C258.248 122.108 257.949 121.716 257.581 121.398C257.213 121.077 256.783 120.836 256.319 120.686C255.689 120.463 255.013 120.402 254.354 120.51C253.695 120.618 253.074 120.893 252.55 121.306C252.333 121.614 252.19 121.966 252.132 122.337C252.075 122.708 252.104 123.088 252.218 123.445C252.893 124.301 252.957 125.039 253.9 125.584C254.577 125.808 255.297 125.881 256.006 125.801C256.716 125.719 257.4 125.485 258.009 125.114C258.339 124.783 258.557 124.36 258.638 123.901C258.718 123.442 258.657 122.97 258.459 122.547Z" fill="#EB996E"/>
<path d="M258.588 119.713C258.277 119.616 257.796 121.691 255.675 122.739C253.556 123.787 251.394 123.05 251.329 123.328C251.265 123.445 251.725 123.841 252.657 124.086C253.866 124.391 255.144 124.258 256.264 123.712C257.339 123.189 258.168 122.268 258.577 121.145C258.845 120.301 258.727 119.734 258.588 119.713Z" fill="#263238"/>
<path d="M265.331 98.989C265.224 99.5343 266.829 100.058 268.436 101.267C270.041 102.475 271.154 103.737 271.647 103.405C271.861 103.256 271.85 102.689 271.519 101.93C271.086 100.985 270.41 100.173 269.56 99.5771C268.735 98.9667 267.756 98.5966 266.734 98.5078C265.898 98.5292 265.384 98.7323 265.331 98.989Z" fill="#263238"/>
<path d="M244.49 96.98C244.917 97.3863 246.373 96.7874 248.182 96.5843C249.992 96.3811 251.544 96.5843 251.854 96.0603C251.982 95.8251 251.704 95.3974 250.998 95.0444C250.036 94.6114 248.971 94.4594 247.925 94.606C246.88 94.719 245.889 95.1269 245.068 95.7823C244.457 96.3062 244.297 96.7874 244.49 96.98Z" fill="#263238"/>
<path d="M292.265 93.0889C291.66 92.0239 290.718 91.1891 289.589 90.715C282.639 86.9065 275.443 83.5628 268.05 80.7061L265.009 82.4277C264.611 85.3858 265.099 88.3956 266.415 91.076C267.729 93.7563 269.811 95.9864 272.396 97.4839C274.473 98.6388 277.171 99.7294 277.438 102.082C277.706 104.435 275.147 106.199 273.702 108.188C272.822 109.432 272.331 110.907 272.29 112.43C272.248 113.952 272.657 115.452 273.466 116.743C274.398 118.186 275.811 119.277 276.678 120.774C277.217 121.781 277.522 122.895 277.572 124.034C277.623 125.174 277.416 126.311 276.967 127.361C276.1 129.5 274.655 132.312 272.685 133.51C275.346 134.105 278.125 133.858 280.638 132.799C283.15 131.741 285.269 129.925 286.699 127.607C288.314 124.848 288.443 121.501 288.668 118.314C289.159 111.038 290.317 103.822 292.126 96.7567C292.571 95.5821 292.62 94.2939 292.265 93.0889Z" fill="#263238"/>
<path d="M268.533 81.036C266.654 83.5095 264.401 85.6743 261.853 87.452C259.22 89.088 255.857 89.8579 252.978 88.703L255.119 86.3185C249.992 89.8193 244.192 92.2155 238.088 93.3547C241.919 88.703 245.87 83.9445 251.105 80.9397C256.34 77.9349 263.202 77.0153 268.308 80.2126" fill="#263238"/>
<path d="M292.981 108.082L276.657 120.743C278.529 122.775 277.791 127.982 275.96 130.046C274.13 132.11 271.678 133.874 270.96 136.537C270.168 139.456 271.721 142.483 271.764 145.509C271.828 149.786 268.938 153.464 266.722 157.122C264.506 160.779 262.9 165.676 265.373 169.162C268.167 173.097 274.493 172.531 278.315 169.59C282.137 166.649 284.321 162.104 287.158 158.212C289.994 154.319 294.426 151.337 299.234 151.796C300.722 136.934 298.577 121.933 292.981 108.082Z" fill="#263238"/>
<path d="M295.701 143.369C295.605 143.187 296.568 142.492 298.217 141.177C300.546 139.38 302.62 137.276 304.383 134.922C305.55 133.324 306.48 131.567 307.145 129.703C307.901 127.608 308.228 125.382 308.109 123.159C307.931 120.735 307.16 118.392 305.86 116.337C304.409 114.09 302.576 112.114 300.444 110.498C296.043 107.087 290.808 105.151 286.227 103.12C281.963 101.473 277.938 99.2646 274.258 96.5539C271.75 94.6813 269.673 92.2929 268.167 89.5499C267.172 87.5716 267.012 86.3418 267.161 86.3418C267.311 86.3418 267.879 87.3363 269.088 89.0259C270.839 91.3723 272.982 93.3983 275.425 95.0141C279.116 97.3867 283.067 99.3277 287.201 100.799C289.546 101.73 292.029 102.692 294.577 103.879C297.263 105.078 299.803 106.581 302.146 108.359C304.543 110.181 306.59 112.424 308.183 114.978C309.685 117.431 310.54 120.223 310.667 123.095C310.737 125.658 310.271 128.208 309.297 130.58C308.473 132.614 307.34 134.507 305.936 136.194C303.937 138.581 301.53 140.594 298.827 142.139C296.932 143.145 295.786 143.519 295.701 143.369Z" fill="#263238"/>
<path d="M296.054 104.937C295.564 104.831 295.088 104.677 294.63 104.477C293.73 104.146 292.435 103.643 290.85 102.98C286.673 101.326 282.749 99.0945 279.193 96.3501C275.618 93.5451 272.925 89.7744 271.431 85.4857C271.006 84.1875 270.75 82.8396 270.672 81.4758C270.651 81.1196 270.651 80.7626 270.672 80.4064C270.672 80.1498 270.672 80.0215 270.672 80.0215C270.828 81.8378 271.188 83.6311 271.742 85.3681C273.31 89.5229 275.981 93.1718 279.471 95.9224C282.994 98.6311 286.847 100.884 290.937 102.627L294.64 104.285C295.132 104.454 295.605 104.673 296.054 104.937Z" fill="#455A64"/>
<path d="M296.526 121.171C296.461 121.171 296.793 120.529 296.964 119.32C297.143 117.603 296.827 115.871 296.054 114.327C294.943 112.024 293.236 110.06 291.109 108.638C288.764 106.938 285.852 105.591 282.94 103.858C280.213 102.216 277.771 100.139 275.714 97.7096C274.008 95.7315 272.568 93.5386 271.432 91.1867C270.676 89.606 270.077 87.9548 269.645 86.2571C269.473 85.6583 269.409 85.1877 269.345 84.8669C269.299 84.707 269.278 84.5412 269.28 84.375C269.502 84.9741 269.692 85.5845 269.848 86.2036C271.104 90.3278 273.221 94.1397 276.057 97.3888C278.119 99.7619 280.548 101.791 283.251 103.398C286.12 105.109 289.053 106.489 291.43 108.243C293.611 109.73 295.345 111.787 296.439 114.188C297.176 115.804 297.415 117.602 297.125 119.353C297.044 119.825 296.904 120.285 296.707 120.721C296.668 120.879 296.607 121.031 296.526 121.171Z" fill="#455A64"/>
<path d="M206.313 110.295C206.313 110.295 206.313 110.231 206.409 110.124C206.514 109.958 206.632 109.801 206.762 109.653C207.252 109.065 207.876 108.603 208.582 108.306C209.717 107.906 210.911 107.7 212.115 107.697C213.495 107.611 215.081 107.515 216.825 107.515C218.711 107.552 220.597 107.379 222.445 107.001C224.53 106.46 226.461 105.443 228.086 104.029C229.876 102.446 231.426 100.613 232.69 98.5859C234.032 96.3843 235.257 94.1142 236.362 91.785C237.482 89.4379 238.766 87.1723 240.206 85.0053C241.568 82.9722 243.278 81.1949 245.258 79.7549C248.671 77.3739 252.711 76.0532 256.873 75.9588C259.654 75.8603 262.426 76.3448 265.009 77.381L266.197 77.9049L267.033 78.3755C267.266 78.4931 267.488 78.6327 267.696 78.7926C267.447 78.7083 267.207 78.601 266.979 78.4718L266.133 78.0547L264.933 77.5735C262.361 76.6265 259.623 76.2048 256.883 76.3331C252.818 76.4805 248.882 77.8069 245.557 80.1506C243.636 81.5666 241.977 83.3073 240.654 85.2941C239.235 87.4463 237.965 89.6937 236.854 92.0201C235.739 94.3662 234.5 96.6507 233.14 98.8639C231.842 100.935 230.248 102.805 228.408 104.414C226.716 105.867 224.707 106.903 222.542 107.44C220.657 107.809 218.735 107.963 216.814 107.9C215.069 107.9 213.506 107.9 212.115 108.007C210.943 107.988 209.775 108.157 208.657 108.509C207.967 108.775 207.345 109.191 206.838 109.728C206.494 110.092 206.334 110.306 206.313 110.295Z" fill="#455A64"/>
<path d="M199.707 95.9017C193.283 79.7014 184.72 63.8218 183.542 51.7383L170.695 52.2623C170.973 56.9352 172.644 95.8268 181.711 111.204C190.778 126.58 221.053 162.531 221.053 162.531L231.821 135.168C231.821 135.168 206.194 112.102 199.707 95.9017Z" fill="#FFBE9D"/>
<path d="M178.435 26.5986H172.835C172.835 26.5986 173.382 29.8922 175.918 30.074C178.456 30.2558 177.964 29.6891 177.964 29.6891L177.396 30.2023L173.907 30.8973C173.907 30.8973 174.088 33.6135 176.39 34.0412L179.772 30.8973L178.435 26.5986Z" fill="#FFBE9D"/>
<path d="M193.765 26.1068C193.251 30.3093 193.199 30.0526 193.199 30.0526L188.081 34.2658L186.775 28.0316C186.689 27.6214 186.471 27.2507 186.154 26.9764C185.836 26.7021 185.438 26.5394 185.02 26.5131L182.686 26.3634C182.686 26.3634 183.596 23.1554 180.673 23.4227C180.673 23.4227 179.068 22.9843 177.772 28.363C176.359 34.2229 170.278 48.0173 170.792 52.6368L183.766 53.1501C183.627 48.8728 187.172 44.3068 188.905 42.3392C189.43 41.7515 189.798 41.042 189.975 40.2754C190.214 39.2198 190.714 38.2414 191.432 37.431C193.027 35.6559 196.41 32.4586 196.41 32.4586V22.6848C196.41 22.6848 194.258 22.0326 193.765 26.1068ZM183.339 35.5169L180.673 36.7253L181.123 34.0091L183.339 33.7952V35.5169Z" fill="#FFBE9D"/>
<path d="M180.555 37.0261C180.549 36.6409 180.592 36.2565 180.683 35.882C180.8 35.1548 180.993 34.0961 181.239 32.7916L182.139 28.2256C182.349 27.3569 182.495 26.4742 182.578 25.5843C182.578 24.7181 182.257 23.7129 181.325 23.6594C180.394 23.606 179.709 24.2369 179.259 24.9961C179.04 25.3881 178.867 25.8044 178.745 26.2365L178.296 27.5091L176.904 31.9468C176.486 33.2086 176.102 34.2138 175.833 34.8981C175.71 35.2778 175.534 35.6379 175.308 35.9675C175.377 35.6004 175.485 35.2419 175.63 34.8981C175.866 34.1924 176.187 33.1765 176.55 31.9147L177.825 27.4449L178.231 26.1617C178.36 25.6927 178.543 25.2404 178.777 24.8143C179.027 24.3257 179.373 23.8927 179.794 23.5418C180.02 23.3673 180.278 23.2395 180.554 23.166C180.829 23.0925 181.118 23.0749 181.401 23.1141C181.688 23.1542 181.965 23.2524 182.214 23.4029C182.458 23.5685 182.657 23.7928 182.792 24.0551C183.029 24.5324 183.14 25.0627 183.113 25.5949C183.026 26.5224 182.864 27.4413 182.631 28.3432L181.614 32.8771C181.314 34.171 181.068 35.2083 180.887 35.9247C180.822 36.3043 180.71 36.6743 180.555 37.0261Z" fill="#EB996E"/>
<path d="M183.209 35.5174C183.084 34.4743 183.034 33.4237 183.06 32.3735C183.06 31.9458 182.995 31.5395 182.952 31.1652C182.909 30.7909 182.867 30.5236 182.706 30.3846C182.342 30.1173 181.903 30.1065 181.924 30.0103C181.946 29.914 182.011 29.9355 182.181 29.914C182.439 29.8778 182.702 29.9265 182.931 30.053C183.093 30.1804 183.224 30.3426 183.315 30.5278C183.407 30.7129 183.454 30.9162 183.456 31.1224C183.544 31.5389 183.609 31.9601 183.648 32.3842C183.789 33.449 183.637 34.5319 183.209 35.5174Z" fill="#EB996E"/>
<path d="M189.568 33.1744C189.568 33.2385 189.215 33.6448 188.498 34.2436C187.577 35.0506 186.551 35.7272 185.446 36.254C184.319 36.748 183.111 37.0342 181.882 37.0988C181.383 37.1988 180.87 37.1988 180.371 37.0988C180.834 36.9001 181.326 36.7808 181.828 36.7459C182.992 36.5716 184.13 36.2482 185.21 35.7835C186.275 35.2654 187.291 34.6572 188.251 33.9656C189 33.3775 189.514 33.1102 189.568 33.1744Z" fill="#EB996E"/>
<path d="M291.3 154.626C291.3 154.626 305.7 154.198 314.339 151.642C322.978 149.087 356.089 141.196 356.089 141.196L409.218 132.341L410.289 146.083C410.289 146.083 360.928 160.508 351.335 163.833C341.743 167.159 297.884 182.098 289.631 180.194L284.492 169.64L291.3 154.626Z" fill="#FFBE9D"/>
<path d="M434.792 116.207C433.925 116.014 429.621 117.972 429.621 117.972C430.033 117.475 430.265 116.855 430.282 116.211C430.297 115.567 430.095 114.936 429.707 114.421L423.798 117.319C422.236 118.898 420.589 120.391 418.863 121.788C416.147 124.293 413.641 127.014 411.369 129.926L407.847 133.209L409.988 146.212C411.556 146.343 413.133 146.135 414.613 145.602C416.432 144.747 419.109 141.326 419.109 141.326L424.151 140.898C424.739 140.859 425.3 140.639 425.757 140.267C426.211 139.826 426.561 139.288 426.777 138.694C426.994 138.099 427.074 137.463 427.009 136.834C430.221 135.016 428.348 132.706 428.348 132.706C429.363 132.58 430.292 132.067 430.938 131.273C431.211 130.845 431.343 130.343 431.314 129.836C431.286 129.329 431.098 128.844 430.778 128.451C430.167 127.382 425.554 127.724 425.554 127.724L425.307 126.409C425.307 126.409 432.373 120.805 433.946 119.586C435.52 118.366 435.606 116.388 434.792 116.207Z" fill="#FFBE9D"/>
<path d="M429.707 117.853C429.194 118.863 428.463 119.747 427.565 120.44C426.645 121.221 425.779 122.064 424.974 122.964C424.086 124.124 423.445 125.452 423.091 126.867C422.71 128.328 422.176 129.744 421.495 131.091C420.914 132.183 420.194 133.196 419.355 134.106C418.792 134.717 418.172 135.273 417.502 135.764C417.272 135.964 417.008 136.12 416.721 136.224C416.657 136.149 417.728 135.411 419.065 133.84C419.84 132.924 420.508 131.923 421.057 130.856C421.696 129.524 422.204 128.135 422.577 126.707C422.952 125.223 423.643 123.837 424.6 122.643C425.436 121.739 426.346 120.905 427.319 120.152C428.158 119.431 428.954 118.663 429.707 117.853Z" fill="#EB996E"/>
<path d="M427.117 136.79C426.395 137.278 425.595 137.64 424.751 137.86C423.845 138.168 422.902 138.362 421.946 138.437C421.38 138.486 420.811 138.486 420.244 138.437C419.6 138.39 418.981 138.177 418.446 137.817C418.166 137.618 417.938 137.355 417.782 137.049C417.625 136.744 417.544 136.406 417.547 136.063C417.667 135.445 418.005 134.892 418.5 134.503C418.888 134.126 419.367 133.857 419.891 133.721C420.352 133.593 420.779 133.497 421.175 133.422C422.014 133.167 422.891 133.066 423.766 133.123C423.766 133.175 422.813 133.368 421.272 133.796C420.887 133.903 420.47 134.021 420.03 134.16C419.582 134.292 419.176 134.539 418.853 134.876C418.479 135.187 418.216 135.611 418.103 136.084C418.106 136.337 418.171 136.583 418.29 136.805C418.409 137.026 418.581 137.216 418.789 137.357C419.754 137.866 420.853 138.067 421.936 137.935C422.855 137.886 423.766 137.74 424.655 137.496C426.165 137.101 427.075 136.715 427.117 136.79Z" fill="#EB996E"/>
<path d="M428.475 132.705C427.916 133.018 427.294 133.204 426.655 133.251C425.973 133.362 425.282 133.412 424.59 133.4C424.136 133.426 423.681 133.353 423.256 133.189C422.832 133.025 422.447 132.773 422.127 132.449C421.856 132.064 421.702 131.609 421.683 131.138C421.664 130.669 421.782 130.203 422.02 129.797C422.382 129.161 422.931 128.652 423.595 128.343C424.152 128.019 424.78 127.839 425.424 127.818C425.424 127.905 424.75 128.119 423.776 128.685C423.223 128.998 422.77 129.462 422.47 130.022C422.293 130.341 422.208 130.702 422.223 131.066C422.238 131.429 422.354 131.782 422.556 132.086C422.827 132.348 423.15 132.552 423.504 132.686C423.856 132.821 424.234 132.881 424.611 132.866C425.278 132.908 425.946 132.908 426.613 132.866C427.229 132.765 427.852 132.711 428.475 132.705Z" fill="#EB996E"/>
<path d="M425.019 140.726C424.55 140.958 424.048 141.114 423.53 141.186C422.311 141.52 421.048 141.672 419.784 141.635C419.568 141.644 419.353 141.604 419.155 141.519C418.957 141.434 418.78 141.305 418.638 141.143C418.405 140.837 418.287 140.458 418.306 140.074C418.326 139.76 418.417 139.454 418.572 139.179C418.729 138.904 418.945 138.67 419.206 138.491C420.137 137.924 420.833 138.267 420.79 138.31C420.307 138.371 419.846 138.542 419.44 138.812C419.252 138.97 419.1 139.166 418.993 139.387C418.886 139.609 418.827 139.85 418.82 140.095C418.811 140.361 418.894 140.622 419.055 140.833C419.153 140.934 419.271 141.012 419.403 141.06C419.535 141.108 419.676 141.125 419.815 141.111C421.035 141.138 422.255 141.045 423.456 140.833C423.964 140.695 424.495 140.659 425.019 140.726Z" fill="#EB996E"/>
<path d="M266.838 200.196C266.532 200.435 266.193 200.629 265.832 200.774C264.88 201.23 263.891 201.605 262.876 201.897C259.511 202.874 255.96 203.047 252.514 202.399C249.072 201.749 245.838 200.282 243.083 198.122C242.256 197.476 241.485 196.761 240.782 195.983C240.502 195.712 240.265 195.402 240.075 195.064C240.15 194.989 241.199 196.272 243.286 197.832C246.046 199.865 249.223 201.256 252.589 201.907C255.957 202.529 259.419 202.412 262.737 201.565C265.328 200.891 266.794 200.121 266.838 200.196Z" fill="#00CF71"/>
<path d="M242.526 160.629C242.526 160.629 276.397 149.807 277.66 149.476C278.924 149.144 308.791 151.796 308.791 151.796C308.791 151.796 307.507 171.568 315.064 177.963L293.097 185.876L286.16 204.921C286.16 204.921 282.296 212.684 285.368 219.966C291.181 233.75 301.276 255.5 299.777 257.992C299.617 258.248 298.707 250.506 284.373 246.389C280.027 245.159 272.137 245.148 264.997 246.582C234.272 252.763 222.411 266.898 218.964 269.369C218.964 269.369 225.291 219.784 222.293 212.042C219.296 204.3 216.138 199.21 218.6 192.356C221.062 185.501 224.734 174.53 224.734 174.53L212.638 160.811L229.551 132.72L245.021 145.552L242.526 160.629Z" fill="#00CF71"/>
<path d="M253.789 206.612C253.401 206.667 253.008 206.667 252.622 206.612C251.558 206.572 250.501 206.437 249.463 206.205C246.006 205.452 242.818 203.778 240.235 201.361C237.661 198.924 235.849 195.792 235.022 192.347C234.772 191.316 234.629 190.263 234.593 189.203C234.555 188.814 234.572 188.421 234.647 188.037C234.82 189.454 235.07 190.861 235.396 192.251C236.312 195.571 238.113 198.579 240.61 200.955C243.133 203.299 246.208 204.968 249.549 205.809C252.161 206.527 253.789 206.515 253.789 206.612Z" fill="#4E36D7"/>
<path d="M221.984 164.69C223.222 166.419 224.032 168.417 224.343 170.52C224.657 172.624 224.464 174.771 223.782 176.784C223.997 174.73 223.997 172.658 223.782 170.604C223.384 168.577 222.782 166.596 221.984 164.69Z" fill="#4E36D7"/>
<path d="M293.91 170.554C293.91 170.64 293.215 171.121 292.187 172.116C290.839 173.416 289.752 174.963 288.986 176.671C288.238 178.357 287.831 180.174 287.787 182.018C287.787 183.439 287.926 184.317 287.787 184.338C287.482 183.603 287.333 182.813 287.348 182.018C287.27 180.096 287.636 178.182 288.418 176.425C289.2 174.666 290.362 173.103 291.822 171.848C292.422 171.278 293.132 170.836 293.91 170.554Z" fill="#4E36D7"/>
<g opacity="0.3">
<path opacity="0.3" d="M248.756 205.884C245.489 205.236 242.518 203.556 240.278 201.093C238.755 199.638 237.511 197.916 236.606 196.014C235.835 199.372 240.513 205.328 245.074 207.509C247.384 208.586 249.915 209.112 252.464 209.043C255.013 208.974 257.512 208.314 259.762 207.114C256.061 207.072 252.374 206.66 248.756 205.884Z" fill="black"/>
</g>
<path d="M290.239 230.455C290.239 230.509 289.352 229.845 287.596 229.054C285.097 227.979 282.405 227.418 279.685 227.407C275.637 227.384 271.629 228.196 267.909 229.793C263.397 231.825 259.096 234.294 255.063 237.16C247.631 242.308 239.701 246.699 231.394 250.271C228.182 251.628 225.57 252.601 223.739 253.243C222.829 253.564 222.112 253.788 221.598 253.948C221.356 254.04 221.105 254.108 220.849 254.151C221.078 254.025 221.318 253.922 221.567 253.842L223.644 253.039C225.452 252.344 228.054 251.318 231.211 249.918C239.457 246.253 247.341 241.828 254.763 236.7C258.826 233.813 263.169 231.341 267.727 229.322C271.505 227.729 275.575 226.945 279.674 227.023C282.439 227.066 285.165 227.692 287.671 228.862C288.59 229.285 289.453 229.82 290.239 230.455Z" fill="white"/>
<path d="M284.117 212.725C283.474 212.154 282.794 211.625 282.082 211.143C280.084 209.92 277.817 209.207 275.478 209.068C272.004 208.906 268.539 209.543 265.35 210.929C261.431 212.63 257.604 214.537 253.884 216.64C250.134 218.726 246.263 220.591 242.291 222.221C239.027 223.531 235.616 224.442 232.132 224.938C229.78 225.265 227.396 225.304 225.035 225.054C224.2 224.948 223.557 224.851 223.129 224.745C222.905 224.712 222.687 224.655 222.475 224.573C222.475 224.521 223.397 224.702 225.056 224.83C227.401 224.995 229.756 224.898 232.078 224.542C235.519 223.997 238.886 223.058 242.11 221.74C246.05 220.087 249.896 218.217 253.629 216.136C257.366 214.026 261.218 212.127 265.168 210.448C268.432 209.056 271.978 208.448 275.52 208.672C277.91 208.85 280.214 209.637 282.21 210.961C282.944 211.434 283.589 212.031 284.117 212.725Z" fill="white"/>
<path d="M238.898 199.253C238.898 199.253 238.673 199.479 238.213 199.81C237.938 200.016 237.648 200.202 237.346 200.366C236.956 200.604 236.551 200.818 236.136 201.008C235.055 201.514 233.925 201.912 232.764 202.195C229.909 202.891 226.935 202.936 224.061 202.322C222.894 202.081 221.752 201.722 220.657 201.254C220.235 201.078 219.824 200.879 219.425 200.655C219.117 200.502 218.82 200.327 218.536 200.131C218.065 199.81 217.819 199.628 217.841 199.596C217.862 199.564 218.911 200.185 220.806 200.901C221.897 201.313 223.022 201.632 224.168 201.853C226.977 202.391 229.866 202.348 232.657 201.724C233.796 201.464 234.909 201.105 235.986 200.655C237.806 199.874 238.834 199.126 238.898 199.253Z" fill="white"/>
<path d="M289.222 196.562C289.099 196.701 288.959 196.823 288.804 196.925C288.384 197.249 287.936 197.535 287.466 197.78C285.721 198.681 283.814 199.226 281.856 199.384C278.957 199.615 276.037 199.348 273.228 198.593C270.016 197.823 266.697 196.572 263.1 195.567C256.951 193.861 250.514 193.446 244.196 194.348C242.283 194.622 240.388 195.011 238.522 195.514C237.843 195.727 237.153 195.906 236.456 196.048C236.613 195.952 236.782 195.876 236.959 195.823C237.301 195.706 237.794 195.503 238.458 195.3C240.313 194.712 242.21 194.263 244.132 193.952C250.507 192.923 257.03 193.288 263.251 195.022C266.88 196.091 270.22 197.31 273.346 198.091C276.099 198.855 278.96 199.159 281.813 198.989C283.734 198.865 285.613 198.386 287.359 197.577C288.558 196.989 289.189 196.518 289.222 196.562Z" fill="white"/>
<path d="M288.333 180.521C288.109 180.58 287.879 180.616 287.647 180.627C287.197 180.627 286.577 180.756 285.678 180.809C283.244 180.873 280.81 180.702 278.409 180.296C275.369 179.805 271.814 178.895 267.896 177.836C263.694 176.6 259.398 175.71 255.05 175.174C253.908 175.08 252.761 175.045 251.613 175.067C251.047 175.067 250.489 175.067 249.933 175.12L248.296 175.313C246.21 175.609 244.161 176.122 242.182 176.842C238.371 178.189 235.053 179.74 232.131 180.724C229.838 181.559 227.444 182.084 225.012 182.285C224.353 182.336 223.69 182.336 223.032 182.285C222.801 182.288 222.571 182.266 222.346 182.22C222.574 182.196 222.804 182.196 223.032 182.22C223.686 182.219 224.34 182.181 224.991 182.102C227.386 181.82 229.737 181.241 231.992 180.382C234.872 179.312 238.168 177.784 242.012 176.393C244.019 175.645 246.1 175.111 248.221 174.8L249.901 174.597C250.468 174.597 251.036 174.597 251.613 174.532C252.778 174.509 253.943 174.544 255.104 174.639C259.488 175.178 263.818 176.091 268.047 177.366C271.953 178.435 275.475 179.398 278.494 179.932C280.868 180.368 283.276 180.597 285.688 180.616L287.658 180.531C287.882 180.504 288.107 180.501 288.333 180.521Z" fill="white"/>
<path d="M299.007 151.826C298.258 153.275 297.583 154.758 296.984 156.275C295.64 159.972 295.271 163.954 295.914 167.834C296.618 171.702 298.286 175.332 300.763 178.388C302.658 180.741 304.199 181.864 304.124 181.949C303.737 181.737 303.377 181.479 303.054 181.179C302.12 180.411 301.257 179.563 300.473 178.645C297.853 175.597 296.093 171.906 295.377 167.952C294.708 163.993 295.13 159.927 296.598 156.189C297.039 155.074 297.579 153.999 298.215 152.982C298.425 152.562 298.693 152.174 299.007 151.826Z" fill="white"/>
<path d="M242.527 155.189C242.222 155.308 241.901 155.38 241.574 155.402C240.702 155.54 239.822 155.633 238.94 155.68C237.616 155.766 236.285 155.662 234.991 155.37C233.363 154.991 231.877 154.157 230.708 152.964C229.466 151.745 228.568 150.419 227.571 149.318C226.752 148.335 225.78 147.49 224.692 146.816C223.667 146.224 222.514 145.89 221.331 145.843C221.641 145.728 221.975 145.689 222.305 145.725C223.21 145.777 224.092 146.033 224.884 146.474C226.047 147.127 227.086 147.977 227.957 148.987C228.952 150.055 229.905 151.402 231.093 152.568C232.182 153.685 233.556 154.484 235.065 154.878C236.313 155.179 237.593 155.315 238.876 155.284C241.125 155.284 242.527 155.092 242.527 155.189Z" fill="white"/>
<path d="M240.353 480.869C240.507 480.869 240.631 469.662 240.631 455.836C240.631 442.012 240.507 430.804 240.353 430.804C240.2 430.804 240.075 442.012 240.075 455.836C240.075 469.662 240.2 480.869 240.353 480.869Z" fill="#4E36D7"/>
<path d="M245.097 468.006C245.25 468.006 245.375 456.798 245.375 442.972C245.375 429.147 245.25 417.939 245.097 417.939C244.943 417.939 244.818 429.147 244.818 442.972C244.818 456.798 244.943 468.006 245.097 468.006Z" fill="#4E36D7"/>
<path d="M466.265 497.551C466.265 497.701 370.251 497.829 251.831 497.829C133.41 497.829 37.3741 497.701 37.3741 497.551C37.3741 497.402 133.367 497.273 251.831 497.273C370.293 497.273 466.265 497.402 466.265 497.551Z" fill="#4E36D7"/>
</svg>
