<svg width="500" height="521" viewBox="0 0 500 521" fill="none" xmlns="http://www.w3.org/2000/svg">
<g clip-path="url(#clip0_1_2692)">
<mask id="mask0_1_2692" style="mask-type:luminance" maskUnits="userSpaceOnUse" x="0" y="0" width="500" height="521">
<path d="M500 0.480469H0V520.34H500V0.480469Z" fill="white"/>
</mask>
<g mask="url(#mask0_1_2692)">
<path d="M452.779 129.844C453.389 129.93 453.981 130.115 454.532 130.393C456.069 131.122 457.307 132.361 458.036 133.898C458.54 134.964 458.784 136.132 458.749 137.309C458.708 138.664 458.304 139.983 457.581 141.129C456.772 142.399 455.605 143.399 454.228 144.003C452.746 144.657 451.095 144.819 449.515 144.464C447.936 144.107 446.512 143.254 445.454 142.029C444.464 140.903 443.829 139.509 443.632 138.022C443.464 136.675 443.662 135.307 444.204 134.062C444.675 132.982 445.396 132.029 446.307 131.281C447.62 130.189 449.271 129.586 450.98 129.576C451.593 129.562 452.206 129.648 452.791 129.833C452.791 129.833 452.148 129.704 450.98 129.751C449.333 129.823 447.758 130.445 446.506 131.515C445.576 132.302 444.861 133.312 444.426 134.45C443.991 135.587 443.85 136.816 444.018 138.022C444.206 139.434 444.807 140.759 445.746 141.83C446.75 142.983 448.097 143.786 449.589 144.12C451.081 144.454 452.64 144.303 454.041 143.688C455.347 143.119 456.457 142.176 457.23 140.978C457.884 139.964 458.273 138.801 458.363 137.597C458.453 136.393 458.241 135.186 457.744 134.085C457.068 132.582 455.908 131.348 454.45 130.58C453.422 129.985 452.768 129.844 452.779 129.844Z" fill="#E0E0E0"/>
<path d="M458.714 121.914C458.707 121.828 458.707 121.742 458.714 121.657V120.862V117.743V117.813L451.973 116.341L452.09 116.282L450.314 120.056V120.126H450.244C448.752 120.192 447.275 120.454 445.852 120.909H445.77L445.711 120.85L442.744 117.918H442.931L437.09 121.621L437.16 121.423L438.562 125.348V125.453L438.492 125.535C437.481 126.631 436.622 127.856 435.933 129.18V129.273H431.658L431.845 129.121L430.338 135.862L430.232 135.64L433.994 137.428H434.099V137.544C434.161 139.032 434.421 140.505 434.87 141.925V142.042L434.777 142.135L431.833 145.091V144.834L435.525 150.675L435.279 150.593L439.204 149.192H439.321L439.415 149.273C440.507 150.284 441.729 151.144 443.048 151.832L443.165 152.019V156.154L443.001 155.944L449.765 157.533L449.532 157.65L451.319 153.888V153.771H451.447C452.936 153.714 454.409 153.458 455.828 153.012H455.945L456.039 153.105L458.994 156.049H458.749L464.59 152.357L464.508 152.591L463.165 148.537V148.432L463.247 148.35C464.262 147.259 465.126 146.037 465.817 144.717V144.624H470.092L469.917 144.764L471.459 138.023L471.553 138.21L467.791 136.411H467.709V136.318C467.655 134.827 467.404 133.349 466.961 131.925V131.843L467.02 131.785L469.976 128.841V128.993L466.307 123.152H466.424L462.487 124.53C461.665 123.756 460.769 123.064 459.812 122.463L459.099 122.03L458.866 121.89L459.123 122.007C459.286 122.089 459.532 122.217 459.859 122.416C460.838 122.993 461.755 123.669 462.592 124.437H462.522L466.447 123.012H466.518V123.082L470.233 128.923V129.005L470.162 129.075L467.23 132.042V131.902C467.693 133.347 467.96 134.848 468.025 136.364L467.943 136.236L471.716 138.012H471.833V138.14L470.338 144.881V145.021H466.027L466.19 144.928C465.488 146.28 464.609 147.534 463.574 148.654V148.456L464.976 152.381V152.533L464.847 152.614L459.006 156.318L458.866 156.399L458.749 156.283L455.793 153.339H456.004C454.55 153.798 453.041 154.062 451.518 154.121L451.693 154.005L449.929 157.883L449.859 158.035H449.695L442.966 156.528H442.803V152.042L442.919 152.229C441.571 151.526 440.321 150.645 439.204 149.612H439.415L435.489 151.014H435.326L435.232 150.874L431.541 145.033L431.447 144.892L431.564 144.776L434.508 141.82V142.03C434.05 140.576 433.787 139.068 433.726 137.544L433.842 137.72L430.081 135.932L429.94 135.862V135.71L431.459 128.981V128.829H435.747L435.583 128.923C436.29 127.572 437.174 126.324 438.211 125.208V125.383L436.821 121.446V121.318L436.938 121.248L442.779 117.568L442.884 117.498L442.966 117.579L445.91 120.535H445.77C447.221 120.083 448.725 119.828 450.244 119.776L450.139 119.846L451.938 116.084V116.002H452.02L458.749 117.556V120.652V121.668C458.743 121.75 458.731 121.832 458.714 121.914Z" fill="#E0E0E0"/>
<path d="M499.543 458.421C499.543 458.421 499.543 457.989 499.543 457.148V453.456V439.368C499.543 427.171 499.485 409.601 499.438 388.036L499.625 388.223H377.978L378.223 387.977C378.223 412.884 378.223 436.692 378.223 458.363L377.989 458.129L465.49 458.246L490.618 458.304H497.324H490.676L465.606 458.363L377.989 458.48H377.756V458.246C377.756 436.576 377.756 412.767 377.756 387.861V387.615H378.013H499.66H499.847V388.024C499.847 409.648 499.765 427.265 499.742 439.426C499.742 445.501 499.742 450.244 499.742 453.445C499.742 455.045 499.742 456.26 499.742 457.101C499.742 457.942 499.543 458.421 499.543 458.421Z" fill="#E0E0E0"/>
<path d="M499.589 396.563C499.589 396.703 472.381 396.808 438.841 396.808C405.301 396.808 378.093 396.691 378.093 396.563C378.093 396.434 405.301 396.317 438.841 396.317C472.381 396.317 499.589 396.423 499.589 396.563Z" fill="#E0E0E0"/>
<path d="M426.005 408.164H388.423V445.746H426.005V408.164Z" fill="#F5F5F5"/>
<path d="M490.711 414.366C490.529 414.388 490.345 414.388 490.162 414.366H488.574L482.732 414.447L463.504 414.518L444.275 414.447L438.433 414.366H436.845C436.662 414.388 436.478 414.388 436.296 414.366C436.478 414.345 436.662 414.345 436.845 414.366H438.433L444.275 414.284L463.504 414.214L482.732 414.284L488.574 414.366H490.162C490.345 414.345 490.529 414.345 490.711 414.366Z" fill="#E0E0E0"/>
<path d="M491.925 422.754C491.74 422.777 491.551 422.777 491.365 422.754H489.741L483.783 422.836L464.122 422.906L444.46 422.836L438.502 422.754H436.879C436.693 422.777 436.505 422.777 436.318 422.754C436.505 422.733 436.693 422.733 436.879 422.754H438.502L444.46 422.673L464.122 422.603L483.783 422.673L489.741 422.754H491.365C491.551 422.733 491.74 422.733 491.925 422.754Z" fill="#E0E0E0"/>
<path d="M491.928 431.152C491.741 431.174 491.553 431.174 491.367 431.152H489.743L483.785 431.234L464.124 431.304L444.463 431.234L438.505 431.152L436.916 431.246C436.729 431.268 436.541 431.268 436.355 431.246C436.541 431.225 436.729 431.225 436.916 431.246H438.54L444.498 431.164L464.159 431.094L483.82 431.164L489.778 431.246H491.402C491.572 431.195 491.749 431.165 491.928 431.152Z" fill="#E0E0E0"/>
<path d="M491.925 439.542C491.74 439.564 491.551 439.564 491.365 439.542H489.741L483.783 439.624L464.122 439.694L444.46 439.624L438.502 439.542H436.879C436.693 439.564 436.505 439.564 436.318 439.542C436.505 439.521 436.693 439.521 436.879 439.542H438.502L444.46 439.461L464.122 439.391L483.783 439.461L489.741 439.542H491.365C491.551 439.521 491.74 439.521 491.925 439.542Z" fill="#E0E0E0"/>
<path d="M198.228 77.4251C200.058 49.5613 178.954 25.4888 151.091 23.6576C123.227 21.8264 99.1547 42.93 97.3235 70.7939C95.4923 98.6577 116.596 122.731 144.46 124.561C172.324 126.393 196.396 105.289 198.228 77.4251Z" fill="#F5F5F5"/>
<path d="M170.713 75.6559C170.122 75.7476 169.523 75.7867 168.925 75.7727L164.007 75.8662C159.836 75.8662 154.03 75.9596 147.465 75.9713H147.196V75.6442C147.196 74.5928 147.196 73.483 147.196 72.3615C147.196 65.0367 147.196 58.4129 147.29 53.6115L147.395 47.9339C147.381 47.2385 147.424 46.543 147.523 45.8545C147.623 46.543 147.666 47.2385 147.652 47.9339L147.757 53.6115C147.815 58.4129 147.85 65.0367 147.85 72.3615C147.85 73.5297 147.85 74.5928 147.85 75.6442L147.523 75.3171C154.077 75.3171 159.895 75.3171 164.065 75.4223L168.984 75.5157C169.563 75.5129 170.141 75.5597 170.713 75.6559Z" fill="#E0E0E0"/>
<path d="M147.629 40.3494C147.808 40.3494 147.956 38.4455 147.956 36.0971C147.956 33.7485 147.808 31.8447 147.629 31.8447C147.447 31.8447 147.301 33.7485 147.301 36.0971C147.301 38.4455 147.447 40.3494 147.629 40.3494Z" fill="#E0E0E0"/>
<path d="M167.942 41.8579C169.575 40.2246 170.794 38.797 170.667 38.6693C170.54 38.5415 169.112 39.7621 167.479 41.3953C165.845 43.0286 164.625 44.4561 164.752 44.5839C164.88 44.7116 166.307 43.4912 167.942 41.8579Z" fill="#E0E0E0"/>
<path d="M184.136 53.375C183.065 54.2914 181.889 55.0757 180.631 55.7114C179.493 56.5286 178.262 57.2071 176.963 57.7325C177.9 56.6693 179.029 55.7932 180.292 55.1507C181.45 54.3204 182.754 53.7179 184.136 53.375Z" fill="#E0E0E0"/>
<path d="M186.237 75.5497C189.437 75.5497 192.032 75.4033 192.032 75.2226C192.032 75.042 189.437 74.8955 186.237 74.8955C183.037 74.8955 180.443 75.042 180.443 75.2226C180.443 75.4033 183.037 75.5497 186.237 75.5497Z" fill="#E0E0E0"/>
<path d="M106.261 74.7646C109.28 74.7646 111.728 74.6182 111.728 74.4375C111.728 74.2568 109.28 74.1104 106.261 74.1104C103.241 74.1104 100.794 74.2568 100.794 74.4375C100.794 74.6182 103.241 74.7646 106.261 74.7646Z" fill="#E0E0E0"/>
<path d="M113.274 94.453C115.671 92.5225 117.522 90.8434 117.409 90.7028C117.296 90.562 115.261 92.013 112.864 93.9435C110.467 95.8741 108.616 97.553 108.729 97.6938C108.842 97.8345 110.877 96.3835 113.274 94.453Z" fill="#E0E0E0"/>
<path d="M131.414 103.271C130.599 104.963 129.658 106.592 128.598 108.142C127.723 109.808 126.723 111.405 125.607 112.92C126.148 111.103 126.968 109.381 128.037 107.815C128.921 106.135 130.06 104.602 131.414 103.271Z" fill="#E0E0E0"/>
<path d="M147.629 119.486C147.808 119.486 147.956 116.892 147.956 113.692C147.956 110.492 147.808 107.897 147.629 107.897C147.447 107.897 147.301 110.492 147.301 113.692C147.301 116.892 147.447 119.486 147.629 119.486Z" fill="#E0E0E0"/>
<path d="M172.593 111.773C170.826 110.965 169.209 109.858 167.815 108.502C166.283 107.306 164.967 105.856 163.925 104.215C165.425 105.398 166.861 106.662 168.224 108C169.748 109.178 171.207 110.437 172.593 111.773Z" fill="#E0E0E0"/>
<path d="M184.313 99.1532C184.442 99.0254 182.932 97.3094 180.943 95.3202C178.953 93.3311 177.238 91.8222 177.11 91.9499C176.982 92.0777 178.492 93.7937 180.48 95.7829C182.47 97.772 184.186 99.2809 184.313 99.1532Z" fill="#E0E0E0"/>
<path d="M116.881 58.8705C117.008 58.7427 115.699 57.2263 113.956 55.4836C112.213 53.7408 110.697 52.4316 110.569 52.5594C110.441 52.6871 111.751 54.2034 113.493 55.9462C115.236 57.689 116.753 58.9982 116.881 58.8705Z" fill="#E0E0E0"/>
<path d="M131.335 43.6367C131.463 43.5087 130.179 42.0248 128.468 40.3224C126.759 38.62 125.269 37.3437 125.141 37.4717C125.014 37.5998 126.298 39.0837 128.007 40.7861C129.717 42.4884 131.207 43.7647 131.335 43.6367Z" fill="#E0E0E0"/>
<g opacity="0.8">
<path opacity="0.8" fill-rule="evenodd" clip-rule="evenodd" d="M422.757 48.2003C425.401 49.5784 427.848 51.303 430.035 53.3288L437.804 50.5602L445.093 62.0905L439.252 67.9317C440.151 70.771 440.665 73.7176 440.783 76.6933L448.236 80.198L445.245 93.5158H436.998C435.622 96.1599 433.896 98.6077 431.869 100.794L434.638 108.562L423.107 115.864L417.266 110.023C414.428 110.921 411.48 111.435 408.505 111.553L405 119.007L391.682 116.016V107.838C389.019 106.469 386.551 104.748 384.346 102.721L376.577 105.49L369.276 93.9597L375.117 88.1186C374.22 85.279 373.706 82.3325 373.586 79.3569L366.133 75.8522L369.159 62.4877H377.336C378.714 59.8435 380.438 57.3957 382.465 55.2097L379.696 47.441L391.227 40.1396L397.068 45.9807C399.908 45.0828 402.854 44.5681 405.829 44.4503L409.334 36.9971L422.652 39.9877V48.2354L422.757 48.2003ZM411.016 63.8662C408.193 63.236 405.246 63.4565 402.548 64.5C399.849 65.5435 397.521 67.3631 395.856 69.7291C394.192 72.0951 393.265 74.9013 393.194 77.7934C393.123 80.6855 393.911 83.5339 395.458 85.9786C397.005 88.4235 399.241 90.355 401.884 91.5297C404.528 92.7042 407.461 93.069 410.312 92.578C413.164 92.0869 415.805 90.7621 417.903 88.7708C420.002 86.7796 421.464 84.211 422.103 81.3896C422.529 79.5109 422.579 77.5666 422.254 75.6681C421.926 73.7696 421.228 71.9543 420.197 70.3264C419.168 68.6984 417.826 67.2897 416.251 66.1812C414.675 65.0727 412.897 64.286 411.016 63.8662Z" fill="#EBEBEB"/>
</g>
<path d="M31.3664 165.364H117.815C117.815 165.364 110.175 151.462 87.9318 153.483C66.6935 155.411 65.607 146.637 54.801 145.562C43.9949 144.488 34.9645 152.759 31.3664 165.364Z" fill="#F5F5F5"/>
<path d="M218.387 322.477H288.34C288.34 322.477 282.16 311.215 264.146 312.862C246.95 314.428 246.074 307.325 237.277 306.449C228.48 305.573 221.307 312.278 218.387 322.477Z" fill="#F5F5F5"/>
<path d="M517.862 495.07C517.862 495.234 397.535 495.374 249.019 495.374C100.502 495.374 -19.8598 495.246 -19.8598 495.07C-19.8598 494.895 100.467 494.767 249.019 494.767C397.57 494.767 517.862 494.907 517.862 495.07Z" fill="#263238"/>
<path d="M488.702 144.967H318.983V258.612H488.702V144.967Z" fill="white"/>
<path d="M488.714 258.61C488.714 258.61 488.714 257.898 488.714 256.543V250.55L488.655 227.699L488.527 144.977L488.772 145.222L319.064 145.281L319.368 144.977C319.368 185.456 319.368 223.961 319.368 258.622L319.088 258.342L441.366 258.482L476.296 258.552H485.641H485.7H476.459L441.588 258.622L319.134 258.762H318.854V258.482C318.854 223.821 318.854 185.328 318.854 144.837V144.533H319.169L488.877 144.592H489.123V144.837C489.123 179.498 489.029 207.921 488.994 227.711L488.936 250.515V256.461C488.725 257.933 488.714 258.61 488.714 258.61Z" fill="#00CF71"/>
<path d="M318.983 155.105C318.983 154.941 356.95 154.801 403.772 154.801C450.595 154.801 488.562 154.941 488.562 155.105C488.562 155.268 450.606 155.408 403.772 155.408C356.938 155.408 318.983 155.268 318.983 155.105Z" fill="#00CF71"/>
<g opacity="0.3">
<path opacity="0.3" d="M324.321 151.345C325.07 151.345 325.676 150.739 325.676 149.99C325.676 149.242 325.07 148.635 324.321 148.635C323.572 148.635 322.966 149.242 322.966 149.99C322.966 150.739 323.572 151.345 324.321 151.345Z" fill="#00CF71"/>
</g>
<g opacity="0.3">
<path opacity="0.3" d="M328.982 151.345C329.731 151.345 330.338 150.739 330.338 149.99C330.338 149.242 329.731 148.635 328.982 148.635C328.235 148.635 327.627 149.242 327.627 149.99C327.627 150.739 328.235 151.345 328.982 151.345Z" fill="#00CF71"/>
</g>
<g opacity="0.3">
<path opacity="0.3" d="M333.574 151.345C334.322 151.345 334.929 150.739 334.929 149.99C334.929 149.242 334.322 148.635 333.574 148.635C332.825 148.635 332.218 149.242 332.218 149.99C332.218 150.739 332.825 151.345 333.574 151.345Z" fill="#00CF71"/>
</g>
<g opacity="0.3">
<path opacity="0.3" d="M378.842 166.952H333.574V212.221H378.842V166.952Z" fill="#00CF71"/>
</g>
<path d="M426.005 180.059C447.787 180.059 465.444 179.923 465.444 179.755C465.444 179.588 447.787 179.451 426.005 179.451C404.223 179.451 386.565 179.588 386.565 179.755C386.565 179.923 404.223 180.059 426.005 180.059Z" fill="#00CF71"/>
<path d="M426.005 188.469C447.787 188.469 465.444 188.333 465.444 188.165C465.444 187.998 447.787 187.861 426.005 187.861C404.223 187.861 386.565 187.998 386.565 188.165C386.565 188.333 404.223 188.469 426.005 188.469Z" fill="#00CF71"/>
<path d="M426.005 196.88C447.787 196.88 465.444 196.743 465.444 196.576C465.444 196.408 447.787 196.272 426.005 196.272C404.223 196.272 386.565 196.408 386.565 196.576C386.565 196.743 404.223 196.88 426.005 196.88Z" fill="#00CF71"/>
<path d="M433.176 204.986C432.569 205.079 431.956 205.117 431.342 205.103L426.342 205.197C422.125 205.197 416.296 205.29 409.859 205.29C403.422 205.29 397.592 205.29 393.375 205.197L388.375 205.103C387.762 205.117 387.147 205.079 386.541 204.986C387.147 204.894 387.762 204.856 388.375 204.87L393.375 204.776C397.592 204.776 403.422 204.683 409.859 204.683C416.296 204.683 422.125 204.683 426.342 204.776L431.342 204.87C431.956 204.856 432.569 204.894 433.176 204.986Z" fill="#00CF71"/>
<g opacity="0.3">
<path opacity="0.3" d="M357.686 227.49H336.412V248.764H357.686V227.49Z" fill="#00CF71"/>
</g>
<g opacity="0.3">
<path opacity="0.3" d="M396.273 227.49H375V248.764H396.273V227.49Z" fill="#00CF71"/>
</g>
<g opacity="0.3">
<path opacity="0.3" d="M434.859 227.49H413.585V248.764H434.859V227.49Z" fill="#00CF71"/>
</g>
<g opacity="0.3">
<path opacity="0.3" d="M473.445 227.49H452.172V248.764H473.445V227.49Z" fill="#00CF71"/>
</g>
<path d="M159.789 185.9H8.59741V247.314H159.789V185.9Z" fill="white"/>
<path d="M159.789 247.313C159.789 247.313 159.789 246.939 159.789 246.215V243.025V230.806L159.613 185.923L159.777 186.086L8.59741 186.156L8.83105 185.923C8.83105 207.43 8.83105 228.189 8.83105 247.336L8.59741 247.103L116.997 247.208L148.445 247.266H156.856H148.492L117.102 247.325L8.53899 247.43H8.30536V247.196C8.30536 228.049 8.30536 207.289 8.30536 185.782V185.549H8.55067L159.73 185.619H159.894V185.923L159.8 230.934C159.8 236.226 159.8 240.28 159.8 243.119V246.273C159.8 246.962 159.789 247.313 159.789 247.313Z" fill="#00CF71"/>
<path d="M8.73657 194.182C8.73657 194.053 42.5333 193.937 84.2155 193.937C125.898 193.937 159.695 194.042 159.695 194.182C159.695 194.322 125.91 194.415 84.2155 194.415C42.5216 194.415 8.73657 194.322 8.73657 194.182Z" fill="#00CF71"/>
<g opacity="0.3">
<path opacity="0.3" d="M13.9714 191.577C14.578 191.577 15.0696 191.085 15.0696 190.479C15.0696 189.873 14.578 189.381 13.9714 189.381C13.365 189.381 12.8733 189.873 12.8733 190.479C12.8733 191.085 13.365 191.577 13.9714 191.577Z" fill="#00CF71"/>
</g>
<g opacity="0.3">
<path opacity="0.3" d="M17.7339 191.577C18.3404 191.577 18.832 191.085 18.832 190.479C18.832 189.873 18.3404 189.381 17.7339 189.381C17.1274 189.381 16.6357 189.873 16.6357 190.479C16.6357 191.085 17.1274 191.577 17.7339 191.577Z" fill="#00CF71"/>
</g>
<g opacity="0.3">
<path opacity="0.3" d="M21.4372 191.577C22.0436 191.577 22.5353 191.085 22.5353 190.479C22.5353 189.873 22.0436 189.381 21.4372 189.381C20.8306 189.381 20.3391 189.873 20.3391 190.479C20.3391 191.085 20.8306 191.577 21.4372 191.577Z" fill="#00CF71"/>
</g>
<g opacity="0.3">
<path opacity="0.3" d="M57.9552 204.171H21.4365V240.69H57.9552V204.171Z" fill="#00CF71"/>
</g>
<path d="M107.358 214.18C130.54 214.18 149.333 214.076 149.333 213.947C149.333 213.818 130.54 213.713 107.358 213.713C84.1767 213.713 65.3841 213.818 65.3841 213.947C65.3841 214.076 84.1767 214.18 107.358 214.18Z" fill="#00CF71"/>
<path d="M107.358 221.624C130.54 221.624 149.333 221.52 149.333 221.39C149.333 221.261 130.54 221.156 107.358 221.156C84.1767 221.156 65.3841 221.261 65.3841 221.39C65.3841 221.52 84.1767 221.624 107.358 221.624Z" fill="#00CF71"/>
<path d="M119.415 228.829C119.232 228.85 119.048 228.85 118.866 228.829H117.289L111.448 228.91L92.3471 228.98L73.2349 228.91L67.3938 228.829H65.8167C65.6343 228.85 65.4501 228.85 65.2676 228.829C65.4501 228.806 65.6343 228.806 65.8167 228.829H67.3938L73.2349 228.747L92.3471 228.677L111.448 228.747L117.289 228.829H118.866C119.048 228.806 119.232 228.806 119.415 228.829Z" fill="#00CF71"/>
<path d="M270.888 108.724C268.353 107.03 264.871 108.058 262.336 109.752C259.801 111.445 257.664 113.759 254.801 114.857C249.474 116.924 242.477 114.471 238.341 118.361C235.713 120.861 235.444 124.973 233.435 127.999C230.047 133.092 221.928 135.008 221.227 141.083C220.818 144.588 223.621 148.022 227.068 149.015C228.808 149.423 230.617 149.453 232.37 149.103C234.124 148.751 235.782 148.029 237.231 146.983C240.736 144.646 243.423 141.141 247.383 139.81C251.343 138.478 256.414 139.588 259.603 136.772C262.792 133.957 262.313 128.758 264.603 125.16C265.979 123.383 267.604 121.813 269.428 120.499C271.145 119.015 272.78 117.181 273.072 114.927C273.364 112.672 272.442 108.829 270.888 108.747" fill="#F5F5F5"/>
<path d="M206.666 359.345C206.806 359.253 206.56 358.632 206.117 357.959C205.673 357.285 205.201 356.813 205.061 356.905C204.921 356.997 205.166 357.619 205.609 358.292C206.053 358.966 206.526 359.438 206.666 359.345Z" fill="#263238"/>
<path d="M200.044 346.375C201.152 348.005 201.908 349.846 202.264 351.784C201.158 350.154 200.401 348.312 200.044 346.375Z" fill="#263238"/>
<path d="M197.336 335.021C198.085 336.843 198.447 338.801 198.4 340.769C197.65 338.948 197.287 336.991 197.336 335.021Z" fill="#263238"/>
<path d="M196.928 323.354C197.305 325.285 197.277 327.274 196.846 329.195C196.467 327.262 196.495 325.274 196.928 323.354Z" fill="#263238"/>
<path d="M198.819 311.831C198.807 313.801 198.386 315.746 197.581 317.544C197.592 315.574 198.014 313.629 198.819 311.831Z" fill="#263238"/>
<path d="M203.025 300.946C202.624 302.869 201.828 304.687 200.688 306.285C201.089 304.363 201.884 302.546 203.025 300.946Z" fill="#263238"/>
<path d="M209.461 291.214C209.138 292.148 208.63 293.006 207.966 293.738C207.449 294.579 206.779 295.316 205.992 295.911C205.828 295.806 206.518 294.684 207.475 293.376C208.433 292.067 209.321 291.063 209.461 291.214Z" fill="#263238"/>
<path d="M215.507 284.908C216.619 283.741 217.423 282.7 217.301 282.585C217.18 282.469 216.18 283.322 215.067 284.49C213.954 285.657 213.151 286.698 213.272 286.814C213.394 286.929 214.395 286.077 215.507 284.908Z" fill="#263238"/>
<path d="M223.703 276.531C224.835 275.383 225.657 274.356 225.537 274.238C225.418 274.12 224.403 274.956 223.271 276.104C222.139 277.254 221.318 278.281 221.437 278.398C221.557 278.516 222.571 277.68 223.703 276.531Z" fill="#263238"/>
<path d="M231.604 267.898C232.627 266.651 233.352 265.553 233.222 265.447C233.092 265.34 232.158 266.266 231.134 267.512C230.112 268.759 229.388 269.857 229.518 269.963C229.647 270.069 230.582 269.144 231.604 267.898Z" fill="#263238"/>
<path d="M239.181 255.409C239.079 256.401 238.743 257.353 238.2 258.19C237.452 259.638 236.646 260.69 236.506 260.596C236.738 259.639 237.133 258.73 237.674 257.909C238.033 256.997 238.542 256.151 239.181 255.409Z" fill="#263238"/>
<path d="M242.021 244.124C242.263 246.096 241.93 248.096 241.063 249.883C241.136 247.93 241.458 245.994 242.021 244.124Z" fill="#263238"/>
<path d="M241.157 232.51C242.006 234.306 242.318 236.311 242.056 238.281C241.512 236.403 241.209 234.464 241.157 232.51Z" fill="#263238"/>
<path d="M236.565 221.819C236.706 221.726 237.558 222.742 238.329 224.156C238.884 224.986 239.227 225.942 239.322 226.936C238.682 226.194 238.166 225.354 237.792 224.448C237.248 223.642 236.833 222.755 236.565 221.819Z" fill="#263238"/>
<path d="M228.41 213.54C229.364 213.832 230.232 214.358 230.933 215.07C232.195 216.122 233.013 217.173 232.884 217.278C232.756 217.383 231.716 216.554 230.548 215.538C229.38 214.521 228.317 213.68 228.41 213.54Z" fill="#263238"/>
<path d="M217.792 208.794C219.782 208.859 221.706 209.518 223.318 210.686C221.408 210.274 219.554 209.64 217.792 208.794Z" fill="#263238"/>
<path d="M206.192 208.268C208.06 207.563 210.102 207.457 212.033 207.964C211.084 208.215 210.103 208.318 209.124 208.268C208.152 208.418 207.164 208.418 206.192 208.268Z" fill="#263238"/>
<path d="M195.408 212.556C195.314 212.427 196.319 211.539 197.744 210.768C198.576 210.211 199.537 209.877 200.536 209.799C199.782 210.421 198.939 210.93 198.036 211.306C197.227 211.851 196.341 212.273 195.408 212.556Z" fill="#263238"/>
<path d="M187.381 220.967C187.634 220 188.129 219.111 188.818 218.385C189.822 217.088 190.85 216.236 190.967 216.352C191.084 216.469 190.278 217.521 189.297 218.759C188.315 219.997 187.533 221.049 187.381 220.967Z" fill="#263238"/>
<path d="M183.41 231.87C183.227 230.886 183.304 229.871 183.632 228.926C183.782 227.933 184.183 226.996 184.8 226.204C184.762 227.184 184.577 228.153 184.251 229.078C184.109 230.044 183.825 230.984 183.41 231.87Z" fill="#263238"/>
<path d="M184.835 243.373C184.218 242.582 183.817 241.644 183.667 240.651C183.339 239.706 183.258 238.693 183.433 237.707C183.847 238.596 184.126 239.541 184.263 240.511C184.597 241.431 184.79 242.396 184.835 243.373Z" fill="#263238"/>
<path d="M190.758 253.385C190.63 253.49 189.672 252.579 188.714 251.259C188.055 250.51 187.59 249.612 187.359 248.642C187.511 248.56 188.282 249.612 189.216 250.909C189.863 251.642 190.384 252.48 190.758 253.385Z" fill="#263238"/>
<path d="M199.368 261.261C198.424 260.951 197.564 260.427 196.856 259.731C195.595 258.714 194.718 257.71 194.824 257.593C194.929 257.476 195.992 258.247 197.23 259.263C198.468 260.28 199.461 261.121 199.368 261.261Z" fill="#263238"/>
<path d="M209.497 267.065C208.519 266.906 207.584 266.549 206.751 266.014C205.303 265.278 204.204 264.565 204.286 264.413C206.188 264.926 207.963 265.829 209.497 267.065Z" fill="#263238"/>
<path d="M220.607 270.607C218.627 270.638 216.674 270.138 214.953 269.158C216.9 269.36 218.805 269.849 220.607 270.607Z" fill="#263238"/>
<path d="M232.242 271.204C230.345 271.794 228.319 271.833 226.401 271.32C227.353 271.072 228.34 270.985 229.321 271.063C230.296 270.948 231.283 270.996 232.242 271.204Z" fill="#263238"/>
<path d="M243.492 268.2C241.891 269.377 239.984 270.064 238.001 270.174C239.741 269.289 241.585 268.627 243.492 268.2Z" fill="#263238"/>
<path d="M253.236 261.855C253.353 261.972 252.465 263.024 251.168 263.958C250.439 264.639 249.558 265.137 248.598 265.407C248.505 265.267 249.521 264.449 250.794 263.468C252.068 262.486 253.119 261.692 253.236 261.855Z" fill="#263238"/>
<path d="M260.841 252.979C260.571 253.94 260.079 254.824 259.404 255.56C258.423 256.869 257.453 257.768 257.325 257.651C257.709 256.745 258.246 255.911 258.914 255.187C259.883 253.913 260.701 252.885 260.841 252.979Z" fill="#263238"/>
<path d="M265.897 242.476C265.679 244.449 264.923 246.324 263.713 247.896C264.181 245.995 264.916 244.171 265.897 242.476Z" fill="#263238"/>
<path d="M268.166 231.027C268.426 233.01 268.153 235.027 267.372 236.868C267.338 234.892 267.605 232.922 268.166 231.027Z" fill="#263238"/>
<path d="M267.862 219.354C268.418 221.248 268.574 223.238 268.318 225.195C267.762 223.301 267.606 221.311 267.862 219.354Z" fill="#263238"/>
<path d="M266.843 213.609C267.006 213.566 266.796 212.268 266.374 210.71C265.953 209.153 265.48 207.927 265.318 207.971C265.157 208.014 265.367 209.312 265.787 210.869C266.209 212.427 266.682 213.653 266.843 213.609Z" fill="#263238"/>
<path d="M260.852 197.157C261.537 197.875 262.067 198.726 262.405 199.657C262.894 200.522 263.2 201.475 263.305 202.461C262.651 201.72 262.154 200.853 261.845 199.914C261.334 199.071 260.997 198.134 260.852 197.157Z" fill="#263238"/>
<path d="M258.051 192.017C258.196 191.932 257.652 190.735 256.836 189.344C256.02 187.953 255.242 186.893 255.097 186.978C254.952 187.064 255.497 188.26 256.312 189.651C257.129 191.043 257.908 192.102 258.051 192.017Z" fill="#263238"/>
<path d="M252.121 181.937C252.269 181.856 251.755 180.647 250.973 179.235C250.193 177.824 249.44 176.746 249.293 176.827C249.147 176.908 249.661 178.117 250.442 179.53C251.223 180.941 251.975 182.019 252.121 181.937Z" fill="#263238"/>
<path d="M244.743 166.062C245.793 167.725 246.485 169.586 246.776 171.53C245.725 169.869 245.034 168.006 244.743 166.062Z" fill="#263238"/>
<path d="M242.757 154.6C243.093 155.525 243.268 156.501 243.271 157.485C243.474 158.45 243.509 159.442 243.376 160.417C242.639 158.563 242.425 156.543 242.757 154.576V154.6Z" fill="#263238"/>
<path d="M243.714 142.978C243.813 143.955 243.742 144.944 243.504 145.898C243.46 146.881 243.248 147.849 242.873 148.76C242.644 147.792 242.644 146.784 242.873 145.816C242.926 144.816 243.215 143.844 243.714 142.978Z" fill="#263238"/>
<path d="M247.523 131.961C247.374 132.934 247.058 133.874 246.589 134.741C246.32 135.675 245.893 136.556 245.327 137.346C245.339 136.363 245.578 135.394 246.028 134.519C246.318 133.56 246.829 132.684 247.523 131.961Z" fill="#263238"/>
<path d="M254.04 122.288C254.168 122.404 253.397 123.456 252.416 124.729C251.435 126.003 250.605 127.007 250.465 126.914C250.748 125.956 251.251 125.08 251.937 124.355C252.93 123.059 253.911 122.171 254.04 122.288Z" fill="#263238"/>
<path d="M262.849 114.602C262.943 114.742 261.938 115.571 260.665 116.552C259.937 117.231 259.095 117.777 258.176 118.165C258.071 118.037 258.959 117.055 260.244 116.062C260.985 115.376 261.879 114.875 262.849 114.602Z" fill="#263238"/>
<path d="M273.201 109.308C271.536 110.342 269.729 111.129 267.839 111.644C269.381 110.394 271.235 109.587 273.201 109.308Z" fill="#263238"/>
<path d="M280.3 107.729C281.093 107.583 281.711 107.331 281.681 107.166C281.651 107.001 280.984 106.985 280.19 107.132C279.397 107.278 278.778 107.53 278.808 107.695C278.839 107.86 279.507 107.875 280.3 107.729Z" fill="#263238"/>
<path d="M305.514 72.7663C305.514 72.7663 319.241 62.9765 338.224 69.2616C338.224 69.2616 339.79 84.9859 324.556 97.4859" fill="#00CF71"/>
<path d="M262.264 101.809C262.848 102.685 277.743 126.622 277.743 126.622L322.428 99.0869C324.273 97.9496 325.862 96.4416 327.095 94.6582C328.326 92.8748 329.174 90.8549 329.585 88.7265C329.995 86.5982 329.96 84.4077 329.48 82.2939C329 80.1801 328.086 78.189 326.797 76.4467C324.401 73.2134 320.852 71.0272 316.886 70.3419C312.919 69.6567 308.842 70.5251 305.5 72.7668L262.264 101.809Z" fill="#00CF71"/>
<path d="M277.732 126.634L276.728 143.48C276.728 143.48 305.7 129.461 298.468 113.854L277.732 126.634Z" fill="#263238"/>
<path d="M282.966 87.9072C282.966 87.9072 263.317 79.239 247.148 91.9493L262.265 101.809L282.966 87.9072Z" fill="#263238"/>
<path d="M282.836 101.808L254.869 119.331C254.869 119.331 255.827 122.334 256.586 122.088C257.346 121.843 278.222 109.46 285.044 105.43C285.306 105.275 285.532 105.065 285.706 104.815C285.879 104.564 285.995 104.279 286.047 103.979C286.099 103.679 286.086 103.372 286.007 103.077C285.929 102.783 285.787 102.51 285.593 102.275C285.27 101.875 284.811 101.607 284.304 101.521C283.796 101.435 283.275 101.537 282.836 101.808Z" fill="#263238"/>
<path d="M308.584 97.5202C313.527 97.5202 317.533 93.5138 317.533 88.5716C317.533 83.6295 313.527 79.623 308.584 79.623C303.643 79.623 299.636 83.6295 299.636 88.5716C299.636 93.5138 303.643 97.5202 308.584 97.5202Z" fill="#FAFAFA"/>
<path d="M317.544 88.573C317.474 88.573 317.544 87.7786 317.147 86.4118C316.62 84.4956 315.47 82.81 313.876 81.6221C312.709 80.7563 311.345 80.1959 309.907 79.992C308.468 79.7879 307.001 79.9468 305.64 80.4539C304.029 81.0387 302.628 82.0924 301.621 83.4796C300.53 84.9624 299.942 86.7553 299.942 88.5964C299.942 90.4375 300.53 92.2304 301.621 93.7132C302.628 95.1004 304.029 96.1542 305.64 96.7389C307.001 97.2462 308.468 97.4049 309.907 97.2008C311.345 96.9969 312.709 96.4365 313.876 95.5707C315.47 94.3829 316.62 92.6972 317.147 90.781C317.509 89.4258 317.474 88.6198 317.544 88.6198C317.571 88.8096 317.571 89.0024 317.544 89.1922C317.542 89.7433 317.475 90.2922 317.346 90.8277C316.887 92.8416 315.743 94.6338 314.11 95.8978C312.985 96.7768 311.668 97.3772 310.266 97.6501C308.646 97.9629 306.972 97.8338 305.418 97.2763C303.696 96.6651 302.199 95.5498 301.119 94.0754C299.947 92.4936 299.314 90.5769 299.314 88.6081C299.314 86.6393 299.947 84.7226 301.119 83.1408C302.199 81.6665 303.696 80.5511 305.418 79.9399C306.972 79.3824 308.646 79.2533 310.266 79.566C311.668 79.8389 312.985 80.4394 314.11 81.3184C315.743 82.5824 316.887 84.3746 317.346 86.3885C317.475 86.9241 317.542 87.4729 317.544 88.024C317.569 88.2062 317.569 88.3909 317.544 88.573Z" fill="#263238"/>
<path d="M328.445 94.5395C328.328 94.5395 328.2 92.7988 327.511 90.0769C327.096 88.4991 326.569 86.953 325.933 85.4507C324.386 81.7372 322.186 78.3306 319.438 75.3923C318.317 74.1931 317.11 73.0764 315.828 72.0512C313.632 70.3105 312.09 69.4694 312.148 69.3643C312.56 69.4865 312.952 69.6632 313.317 69.89C313.748 70.1102 314.165 70.356 314.567 70.6259C315.034 70.9414 315.595 71.2685 316.144 71.7124C317.467 72.6838 318.71 73.7622 319.859 74.9367C322.707 77.8857 324.952 81.3618 326.471 85.1703C327.089 86.7197 327.577 88.3179 327.931 89.9484C328.106 90.6376 328.176 91.2801 328.27 91.8409C328.353 92.3162 328.407 92.796 328.433 93.2778C328.493 93.696 328.497 94.1203 328.445 94.5395Z" fill="#263238"/>
<path d="M326.026 95.8279C325.909 95.8279 325.769 94.0639 325.068 91.2952C324.657 89.6786 324.129 88.0937 323.491 86.5522C321.923 82.771 319.696 79.2982 316.914 76.2952C315.778 75.0723 314.556 73.9323 313.257 72.884C311.037 71.0966 309.472 70.2204 309.53 70.127C309.943 70.2581 310.335 70.4427 310.699 70.676C311.118 70.9057 311.523 71.1592 311.914 71.4354C312.393 71.7508 312.953 72.1013 313.514 72.6036C314.87 73.6228 316.14 74.752 317.311 75.9798C320.193 78.9939 322.466 82.5362 324.005 86.412C324.632 87.9884 325.129 89.6139 325.488 91.2718C325.664 91.9728 325.745 92.627 325.839 93.1877C325.922 93.6709 325.977 94.1584 326.002 94.648C326.057 95.0389 326.065 95.435 326.026 95.8279Z" fill="#263238"/>
<path d="M52.5711 467.206C51.5664 463.234 54.1949 459.262 57.1271 456.412C60.0594 453.562 63.5641 450.991 65.0944 447.195C67.5827 441.05 64.3234 433.047 68.5991 427.931C71.0874 424.917 75.515 423.935 77.7229 420.711C78.7222 418.91 79.376 416.937 79.6505 414.893C82.0393 404.664 87.1309 395.264 94.3935 387.675C94.8407 396.801 92.823 405.88 88.5524 413.96C86.8351 417.184 84.7323 420.326 84.1482 423.924C83.2019 429.765 86.4846 435.828 84.9659 441.576C83.2837 448.141 75.8655 452.51 75.4799 459.286C75.1528 465.01 80.1528 470.069 79.7089 475.781C79.4053 478.247 78.5116 480.604 77.1038 482.65C72.6295 489.987 66.0991 495.022 56.2393 494.8L44.1599 495.151L52.5711 467.206Z" fill="#00CF71"/>
<g opacity="0.3">
<path opacity="0.3" d="M52.5711 467.206C51.5664 463.234 54.1949 459.262 57.1271 456.412C60.0594 453.562 63.5641 450.991 65.0944 447.195C67.5827 441.05 64.3234 433.047 68.5991 427.931C71.0874 424.917 75.515 423.935 77.7229 420.711C78.7222 418.91 79.376 416.937 79.6505 414.893C82.0393 404.664 87.1309 395.264 94.3935 387.675C94.8407 396.801 92.823 405.88 88.5524 413.96C86.8351 417.184 84.7323 420.326 84.1482 423.924C83.2019 429.765 86.4846 435.828 84.9659 441.576C83.2837 448.141 75.8655 452.51 75.4799 459.286C75.1528 465.01 80.1528 470.069 79.7089 475.781C79.4053 478.247 78.5116 480.604 77.1038 482.65C72.6295 489.987 66.0991 495.022 56.2393 494.8L44.1599 495.151L52.5711 467.206Z" fill="black"/>
</g>
<path d="M41.7064 495.42C40.5996 495.582 39.473 495.551 38.377 495.326C37.0425 495.127 35.7315 494.794 34.4634 494.333C32.7126 493.714 31.0778 492.805 29.627 491.646C28.7581 490.936 28.0797 490.02 27.6527 488.983C27.2939 487.812 27.109 486.596 27.1036 485.373C27.098 484.073 27.02 482.774 26.87 481.483C26.6439 480.104 26.1519 478.783 25.4214 477.593C24.0078 475.081 21.6597 472.698 20.912 469.298C20.1644 465.899 20.7134 462.289 21.2975 458.714C21.8816 455.139 22.4658 451.144 21.0756 447.371C19.6854 443.597 17.1737 440.163 15.877 435.899C14.5802 431.635 15.1877 426.927 14.9541 422.371C14.8837 420.053 14.364 417.773 13.4237 415.653C12.4541 413.516 11.0873 411.483 10.0709 409.228C7.95643 404.672 7.60596 399.509 7.04521 394.45L6.22744 386.728C6.06463 384.113 5.63005 381.52 4.93071 378.995C4.12817 376.444 3.17637 373.944 2.08026 371.506C1.51235 370.242 1.05123 368.933 0.701746 367.593C0.507322 366.214 0.386435 364.825 0.339597 363.434C0.225747 360.644 0.350812 357.85 0.713428 355.081C1.05221 352.301 1.57792 349.532 1.88166 346.74V346.261L1.95174 345.7L2.44239 345.946C4.9959 347.266 7.21061 349.156 8.91436 351.471C10.5873 353.719 11.9326 356.193 12.9097 358.819C14.8957 364.018 15.5966 369.462 16.5779 374.66C17.5592 379.859 18.8209 384.964 21.4611 389.298C22.7695 391.46 24.3583 393.434 25.7485 395.537C27.2338 397.59 28.2433 399.949 28.7041 402.441C29.3933 407.558 26.5545 412.02 27.1153 416.553C27.3814 418.78 28.1224 420.922 29.2882 422.838C30.3746 424.777 31.6246 426.565 32.863 428.375C34.1013 430.135 35.1765 432.004 36.0756 433.96C36.9141 435.879 37.4045 437.931 37.5242 440.023C37.7929 444.1 37.1971 447.955 37.5242 451.6C37.8381 455.073 38.8304 458.45 40.4447 461.541C41.8933 464.52 43.4938 467.219 44.8489 469.824C45.5168 471.078 46.1211 472.365 46.6597 473.679C47.1388 474.913 47.4873 476.193 47.6994 477.499C48.0297 479.784 48.0297 482.106 47.6994 484.392C47.3641 487.583 46.151 490.621 44.1947 493.165C43.8985 493.542 43.5702 493.895 43.2134 494.217C42.9735 494.467 42.7071 494.69 42.419 494.882C41.9634 495.21 41.7298 495.361 41.7298 495.361C42.5909 494.669 43.3742 493.886 44.0662 493.025C45.9432 490.474 47.0938 487.462 47.3957 484.31C47.68 482.049 47.6406 479.76 47.2788 477.511C47.0591 476.232 46.7068 474.978 46.2274 473.773C45.7251 472.523 45.0592 471.261 44.405 469.964C43.0499 467.371 41.426 464.684 39.9424 461.693C38.2802 458.552 37.2522 455.114 36.9167 451.576C36.6246 447.85 37.2088 443.971 36.9167 439.999C36.7912 437.983 36.3086 436.005 35.4915 434.158C34.6006 432.239 33.537 430.405 32.3139 428.679C31.1457 426.88 29.8139 425.081 28.6924 423.107C27.4787 421.113 26.7059 418.882 26.426 416.565C25.877 411.74 28.6924 407.219 27.9915 402.546C27.5391 400.16 26.5614 397.906 25.1293 395.946C23.7625 393.878 22.162 391.903 20.8186 389.696C18.0966 385.245 16.7999 380.034 15.8302 374.824C14.8606 369.614 14.1363 364.217 12.1854 359.123C11.2505 356.559 9.95646 354.139 8.34193 351.939C6.71255 349.721 4.59375 347.91 2.15034 346.646L2.71109 346.343V346.833C2.39567 349.66 1.86996 352.418 1.54286 355.175C1.19067 357.885 1.06951 360.621 1.18071 363.352C1.2286 364.7 1.34557 366.046 1.53118 367.382C1.87071 368.674 2.31614 369.936 2.86297 371.156C3.96897 373.621 4.92859 376.148 5.73679 378.726C6.43646 381.315 6.86324 383.969 7.01015 386.646L7.82792 394.368C8.37699 399.45 8.72744 404.52 10.7602 408.924C11.7648 411.121 13.0966 413.142 14.1013 415.361C15.0778 417.573 15.6135 419.954 15.6784 422.371C15.912 427.044 15.2812 431.588 16.5195 435.724C17.7578 439.859 20.363 443.282 21.6714 447.184C22.9798 451.086 22.4658 455.21 21.8583 458.866C21.2508 462.523 20.6901 466.039 21.4144 469.252C22.1387 472.464 24.3816 474.859 25.8186 477.429C26.5662 478.669 27.0661 480.041 27.2905 481.471C27.4433 482.785 27.5214 484.108 27.5242 485.432C27.5172 486.617 27.6825 487.797 28.0148 488.936C28.4146 489.925 29.0527 490.8 29.8723 491.483C31.272 492.631 32.8506 493.544 34.5452 494.182C35.7965 494.663 37.0915 495.024 38.412 495.256C39.222 495.403 40.0423 495.485 40.8653 495.502C41.426 495.408 41.7064 495.42 41.7064 495.42Z" fill="#263238"/>
<path d="M4.35765 352.979C4.41274 353.094 4.45203 353.216 4.47447 353.341L4.73148 354.427C4.96513 355.385 5.23382 356.764 5.68943 358.609C6.14503 360.455 7.24317 362.429 8.15438 364.929C9.0656 367.429 10.0819 370.28 10.9815 373.516C11.881 376.752 12.6754 380.327 13.5165 384.158C14.2277 388.253 15.5055 392.227 17.3132 395.969C18.2945 397.932 19.3927 399.929 20.2688 402.102C21.1233 404.339 21.6924 406.675 21.9628 409.053C22.562 413.955 23.4199 418.822 24.5329 423.633L31.2034 451.577L36.7992 474.369L40.5025 489.754L41.4721 493.948L41.7058 495.046C41.7223 495.17 41.7223 495.296 41.7058 495.42C41.6466 495.306 41.6034 495.184 41.5773 495.058L41.2735 493.983L40.1053 489.824L36.2151 474.474L30.4558 451.729L23.7268 423.773C22.6261 418.927 21.7877 414.025 21.2151 409.088C20.9559 406.771 20.4063 404.494 19.5796 402.313C18.7385 400.186 17.652 398.212 16.6707 396.226C14.844 392.433 13.558 388.403 12.8506 384.252C12.0445 380.408 11.2852 376.834 10.4207 373.621C9.55625 370.408 8.63335 367.535 7.72214 365.046C6.81092 362.558 5.79457 360.502 5.38569 358.644C4.97681 356.787 4.75485 355.385 4.56793 354.415L4.38102 353.317C4.35965 353.206 4.3518 353.092 4.35765 352.979Z" fill="#263238"/>
<path d="M39.5807 495.441C31.7186 490.71 29.534 476.469 32.8751 467.918C36.2162 459.367 42.0223 451.563 42.9569 442.451C43.6812 435.441 41.4265 428.21 43.0971 421.364C45.3518 412.112 54.4405 405.009 54.3821 395.476C54.3821 390.138 51.3448 385.091 51.6134 379.752C51.9522 373.21 56.999 368.07 60.1415 362.299C64.9546 353.502 65.3284 343.07 67.0106 333.187C68.6929 323.303 72.5247 312.731 81.3214 307.906C82.5714 316.317 84.7443 322.077 83.9849 333.455C83.7162 337.544 78.9148 345.336 78.2256 354.296C77.805 359.647 77.513 365.009 77.1508 370.36C76.7887 375.71 76.4382 380.874 74.534 385.745C73.0854 389.472 70.7606 392.86 69.6742 396.715C67.6298 403.958 70.2116 411.843 68.506 419.191C67.1041 425.418 62.7583 430.757 61.8471 437.065C60.562 445.932 66.2513 455.196 63.2606 463.642C61.777 467.836 58.2957 471.189 57.291 475.523C56.5083 478.888 57.291 482.451 56.6134 485.839C55.4452 491.282 45.0597 495.453 39.5106 495.091" fill="#00CF71"/>
<path d="M79.1145 316.234C79.1321 316.393 79.1321 316.554 79.1145 316.713L78.9276 318.092C78.7407 319.26 78.5304 321.083 78.0982 323.384C77.6659 325.685 76.4393 328.302 75.4696 331.433C74.5 334.564 73.4253 338.174 72.514 342.216C71.6028 346.258 70.8084 350.732 69.9907 355.545C69.1729 360.358 68.2851 365.604 65.8668 370.615C64.6986 373.127 63.5304 375.65 62.5491 378.325C61.5935 381.081 60.989 383.947 60.75 386.854C60.301 393.009 59.5209 399.135 58.4136 405.206L51.4042 440.253L45.3295 468.816L41.1939 488.045L40.0257 493.267L39.722 494.622C39.692 494.779 39.645 494.932 39.5818 495.078C39.5649 494.922 39.5649 494.766 39.5818 494.611L39.8271 493.244L40.8435 487.987L44.7337 468.699L50.5748 440.113L57.5257 405.066C58.659 399.011 59.4701 392.901 59.9556 386.76C60.1774 383.804 60.7701 380.889 61.7196 378.08C62.701 375.335 63.9626 372.811 65.0841 370.323C67.4907 365.393 68.3552 360.23 69.2313 355.44C70.1075 350.65 70.8902 346.094 71.8482 342.099C72.8061 338.104 73.8575 334.424 74.9206 331.304C75.9837 328.185 77.1869 325.58 77.6659 323.326C78.1449 321.071 78.3902 319.272 78.6355 318.068L78.8925 316.702C78.9476 316.538 79.0221 316.38 79.1145 316.234Z" fill="#263238"/>
<path d="M435.256 311.589H427.113V337.897H435.256V311.589Z" fill="#00CF71"/>
<path d="M450.244 300.77H442.102V337.896H450.244V300.77Z" fill="#00CF71"/>
<path d="M466.203 295.713H458.061V337.897H466.203V295.713Z" fill="#00CF71"/>
<path d="M482.15 290.373H474.007V337.896H482.15V290.373Z" fill="#00CF71"/>
<path d="M152.638 345.724C153.249 345.809 153.841 345.994 154.39 346.273C155.929 347.001 157.166 348.24 157.895 349.778C158.398 350.842 158.643 352.012 158.607 353.189C158.567 354.543 158.164 355.863 157.439 357.009C156.632 358.278 155.465 359.279 154.086 359.883C152.606 360.539 150.953 360.701 149.374 360.345C147.794 359.99 146.37 359.136 145.313 357.909C144.327 356.773 143.701 355.37 143.514 353.879C143.347 352.53 143.544 351.162 144.086 349.918C144.558 348.838 145.279 347.886 146.189 347.138C147.502 346.045 149.154 345.442 150.862 345.432C151.475 345.417 152.088 345.505 152.673 345.689C152.673 345.689 152.03 345.561 150.862 345.608C149.216 345.679 147.641 346.3 146.388 347.372C145.468 348.155 144.759 349.158 144.327 350.286C143.895 351.415 143.751 352.633 143.911 353.832C144.1 355.243 144.702 356.568 145.64 357.64C146.645 358.793 147.991 359.596 149.482 359.93C150.975 360.264 152.535 360.112 153.935 359.498C155.242 358.928 156.352 357.985 157.124 356.787C157.778 355.772 158.168 354.61 158.258 353.407C158.348 352.202 158.134 350.995 157.638 349.895C156.961 348.391 155.803 347.158 154.343 346.39C153.28 345.876 152.626 345.771 152.638 345.724Z" fill="#263238"/>
<path d="M158.585 337.791C158.578 337.705 158.578 337.619 158.585 337.534V336.739V333.62V333.69L151.868 332.218L151.985 332.16L150.209 335.933V336.003H150.127C148.634 336.069 147.158 336.331 145.735 336.786H145.653L145.595 336.727L142.522 333.819H142.709L136.868 337.522L136.938 337.323L138.34 341.248V341.354L138.27 341.435C137.258 342.531 136.398 343.757 135.711 345.08V345.174H131.436L131.623 345.022L130.151 351.809L130.046 351.587L133.807 353.375H133.912V353.492C133.974 354.98 134.234 356.453 134.683 357.872V357.989L134.59 358.083L131.646 361.038V360.781L135.338 366.622L135.092 366.541L139.018 365.139H139.134L139.228 365.22C140.319 366.231 141.541 367.091 142.861 367.779L142.978 367.966V370.022C142.978 370.715 142.978 371.409 142.978 372.101L142.814 371.891L149.543 373.398L149.31 373.515L151.097 369.753V369.636H151.225C152.713 369.579 154.186 369.324 155.606 368.877H155.723L155.817 368.97L158.772 371.914H158.527L164.368 368.223L164.286 368.456L162.896 364.531V364.426L162.978 364.344C163.992 363.253 164.856 362.031 165.548 360.711V360.618H169.824L169.648 360.758L171.179 354.029L171.272 354.216L167.511 352.417H167.429V352.323C167.375 350.833 167.124 349.355 166.681 347.931V347.849L166.739 347.791L169.695 344.847V344.999L166.027 339.157H166.144L162.207 340.536C161.383 339.761 160.487 339.07 159.532 338.468L158.819 338.036L158.585 337.896L158.842 338.013C159.006 338.094 159.251 338.223 159.578 338.421C160.557 338.999 161.473 339.675 162.312 340.442H162.242L166.167 339.017H166.237V339.087L169.952 344.928V345.01L169.882 345.08L167.055 347.872V347.732C167.516 349.177 167.784 350.678 167.849 352.195L167.768 352.066L171.541 353.842H171.658V353.97L170.162 360.711V360.851H165.852L166.015 360.758C165.313 362.111 164.432 363.364 163.398 364.484V364.286L164.8 368.211V368.363L164.672 368.445L158.831 372.148L158.69 372.23L158.574 372.113L155.618 369.169H155.828C154.374 369.628 152.866 369.892 151.342 369.952L151.518 369.835L149.73 373.597L149.66 373.749H149.497L142.768 372.241H142.604V367.931L142.721 368.118C141.371 367.414 140.121 366.534 139.006 365.501H139.216L135.291 366.903H135.127L135.034 366.763L131.342 360.921L131.249 360.781L131.366 360.664L134.31 357.709V357.919C133.85 356.465 133.588 354.956 133.527 353.433L133.644 353.608L129.882 351.821L129.742 351.751V351.599L131.261 344.87V344.718H135.583L135.419 344.812C136.125 343.461 137.009 342.212 138.048 341.097V341.272L136.681 337.463V337.335L136.798 337.265L142.639 333.585L142.744 333.515L142.826 333.597L145.77 336.552H145.63C147.081 336.101 148.585 335.845 150.104 335.793L149.999 335.863L151.798 332.101V332.02H151.88L158.609 333.573C158.609 334.917 158.609 335.91 158.609 336.669V337.463C158.609 337.573 158.602 337.682 158.585 337.791Z" fill="#263238"/>
<path fill-rule="evenodd" clip-rule="evenodd" d="M145.863 285.394C147.34 286.163 148.707 287.126 149.929 288.257L154.275 286.714L158.352 293.163L155.104 296.434C155.605 298.021 155.891 299.667 155.957 301.329L160.116 303.303L158.445 310.745H153.842C153.074 312.221 152.111 313.588 150.98 314.81L152.522 319.156L146.027 323.245L142.756 319.997C141.169 320.498 139.523 320.785 137.861 320.85L135.887 325.009L128.504 323.338V318.724C127.027 317.955 125.66 316.993 124.438 315.862L120.092 317.404L115.992 310.92L119.251 307.649C118.75 306.063 118.464 304.417 118.398 302.754L114.24 300.78L115.91 293.338H120.525C121.293 291.862 122.256 290.495 123.387 289.273L121.845 284.927L128.293 280.85L131.564 284.109C133.151 283.608 134.797 283.322 136.459 283.257L138.433 279.098L145.875 280.768V285.383L145.863 285.394ZM139.298 294.156C137.72 293.803 136.074 293.926 134.565 294.509C133.057 295.091 131.755 296.108 130.825 297.429C129.894 298.752 129.376 300.321 129.336 301.938C129.298 303.553 129.738 305.146 130.603 306.511C131.468 307.877 132.718 308.956 134.196 309.612C135.674 310.267 137.314 310.47 138.907 310.195C140.5 309.918 141.975 309.176 143.147 308.063C144.319 306.948 145.134 305.511 145.49 303.934C145.728 302.885 145.757 301.8 145.575 300.74C145.394 299.681 145.005 298.667 144.43 297.758C143.856 296.848 143.109 296.061 142.23 295.441C141.352 294.821 140.359 294.38 139.31 294.144L139.298 294.156Z" fill="#00CF71"/>
<g opacity="0.8">
<path opacity="0.8" fill-rule="evenodd" clip-rule="evenodd" d="M145.863 285.394C147.34 286.163 148.707 287.126 149.929 288.257L154.275 286.714L158.352 293.163L155.104 296.434C155.605 298.021 155.891 299.667 155.957 301.329L160.116 303.303L158.445 310.745H153.842C153.074 312.221 152.111 313.588 150.98 314.81L152.522 319.156L146.027 323.245L142.756 319.997C141.169 320.498 139.523 320.785 137.861 320.85L135.887 325.009L128.504 323.338V318.724C127.027 317.955 125.66 316.993 124.438 315.862L120.092 317.404L115.992 310.92L119.251 307.649C118.75 306.063 118.464 304.417 118.398 302.754L114.24 300.78L115.91 293.338H120.525C121.293 291.862 122.256 290.495 123.387 289.273L121.845 284.927L128.293 280.85L131.564 284.109C133.151 283.608 134.797 283.322 136.459 283.257L138.433 279.098L145.875 280.768V285.383L145.863 285.394ZM139.298 294.156C137.72 293.803 136.074 293.926 134.565 294.509C133.057 295.091 131.755 296.108 130.825 297.429C129.894 298.752 129.376 300.321 129.336 301.938C129.298 303.553 129.738 305.146 130.603 306.511C131.468 307.877 132.718 308.956 134.196 309.612C135.674 310.267 137.314 310.47 138.907 310.195C140.5 309.918 141.975 309.176 143.147 308.063C144.319 306.948 145.134 305.511 145.49 303.934C145.728 302.885 145.757 301.8 145.575 300.74C145.394 299.681 145.005 298.667 144.43 297.758C143.856 296.848 143.109 296.061 142.23 295.441C141.352 294.821 140.359 294.38 139.31 294.144L139.298 294.156Z" fill="white"/>
</g>
<path fill-rule="evenodd" clip-rule="evenodd" d="M118.947 329.239C119.797 329.691 120.582 330.253 121.284 330.909L123.807 330.01L126.144 333.76L124.251 335.664C124.544 336.588 124.714 337.546 124.754 338.514L127.172 339.682L126.202 344.017H123.515C123.064 344.866 122.502 345.652 121.845 346.353L122.744 348.876L118.994 351.213L117.09 349.32C116.166 349.61 115.207 349.775 114.24 349.811L113.071 352.229L108.737 351.26V348.573C107.888 348.122 107.102 347.56 106.401 346.902L103.877 347.802L101.541 344.052L103.434 342.147C103.14 341.225 102.971 340.265 102.931 339.297L100.513 338.129L101.483 333.795H104.17C104.62 332.945 105.182 332.16 105.84 331.458L104.941 328.935L108.691 326.598L110.595 328.491C111.518 328.198 112.477 328.028 113.445 327.989L114.613 325.57L118.947 326.54V329.227V329.239ZM115.127 334.285C114.207 334.08 113.247 334.151 112.367 334.491C111.488 334.831 110.729 335.423 110.187 336.195C109.644 336.966 109.343 337.881 109.32 338.824C109.298 339.767 109.556 340.694 110.061 341.491C110.566 342.286 111.296 342.915 112.158 343.296C113.02 343.678 113.977 343.795 114.905 343.632C115.834 343.47 116.694 343.035 117.376 342.385C118.058 341.734 118.532 340.895 118.737 339.975C119.013 338.742 118.786 337.45 118.11 336.383C117.433 335.317 116.36 334.562 115.127 334.285Z" fill="#00CF71"/>
<g opacity="0.4">
<path opacity="0.4" fill-rule="evenodd" clip-rule="evenodd" d="M118.947 329.239C119.797 329.691 120.582 330.253 121.284 330.909L123.807 330.01L126.144 333.76L124.251 335.664C124.544 336.588 124.714 337.546 124.754 338.514L127.172 339.682L126.202 344.017H123.515C123.064 344.866 122.502 345.652 121.845 346.353L122.744 348.876L118.994 351.213L117.09 349.32C116.166 349.61 115.207 349.775 114.24 349.811L113.071 352.229L108.737 351.26V348.573C107.888 348.122 107.102 347.56 106.401 346.902L103.877 347.802L101.541 344.052L103.434 342.147C103.14 341.225 102.971 340.265 102.931 339.297L100.513 338.129L101.483 333.795H104.17C104.62 332.945 105.182 332.16 105.84 331.458L104.941 328.935L108.691 326.598L110.595 328.491C111.518 328.198 112.477 328.028 113.445 327.989L114.613 325.57L118.947 326.54V329.227V329.239ZM115.127 334.285C114.207 334.08 113.247 334.151 112.367 334.491C111.488 334.831 110.729 335.423 110.187 336.195C109.644 336.966 109.343 337.881 109.32 338.824C109.298 339.767 109.556 340.694 110.061 341.491C110.566 342.286 111.296 342.915 112.158 343.296C113.02 343.678 113.977 343.795 114.905 343.632C115.834 343.47 116.694 343.035 117.376 342.385C118.058 341.734 118.532 340.895 118.737 339.975C119.013 338.742 118.786 337.45 118.11 336.383C117.433 335.317 116.36 334.562 115.127 334.285Z" fill="white"/>
</g>
<path d="M376.961 286.248C379.408 285.544 381.549 284.04 383.043 281.978C384.539 279.916 385.3 277.414 385.209 274.869C385.069 272.533 384.216 270.36 384.31 268.07C384.461 264.566 386.821 261.517 388.597 258.433C390.373 255.348 391.564 251.283 389.496 248.397C388.153 246.517 385.782 245.676 384.158 244.04C382.534 242.404 381.821 240.22 380.957 238.129C380.092 236.038 379.006 233.876 377.043 232.767C375.081 231.657 372.078 232.147 371.272 234.262" fill="#263238"/>
<path d="M355.735 228.619C359.239 226.4 360.081 221.248 358.188 217.556C356.296 213.865 352.265 211.633 348.176 210.968C345.206 210.521 342.172 210.783 339.322 211.732C336.472 212.679 333.885 214.286 331.775 216.423C329.52 218.76 327.686 221.785 324.625 222.848C321.938 223.783 318.959 222.942 316.132 223.304C314.246 223.645 312.461 224.403 310.908 225.522C309.353 226.643 308.069 228.096 307.148 229.776C305.34 233.157 304.253 236.876 303.959 240.699C303.55 244.203 303.27 248 300.863 250.547C298.457 253.094 294.789 253.549 291.856 255.313C289.169 257.087 287.282 259.84 286.598 262.986C285.915 266.131 286.489 269.42 288.2 272.147C289.368 273.841 291.027 275.395 291.155 277.439C291.284 279.309 290.069 280.944 289.508 282.755C289.211 283.907 289.166 285.109 289.373 286.281C289.581 287.451 290.036 288.564 290.711 289.545C291.385 290.525 292.262 291.348 293.282 291.961C294.301 292.573 295.44 292.959 296.623 293.094C299.053 293.234 301.658 292.288 303.831 293.374C306.003 294.46 306.798 297.066 308.188 299.04C309.607 300.956 311.643 302.327 313.952 302.922C316.262 303.518 318.706 303.302 320.875 302.311C322.662 301.435 324.38 299.975 326.342 300.126C328.305 300.278 329.847 301.949 331.833 302.334C334.391 302.825 336.81 300.944 338.328 298.83C339.847 296.715 340.91 294.227 342.849 292.498C345.396 290.232 348.971 289.671 352.195 288.573C355.762 287.344 359.022 285.364 361.758 282.765C364.493 280.167 366.638 277.012 368.048 273.513C369.458 270.013 370.099 266.253 369.931 262.484C369.762 258.715 368.785 255.027 367.067 251.668" fill="#263238"/>
<path d="M363.423 233.21C364.815 233.361 366.101 234.031 367.025 235.083C367.947 236.137 368.443 237.499 368.411 238.9L365.082 314.425C364.942 323.351 351.904 328.362 342.348 328.14C332.699 327.918 332.395 323.187 332.266 314.694C332.068 300.512 332.079 295.185 332.079 295.267C332.079 295.348 319.895 293.21 317.407 277.299C316.168 269.39 316.589 256.423 317.29 245.816C317.909 236.271 324.299 224.577 333.762 225.605L363.423 233.21Z" fill="#FFBE9D"/>
<path d="M320.783 256.155C320.776 256.686 320.978 257.2 321.345 257.587C321.71 257.973 322.214 258.2 322.745 258.223C323.005 258.243 323.265 258.211 323.512 258.13C323.758 258.049 323.987 257.919 324.182 257.747C324.379 257.577 324.539 257.369 324.653 257.135C324.766 256.901 324.833 256.648 324.848 256.389C324.855 255.856 324.653 255.342 324.286 254.955C323.921 254.57 323.417 254.342 322.886 254.321C322.626 254.3 322.366 254.331 322.119 254.412C321.872 254.494 321.644 254.623 321.449 254.795C321.252 254.966 321.092 255.174 320.978 255.407C320.863 255.641 320.798 255.894 320.783 256.155Z" fill="#263238"/>
<path d="M320.093 252.605C320.35 252.873 321.893 251.728 324.089 251.74C326.285 251.752 327.886 252.908 328.131 252.581C328.376 252.254 327.991 251.985 327.29 251.413C326.341 250.752 325.21 250.4 324.054 250.408C322.914 250.401 321.801 250.756 320.876 251.425C320.187 252.009 319.953 252.511 320.093 252.605Z" fill="#263238"/>
<path d="M342.664 256.155C342.658 256.686 342.859 257.2 343.225 257.587C343.592 257.973 344.095 258.2 344.626 258.223C344.886 258.243 345.146 258.211 345.394 258.13C345.64 258.049 345.868 257.919 346.064 257.747C346.261 257.577 346.419 257.369 346.534 257.135C346.648 256.901 346.715 256.648 346.729 256.389C346.736 255.856 346.535 255.342 346.168 254.955C345.801 254.57 345.299 254.342 344.766 254.321C344.508 254.3 344.248 254.331 344 254.412C343.754 254.494 343.526 254.623 343.329 254.795C343.133 254.966 342.974 255.174 342.86 255.407C342.745 255.641 342.679 255.894 342.664 256.155Z" fill="#263238"/>
<path d="M341.647 253.06C341.904 253.328 343.446 252.183 345.643 252.195C347.839 252.207 349.439 253.363 349.685 253.036C349.93 252.709 349.544 252.44 348.843 251.868C347.895 251.207 346.764 250.856 345.607 250.863C344.468 250.858 343.355 251.214 342.43 251.88C341.764 252.511 341.53 252.943 341.647 253.06Z" fill="#263238"/>
<path d="M333.644 269.322C332.487 268.956 331.291 268.736 330.081 268.668C329.52 268.61 328.994 268.493 328.912 268.119C328.864 267.541 328.995 266.961 329.286 266.46L330.957 262.196C333.293 256.121 334.952 251.133 334.707 251.039C334.461 250.946 332.37 255.794 330.034 261.869L328.433 266.156C328.082 266.831 327.978 267.608 328.141 268.353C328.222 268.55 328.348 268.726 328.508 268.868C328.668 269.01 328.857 269.113 329.064 269.17C329.373 269.257 329.69 269.303 330.011 269.31C331.216 269.469 332.437 269.473 333.644 269.322Z" fill="#263238"/>
<path d="M332.079 295.302C339.567 295.433 346.943 293.483 353.388 289.671C353.388 289.671 347.991 300.886 332.079 299.367V295.302Z" fill="#EB996E"/>
<path d="M334.568 274.612C334.983 274.093 335.521 273.688 336.133 273.433C336.747 273.177 337.414 273.08 338.072 273.152C338.557 273.196 339.027 273.339 339.454 273.57C339.882 273.8 340.258 274.115 340.561 274.495C340.847 274.864 341.015 275.312 341.044 275.778C341.074 276.245 340.963 276.709 340.724 277.112C340.373 277.504 339.91 277.784 339.398 277.913C338.887 278.042 338.348 278.015 337.85 277.836C336.814 277.467 335.861 276.895 335.047 276.154C334.798 275.978 334.584 275.756 334.416 275.5C334.335 275.378 334.292 275.237 334.292 275.091C334.292 274.945 334.335 274.804 334.416 274.682" fill="#00CF71"/>
<path d="M340.104 270.861C339.742 270.861 339.742 273.197 337.697 274.903C335.653 276.609 333.118 276.317 333.095 276.655C333.095 276.807 333.655 277.123 334.73 277.146C336.129 277.168 337.489 276.697 338.574 275.814C339.614 274.967 340.285 273.748 340.443 272.415C340.536 271.433 340.268 270.838 340.104 270.861Z" fill="#263238"/>
<path d="M340.676 249.214C340.887 249.809 343.083 249.529 345.653 249.844C348.223 250.16 350.326 250.872 350.653 250.335C350.805 250.078 350.443 249.517 349.602 248.933C348.482 248.223 347.216 247.777 345.898 247.628C344.581 247.481 343.247 247.635 341.997 248.08C341.05 248.466 340.583 248.933 340.676 249.214Z" fill="#263238"/>
<path d="M320.898 246.258C321.284 246.76 322.803 246.258 324.613 246.258C326.424 246.258 327.966 246.596 328.328 246.082C328.48 245.825 328.246 245.335 327.569 244.914C326.667 244.349 325.617 244.064 324.551 244.094C323.487 244.126 322.456 244.471 321.588 245.089C320.933 245.498 320.723 246.012 320.898 246.258Z" fill="#263238"/>
<path d="M352.977 228.046C354.789 226.777 356.85 225.912 359.026 225.509C361.2 225.106 363.436 225.174 365.582 225.71C369.822 226.878 373.339 230.756 373.491 235.055C373.584 237.871 372.322 240.896 373.619 243.385C374.916 245.873 377.731 246.773 379.799 248.525C381.393 249.919 382.474 251.804 382.873 253.884C383.271 255.962 382.961 258.114 381.995 259.997C380.255 263.186 376.61 265.523 376.306 269.121C376.014 272.509 378.876 275.371 379.565 278.7C380.336 282.368 378.304 286.177 375.383 288.607C372.463 291.037 368.783 292.392 365.185 293.677C362.381 294.693 359.343 295.71 356.458 295.055C354.752 294.597 353.22 293.643 352.056 292.315C350.891 290.986 350.147 289.343 349.916 287.59C349.744 285.845 349.952 284.083 350.525 282.426C351.097 280.769 352.021 279.255 353.234 277.988C355.278 275.733 358.14 273.829 358.631 270.861C359.39 266.188 353.888 262.438 354.227 257.766C354.402 255.359 356.096 253.361 357.521 251.375C358.946 249.389 360.173 246.901 359.297 244.635C358.129 241.691 354.308 240.931 351.972 238.794C351.009 237.887 350.317 236.732 349.972 235.455C349.627 234.178 349.645 232.83 350.021 231.562C350.446 230.296 351.208 229.17 352.224 228.303C353.242 227.436 354.474 226.864 355.792 226.644" fill="#263238"/>
<path d="M354.694 224.473C354.702 226.073 354.356 227.655 353.683 229.106C353.009 230.557 352.023 231.842 350.796 232.867C349.569 233.894 348.13 234.637 346.583 235.044C345.035 235.45 343.417 235.511 341.843 235.22C339.414 234.776 336.75 233.55 334.647 234.846C332.544 236.143 332.311 239.519 330.383 241.248C327.579 243.678 323.117 241.4 319.565 242.416C316.82 243.234 315.103 245.863 313.269 248.071C311.435 250.279 308.713 252.381 305.956 251.575C306.035 249.096 306.4 246.635 307.042 244.239C307.701 241.824 309.175 239.711 311.213 238.258C312.415 237.636 313.585 236.954 314.717 236.213C317.054 234.367 317.533 231.166 318.935 228.596C319.862 226.942 321.169 225.531 322.75 224.483C324.331 223.435 326.139 222.779 328.023 222.568C331.154 222.253 334.379 223.187 337.369 222.416C339.624 221.844 341.598 220.384 343.876 219.951C348.327 219.11 352.463 222.288 355.687 225.477" fill="#263238"/>
<path d="M383.749 262.476C384.029 261.908 384.151 261.274 384.099 260.642C383.952 259.797 383.576 259.01 383.012 258.365C382.447 257.72 381.716 257.244 380.898 256.986C379.756 256.581 378.584 256.265 377.394 256.039C375.973 255.78 374.623 255.223 373.433 254.404C372.804 253.891 372.293 253.247 371.938 252.517C371.583 251.786 371.391 250.987 371.377 250.175C371.366 248.501 371.447 246.828 371.623 245.163C371.667 244.348 371.624 243.529 371.494 242.722C371.341 241.964 371.021 241.251 370.56 240.63C369.514 239.553 368.186 238.792 366.728 238.434C365.362 238.037 364.051 237.472 362.826 236.752C360.22 235.155 358.222 232.733 357.148 229.871C356.977 229.419 356.84 228.954 356.739 228.481C356.689 228.318 356.666 228.149 356.669 227.979C356.669 227.979 356.88 228.644 357.37 229.789C358.061 231.397 359.043 232.862 360.268 234.112C362.099 235.956 364.396 237.268 366.915 237.908C368.48 238.28 369.907 239.091 371.027 240.245C371.55 240.935 371.914 241.733 372.09 242.581C372.231 243.439 372.278 244.308 372.23 245.175C372.058 246.816 371.972 248.466 371.973 250.116C371.974 250.852 372.137 251.579 372.45 252.246C372.763 252.912 373.218 253.501 373.784 253.972C374.907 254.754 376.18 255.295 377.522 255.56C378.716 255.813 379.888 256.161 381.027 256.6C382.005 256.973 382.859 257.613 383.492 258.446C383.959 259.085 384.238 259.842 384.298 260.63C384.331 261.127 384.23 261.623 384.006 262.067C383.952 262.222 383.865 262.362 383.749 262.476Z" fill="#455A64"/>
<path d="M290.056 272.369C289.966 272.342 289.88 272.304 289.799 272.252C289.554 272.102 289.349 271.894 289.203 271.645C288.982 271.137 288.897 270.581 288.954 270.03C289.012 269.48 289.21 268.953 289.53 268.502C289.932 267.81 290.525 267.245 291.236 266.879C292.065 266.466 292.921 266.107 293.794 265.804C294.778 265.478 295.687 264.961 296.47 264.285C297.272 263.457 297.805 262.407 298 261.271C298.269 260.103 298.35 258.771 298.561 257.416C298.731 255.966 299.276 254.585 300.138 253.409C301.995 250.967 305.021 249.671 307.287 247.381C308.423 246.18 309.273 244.738 309.776 243.164C310.318 241.505 310.709 239.799 310.944 238.07C311.435 234.565 311.937 230.664 314.285 227.463C315.433 225.856 317.151 224.749 319.086 224.367C320.928 224.107 322.799 224.154 324.624 224.507C326.329 224.831 328.069 224.933 329.799 224.811C331.429 224.621 332.932 223.846 334.028 222.626C336.201 220.29 337.451 217.136 340.115 215.523C341.307 214.797 342.636 214.324 344.019 214.133C345.401 213.942 346.808 214.037 348.152 214.414C350.384 215.043 352.283 216.519 353.444 218.526C354.319 220.015 354.794 221.706 354.822 223.432C354.853 224.514 354.679 225.592 354.308 226.61C354.189 226.964 354.033 227.305 353.841 227.626C353.841 227.626 353.981 227.264 354.192 226.563C354.504 225.55 354.633 224.491 354.577 223.432C354.512 221.756 354.021 220.124 353.152 218.689C352.012 216.787 350.178 215.401 348.035 214.822C346.748 214.484 345.404 214.414 344.089 214.614C342.772 214.815 341.512 215.284 340.383 215.991C339.16 216.832 338.116 217.908 337.311 219.157C336.44 220.522 335.475 221.826 334.425 223.058C333.84 223.695 333.153 224.232 332.393 224.647C331.604 225.055 330.75 225.32 329.869 225.43C328.089 225.564 326.298 225.466 324.542 225.138C322.783 224.799 320.979 224.751 319.203 224.998C317.415 225.355 315.831 226.383 314.776 227.871C313.711 229.377 312.938 231.069 312.498 232.86C312.081 234.62 311.761 236.403 311.54 238.199C311.31 239.964 310.918 241.703 310.372 243.397C309.839 245.048 308.94 246.557 307.743 247.813C305.348 250.15 302.334 251.458 300.593 253.748C299.769 254.856 299.245 256.161 299.075 257.533C298.853 258.853 298.759 260.173 298.467 261.411C298.243 262.624 297.657 263.739 296.785 264.612C295.959 265.311 295.002 265.84 293.97 266.166C293.102 266.452 292.251 266.792 291.423 267.182C290.748 267.515 290.18 268.034 289.787 268.678C289.477 269.096 289.275 269.585 289.201 270.102C289.127 270.618 289.185 271.145 289.367 271.633C289.546 271.922 289.78 272.172 290.056 272.369Z" fill="#455A64"/>
<path d="M251.028 381.912L279.206 379.319C279.206 379.319 296.565 333.583 317.967 322.496L331.834 346.713L302.15 402.484H244.241L251.028 381.912Z" fill="#00CF71"/>
<path opacity="0.3" d="M251.028 381.912L279.206 379.319C279.206 379.319 296.565 333.583 317.967 322.496L331.834 346.713L302.15 402.484H244.241L251.028 381.912Z" fill="black"/>
<path d="M264.808 388.934C266.256 386.494 267.312 384.444 267.168 384.359C267.023 384.274 265.734 386.183 264.285 388.624C262.838 391.066 261.78 393.115 261.925 393.2C262.069 393.286 263.36 391.376 264.808 388.934Z" fill="#FAFAFA"/>
<path d="M282.165 394.305C282.296 394.2 280.963 392.325 279.189 390.119C277.415 387.911 275.87 386.206 275.739 386.311C275.609 386.416 276.94 388.291 278.715 390.498C280.489 392.706 282.034 394.411 282.165 394.305Z" fill="#FAFAFA"/>
<path d="M285.643 383.782C285.811 383.782 285.946 382.123 285.946 380.078C285.946 378.033 285.811 376.375 285.643 376.375C285.474 376.375 285.339 378.033 285.339 380.078C285.339 382.123 285.474 383.782 285.643 383.782Z" fill="#FAFAFA"/>
<path d="M275.709 400.15C275.801 400.01 274.742 399.155 273.343 398.24C271.944 397.325 270.736 396.698 270.645 396.838C270.553 396.979 271.612 397.834 273.011 398.748C274.409 399.663 275.617 400.29 275.709 400.15Z" fill="#FAFAFA"/>
<path d="M289.958 363.181C291.187 360.438 292.06 358.157 291.907 358.088C291.754 358.021 290.632 360.189 289.403 362.933C288.174 365.677 287.301 367.956 287.456 368.025C287.609 368.094 288.729 365.925 289.958 363.181Z" fill="#FAFAFA"/>
<path d="M301.091 341.611C302.438 340.59 303.449 339.653 303.347 339.52C303.245 339.386 302.071 340.105 300.724 341.126C299.377 342.147 298.367 343.084 298.468 343.217C298.57 343.351 299.744 342.632 301.091 341.611Z" fill="#FAFAFA"/>
<path d="M345.55 398.865L360.095 340.126C361.314 335.194 364.367 330.911 368.631 328.149C372.895 325.387 378.05 324.352 383.05 325.255C388.186 326.178 392.756 329.073 395.786 333.32C398.815 337.568 400.064 342.832 399.265 347.988L390.352 405.43C389.283 411.3 386.414 416.693 382.14 420.859C377.868 425.025 372.404 427.757 366.508 428.678L354.943 430.477L345.55 398.865Z" fill="#00CF71"/>
<path d="M391.356 321.434C389.842 320.19 388.07 319.3 386.169 318.829C384.109 318.351 381.967 318.351 379.908 318.829C377.4 319.463 375.07 320.662 373.097 322.334C368.833 325.909 366.508 330.511 364.919 333.806C364.137 335.453 363.541 336.82 363.12 337.754C362.93 338.251 362.69 338.729 362.408 339.18C362.52 338.659 362.683 338.149 362.898 337.661C363.261 336.703 363.786 335.324 364.522 333.631C365.376 331.647 366.375 329.73 367.513 327.895C368.912 325.627 370.659 323.593 372.688 321.866C374.725 320.118 377.147 318.874 379.756 318.233C381.896 317.745 384.123 317.773 386.251 318.315C387.676 318.681 389.015 319.329 390.188 320.219C390.505 320.46 390.801 320.725 391.076 321.014C391.356 321.306 391.415 321.434 391.356 321.434Z" fill="#263238"/>
<path d="M308.959 334.657C308.846 334.856 308.708 335.04 308.55 335.206L307.3 336.702C306.226 337.998 304.683 339.891 302.931 342.344C298.277 348.657 294.903 355.821 293.001 363.431C290.968 372.391 290.875 380.779 290.525 386.795C290.384 389.809 290.232 392.251 290.104 393.933L289.929 395.872C289.922 396.101 289.887 396.329 289.824 396.55C289.798 396.324 289.798 396.096 289.824 395.872V393.933L290.046 386.795C290.279 380.79 290.314 372.368 292.382 363.314C294.291 355.613 297.758 348.384 302.569 342.075C304.38 339.646 305.968 337.788 307.102 336.538C307.662 335.907 308.13 335.44 308.433 335.125C308.589 334.947 308.766 334.79 308.959 334.657Z" fill="#263238"/>
<path d="M402.22 334.53C400.619 324.016 394.813 321.492 388.808 318.174C386.846 317.1 377.371 314.67 369.86 312.836C369.147 308.28 367.862 300.137 367.523 298.42C367.126 296.002 329.252 302.041 328.773 302.952C328.458 303.548 327.605 312.988 327.033 319.308L317.967 322.474L306.133 337.52L299.977 346.27C296.354 351.309 293.76 357.014 292.348 363.058C291.028 369.757 290.459 376.583 290.654 383.408L288.82 421.96L368.061 444.366L374.194 405.289L394.673 377.509C396.414 366.259 404.206 347.45 402.22 334.53Z" fill="#00CF71"/>
<path d="M334.592 320.547C334.318 319.678 334.141 318.78 334.067 317.872C333.821 316.213 333.518 313.911 333.225 311.365L332.828 307.766C332.7 306.783 332.63 305.792 332.618 304.799C332.608 304.101 332.803 303.414 333.179 302.825C333.482 302.428 333.751 302.322 333.763 302.346C333.775 302.369 333.588 302.556 333.377 302.953C333.11 303.534 332.993 304.173 333.039 304.811C333.039 305.617 333.237 306.61 333.377 307.72L333.821 311.306C334.113 313.853 334.347 316.166 334.487 317.837C334.623 318.734 334.659 319.643 334.592 320.547Z" fill="#263238"/>
<path d="M344.696 318.152C344.3 317.377 344.018 316.551 343.855 315.698C342.807 311.65 342.412 307.462 342.687 303.292C342.693 302.425 342.822 301.563 343.072 300.733C343.259 300.733 342.921 304.682 343.376 309.495C343.832 314.308 344.871 318.105 344.696 318.152Z" fill="#263238"/>
<path d="M363.494 315.43C364.211 309.597 363.187 303.684 360.55 298.433C361.132 299.082 361.602 299.824 361.94 300.629C363.806 304.427 364.543 308.679 364.067 312.884C364.019 313.759 363.826 314.62 363.494 315.43Z" fill="#263238"/>
<path d="M309.685 349.789C311.492 346.35 313.839 343.223 316.636 340.525C315.639 342.167 314.519 343.729 313.283 345.198C312.204 346.82 311.001 348.355 309.685 349.789Z" fill="#FAFAFA"/>
<path d="M327.535 335.292C327.668 335.191 326.473 333.404 324.867 331.303C323.261 329.201 321.851 327.58 321.717 327.681C321.584 327.783 322.778 329.57 324.384 331.672C325.991 333.774 327.401 335.395 327.535 335.292Z" fill="#FAFAFA"/>
<path d="M346.192 326.109C343.754 328.669 341.221 331.135 338.598 333.504C340.633 330.577 343.21 328.066 346.192 326.109Z" fill="#FAFAFA"/>
<path d="M340.954 315.042C341.068 314.917 339.945 313.717 338.449 312.362C336.952 311.005 335.647 310.008 335.535 310.131C335.422 310.256 336.544 311.456 338.041 312.811C339.537 314.168 340.842 315.165 340.954 315.042Z" fill="#FAFAFA"/>
<path d="M353.367 307.461C355.576 306.989 357.336 306.473 357.301 306.308C357.266 306.144 355.449 306.394 353.241 306.867C351.032 307.341 349.271 307.857 349.306 308.021C349.341 308.185 351.159 307.934 353.367 307.461Z" fill="#FAFAFA"/>
<path d="M360.544 332.199C360.713 332.19 360.756 330.356 360.641 328.1C360.528 325.844 360.3 324.023 360.132 324.032C359.965 324.04 359.922 325.876 360.035 328.13C360.15 330.386 360.377 332.207 360.544 332.199Z" fill="#FAFAFA"/>
<path d="M354.598 344.622C354.756 344.565 354.095 342.356 353.123 339.689C352.151 337.021 351.235 334.906 351.077 334.963C350.919 335.02 351.579 337.229 352.551 339.896C353.525 342.564 354.44 344.679 354.598 344.622Z" fill="#FAFAFA"/>
<path d="M336.944 353.483C337.1 353.422 336.353 351.116 335.276 348.332C334.197 345.548 333.197 343.34 333.042 343.4C332.886 343.46 333.633 345.766 334.71 348.55C335.789 351.334 336.789 353.542 336.944 353.483Z" fill="#FAFAFA"/>
<path d="M323.175 363.349C323.34 363.316 323.019 361.07 322.458 358.333C321.898 355.597 321.311 353.405 321.146 353.438C320.982 353.472 321.303 355.718 321.863 358.455C322.424 361.191 323.011 363.383 323.175 363.349Z" fill="#FAFAFA"/>
<path d="M305.076 363.762C305.227 363.689 304.376 361.632 303.175 359.167C301.974 356.7 300.879 354.762 300.728 354.836C300.577 354.908 301.429 356.967 302.63 359.432C303.829 361.897 304.925 363.836 305.076 363.762Z" fill="#FAFAFA"/>
<path d="M299.963 378C302.658 376.668 304.783 375.467 304.708 375.316C304.634 375.166 302.389 376.124 299.693 377.455C296.998 378.787 294.873 379.988 294.947 380.139C295.021 380.29 297.266 379.332 299.963 378Z" fill="#FAFAFA"/>
<path d="M304.907 393.711C303.495 390.997 302.699 388.006 302.57 384.949C303.491 387.83 304.271 390.754 304.907 393.711Z" fill="#FAFAFA"/>
<path d="M301.172 406.571C301.285 406.448 299.76 404.868 297.765 403.042C295.771 401.217 294.063 399.839 293.95 399.963C293.836 400.087 295.361 401.666 297.355 403.491C299.35 405.316 301.058 406.695 301.172 406.571Z" fill="#FAFAFA"/>
<path d="M325.025 397.813C325.025 397.989 322.384 398.76 319.254 400.15C316.123 401.54 313.728 402.965 313.634 402.813C316.942 400.205 320.863 398.486 325.025 397.825V397.813Z" fill="#FAFAFA"/>
<path d="M318.054 391.382C318.213 391.327 317.701 389.445 316.911 387.179C316.122 384.912 315.353 383.119 315.194 383.174C315.035 383.23 315.548 385.112 316.338 387.379C317.127 389.645 317.895 391.437 318.054 391.382Z" fill="#FAFAFA"/>
<path d="M329 381.253C330.909 378.224 332.341 375.696 332.2 375.606C332.057 375.517 330.395 377.9 328.486 380.93C326.576 383.959 325.144 386.487 325.286 386.577C325.428 386.667 327.09 384.282 329 381.253Z" fill="#FAFAFA"/>
<path d="M347.395 377.135C344.48 373.836 342.196 370.031 340.654 365.909C340.818 365.839 342.173 368.432 344.03 371.516C345.888 374.6 347.535 377.03 347.395 377.135Z" fill="#FAFAFA"/>
<path d="M356.507 362.136C353.61 363.04 350.53 363.193 347.558 362.58C349.041 362.382 350.536 362.295 352.033 362.323C353.516 362.148 355.013 362.085 356.507 362.136Z" fill="#FAFAFA"/>
<path d="M372.415 348.078C375.647 346.537 378.209 345.165 378.137 345.014C378.064 344.863 375.386 345.989 372.153 347.529C368.921 349.07 366.359 350.441 366.431 350.593C366.502 350.744 369.182 349.617 372.415 348.078Z" fill="#FAFAFA"/>
<path d="M382.155 329.619C383.437 327.035 384.353 324.879 384.203 324.805C384.053 324.731 382.893 326.765 381.611 329.349C380.331 331.933 379.414 334.087 379.564 334.162C379.714 334.237 380.875 332.203 382.155 329.619Z" fill="#FAFAFA"/>
<path d="M393.307 342.694C392.585 340.969 391.992 339.192 391.532 337.379C390.879 335.629 390.355 333.832 389.966 332.005C391.708 335.34 392.84 338.96 393.307 342.694Z" fill="#FAFAFA"/>
<path d="M395.456 354.005C392.165 355.596 388.591 356.513 384.942 356.703C386.657 356.122 388.409 355.658 390.187 355.313C391.911 354.758 393.672 354.321 395.456 354.005Z" fill="#FAFAFA"/>
<path d="M371.916 367.823C371.741 367.823 372.243 364.949 372.383 361.41C372.523 357.87 372.29 354.996 372.465 354.973C373.35 359.236 373.162 363.651 371.916 367.823Z" fill="#FAFAFA"/>
<path d="M367.22 382.03C364.079 379.542 361.493 376.427 359.626 372.883C359.778 372.789 361.32 374.951 363.411 377.462C365.502 379.974 367.336 381.901 367.22 382.03Z" fill="#FAFAFA"/>
<path d="M385.975 381.367C388.731 380.216 390.914 379.157 390.849 379.003C390.784 378.847 388.498 379.656 385.741 380.806C382.985 381.958 380.803 383.017 380.867 383.172C380.931 383.326 383.218 382.519 385.975 381.367Z" fill="#FAFAFA"/>
<path d="M382.727 399.321C382.762 395.772 382.655 392.894 382.487 392.893C382.319 392.891 382.154 395.766 382.119 399.314C382.084 402.863 382.19 405.742 382.359 405.743C382.527 405.744 382.692 402.869 382.727 399.321Z" fill="#FAFAFA"/>
<path d="M364.242 404.25C364.535 399.784 365.632 395.407 367.478 391.329C367.641 391.388 366.754 394.226 365.866 397.789C364.978 401.352 364.417 404.273 364.242 404.25Z" fill="#FAFAFA"/>
<path d="M365.083 411.271C365.083 411.446 362.174 411.727 358.634 412.322C355.095 412.918 352.232 413.572 352.186 413.409C356.294 411.888 360.657 411.166 365.036 411.283L365.083 411.271Z" fill="#FAFAFA"/>
<path d="M348.935 403.21C350.971 401.103 352.522 399.301 352.402 399.185C352.282 399.068 350.534 400.681 348.498 402.787C346.463 404.895 344.911 406.698 345.032 406.813C345.152 406.93 346.9 405.317 348.935 403.21Z" fill="#FAFAFA"/>
<path d="M332.044 419.4C331.433 417.91 330.907 416.384 330.467 414.832C329.836 413.346 329.291 411.825 328.832 410.276C330.686 412.983 331.793 416.13 332.044 419.4Z" fill="#FAFAFA"/>
<path d="M353.018 426.658C353.086 426.505 350.574 425.241 347.408 423.835C344.241 422.429 341.618 421.414 341.55 421.567C341.482 421.72 343.994 422.984 347.161 424.391C350.327 425.796 352.95 426.811 353.018 426.658Z" fill="#FAFAFA"/>
<path d="M318.15 420.403C318.916 418.094 319.409 416.181 319.249 416.127C319.09 416.075 318.34 417.903 317.572 420.211C316.806 422.52 316.314 424.434 316.473 424.487C316.632 424.539 317.383 422.711 318.15 420.403Z" fill="#FAFAFA"/>
<path d="M340.537 428.572C340.537 428.747 337.185 428.21 333.049 428C328.914 427.789 325.561 428 325.549 427.778C330.546 427 335.651 427.27 340.537 428.572Z" fill="#FAFAFA"/>
<path d="M345.55 394.119C345.526 393.969 345.526 393.815 345.55 393.664C345.544 393.216 345.607 392.771 345.737 392.344C345.925 391.623 346.381 391 347.011 390.603C347.871 390.104 348.886 389.938 349.861 390.136L349.627 390.276C350.912 385.802 352.945 379.248 354.99 371.911C356.905 365.042 358.19 358.722 359.102 354.131L360.176 348.699C360.28 348.026 360.437 347.361 360.644 346.713C360.619 347.392 360.541 348.067 360.41 348.734C360.223 350.031 359.931 351.9 359.534 354.201C358.739 358.804 357.501 365.171 355.585 372.063C353.541 379.423 351.415 385.942 350.025 390.381V390.556H349.838C348.959 390.361 348.04 390.485 347.244 390.907C346.682 391.258 346.268 391.803 346.076 392.437C345.87 392.989 345.695 393.549 345.55 394.119Z" fill="#263238"/>
<path d="M371.741 410.372C371.636 410.372 370.923 408.842 369.404 406.482C365.516 400.317 360.025 395.326 353.516 392.043C351.028 390.793 349.381 390.22 349.416 390.115C349.818 390.17 350.21 390.275 350.584 390.431C351.64 390.755 352.674 391.146 353.68 391.599C360.4 394.718 366.007 399.813 369.755 406.202C370.324 407.158 370.831 408.149 371.273 409.169C371.484 409.547 371.641 409.952 371.741 410.372Z" fill="#263238"/>
<g opacity="0.2">
<path opacity="0.2" d="M350.105 389.248C354.306 389.373 358.463 390.141 362.43 391.526C366.624 393.103 370.502 396.106 372.044 400.311C372.293 400.788 372.404 401.325 372.364 401.861C372.326 402.398 372.138 402.913 371.822 403.349C371.522 403.604 371.159 403.774 370.769 403.838C370.38 403.901 369.98 403.858 369.615 403.711C368.884 403.403 368.224 402.95 367.675 402.379C365.105 400.042 362.43 397.893 359.766 395.603C357.103 393.313 353.248 390.93 349.778 390.381" fill="black"/>
</g>
<path d="M341.682 381.799C341.324 382.08 340.931 382.315 340.514 382.5C339.358 383.058 338.153 383.511 336.916 383.855C332.805 385.022 328.457 385.071 324.321 383.997C320.185 382.924 316.41 380.765 313.388 377.745C312.475 376.843 311.646 375.862 310.911 374.813C310.62 374.455 310.377 374.063 310.187 373.645C310.28 373.575 311.355 375.292 313.692 377.476C316.725 380.346 320.436 382.402 324.479 383.451C328.521 384.501 332.763 384.511 336.811 383.481C339.872 382.675 341.636 381.694 341.682 381.799Z" fill="#263238"/>
<g opacity="0.2">
<path opacity="0.2" d="M310.748 374.518C312.71 378.793 315.023 383.104 318.75 385.966C320.819 387.758 323.405 388.842 326.133 389.062C330.035 389.12 333.376 386.469 336.355 383.945C326.717 385.452 315.853 381.083 310.748 374.518Z" fill="black"/>
</g>
<path d="M353.973 317.266C353.786 317.266 353.973 313.259 353.529 308.364C353.085 303.469 352.092 299.579 352.279 299.532C352.662 300.329 352.933 301.174 353.085 302.044C354.069 306.174 354.463 310.421 354.254 314.661C354.279 315.538 354.185 316.414 353.973 317.266Z" fill="#263238"/>
<path d="M215.397 473.598C215.397 473.598 202.699 476.343 191.367 474.637C180.736 473.049 156.939 474.637 156.951 488.656C156.951 504.275 188.692 500.42 201.075 497.943C213.458 495.467 225.783 493.271 225.783 493.271L215.397 473.598Z" fill="#00CF71"/>
<path d="M186.938 493.586C187.102 493.55 186.68 491.055 185.996 488.015C185.313 484.974 184.626 482.539 184.463 482.576C184.299 482.613 184.721 485.107 185.404 488.148C186.088 491.188 186.775 493.623 186.938 493.586Z" fill="#263238"/>
<path d="M193.006 492.614C193.172 492.591 192.951 490.06 192.513 486.962C192.075 483.864 191.585 481.372 191.419 481.396C191.254 481.419 191.474 483.949 191.912 487.048C192.35 490.146 192.84 492.637 193.006 492.614Z" fill="#263238"/>
<path d="M195.426 492.171C195.593 492.152 195.463 489.939 195.137 487.23C194.81 484.52 194.409 482.34 194.243 482.36C194.076 482.381 194.207 484.593 194.533 487.302C194.86 490.011 195.261 492.192 195.426 492.171Z" fill="#263238"/>
<path d="M201.986 490.548C200.521 487.908 199.794 484.921 199.883 481.903C200.595 484.782 201.296 487.664 201.986 490.548Z" fill="#263238"/>
<path d="M203.387 484.836C203.931 484.715 204.491 484.68 205.046 484.731C206.571 484.777 208.078 485.073 209.508 485.607C210.004 485.777 210.47 486.026 210.887 486.343C211.136 486.52 211.342 486.751 211.492 487.017C211.64 487.283 211.73 487.58 211.751 487.885C211.725 488.221 211.626 488.548 211.461 488.843C211.297 489.138 211.07 489.394 210.797 489.593C210.523 489.791 210.21 489.928 209.88 489.995C209.548 490.061 209.207 490.054 208.877 489.976C207.53 489.613 206.355 488.786 205.56 487.64C204.658 486.49 204.016 485.158 203.679 483.738C203.324 482.367 203.264 480.937 203.506 479.544C203.748 478.149 204.285 476.823 205.081 475.654C205.319 475.357 205.654 475.154 206.027 475.081C206.216 475.053 206.408 475.068 206.59 475.124C206.772 475.182 206.939 475.279 207.078 475.408C207.529 475.87 207.81 476.471 207.873 477.114C208.015 478.173 207.96 479.25 207.709 480.291C207.359 481.79 206.621 483.171 205.571 484.298C205.289 484.597 204.98 484.871 204.648 485.116C204.415 485.28 204.286 485.35 204.275 485.338C204.263 485.326 204.718 484.941 205.443 484.17C206.389 483.027 207.042 481.672 207.347 480.221C207.56 479.229 207.591 478.208 207.44 477.207C207.383 476.687 207.153 476.201 206.786 475.829C206.697 475.762 206.595 475.715 206.487 475.691C206.379 475.665 206.266 475.663 206.158 475.683C206.048 475.701 205.944 475.743 205.852 475.805C205.758 475.866 205.679 475.946 205.618 476.039C204.55 477.747 204.029 479.74 204.123 481.752C204.217 483.763 204.922 485.699 206.144 487.301C206.845 488.343 207.884 489.111 209.088 489.474C209.339 489.537 209.599 489.546 209.853 489.502C210.107 489.457 210.349 489.359 210.563 489.215C210.777 489.071 210.958 488.883 211.095 488.663C211.231 488.444 211.319 488.199 211.354 487.943C211.335 487.713 211.268 487.489 211.154 487.288C211.041 487.086 210.887 486.911 210.7 486.775C210.329 486.481 209.916 486.243 209.473 486.074C208.09 485.522 206.634 485.171 205.151 485.034C203.982 484.871 203.387 484.883 203.387 484.836Z" fill="#263238"/>
<path d="M224.52 491.202L224.204 491.307L223.247 491.54L219.567 492.382C216.366 493.083 211.716 494.076 205.945 495.185C200.174 496.295 193.282 497.522 185.548 498.608C181.499 499.266 177.388 499.469 173.293 499.216C171.113 499.073 168.959 498.662 166.88 497.989C165.811 497.633 164.778 497.175 163.796 496.622C162.766 496.066 161.847 495.326 161.085 494.438C160.686 494.059 160.336 493.63 160.046 493.164C159.454 492.137 159.092 490.996 158.981 489.816C158.87 488.637 159.014 487.448 159.403 486.33C160.169 484.176 161.591 482.317 163.468 481.015C165.252 479.758 167.224 478.792 169.31 478.153C170.326 477.861 171.307 477.522 172.312 477.288C173.317 477.055 174.31 476.821 175.303 476.681C183.258 475.419 190.489 476.062 196.506 476.062C199.52 476.062 202.242 476.062 204.683 475.886C206.722 475.744 208.75 475.486 210.758 475.115L212.943 474.66L214.52 474.216L215.489 473.947L215.828 473.877L215.513 474.005L214.555 474.333L212.989 474.835L210.805 475.349C208.792 475.762 206.756 476.056 204.707 476.225C202.312 476.4 199.578 476.517 196.529 476.494C190.501 476.494 183.27 475.956 175.419 477.23C174.438 477.37 173.468 477.639 172.475 477.837C171.482 478.036 170.525 478.41 169.52 478.69C167.513 479.321 165.617 480.262 163.901 481.482C162.127 482.715 160.783 484.47 160.057 486.505C159.696 487.541 159.562 488.642 159.664 489.734C159.764 490.827 160.097 491.884 160.641 492.837C160.919 493.268 161.254 493.661 161.634 494.005C162.347 494.814 163.197 495.49 164.146 496.003C165.091 496.536 166.085 496.977 167.113 497.323C169.148 497.969 171.256 498.362 173.387 498.491C177.442 498.748 181.513 498.557 185.525 497.919C193.235 496.903 200.139 495.676 205.91 494.625C211.681 493.573 216.342 492.639 219.555 492.008L223.258 491.284L224.228 491.108L224.52 491.202Z" fill="#263238"/>
<path d="M178.096 498.728C177.91 497.655 177.808 496.569 177.792 495.481C177.652 493.483 177.407 490.714 177.009 487.688C176.612 484.663 176.11 481.929 175.713 479.955C175.442 478.9 175.255 477.825 175.152 476.742C175.592 477.742 175.922 478.789 176.133 479.861C177.405 484.982 178.106 490.228 178.224 495.504C178.298 496.58 178.255 497.66 178.096 498.728Z" fill="#263238"/>
<path opacity="0.4" d="M211.494 474.275L219.532 494.427L225.782 493.271L213.819 473.598L211.494 474.275Z" fill="black"/>
<path d="M316.354 419.042C315.057 419.474 231.915 396.168 198.282 386.717C193.916 385.49 189.339 385.206 184.855 385.885C180.371 386.564 176.083 388.189 172.277 390.654L171.868 390.911C166.35 394.483 162.07 399.67 159.609 405.764C157.148 411.858 156.627 418.564 158.118 424.965C159.077 429.086 160.845 432.975 163.32 436.406C165.794 439.837 168.926 442.743 172.534 444.953C194.73 458.539 241.634 487.114 243.071 486.565C244.952 485.841 303.562 484.322 303.562 484.322L233.06 433.586L266.599 455.268L316.354 419.053V419.042Z" fill="#4E36D7"/>
<path d="M246.929 393.736L264.604 384.589L281.94 395.453L346.835 397.568L356.181 429.11L262.256 407.334C262.256 407.334 245.165 408.841 243.88 404.998C242.595 401.154 246.929 393.736 246.929 393.736Z" fill="#FFBE9D"/>
<path d="M300.093 444.369L291.355 473.06L292.442 481.798C300.134 489.551 310.389 494.232 321.285 494.968C332.181 495.703 342.972 492.442 351.636 485.794C357.006 481.67 361.352 476.362 364.334 470.282C367.317 464.204 368.856 457.518 368.832 450.747L368.727 420.735L300.093 444.369Z" fill="#4E36D7"/>
<path d="M248.076 444.582C248.176 444.448 238.2 436.837 225.793 427.582C213.387 418.328 203.248 410.934 203.147 411.068C203.047 411.204 213.023 418.815 225.43 428.069C237.836 437.323 247.975 444.717 248.076 444.582Z" fill="#455A64"/>
<path d="M254.789 393.375C259.612 391.83 263.48 390.447 263.429 390.288C263.377 390.128 259.426 391.251 254.603 392.797C249.78 394.343 245.911 395.726 245.963 395.885C246.014 396.045 249.965 394.921 254.789 393.375Z" fill="#EB996E"/>
<path d="M264.731 395.711C263.744 395.981 262.736 396.169 261.717 396.272C259.86 396.575 257.29 397.031 254.498 397.674C251.706 398.316 249.194 399.029 247.383 399.566C246.423 399.917 245.435 400.186 244.428 400.372C245.318 399.875 246.263 399.483 247.243 399.204C251.909 397.526 256.756 396.401 261.682 395.851C262.69 395.686 263.714 395.64 264.731 395.711Z" fill="#EB996E"/>
<path d="M253.488 402.921C258.9 401.848 263.259 400.845 263.227 400.68C263.194 400.516 258.782 401.252 253.37 402.324C247.959 403.396 243.599 404.4 243.632 404.565C243.665 404.729 248.077 403.993 253.488 402.921Z" fill="#EB996E"/>
<path d="M240.327 351.352L256.682 404.997C256.773 405.297 256.952 405.561 257.196 405.757C257.44 405.954 257.737 406.072 258.049 406.095L302.442 409.425C302.833 409.455 303.199 409.631 303.466 409.92C303.732 410.207 303.88 410.586 303.878 410.978V413.724C303.878 413.932 303.838 414.136 303.757 414.326C303.676 414.518 303.56 414.691 303.411 414.836C303.263 414.981 303.088 415.094 302.895 415.17C302.703 415.246 302.496 415.282 302.29 415.277L180.794 412.941C180.484 412.936 180.182 412.837 179.928 412.658C179.674 412.478 179.479 412.227 179.369 411.936L158.014 355.978C157.928 355.749 157.896 355.503 157.923 355.259C157.95 355.016 158.033 354.781 158.168 354.576C158.303 354.371 158.484 354.2 158.696 354.079C158.909 353.957 159.148 353.887 159.393 353.876L238.727 350.161C239.091 350.141 239.451 350.248 239.744 350.465C240.036 350.684 240.243 350.998 240.327 351.352Z" fill="#455A64"/>
<path d="M206.098 374.473C205.501 374.693 204.968 375.059 204.549 375.535C204.128 376.013 203.834 376.587 203.692 377.207C203.634 377.852 203.75 378.5 204.025 379.088C204.3 379.674 204.724 380.178 205.257 380.548C205.897 381.011 206.661 381.274 207.451 381.303C208.242 381.332 209.022 381.126 209.696 380.712C210.371 380.208 210.856 379.49 211.069 378.673C211.282 377.858 211.209 376.994 210.864 376.226C210.327 374.742 207.617 373.714 206.051 374.473" fill="#E0E0E0"/>
<path d="M225.783 493.271L212.932 472.149L307.325 398.166C313.196 393.349 320.38 390.407 327.944 389.719C333.454 389.218 339.007 389.93 344.215 391.802C349.422 393.675 354.155 396.663 358.085 400.559C362.014 404.455 365.043 409.163 366.96 414.355C368.877 419.545 369.635 425.092 369.182 430.607L367.675 448.656L305.023 468.785L225.783 493.271Z" fill="#4E36D7"/>
<path d="M346.833 443.128C346.761 443.216 346.679 443.294 346.588 443.362L345.817 443.992L342.803 446.434L340.618 448.163C339.824 448.794 338.877 449.331 337.908 450.067L334.777 452.217C334.216 452.591 333.609 452.999 333.06 453.385L331.19 454.553C328.62 456.084 325.852 457.836 322.721 459.425C321.167 460.242 319.578 461.13 317.896 461.96L312.674 464.436C305.489 467.707 297.487 471.002 288.807 473.946C271.564 479.892 255.63 484.168 244.204 487.626C241.342 488.467 238.761 489.261 236.506 489.962C234.251 490.663 232.289 491.259 230.665 491.796L227.008 492.964L226.05 493.256L225.723 493.338L226.039 493.198L226.973 492.848L230.595 491.551C232.16 490.978 234.099 490.383 236.366 489.612C238.632 488.841 241.19 488.046 244.041 487.182C255.431 483.619 271.354 479.273 288.562 473.338C297.172 470.406 305.209 467.135 312.394 463.899L317.604 461.457C319.286 460.64 320.863 459.763 322.429 458.957C325.571 457.392 328.34 455.675 330.91 454.168L332.791 453.058C333.387 452.684 333.959 452.287 334.52 451.89L337.674 449.787C338.655 449.121 339.602 448.548 340.396 447.929L342.604 446.247L345.676 443.911L346.482 443.327C346.589 443.245 346.707 443.178 346.833 443.128Z" fill="#455A64"/>
<path d="M349.123 453.012C348.831 453.226 348.507 453.395 348.165 453.514C347.534 453.806 346.611 454.18 345.454 454.612C339.409 456.831 333.082 458.19 326.658 458.654C325.431 458.736 324.426 458.771 323.737 458.771C323.379 458.805 323.016 458.785 322.662 458.713C323.968 458.48 325.287 458.321 326.611 458.234C329.053 457.965 332.452 457.486 336.062 456.703C339.672 455.921 342.966 454.963 345.303 454.215C346.553 453.744 347.828 453.342 349.123 453.012Z" fill="#455A64"/>
<path d="M258.459 437.135C283.48 417.684 303.68 401.809 303.577 401.677C303.474 401.543 283.108 417.205 258.085 436.654C233.064 456.105 212.865 471.98 212.967 472.112C213.07 472.244 233.438 456.584 258.459 437.135Z" fill="#455A64"/>
<path d="M298.107 480.231C293.575 477.813 288.493 479.238 284.159 480.698C281.273 481.668 278.318 483.21 275.35 482.381C273.236 481.785 271.659 480.044 270.035 478.572C266.759 475.557 262.915 473.228 258.725 471.721C254.536 470.215 250.088 469.56 245.643 469.799C243.103 469.913 240.703 470.996 238.937 472.824C234.486 477.638 237.839 483.911 241.822 488.011C248.921 495.224 258.292 499.764 268.353 500.862C276.636 501.726 288.026 500.582 296.39 496.983C301.565 494.764 304.229 488.654 301.507 483.724C300.738 482.253 299.557 481.039 298.107 480.231Z" fill="#00CF71"/>
<g opacity="0.4">
<path opacity="0.4" d="M298.096 484.087C293.563 481.668 288.481 483.094 284.147 484.554C281.262 485.523 278.306 487.066 275.339 486.236C273.224 485.64 271.647 483.9 270.023 482.428C266.744 479.417 262.896 477.092 258.704 475.592C254.513 474.091 250.064 473.444 245.619 473.689C243.079 473.803 240.68 474.886 238.914 476.715C238.015 477.664 237.372 478.825 237.044 480.091C237.895 483.102 239.532 485.832 241.787 488C248.887 495.212 258.258 499.751 268.318 500.851C276.6 501.715 287.991 500.57 296.355 496.972C297.84 496.34 299.155 495.366 300.193 494.13C301.23 492.894 301.96 491.429 302.325 489.858C302.154 489.041 301.867 488.255 301.472 487.521C300.701 486.075 299.529 484.882 298.096 484.087Z" fill="black"/>
</g>
<path d="M302.395 489.811C302.196 488.854 301.819 487.943 301.285 487.124C300.637 486.196 299.815 485.403 298.867 484.787C297.623 483.941 296.199 483.398 294.708 483.198C291.343 482.801 287.453 484.215 283.119 485.395C280.981 485.955 278.645 486.832 276.11 486.563C274.829 486.4 273.596 485.975 272.488 485.313C271.387 484.625 270.347 483.843 269.381 482.976C264.257 478.202 257.78 475.133 250.841 474.191C249.025 473.932 247.179 473.932 245.362 474.191C243.868 474.413 242.429 474.917 241.121 475.675C240.146 476.265 239.271 477.007 238.528 477.871C237.926 478.646 237.369 479.453 236.857 480.289C237.216 479.362 237.722 478.499 238.353 477.731C239.086 476.814 239.966 476.024 240.958 475.395C242.29 474.583 243.765 474.035 245.304 473.782C247.164 473.513 249.051 473.513 250.911 473.782C253.043 474.039 255.145 474.509 257.185 475.184C259.438 475.927 261.614 476.89 263.68 478.058C264.782 478.669 265.84 479.356 266.846 480.114C267.85 480.909 268.808 481.773 269.79 482.614C270.729 483.479 271.742 484.26 272.815 484.951C273.852 485.57 275.006 485.967 276.203 486.119C278.54 486.434 280.876 485.617 283.014 485.056C287.325 483.888 291.285 482.521 294.801 482.976C296.16 483.173 297.461 483.654 298.621 484.389C299.782 485.124 300.772 486.096 301.53 487.24C301.929 487.867 302.214 488.559 302.371 489.285C302.395 489.459 302.403 489.635 302.395 489.811Z" fill="#263238"/>
<path d="M302.395 489.811C302.196 488.854 301.819 487.943 301.285 487.124C300.637 486.196 299.815 485.403 298.867 484.787C297.623 483.941 296.199 483.398 294.708 483.198C291.343 482.801 287.453 484.215 283.119 485.395C280.981 485.955 278.645 486.832 276.11 486.563C274.829 486.4 273.596 485.975 272.488 485.313C271.387 484.625 270.347 483.843 269.381 482.976C264.257 478.202 257.78 475.133 250.841 474.191C249.025 473.932 247.179 473.932 245.362 474.191C243.868 474.413 242.429 474.917 241.121 475.675C240.146 476.265 239.271 477.007 238.528 477.871C237.926 478.646 237.369 479.453 236.857 480.289C237.216 479.362 237.722 478.499 238.353 477.731C239.086 476.814 239.966 476.024 240.958 475.395C242.29 474.583 243.765 474.035 245.304 473.782C247.164 473.513 249.051 473.513 250.911 473.782C253.043 474.039 255.145 474.509 257.185 475.184C259.438 475.927 261.614 476.89 263.68 478.058C264.782 478.669 265.84 479.356 266.846 480.114C267.85 480.909 268.808 481.773 269.79 482.614C270.729 483.479 271.742 484.26 272.815 484.951C273.852 485.57 275.006 485.967 276.203 486.119C278.54 486.434 280.876 485.617 283.014 485.056C287.325 483.888 291.285 482.521 294.801 482.976C296.16 483.173 297.461 483.654 298.621 484.389C299.782 485.124 300.772 486.096 301.53 487.24C301.929 487.867 302.214 488.559 302.371 489.285C302.395 489.459 302.403 489.635 302.395 489.811Z" fill="#263238"/>
<path d="M246.237 488.723C246.947 488.095 247.733 487.558 248.574 487.122C252.464 484.782 256.582 482.844 260.863 481.339C261.732 480.976 262.643 480.721 263.574 480.58C262.761 481.05 261.903 481.441 261.015 481.748C259.415 482.414 257.218 483.349 254.824 484.47C252.429 485.592 250.314 486.69 248.772 487.496C247.968 487.984 247.119 488.396 246.237 488.723Z" fill="#263238"/>
<path d="M256.89 489.198C261.846 486.802 265.803 484.738 265.73 484.587C265.657 484.436 261.581 486.255 256.626 488.65C251.672 491.046 247.714 493.11 247.786 493.261C247.86 493.412 251.936 491.593 256.89 489.198Z" fill="#263238"/>
<path d="M266.549 495.191C266.639 495.048 261.958 491.94 256.096 488.246C250.232 484.552 245.408 481.673 245.318 481.815C245.229 481.957 249.909 485.066 255.772 488.76C261.634 492.454 266.46 495.332 266.549 495.191Z" fill="#263238"/>
<path d="M269.263 490.512C268.435 490.065 267.652 489.537 266.926 488.935C265.501 487.907 263.55 486.494 261.354 484.975C259.158 483.456 257.148 482.113 255.688 481.143C254.856 480.67 254.074 480.114 253.352 479.484C254.244 479.817 255.096 480.252 255.887 480.781C257.405 481.657 259.461 482.942 261.669 484.473C263.877 486.003 265.793 487.475 267.148 488.585C267.926 489.143 268.637 489.789 269.263 490.512Z" fill="#263238"/>
</g>
</g>
<defs>
<clipPath id="clip0_1_2692">
<rect width="500" height="519.86" fill="white" transform="translate(0 0.480469)"/>
</clipPath>
</defs>
</svg>
