<svg width="500" height="521" viewBox="0 0 500 521" fill="none" xmlns="http://www.w3.org/2000/svg">
<path d="M247.791 39.6162H32.0805V232.609H247.791V39.6162Z" fill="#FAFAFA"/>
<path d="M247.792 232.596C247.792 232.596 247.792 231.359 247.739 229.01C247.688 226.66 247.739 223.177 247.688 218.664C247.688 209.608 247.614 196.363 247.563 179.488C247.5 145.769 247.417 97.5892 247.313 39.5937L247.801 40.0823L32.081 40.1863L32.6528 39.6145C32.6528 109.827 32.6528 175.901 32.58 232.607L32.0706 232.098L188.091 232.358L232.092 232.493L243.737 232.556H246.742H247.782H246.804H243.85L232.3 232.618L188.414 232.753L32.081 233.106H31.5715V232.596C31.5715 175.891 31.5715 109.816 31.4987 39.6041V39.0322H32.081L247.782 39.1154H248.27V39.6041C248.166 97.7244 248.083 146.009 248.02 179.81C247.968 196.633 247.926 209.837 247.896 218.872C247.896 223.343 247.896 226.774 247.843 229.125C247.792 231.474 247.792 232.596 247.792 232.596Z" fill="#E0E0E0"/>
<path d="M89.4308 74.4738C103.436 74.4738 114.79 74.2177 114.79 73.9019C114.79 73.586 103.436 73.3301 89.4308 73.3301C75.4256 73.3301 64.0721 73.586 64.0721 73.9019C64.0721 74.2177 75.4256 74.4738 89.4308 74.4738Z" fill="#E0E0E0"/>
<path d="M206.192 88.3863C206.192 88.7086 175 88.9581 136.53 88.9581C98.061 88.9581 66.8694 88.6982 66.8694 88.3863C66.8694 88.0744 98.061 87.8145 136.53 87.8145C175 87.8145 206.192 88.0744 206.192 88.3863Z" fill="#E0E0E0"/>
<path d="M73.5358 112.936H64.4486V122.022H73.5358V112.936Z" fill="#E0E0E0"/>
<path d="M95.8985 112.936H86.8113V122.022H95.8985V112.936Z" fill="#E0E0E0"/>
<path d="M118.69 112.521H109.603V121.608H118.69V112.521Z" fill="#E0E0E0"/>
<path d="M140.65 112.936H131.562V122.022H140.65V112.936Z" fill="#E0E0E0"/>
<path d="M163.012 112.936H153.925V122.022H163.012V112.936Z" fill="#E0E0E0"/>
<path d="M185.389 112.936H176.301V122.022H185.389V112.936Z" fill="#E0E0E0"/>
<path d="M207.751 112.936H198.665V122.022H207.751V112.936Z" fill="#EBEBEB"/>
<path d="M73.5358 132.253H64.4486V141.339H73.5358V132.253Z" fill="#EBEBEB"/>
<path d="M95.8985 132.253H86.8113V141.339H95.8985V132.253Z" fill="#E0E0E0"/>
<path d="M118.272 132.253H109.186V141.339H118.272V132.253Z" fill="#EBEBEB"/>
<path d="M140.65 132.253H131.562V141.339H140.65V132.253Z" fill="#E0E0E0"/>
<path d="M163.012 132.253H153.925V141.339H163.012V132.253Z" fill="#E0E0E0"/>
<path d="M185.804 131.846H176.717V140.933H185.804V131.846Z" fill="#E0E0E0"/>
<path d="M207.751 132.253H198.665V141.339H207.751V132.253Z" fill="#E0E0E0"/>
<path d="M73.5358 151.583H64.4486V160.669H73.5358V151.583Z" fill="#E0E0E0"/>
<path d="M96.3138 151.167H87.2266V160.255H96.3138V151.167Z" fill="#E0E0E0"/>
<path d="M118.272 151.583H109.186V160.669H118.272V151.583Z" fill="#E0E0E0"/>
<path d="M140.65 151.583H131.562V160.669H140.65V151.583Z" fill="#EBEBEB"/>
<path d="M163.012 151.583H153.925V160.669H163.012V151.583Z" fill="#E0E0E0"/>
<path d="M185.389 151.583H176.301V160.669H185.389V151.583Z" fill="#E0E0E0"/>
<path d="M207.751 151.583H198.665V160.669H207.751V151.583Z" fill="#E0E0E0"/>
<path d="M73.5358 170.899H64.4486V179.986H73.5358V170.899Z" fill="#E0E0E0"/>
<path d="M95.8985 170.899H86.8113V179.986H95.8985V170.899Z" fill="#E0E0E0"/>
<path d="M118.272 170.899H109.186V179.986H118.272V170.899Z" fill="#E0E0E0"/>
<path d="M141.053 170.484H131.966V179.572H141.053V170.484Z" fill="#E0E0E0"/>
<path d="M163.012 170.899H153.925V179.986H163.012V170.899Z" fill="#E0E0E0"/>
<path d="M185.389 170.899H176.301V179.986H185.389V170.899Z" fill="#EBEBEB"/>
<path d="M207.751 170.899H198.665V179.986H207.751V170.899Z" fill="#E0E0E0"/>
<path d="M73.5358 190.217H64.4486V199.304H73.5358V190.217Z" fill="#E0E0E0"/>
<path d="M95.8985 190.217H86.8113V199.304H95.8985V190.217Z" fill="#EBEBEB"/>
<path d="M118.272 190.217H109.186V199.304H118.272V190.217Z" fill="#E0E0E0"/>
<path d="M140.65 190.217H131.562V199.304H140.65V190.217Z" fill="#E0E0E0"/>
<path d="M163.012 190.217H153.925V199.304H163.012V190.217Z" fill="#E0E0E0"/>
<path d="M185.804 189.802H176.717V198.888H185.804V189.802Z" fill="#E0E0E0"/>
<path d="M207.751 190.217H198.665V199.304H207.751V190.217Z" fill="#E0E0E0"/>
<path d="M437.759 299.024C447.366 294.065 458.689 293.42 469.356 295.188C475.085 296.134 481.063 297.849 484.952 302.154C488.841 306.459 489.589 314.038 485.118 317.749C482.457 319.954 478.735 320.287 475.272 320.245C466.954 320.151 457.65 318.675 450.974 323.707C447.168 326.577 444.632 331.338 440.078 332.753C435.523 334.167 430.596 331.505 428.235 327.481C425.875 323.457 425.792 318.435 426.894 313.903C427.435 310.753 428.697 307.771 430.582 305.189C432.467 302.608 434.923 300.498 437.759 299.024Z" fill="#EBEBEB"/>
<path d="M415.738 256.509C421.612 264.899 433.039 262.123 438.331 256.998C443.624 251.872 445.89 244.448 447.907 237.388C452.565 221.211 457.264 204.232 453.792 187.753C452.752 182.824 450.911 177.916 447.45 174.236C443.987 170.555 438.664 168.403 433.798 169.692C428.037 171.211 424.44 176.856 421.873 182.221C414.253 198.066 410.26 215.409 410.186 232.99C410.186 241.173 411.122 249.74 415.738 256.498" fill="#EBEBEB"/>
<path d="M399.6 268.581C405.985 261.011 407.19 249.96 404.353 240.509C401.514 231.058 395.099 222.948 387.717 216.356C379.018 208.61 368.893 202.635 357.908 198.763C353.593 197.246 349.049 196.05 344.495 196.487C339.942 196.924 335.367 199.242 333.245 203.297C330.126 209.286 333.122 216.543 336.364 222.459C342.099 232.897 348.645 242.866 355.943 252.277C361.807 259.848 368.534 267.313 377.475 270.733C386.417 274.154 395.713 273.748 400.453 267.552" fill="#EBEBEB"/>
<path d="M415.342 383.147C415.653 381.897 415.831 380.618 415.873 379.332L416.912 368.935C417.43 363.806 418.21 358.708 419.251 353.661C420.618 347.516 422.474 341.491 424.804 335.643C427.085 329.801 430.183 324.312 434.005 319.34C437.117 315.292 441.091 311.99 445.639 309.671C448.723 308.144 452.028 307.116 455.433 306.624C456.714 306.574 457.986 306.389 459.229 306.073C457.945 305.912 456.648 305.891 455.361 306.011C451.822 306.279 448.361 307.181 445.14 308.672C440.353 310.934 436.154 314.271 432.871 318.425C428.888 323.467 425.674 329.074 423.338 335.061C420.973 340.995 419.13 347.125 417.827 353.38C416.822 358.487 416.129 363.65 415.748 368.841C415.415 373.259 415.29 376.837 415.228 379.311C415.128 380.59 415.166 381.876 415.342 383.147Z" fill="#E0E0E0"/>
<path d="M416.06 375.132C416.164 374.549 416.199 373.955 416.164 373.364C416.164 372.032 416.164 370.359 416.164 368.3C416.164 363.913 416.164 357.55 416.393 349.699C416.777 334 418.128 317.105 420.738 293.285C423.213 270.889 426.53 244.823 430.034 227.876C430.783 224.018 431.541 220.598 432.249 217.478C432.956 214.359 433.506 211.811 434.068 209.691L435.253 204.773C435.425 204.205 435.53 203.619 435.565 203.026C435.296 203.554 435.089 204.113 434.952 204.69L433.412 209.566C432.758 211.646 432.092 214.276 431.333 217.313C430.575 220.348 429.701 223.8 428.88 227.647C424.541 247.691 421.278 267.953 419.106 288.345C416.486 312.259 415.311 333.948 415.207 349.689C415.113 357.56 415.28 363.933 415.478 368.321L415.79 373.384C415.811 373.975 415.901 374.561 416.06 375.132Z" fill="#E0E0E0"/>
<path d="M416.164 333.218C416.301 331.457 416.301 329.687 416.164 327.925C415.965 324.526 415.498 319.608 414.541 313.598C413.383 306.56 411.828 299.594 409.883 292.732C407.611 284.289 404.695 276.034 401.16 268.038C393.882 250.861 384.088 236.846 375.53 228.133C373.641 226.14 371.627 224.268 369.5 222.529C368.575 221.749 367.754 220.97 366.922 220.346L364.583 218.734C363.176 217.67 361.688 216.718 360.132 215.886C359.883 216.228 366.444 220.045 374.688 228.903C382.933 237.761 392.499 251.642 399.641 268.672C403.121 276.618 406.067 284.788 408.459 293.126C410.456 299.925 412.111 306.82 413.418 313.785C414.458 319.743 415.144 324.598 415.498 327.968C415.583 329.732 415.806 331.487 416.164 333.218Z" fill="#E0E0E0"/>
<path d="M375.646 407.154L379.846 464.703H453.77L457.971 407.154H375.646Z" fill="#E0E0E0"/>
<path d="M466.786 384.479H368.502V407.166H466.786V384.479Z" fill="#E0E0E0"/>
<path d="M368.502 462.499V468.79H373.118H465.175V462.499H368.502Z" fill="#EBEBEB"/>
<path d="M377.653 479.851L373.12 468.788H461.652L456.37 479.851H377.653Z" fill="#E0E0E0"/>
<path d="M456.599 425.964C456.509 426.155 456.394 426.333 456.256 426.494L455.154 427.96L450.849 433.471L450.662 433.72L450.475 433.46L439.891 418.832H440.505L430.107 433.585L429.785 434.042L429.421 433.605L417.069 418.904H417.776L417.1 419.757L406.058 433.605L405.695 434.063L405.352 433.585L394.954 418.841H395.557L382.727 433.46L382.499 433.72L382.321 433.429L378.298 426.681L377.258 424.882C377.127 424.681 377.023 424.465 376.946 424.237C377.112 424.41 377.255 424.602 377.373 424.809L378.516 426.535L382.737 433.169H382.332L394.944 418.353L395.266 417.979L395.557 418.384L406.069 433.065H405.362L416.383 419.195L417.058 418.342L417.412 417.905L417.776 418.342L430.097 433.065H429.401L439.922 418.395L440.234 417.968L440.535 418.395L450.932 433.189H450.558L455.04 427.814L456.235 426.422C456.338 426.255 456.46 426.1 456.599 425.964Z" fill="#F5F5F5"/>
<path d="M459 406.777C459 407.027 440.473 407.235 417.63 407.235C394.787 407.235 376.259 407.027 376.259 406.777C376.259 406.527 394.777 406.319 417.63 406.319C440.482 406.319 459 406.518 459 406.777Z" fill="#F5F5F5"/>
<path d="M462.732 469.414C462.732 469.664 442.604 469.872 417.776 469.872C392.946 469.872 372.807 469.664 372.807 469.414C372.807 469.165 392.936 468.957 417.776 468.957C442.614 468.957 462.732 469.154 462.732 469.414Z" fill="#F5F5F5"/>
<path d="M196.107 251.051L187.79 255.511L169.387 269.683C169.387 269.683 113.002 277.169 110.84 278.79C108.677 280.413 80.636 293.732 76.841 311.594C73.046 329.456 65.2585 446.03 65.2585 446.03L75.4894 480.476L280.845 480.798L329.005 480.112C329.005 480.112 347.512 436.891 347.512 425.006C347.512 413.122 342.095 323.769 342.095 323.769L284.338 283.044L196.107 251.051Z" fill="#00CF71"/>
<path d="M168.856 268.839C168.78 269.009 168.682 269.171 168.565 269.317L167.661 270.638C166.85 271.761 165.758 273.445 164.47 275.555C163.846 276.595 163.138 277.78 162.484 279.08C161.828 280.38 161.121 281.763 160.404 283.238C158.957 286.476 157.71 289.799 156.672 293.189C154.9 299.391 153.568 305.712 152.689 312.102L151.857 317.914L151.618 319.494C151.604 319.681 151.565 319.867 151.504 320.044C151.48 319.859 151.48 319.669 151.504 319.484L151.639 317.893C151.764 316.509 151.982 314.514 152.305 312.049C153.097 305.619 154.404 299.264 156.214 293.043C157.258 289.63 158.526 286.289 160.009 283.041C160.716 281.555 161.391 280.151 162.089 278.882C162.785 277.613 163.492 276.429 164.168 275.368C165.499 273.289 166.653 271.615 167.515 270.523L168.504 269.265C168.603 269.109 168.721 268.965 168.856 268.839Z" fill="#263238"/>
<g opacity="0.3">
<path opacity="0.3" d="M170.134 303.109C169.791 302.018 169.355 300.77 168.284 300.344C167.442 300.011 167.785 300.551 166.943 300.895C159.145 304.108 155.381 311.292 152.075 319.443L152.262 319.245C152.027 319.926 152.026 320.665 152.257 321.346C152.488 322.028 152.94 322.612 153.541 323.009C155.298 324.049 157.554 323.477 159.363 322.541C161.172 321.605 162.825 320.306 164.79 319.807C169.063 318.715 173.306 321.637 176.321 324.849C179.336 328.062 182.049 331.898 186.157 333.49C179.011 324.423 173.581 314.127 170.134 303.109Z" fill="black"/>
</g>
<path d="M151.472 320.037C153.544 315.084 156.325 310.457 159.728 306.302C160.902 304.919 162.204 303.648 163.616 302.508C165.213 301.209 167.093 300.308 169.106 299.877H169.262L169.324 300.034C170.634 303.433 172.007 307.145 173.586 311.055C175.217 315.209 177.16 319.234 179.4 323.095C181.882 327.308 184.887 331.193 188.341 334.656C192.062 338.323 196.168 341.579 200.589 344.367C202.085 345.262 203.551 346.197 205.049 347.029L209.551 349.431H209.28L216.787 344.232L220.426 341.727C221.632 340.905 222.807 340.083 223.919 339.21C228.113 335.908 232.009 332.244 235.564 328.262C239.811 325.052 243.437 321.096 246.263 316.585C248.433 313.123 250.057 309.346 251.077 305.388C251.734 302.848 252.145 300.25 252.304 297.632C252.367 296.727 252.304 296.03 252.377 295.552C252.45 295.074 252.377 294.846 252.377 294.846C252.377 294.846 252.377 295.084 252.377 295.552C252.377 296.02 252.377 296.717 252.377 297.632C252.277 300.269 251.908 302.889 251.275 305.451C250.291 309.448 248.688 313.27 246.523 316.773C243.722 321.334 240.111 325.343 235.866 328.605C232.305 332.627 228.394 336.325 224.18 339.658C223.057 340.541 221.882 341.373 220.676 342.194L217.037 344.71L209.53 349.909L209.395 350.002L209.259 349.93L204.727 347.517C203.218 346.686 201.743 345.739 200.235 344.835C195.783 342.026 191.648 338.742 187.904 335.041C184.425 331.544 181.403 327.62 178.91 323.364C176.686 319.466 174.764 315.403 173.161 311.21C171.591 307.28 170.239 303.558 169.002 300.158L169.22 300.283C167.269 300.694 165.442 301.559 163.887 302.809C162.485 303.924 161.19 305.167 160.019 306.521C158.159 308.717 156.486 311.064 155.018 313.54C153.801 315.619 152.938 317.22 152.387 318.333L151.752 319.611C151.672 319.76 151.577 319.904 151.472 320.037Z" fill="#263238"/>
<path d="M267.681 294.439C267.835 299.736 267.584 305.036 266.932 310.295C266.292 316.034 265.25 321.722 263.813 327.316C262.015 334.191 259.714 340.925 256.931 347.465L256.535 348.401L256.411 347.361C256.338 346.758 256.276 346.092 256.182 345.437C255.668 341.706 254.784 338.035 253.541 334.479C252.938 332.753 252.272 331.089 251.535 329.489C251.171 328.687 250.786 327.908 250.391 327.138C250.032 326.379 249.607 325.652 249.123 324.965C248.667 324.309 248.037 323.793 247.303 323.479C246.953 323.351 246.576 323.319 246.21 323.387C245.845 323.455 245.504 323.619 245.223 323.864C244.651 324.383 244.119 324.946 243.633 325.548L242.125 327.274L236.625 333.512L228.63 342.578L226.508 345.063L225.926 345.687C225.866 345.761 225.796 345.827 225.718 345.885C225.779 345.811 225.849 345.744 225.926 345.687L226.467 345.021L228.547 342.506L236.407 333.335L241.855 327.014L243.352 325.277C243.853 324.65 244.402 324.062 244.994 323.52C245.334 323.228 245.744 323.031 246.185 322.949C246.625 322.867 247.078 322.902 247.5 323.053C248.313 323.4 249.013 323.969 249.518 324.695C250.025 325.401 250.471 326.149 250.848 326.93C251.243 327.7 251.639 328.49 252.002 329.291C252.741 330.902 253.426 332.587 254.082 334.323C255.311 337.915 256.174 341.621 256.66 345.386C256.764 346.05 256.817 346.716 256.889 347.33L256.369 347.247C259.145 340.73 261.452 334.025 263.273 327.18C264.744 321.615 265.838 315.956 266.548 310.243C267.151 305.378 267.39 301.416 267.505 298.681C267.577 297.319 267.577 296.249 267.609 295.562V294.741C267.619 294.637 267.644 294.536 267.681 294.439Z" fill="#263238"/>
<path d="M190.119 265.708C190.077 265.784 190.025 265.854 189.964 265.916L189.465 266.478C188.997 266.945 188.425 267.715 187.634 268.702C185.576 271.592 183.902 274.738 182.654 278.06C180.754 282.943 179.499 288.053 178.922 293.261C178.189 299.634 178.47 306.084 179.754 312.37C180.414 315.622 181.389 318.801 182.665 321.863C183.856 324.712 185.307 327.444 187 330.026C189.864 334.41 193.369 338.342 197.397 341.69C199.071 343.178 200.777 344.27 202.201 345.34C203.625 346.411 204.987 347.129 206.079 347.742L208.606 349.136L209.261 349.509C209.34 349.548 209.414 349.597 209.479 349.655L209.239 349.562L208.564 349.24L205.986 347.939C204.873 347.347 203.584 346.515 202.046 345.601C200.506 344.686 198.863 343.521 197.159 342.002C193.06 338.668 189.494 334.728 186.584 330.317C184.879 327.686 183.423 324.901 182.238 321.999C180.946 318.908 179.96 315.696 179.296 312.412C177.999 306.071 177.729 299.563 178.495 293.136C179.098 287.891 180.4 282.751 182.363 277.852C183.665 274.532 185.414 271.404 187.562 268.557C188.154 267.794 188.793 267.068 189.475 266.384L190.015 265.854C190.119 265.761 190.119 265.708 190.119 265.708Z" fill="#263238"/>
<path d="M101.68 365.617C101.68 365.617 101.763 365.71 101.888 365.918L102.45 366.886L102.294 366.937C101.555 363.444 99.5279 352.735 97.2405 340.061L93.6951 319.994L92.6554 313.901L92.385 312.248C92.3614 312.055 92.3614 311.86 92.385 311.666C92.4595 311.846 92.5119 312.035 92.541 312.228L92.8945 313.87L94.0798 319.932L97.7812 339.967C100.069 352.631 101.94 363.382 102.46 366.907L102.543 367.437L102.314 366.958L101.826 365.918C101.763 365.826 101.714 365.724 101.68 365.617Z" fill="#263238"/>
<path d="M99.1965 363.466C99.3315 363.402 96.9311 358.029 93.835 351.464C90.7389 344.9 88.1195 339.63 87.9846 339.693C87.8495 339.757 90.2499 345.13 93.346 351.695C96.4422 358.26 99.0615 363.529 99.1965 363.466Z" fill="#263238"/>
<g opacity="0.3">
<path opacity="0.3" d="M98.1035 477.793C104.623 481.069 119.73 475.289 125.22 468.083C130.709 460.877 132.3 451.509 133.537 442.527C135.332 428.989 136.614 415.397 137.384 401.749C148.694 409.972 162.454 414.127 176.425 413.539C185.242 413.144 195.297 409.64 198.021 401.239C200.744 392.839 194.902 384.396 188.871 378.084C183.125 372.071 176.863 366.575 170.157 361.656C165.748 358.433 160.933 355.418 155.506 354.785C149.653 354.14 143.737 356.542 139.277 360.399C134.815 364.256 131.717 369.454 129.44 374.882C122.485 391.456 122.859 410.024 121.445 427.908C120.032 445.791 118.129 464.391 102.252 476.057" fill="black"/>
</g>
<path d="M98.5301 477.854C98.6715 477.766 98.8213 477.694 98.9772 477.636L100.287 477.075C101.882 476.228 103.375 475.202 104.737 474.018C109.49 469.678 113.541 464.627 116.746 459.046V459.129L119.989 434.852C121.893 420.836 123.588 408.152 124.939 398.981L126.925 388.147L127.496 385.215L127.664 384.456C127.675 384.367 127.7 384.279 127.736 384.196C127.748 384.283 127.748 384.37 127.736 384.456L127.622 385.226L127.153 388.168L125.313 398.981L120.458 434.935L117.152 459.202C113.896 464.81 109.761 469.857 104.904 474.153C103.51 475.327 101.977 476.326 100.339 477.126C99.757 477.366 99.2995 477.521 98.9876 477.625C98.8436 477.717 98.6902 477.794 98.5301 477.854Z" fill="#263238"/>
<path d="M198.612 480.11C198.569 480.002 198.537 479.89 198.519 479.777L198.29 478.799C198.113 477.937 197.759 476.72 197.489 475.026C196.652 470.369 196.168 465.655 196.044 460.926C195.878 453.915 196.255 446.9 197.167 439.945C198.124 432.085 199.714 423.528 201.565 414.597C203.416 405.666 205.578 397.223 207.377 389.54C209.096 382.762 210.213 375.845 210.715 368.87C210.98 364.165 210.806 359.444 210.195 354.771C210.018 353.108 209.727 351.839 209.612 350.966L209.467 349.926C209.454 349.812 209.454 349.697 209.467 349.583C209.507 349.69 209.534 349.803 209.55 349.916L209.758 350.893C209.903 351.756 210.225 353.025 210.433 354.688C211.126 359.372 211.356 364.111 211.12 368.839C210.673 375.854 209.591 382.813 207.887 389.633C206.098 397.348 203.883 405.738 202.116 414.69C200.348 423.643 198.665 432.158 197.687 439.997C196.745 446.932 196.325 453.929 196.429 460.926C196.516 465.639 196.937 470.34 197.687 474.994C197.926 476.647 198.238 477.905 198.383 478.778L198.561 479.766C198.59 479.879 198.607 479.993 198.612 480.11Z" fill="#263238"/>
<path d="M216.111 362.883C215.975 362.8 217.775 359.931 219.77 356.282C221.766 352.632 223.211 349.585 223.357 349.648C223.201 350.372 222.949 351.07 222.609 351.728C222.068 352.985 221.246 354.69 220.249 356.53C219.25 358.372 218.242 359.972 217.472 361.105C217.1 361.757 216.641 362.354 216.111 362.883Z" fill="#263238"/>
<g opacity="0.3">
<path opacity="0.3" d="M219.459 358.559C224.883 352.213 230.756 346.266 237.03 340.76C238.745 339.252 240.607 337.724 242.863 337.349C245.607 336.892 248.405 338.306 250.307 340.344C252.102 342.481 253.535 344.897 254.549 347.497C257.273 340.79 254.445 333.253 251.638 326.578C250.723 324.405 249.143 321.837 246.814 322.179C245.595 322.519 244.535 323.277 243.82 324.322C234.806 334.777 226.471 345.801 218.867 357.322" fill="black"/>
</g>
<g opacity="0.3">
<path opacity="0.3" d="M310.871 309.034L311.257 305.738C307.296 306.112 302.43 306.581 299.269 308.992C295.577 311.81 294.122 316.603 292.884 321.074C290.057 331.252 298.083 383.603 297.667 394.155C301.182 392.669 303.646 370.242 304.28 366.437C305.819 357.277 302.71 351.558 303.646 349.001C304.582 346.443 304.561 343.667 304.686 340.943C305.029 328.799 306.235 320.252 310.924 309.034" fill="black"/>
</g>
<path d="M259.188 141.019C254.155 134.781 255.799 124.81 261.558 119.185C267.319 113.561 276.114 112.001 283.986 113.332C289.723 114.352 295.138 116.716 299.786 120.231C304.433 123.746 308.183 128.311 310.727 133.554C313.421 139.221 314.886 145.906 319.846 149.763C324.192 153.154 330.18 153.444 335.13 155.867C341.763 159.121 346.047 166.066 347.606 173.303C349.166 180.539 348.209 188.057 346.681 195.293C345.277 201.927 343.405 209.101 346.255 215.255C349.103 221.411 355.529 224.53 359.771 229.573C367.807 239.065 366.009 255.233 356.028 262.698C352.856 265.079 348.843 266.857 347.325 270.558C345.943 273.906 347.117 277.701 347.055 281.33C346.868 290.687 336.596 298.318 327.602 295.886C323.058 294.638 318.878 291.28 314.221 291.925C309.563 292.569 306.495 296.843 302.731 299.618C298.937 302.243 294.354 303.485 289.754 303.135C285.152 302.784 280.811 300.864 277.456 297.694C274.722 294.982 272.528 291.28 268.806 290.293C265.083 289.304 261.185 291.436 257.369 290.927C252.388 290.25 249.113 285.302 247.637 280.53C246.16 275.756 245.765 270.506 243.28 266.129C240.026 260.359 233.787 257.145 228.589 253.09C222.815 248.629 218.067 242.978 214.666 236.523C211.265 230.066 209.291 222.955 208.877 215.67C208.463 208.384 209.619 201.095 212.266 194.295C214.914 187.495 218.991 181.343 224.222 176.255" fill="#263238"/>
<path d="M189.454 265.744C184.518 271.51 181.021 278.368 179.252 285.75C177.485 293.133 177.496 300.829 179.286 308.207C182.987 322.877 195.266 344.327 209.438 349.65C218.629 342.912 230.44 333.503 239.007 325.996C244.549 321.141 247.492 314.04 250.236 307.188C251.817 303.237 253.428 298.974 252.44 294.836C251.713 291.79 249.644 289.252 247.471 286.996C240.412 279.786 231.738 274.361 222.167 271.168C212.596 267.975 202.401 267.106 192.428 268.636" fill="#EF9D78"/>
<path d="M231.532 160.121C234.088 154.935 238.347 150.784 243.598 148.366C248.848 145.947 254.771 145.406 260.374 146.834L295.848 155.879C313.523 161.598 327.457 189.025 317.007 213.064C308.751 232.038 300.299 255.879 291.825 268.98C274.773 295.306 251.463 289.286 251.463 289.286L238.882 317.358L187.447 269.124L231.532 160.121Z" fill="#EF9D78"/>
<path d="M291.419 220.476C292.085 220.226 293.832 223.544 297.658 225.394C301.484 227.245 305.258 226.683 305.456 227.359C305.56 227.671 304.696 228.295 303.033 228.586C300.805 228.921 298.527 228.558 296.514 227.546C294.509 226.583 292.863 225.007 291.814 223.044C291.086 221.62 291.097 220.58 291.419 220.476Z" fill="#263238"/>
<path d="M251.256 202.185C252.015 202.051 253.73 205.741 257.869 208.3C262.007 210.857 266.186 210.94 266.363 211.668C266.457 212.001 265.468 212.489 263.607 212.499C261.074 212.454 258.602 211.71 256.465 210.348C254.34 209.056 252.632 207.178 251.547 204.941C250.819 203.299 250.893 202.238 251.256 202.185Z" fill="#263238"/>
<path d="M268.276 241.406C268.36 241.177 270.968 241.832 275.138 243.069C276.178 243.412 277.217 243.63 277.686 243.069C278.153 242.507 278.299 241.187 278.331 239.815C278.461 236.979 278.6 234.01 278.746 230.905C279.443 218.261 280.421 208.031 280.93 208.082C281.439 208.135 281.283 218.386 280.586 231.03C280.393 234.135 280.206 237.101 280.025 239.929C279.901 241.228 280.025 242.809 278.808 244.088C278.507 244.374 278.145 244.589 277.749 244.715C277.353 244.842 276.932 244.875 276.521 244.816C275.902 244.719 275.298 244.545 274.722 244.296C270.657 242.705 268.193 241.635 268.276 241.406Z" fill="#263238"/>
<path d="M251.463 289.379C251.463 289.379 230.917 281.676 217.069 261.962C217.069 261.962 217.848 286.032 248.312 296.44L251.463 289.379Z" fill="#D37A57"/>
<path d="M254.478 188.86C255.133 187.82 259.199 189.235 264.231 189.681C269.263 190.128 273.515 189.63 273.952 190.784C274.139 191.334 273.224 192.26 271.395 193.019C268.973 193.918 266.377 194.253 263.807 193.999C261.236 193.745 258.757 192.909 256.557 191.552C254.904 190.44 254.187 189.36 254.478 188.86Z" fill="#263238"/>
<path d="M299.799 200.297C301.109 200.297 302.731 203.52 305.539 206.618C308.346 209.716 311.257 211.817 311.06 213.127C310.935 213.72 309.842 213.979 308.127 213.47C305.84 212.687 303.806 211.3 302.242 209.457C300.623 207.68 299.519 205.494 299.05 203.136C298.78 201.368 299.186 200.339 299.799 200.297Z" fill="#263238"/>
<path d="M259.261 252.271C259.261 252.271 261.673 251.012 260.56 246.376C259.447 241.738 253.553 237.549 249.82 241.353C249.82 241.353 246.056 241.644 247.533 245.99C249.008 250.337 257.597 256.471 259.197 252.977" fill="#D37A57"/>
<path d="M257.855 255.817C257.169 255.703 258.22 251.179 255.09 247.062C251.96 242.944 247.042 242.331 247.157 241.687C247.157 241.385 248.436 241.064 250.484 241.48C253.141 242.059 255.508 243.557 257.169 245.711C258.764 247.781 259.492 250.392 259.196 252.989C258.926 254.912 258.157 255.911 257.855 255.817Z" fill="#263238"/>
<path d="M201.202 145.345C198.454 147.49 196.25 150.252 194.769 153.408C193.287 156.563 192.57 160.023 192.676 163.508C192.833 167.397 193.778 171.983 190.919 174.612C188.06 177.243 183.412 175.851 179.482 175.87C176.019 175.985 172.706 177.317 170.125 179.63C167.546 181.944 165.863 185.094 165.374 188.525C165.092 190.978 165.374 193.639 164.157 195.803C162.94 197.965 160.237 199.015 158.043 200.346C155.297 202.013 153.035 204.373 151.486 207.187C149.937 210.002 149.154 213.175 149.216 216.388C149.279 219.602 150.183 222.742 151.84 225.494C153.497 228.248 155.847 230.519 158.657 232.078C161.204 233.492 164.178 234.366 166.039 236.611C168.118 239.179 168.253 242.849 169.293 245.969C170.303 249.029 172.248 251.696 174.853 253.595C177.458 255.493 180.593 256.526 183.817 256.549C187.04 256.573 190.189 255.584 192.821 253.723C195.453 251.862 197.435 249.223 198.488 246.176" fill="#263238"/>
<path d="M258.741 135.398C257.693 138.448 257.332 141.692 257.68 144.898C258.029 148.103 259.081 151.193 260.759 153.947C262.438 156.7 264.702 159.051 267.393 160.829C270.082 162.608 273.131 163.773 276.321 164.24C281.25 164.968 287.134 164.344 290.317 168.17C293.665 172.204 291.679 178.64 294.329 183.163C298.114 189.629 304.561 194.787 310.685 199.101C315.405 202.439 310.008 211.724 312.068 217.13C314.126 222.537 322.599 234.867 328.381 235.086C329.65 230.252 336.843 209.021 336.968 204.019C337.093 199.018 335.929 193.83 332.873 189.911C331.178 187.758 328.942 186.043 327.475 183.724C324.356 178.723 325.396 172.287 324.356 166.434C323.654 162.664 322.062 159.116 319.71 156.087C317.36 153.058 314.318 150.634 310.84 149.018C305.07 146.377 298.301 146.086 292.967 142.644C289.027 140.098 286.209 136.032 282.124 133.724C274.169 129.232 264.209 132.684 255.985 136.645" fill="#263238"/>
<path d="M220.405 195.804C219.584 195.253 214.167 199.38 219.512 202.677C228.942 208.446 237.041 188.963 236.688 182.485C241.492 180.406 246.357 178.399 250.578 175.207C254.8 172.015 261.143 161.493 262.276 156.149C265.883 157.615 283.308 157.74 281.801 156.7C278.36 154.319 271.404 149.214 270.479 145.263C268.472 136.581 262.306 129.033 254.166 126.756C249.915 125.682 245.431 126.013 241.386 127.7C237.339 129.387 233.947 132.338 231.718 136.113C222.018 132.911 210.518 135.791 202.783 143.392C198.921 147.283 196.063 152.055 194.454 157.297C192.846 162.539 192.535 168.092 193.55 173.48C194.121 176.247 195.057 179.137 194.164 181.882C193.061 185.282 189.651 187.081 186.947 189.316C179.544 195.314 176.363 205.951 177.278 215.476C178.193 224.999 179.826 228.846 184.556 232.309C193.82 239.077 174.564 256.356 191.834 262.2" fill="#263238"/>
<path d="M349.197 261.877C349.197 261.804 349.811 261.451 350.819 260.494C352.303 259.124 353.486 257.46 354.292 255.607C355.609 252.702 355.951 249.45 355.269 246.333C354.458 242.715 351.723 239.252 348.063 236.311C344.404 233.368 339.84 230.529 336.533 225.716C333.227 220.902 332.634 214.279 333.695 208.041C334.755 201.802 337.375 195.564 339.07 189.003C339.977 185.702 340.403 182.288 340.339 178.866C340.312 175.38 339.376 171.961 337.625 168.947C335.735 166.023 333.051 163.697 329.889 162.241C326.79 160.791 323.499 159.79 320.116 159.267C316.747 158.874 313.41 158.235 310.134 157.354C308.492 156.918 306.956 156.151 305.62 155.099C304.285 154.048 303.178 152.735 302.368 151.241C300.86 148.267 300.528 145.117 299.862 142.257C299.356 139.482 298.207 136.864 296.504 134.616C293.312 130.599 288.751 127.901 283.695 127.036C279.527 126.334 275.245 126.85 271.363 128.522C268.422 129.787 265.717 131.545 263.368 133.721C261.408 135.623 259.639 137.713 258.086 139.959C258.134 139.781 258.211 139.613 258.315 139.46C258.558 138.986 258.825 138.524 259.116 138.078C260.218 136.339 261.52 134.734 262.994 133.295C265.334 130.998 268.062 129.132 271.051 127.785C275.058 125.972 279.506 125.368 283.85 126.048C289.176 126.91 293.994 129.718 297.367 133.929C299.194 136.297 300.44 139.061 301.006 141.998C301.692 144.919 302.046 147.996 303.45 150.668C304.189 152.012 305.196 153.189 306.409 154.128C307.62 155.067 309.013 155.748 310.499 156.127C313.718 156.974 316.995 157.59 320.303 157.967C323.818 158.516 327.235 159.568 330.451 161.086C333.852 162.648 336.737 165.148 338.769 168.292C340.647 171.509 341.651 175.161 341.68 178.887C341.744 182.436 341.296 185.977 340.349 189.398C338.592 196.095 335.961 202.187 334.922 208.311C333.882 214.435 334.381 220.59 337.458 225.123C340.536 229.656 345.09 232.464 348.667 235.604C352.243 238.743 355.207 242.32 355.945 246.199C356.604 249.466 356.169 252.861 354.708 255.857C353.829 257.744 352.54 259.41 350.933 260.734C350.411 261.195 349.827 261.579 349.197 261.877Z" fill="#455A64"/>
<path d="M317.265 199.102C317.39 199.102 316.756 200.588 316.121 203.312C315.249 207.154 315.125 211.13 315.757 215.019C316.18 217.692 316.974 220.292 318.118 222.744C319.489 225.543 321.201 228.161 323.213 230.542C324.304 231.918 325.236 233.415 325.988 235.002C326.78 236.729 327.117 238.63 326.966 240.523C326.664 244.391 324.762 247.801 323.347 251.315C321.933 254.831 321.029 258.489 322.391 261.713C323.752 264.936 326.228 267.369 328.567 269.708C330.966 271.855 333.023 274.355 334.669 277.121C335.356 278.457 335.8 279.904 335.98 281.395C336.103 282.769 335.998 284.153 335.668 285.492C335.189 287.489 334.275 289.357 332.989 290.961C331.704 292.564 330.081 293.863 328.234 294.765C327.224 295.218 326.152 295.513 325.053 295.639C324.674 295.701 324.287 295.701 323.909 295.639C325.315 295.335 326.685 294.883 327.995 294.287C329.694 293.35 331.174 292.061 332.335 290.507C333.498 288.952 334.314 287.168 334.732 285.273C335.331 282.692 334.96 279.979 333.693 277.652C332.056 275.019 330.039 272.642 327.703 270.603C325.354 268.284 322.619 265.788 321.164 262.192C320.44 260.363 320.201 258.38 320.467 256.431C320.764 254.493 321.313 252.602 322.099 250.806C323.565 247.22 325.375 243.882 325.655 240.409C325.936 236.937 324.189 233.89 322.224 231.28C320.188 228.812 318.47 226.098 317.109 223.202C314.32 216.894 313.803 209.813 315.643 203.166C315.93 202.098 316.301 201.055 316.756 200.047C316.877 199.708 317.049 199.389 317.265 199.102Z" fill="#455A64"/>
<path d="M161.268 231.738C161.268 231.738 161.049 231.613 160.674 231.301C160.126 230.838 159.622 230.327 159.167 229.773C157.41 227.643 156.222 225.103 155.715 222.391C155.273 220.267 155.272 218.075 155.71 215.951C156.148 213.826 157.016 211.815 158.262 210.039C159.916 207.725 162.118 205.859 164.672 204.608C167.225 203.358 170.05 202.762 172.891 202.874L172.319 203.634C170.986 200.192 170.39 196.508 170.572 192.821C170.678 190.786 171.231 188.798 172.193 187.002C173.154 185.204 174.5 183.641 176.136 182.423C177.891 181.106 180.021 180.378 182.217 180.344C184.401 180.483 186.528 181.089 188.456 182.122C190.292 183.119 192.249 183.873 194.278 184.367C195.258 184.555 196.27 184.505 197.227 184.221C198.185 183.937 199.058 183.428 199.778 182.735C201.902 180.537 203.12 177.62 203.188 174.564C203.428 171.506 203.137 168.387 203.459 165.279C204.111 159.296 206.82 153.725 211.122 149.517C214.956 145.782 219.894 143.386 225.2 142.685C229.674 142.065 234.234 142.638 238.415 144.349L237.821 144.578C239.317 141.582 241.863 139.242 244.974 138.006C247.255 137.073 249.729 136.716 252.18 136.967C253.703 137.123 255.186 137.553 256.557 138.235C257.033 138.469 257.477 138.763 257.877 139.109C256.086 138.2 254.139 137.643 252.139 137.467C249.778 137.323 247.418 137.747 245.256 138.704C242.369 139.914 240.02 142.13 238.643 144.942L238.456 145.337L238.05 145.171C234.007 143.599 229.624 143.11 225.334 143.756C220.286 144.481 215.603 146.805 211.974 150.39C207.915 154.411 205.369 159.711 204.769 165.393C204.467 168.336 204.769 171.434 204.529 174.657C204.439 178.058 203.069 181.298 200.693 183.734C199.818 184.56 198.761 185.169 197.606 185.51C196.452 185.851 195.234 185.916 194.049 185.699C191.9 185.186 189.826 184.393 187.884 183.338C186.119 182.379 184.169 181.808 182.166 181.664C180.248 181.693 178.389 182.327 176.853 183.474C175.356 184.58 174.124 186.005 173.243 187.644C172.362 189.283 171.855 191.098 171.758 192.956C171.568 196.475 172.113 199.995 173.359 203.29L173.64 204.102H172.787C170.125 203.978 167.474 204.512 165.068 205.656C162.661 206.801 160.574 208.519 158.99 210.663C157.784 212.331 156.928 214.227 156.472 216.235C156.016 218.244 155.971 220.323 156.339 222.349C156.783 224.989 157.852 227.485 159.458 229.627C160.549 231.031 161.329 231.675 161.268 231.738Z" fill="#455A64"/>
<path d="M258.272 143.227C258.345 143.466 256.245 143.123 253.583 145.045C250.922 146.97 248.624 151.472 247.947 157.252L247.886 157.751H247.397C244.525 157.568 241.648 158.049 238.992 159.158C236.335 160.267 233.971 161.974 232.082 164.146C231.034 165.385 230.201 166.791 229.618 168.305C229.12 169.947 228.772 171.632 228.578 173.336C228.363 175.175 228.015 176.996 227.539 178.785C227.022 180.739 225.869 182.466 224.263 183.693C220.811 186.385 216.579 186.812 212.826 187.446C209.235 187.76 205.722 188.67 202.429 190.139C196.932 192.781 192.638 197.405 190.41 203.083C188.951 206.951 188.466 211.118 188.995 215.216C189.37 218.127 189.984 219.667 189.859 219.708C189.643 219.388 189.474 219.037 189.36 218.668C188.972 217.59 188.676 216.48 188.475 215.352C187.725 211.149 188.083 206.823 189.515 202.802C191.706 196.771 196.143 191.82 201.898 188.985C205.292 187.429 208.923 186.455 212.639 186.104C216.34 185.512 220.364 184.992 223.38 182.611C226.353 180.531 226.665 176.58 227.246 173.118C227.468 171.329 227.855 169.564 228.401 167.847C229.047 166.196 229.968 164.667 231.125 163.325C233.148 161.024 235.683 159.23 238.525 158.087C241.367 156.944 244.438 156.484 247.491 156.743L246.939 157.2C247.771 151.19 250.298 146.533 253.25 144.63C254.341 143.885 255.598 143.418 256.91 143.267C257.36 143.188 257.819 143.174 258.272 143.227Z" fill="#455A64"/>
<path d="M222.412 198.785C225.376 192.973 221.373 185.674 214.875 185.685C211.298 185.685 207.44 187.629 204.238 193.773C195.702 210.139 213.897 215.338 214.167 214.88C214.334 214.599 218.94 205.596 222.412 198.785Z" fill="#EF9D78"/>
<path d="M212.401 206.073C212.401 205.978 212.016 206.073 211.414 206.073C210.589 206.016 209.818 205.643 209.26 205.033C207.868 203.493 207.836 199.99 209.26 196.996C209.949 195.569 210.947 194.316 212.182 193.325C212.605 192.899 213.125 192.582 213.697 192.401C214.27 192.22 214.877 192.18 215.468 192.286C215.842 192.371 216.174 192.583 216.408 192.887C216.641 193.191 216.762 193.566 216.746 193.949C216.746 194.521 216.456 194.791 216.529 194.864C216.602 194.937 217.028 194.77 217.246 194.032C217.367 193.585 217.334 193.108 217.153 192.68C216.878 192.106 216.389 191.661 215.791 191.443C215.048 191.226 214.263 191.204 213.509 191.377C212.756 191.55 212.06 191.913 211.486 192.432C210.05 193.484 208.894 194.873 208.117 196.476C206.506 199.824 206.578 203.754 208.596 205.708C208.967 206.065 209.415 206.332 209.904 206.492C210.394 206.652 210.914 206.701 211.424 206.634C212.172 206.447 212.443 206.135 212.401 206.073Z" fill="#D37A57"/>
<path d="M206.11 426.089C204.664 423.406 200.911 421.753 200.911 421.753L197.792 414.111C198.535 412.184 198.535 410.049 197.792 408.122C196.554 404.816 187.467 385.602 187.665 384.989L185.315 384.853C185.315 384.853 193.695 405.18 194.516 406.22C195.338 407.26 196.596 413.301 194.516 414.132C192.437 414.964 188.06 412.718 186.199 410.857C184.338 408.996 178.422 395.011 177.382 392.142C176.342 389.273 178.193 385.228 178.193 385.228L179.846 381.308H177.641C176.734 383.95 175.974 386.639 175.364 389.366C174.543 393.296 183.839 410.441 185.284 412.291C186.729 414.142 191.688 415.597 194.37 417.49C197.054 419.382 196.648 425.132 196.648 425.132C195.252 427.156 194.4 429.505 194.173 431.952C193.965 435.674 202.231 453.226 207.804 456.906C213.377 460.587 219.989 457.945 220.613 458.143C221.237 458.34 222.693 455.253 222.693 455.253C222.693 455.253 207.555 428.771 206.11 426.089ZM213.72 456.771C210.678 456.359 207.921 454.764 206.047 452.331C205.372 451.437 198.134 438.815 197.209 436.506C195.577 432.421 196.71 430.153 197.303 427.753C198.166 424.28 203.541 426.317 203.541 426.317C203.541 426.317 219.366 453.662 219.002 454.493C218.638 455.325 216.694 457.031 213.72 456.771Z" fill="#4E36D7"/>
<path d="M222.631 455.209C222.631 455.209 268.701 437.679 270.854 435.693C273.006 433.708 280.783 422.291 280.783 422.291C280.783 422.291 284.588 422.957 284.089 423.944C283.59 424.932 276.312 436.359 268.493 439.665C260.674 442.971 220.521 458.11 220.521 458.11L222.631 455.209Z" fill="#4E36D7"/>
<path d="M76.8419 310.744L57.8671 420.185C57.8671 420.185 50.8801 441.479 51.8783 446.178C52.8764 450.877 56.401 470.933 67.0478 477.255C77.6945 483.577 98.78 479.449 103.105 475.175C107.43 470.903 115.956 462.928 116.954 459.267C117.952 455.609 124.95 400.003 124.95 400.003L127.725 384.408C127.725 384.408 117.411 387.735 111.09 383.368C104.769 379.001 96.4511 360.411 96.4511 360.411L87.1871 374.634L76.8419 310.744Z" fill="#00CF71"/>
<path d="M96.4611 360.298C96.3606 360.514 96.2388 360.72 96.0972 360.911L94.9743 362.617C93.997 364.103 92.5829 366.245 90.8882 368.938C87.4779 374.292 82.9135 381.799 77.9333 390.117C72.953 398.435 68.4718 405.993 65.1135 411.41C63.45 414.113 62.0672 416.297 61.1002 417.784L59.9669 419.489C59.8444 419.694 59.7016 419.885 59.5406 420.061C59.6299 419.839 59.7413 419.626 59.8734 419.426L60.9131 417.669L64.7704 411.213L77.4446 389.847C82.4249 381.529 87.0412 374.043 90.5347 368.73C92.271 366.068 93.737 363.947 94.7664 362.492L95.9724 360.839C96.1162 360.641 96.28 360.46 96.4611 360.298Z" fill="#263238"/>
<path d="M125.345 397.677C125.232 397.845 125.099 397.998 124.95 398.135C124.669 398.416 124.294 398.852 123.734 399.351C122.188 400.786 120.436 401.981 118.535 402.897C117.213 403.517 115.814 403.961 114.376 404.217C112.709 404.525 111.003 404.567 109.323 404.342C107.47 404.1 105.659 403.611 103.937 402.886C102.11 402.098 100.368 401.126 98.7384 399.986C97.1314 398.795 95.6569 397.435 94.3404 395.931C91.0829 392.094 88.9016 387.462 88.0189 382.508C87.6363 380.427 87.4932 378.309 87.5926 376.197C87.5926 375.448 87.7174 374.876 87.759 374.481C87.7695 374.28 87.8044 374.081 87.863 373.889C87.863 373.889 87.863 374.72 87.811 376.197C87.7937 378.291 87.9923 380.382 88.4036 382.435C89.3518 387.293 91.5402 391.824 94.7563 395.587C96.0514 397.056 97.4977 398.384 99.0711 399.549C100.677 400.67 102.39 401.628 104.187 402.407C105.849 403.115 107.596 403.601 109.385 403.854C110.993 404.067 112.623 404.032 114.22 403.75C115.654 403.523 117.051 403.111 118.379 402.522C120.279 401.653 122.05 400.522 123.64 399.164C124.721 398.218 125.314 397.635 125.345 397.677Z" fill="#263238"/>
<path d="M96.4606 360.297L110.653 351.168C110.653 351.168 148.509 335.79 152.346 334.907C156.182 334.022 160.664 332.246 162.743 334.907C164.822 337.568 186.396 353.237 186.396 353.237C186.396 353.237 199.112 377.151 199.112 380.446C199.112 383.742 202.658 387.86 199.112 389.034L195.526 390.23C195.526 390.23 194.34 396.032 189.911 396.677C185.481 397.321 183.994 396.677 183.994 396.677C183.994 396.677 183.703 402.478 180.147 402.113C176.592 401.75 170.686 396.677 170.686 396.677C170.686 396.677 168.025 399.692 165.956 399.692C163.887 399.692 157.377 395.251 157.377 395.251L144.797 384.314L133.714 380.467L127.736 384.251C127.736 384.251 114.936 385.291 113.023 384.251C111.11 383.212 96.4606 360.297 96.4606 360.297Z" fill="#EF9D78"/>
<path d="M169.139 397.674C168.876 397.133 168.658 396.574 168.484 396C168.297 395.449 168.057 394.783 167.735 394.035C167.412 393.286 167.1 392.402 166.695 391.477C166.29 390.551 165.791 389.512 165.199 388.451C164.605 387.39 163.971 386.268 163.275 385.103C160.139 380.084 156.209 375.607 151.64 371.847C150.6 371.005 149.561 370.183 148.521 369.498C147.481 368.811 146.597 368.166 145.724 367.626C144.85 367.085 144.04 366.586 143.333 366.211C142.626 365.838 142.002 365.473 141.482 365.172C140.933 364.926 140.405 364.638 139.902 364.31C140.477 364.489 141.036 364.716 141.576 364.985C142.224 365.258 142.86 365.563 143.478 365.9C144.206 366.284 145.048 366.7 145.932 367.251C146.815 367.803 147.793 368.374 148.791 369.082C149.79 369.789 150.87 370.568 151.91 371.41C156.561 375.166 160.532 379.692 163.648 384.791C164.346 385.977 165.021 387.099 165.551 388.202C166.082 389.304 166.591 390.282 166.997 391.321C167.402 392.361 167.735 393.161 168.036 393.931C168.338 394.7 168.546 395.376 168.702 395.937C168.893 396.503 169.039 397.084 169.139 397.674Z" fill="#D37A57"/>
<path d="M183.965 397.311C183.838 397.174 183.729 397.02 183.643 396.854C183.456 396.542 183.154 396.095 182.832 395.482C181.925 393.748 181.154 391.948 180.523 390.096C179.692 387.767 178.902 384.897 177.966 381.778C177.028 378.389 175.687 375.126 173.973 372.056C172.154 369.053 169.732 366.458 166.861 364.436C164.242 362.522 161.725 360.984 159.801 359.414C158.239 358.219 156.883 356.775 155.789 355.14C155.503 354.688 155.254 354.216 155.04 353.727C154.952 353.562 154.886 353.388 154.842 353.207C154.904 353.207 155.196 353.893 155.965 355.015C157.11 356.576 158.484 357.954 160.041 359.102C161.964 360.619 164.501 362.117 167.162 364.02C170.106 366.061 172.586 368.7 174.44 371.765C176.181 374.872 177.529 378.184 178.454 381.622C179.369 384.741 180.118 387.59 180.897 389.94C181.492 391.785 182.204 393.591 183.029 395.346C183.374 395.985 183.687 396.64 183.965 397.311Z" fill="#D37A57"/>
<path d="M194.632 390.45C194.557 390.284 194.505 390.11 194.475 389.93L194.123 388.434C193.987 387.778 193.8 386.989 193.529 386.083C193.259 385.179 193.02 384.129 192.625 382.964C192.23 381.8 191.856 380.594 191.326 379.305C190.796 378.015 190.213 376.632 189.578 375.198C186.682 369.017 182.821 363.334 178.141 358.365C177.04 357.242 176.062 356.15 174.971 355.246C173.879 354.341 172.964 353.447 172.039 352.688C171.113 351.929 170.261 351.284 169.512 350.713C168.764 350.14 168.098 349.673 167.536 349.298L166.279 348.425C166.126 348.33 165.986 348.214 165.863 348.082C166.033 348.143 166.194 348.227 166.341 348.331L167.661 349.122C168.234 349.465 168.93 349.901 169.741 350.463C170.551 351.025 171.415 351.617 172.329 352.386C173.245 353.156 174.294 353.945 175.325 354.913C176.354 355.88 177.404 356.92 178.557 358.032C183.324 363.005 187.224 368.741 190.098 375C190.732 376.456 191.356 377.818 191.814 379.159C192.272 380.5 192.718 381.727 193.062 382.871C193.405 384.014 193.665 385.065 193.894 385.99C194.123 386.915 194.289 387.716 194.393 388.371L194.653 389.889C194.672 390.076 194.665 390.265 194.632 390.45Z" fill="#D37A57"/>
<path d="M138.924 350.089C138.924 350.183 138.186 350.287 137.095 350.765C135.668 351.362 134.425 352.325 133.493 353.558C132.56 354.79 131.97 356.248 131.782 357.783C131.625 358.957 131.718 359.717 131.625 359.727C131.383 359.099 131.305 358.419 131.396 357.752C131.488 356.115 132.065 354.543 133.055 353.236C134.043 351.928 135.398 350.946 136.949 350.411C137.569 350.137 138.249 350.026 138.924 350.089Z" fill="#D37A57"/>
<path d="M149.465 340.064C149.548 340.199 147.718 341.364 145.909 343.297C144.1 345.232 143.019 347.103 142.884 347.031C144.124 343.96 146.479 341.472 149.475 340.064H149.465Z" fill="#D37A57"/>
<path d="M297.847 216.601C296.048 217.338 295.685 219.491 295.715 221.435C295.715 223.868 296.36 224.263 298.356 228.349C301.6 235.013 305.488 247.657 305.488 247.657C305.488 247.657 302.307 279.576 304.449 287.072C305.034 289.061 306.099 290.875 307.549 292.356C308.999 293.838 310.791 294.939 312.766 295.567L309.855 320.219H344.675C344.675 320.219 343.438 296.305 342.69 289.078C341.9 281.384 342.43 234.858 342.43 234.858L339.009 210.008L330.942 196.065C329.714 196.858 328.803 198.055 328.368 199.45C327.932 200.845 328 202.347 328.56 203.697C330.38 208.812 331.575 218.606 331.575 218.606L311.415 188.268C311.415 188.268 307.453 189.214 307.256 196.585C307.256 196.585 301.393 200.401 305.176 206.598C309.252 213.481 313.64 234.276 312.102 234.276L299.625 215.903L297.847 216.601Z" fill="#EF9D78"/>
<path d="M309.771 320.218C309.771 320.218 309.771 319.666 309.928 318.585L310.458 313.812L312.537 295.555L312.631 295.7C311.007 295.176 309.502 294.339 308.201 293.236C306.768 292.051 305.628 290.549 304.874 288.849C304.128 286.999 303.716 285.031 303.658 283.037C303.54 280.957 303.492 278.843 303.512 276.694C303.605 267.971 304.282 258.229 305.269 247.645V247.728C303.637 242.592 301.838 237.174 299.571 231.685C299 230.312 298.387 228.95 297.7 227.599C296.945 226.259 296.282 224.87 295.714 223.44C295.516 222.663 295.432 221.86 295.465 221.059C295.461 220.249 295.577 219.443 295.807 218.667C296.035 217.843 296.551 217.127 297.263 216.651C297.619 216.448 297.992 216.274 298.376 216.131L299.478 215.673L299.665 215.601L299.779 215.767L312.807 234.887L312.339 234.981C312.506 233.379 312.485 231.763 312.277 230.167C312.09 228.531 311.813 226.907 311.445 225.301C310.69 222.02 309.718 218.794 308.534 215.642C307.39 212.429 305.945 209.31 304.541 206.097C303.798 204.437 303.602 202.585 303.98 200.805C304.409 199.004 305.463 197.412 306.953 196.313L306.839 196.511C307.013 194.908 307.386 193.332 307.952 191.822C308.255 191.032 308.665 190.288 309.168 189.608C309.679 188.868 310.405 188.306 311.248 187.996L311.414 187.944L311.528 188.11L311.757 188.464L331.678 218.46L331.189 218.637C330.715 214.641 330.021 210.672 329.11 206.753C328.87 205.796 328.6 204.839 328.278 203.914C327.93 202.955 327.761 201.94 327.779 200.92C327.839 199.901 328.136 198.91 328.646 198.028C329.158 197.145 329.868 196.394 330.722 195.836L330.94 195.69L331.075 195.929L339.133 209.882L342.533 234.732C342.387 247.603 342.314 259.373 342.325 269.801C342.325 274.999 342.325 279.886 342.481 284.357C342.543 286.614 342.668 288.745 342.876 290.803C343.084 292.863 343.178 294.828 343.303 296.688C343.78 304.132 344.082 309.976 344.279 313.958L344.487 318.502C344.487 319.541 344.487 320.061 344.487 320.061C344.487 320.061 344.487 319.531 344.373 318.502L344.092 313.958C343.842 309.976 343.511 304.132 342.991 296.699C342.855 294.838 342.72 292.882 342.533 290.824C342.346 288.766 342.179 286.603 342.106 284.357C341.971 279.856 341.919 274.999 341.898 269.801C341.898 259.403 341.898 247.603 342.013 234.732L338.571 209.893V209.986L330.504 196.044L330.856 196.137C330.076 196.652 329.426 197.343 328.959 198.153C328.492 198.963 328.22 199.872 328.164 200.805C328.15 201.759 328.312 202.707 328.643 203.602C328.965 204.548 329.245 205.505 329.485 206.482C330.422 210.424 331.14 214.416 331.637 218.439L331.782 219.573L331.148 218.616L311.216 188.63L310.987 188.277L311.269 188.391C310.554 188.68 309.939 189.171 309.501 189.805C309.028 190.444 308.644 191.143 308.357 191.885C307.821 193.353 307.472 194.884 307.318 196.439V196.553L307.214 196.625C305.834 197.644 304.859 199.117 304.458 200.784C304.106 202.456 304.296 204.197 304.999 205.754C306.382 208.926 307.848 212.087 308.992 215.319C310.185 218.495 311.164 221.746 311.923 225.052C312.315 226.721 312.61 228.412 312.807 230.115C313.022 231.763 313.04 233.433 312.859 235.085L312.776 235.74L312.391 235.178L299.363 216.017L299.665 216.11C298.958 216.422 298.137 216.692 297.513 217.046C296.9 217.461 296.453 218.08 296.255 218.792C296.039 219.521 295.93 220.278 295.932 221.038C295.902 221.79 295.979 222.544 296.161 223.274C296.722 224.684 297.375 226.056 298.116 227.38C298.803 228.742 299.416 230.125 299.987 231.539C302.255 237.06 304.042 242.477 305.675 247.635V247.718C304.635 258.291 303.97 268.033 303.845 276.736C303.845 278.913 303.887 281.017 303.97 283.047C304.021 285.004 304.418 286.937 305.145 288.755C305.864 290.339 306.909 291.755 308.208 292.912C309.508 294.068 311.036 294.941 312.693 295.472H312.807V295.576L310.592 313.823L310 318.585C309.864 319.666 309.771 320.218 309.771 320.218Z" fill="#D37A57"/>
<path d="M325.158 236.923C324.988 236.362 324.862 235.788 324.784 235.207C324.597 234.095 324.254 232.494 323.806 230.518C322.581 225.397 320.839 220.411 318.607 215.64C316.359 210.884 313.737 206.311 310.769 201.968C309.646 200.294 308.689 198.942 308.055 198.027C307.693 197.561 307.37 197.068 307.088 196.551C307.501 196.97 307.881 197.422 308.221 197.902C308.928 198.786 309.916 200.096 311.081 201.76C314.159 206.062 316.841 210.635 319.097 215.421C321.332 220.221 323.02 225.258 324.129 230.435C324.534 232.421 324.815 234.043 324.939 235.166C325.06 235.745 325.133 236.332 325.158 236.923Z" fill="#D37A57"/>
<path d="M335.967 229.171C336.105 229.113 335.189 226.601 333.921 223.559C332.653 220.516 331.513 218.097 331.375 218.154C331.237 218.212 332.153 220.724 333.422 223.766C334.69 226.809 335.829 229.229 335.967 229.171Z" fill="#D37A57"/>
<path d="M306.995 310.006C300.891 363.936 292.928 421.349 283.778 480.998H354.655C367.985 451.491 359.854 425.747 356.278 389.055L344.591 305.743L306.995 310.006Z" fill="#00CF71"/>
<path d="M283.778 480.999C283.766 480.881 283.766 480.763 283.778 480.645L283.903 479.605L284.444 475.675L286.523 461.255L293.51 413.677C296.182 395.087 298.449 378.233 299.936 366.016C300.694 359.912 301.266 354.964 301.651 351.543L302.109 347.603L302.244 346.563C302.252 346.446 302.273 346.332 302.306 346.22C302.318 346.338 302.318 346.456 302.306 346.574L302.223 347.613L301.859 351.564C301.536 354.995 301.016 359.944 300.31 366.057C298.917 378.285 296.713 395.169 294.071 413.75C291.431 432.33 288.811 449.101 286.918 461.306L284.652 475.707L284.007 479.616L283.831 480.655C283.825 480.771 283.807 480.887 283.778 480.999Z" fill="#263238"/>
<path d="M437.345 480.533H235.232L261.31 338.684C261.758 336.252 263.042 334.052 264.942 332.467C266.84 330.882 269.232 330.01 271.707 330.002H453.346C454.904 330.005 456.444 330.352 457.854 331.018C459.264 331.684 460.509 332.653 461.502 333.855C462.495 335.057 463.21 336.463 463.598 337.974C463.985 339.484 464.035 341.062 463.743 342.593L437.345 480.533Z" fill="#455A64"/>
<path d="M235.232 480.534H158.563L158.875 480.305C165.709 475.159 173.968 472.253 182.519 471.987L237.343 470.375L235.232 480.534Z" fill="#455A64"/>
<path d="M283.778 330.187C283.778 330.187 283.217 330.083 282.146 330.074C280.583 330.09 279.044 330.471 277.654 331.186C275.454 332.309 273.595 333.999 272.269 336.083C270.602 338.904 269.484 342.015 268.973 345.254C268.318 348.84 267.735 352.823 267.018 357.075C266.3 361.327 265.511 365.86 264.616 370.591C262.859 380.125 260.769 390.575 258.502 401.533C253.938 423.441 249.717 443.247 246.951 457.678C245.558 464.873 244.487 470.706 243.759 474.74L242.917 479.387L242.679 480.594C242.66 480.733 242.625 480.868 242.575 480.999C242.557 480.861 242.557 480.721 242.575 480.583L242.741 479.367L243.447 474.699C244.082 470.644 245.079 464.8 246.401 457.584C249.03 443.153 253.169 423.274 257.734 401.439C260 390.491 262.111 380.042 263.909 370.528C264.825 365.767 265.625 361.234 266.384 357.012C267.143 352.791 267.736 348.809 268.464 345.191C269.019 341.9 270.197 338.744 271.936 335.896C273.325 333.771 275.265 332.063 277.55 330.957C278.981 330.24 280.567 329.883 282.167 329.917C282.714 329.932 283.256 330.024 283.778 330.187Z" fill="#263238"/>
<path d="M359.364 411.848C364.762 411.848 369.138 407.473 369.138 402.074C369.138 396.677 364.762 392.301 359.364 392.301C353.967 392.301 349.591 396.677 349.591 402.074C349.591 407.473 353.967 411.848 359.364 411.848Z" fill="#F5F5F5"/>
<path d="M487.084 480.686C487.084 480.831 380.658 480.956 249.394 480.956C118.129 480.956 11.6822 480.841 11.6822 480.686C11.6822 480.53 118.088 480.415 249.394 480.415C380.7 480.415 487.084 480.54 487.084 480.686Z" fill="#263238"/>
<path d="M205.278 108.27L202.502 82.1623L189.183 85.1671L177.704 64.8926L184.857 92.2996L198.364 89.2012L205.278 108.27Z" fill="#00CF71"/>
<path d="M199.85 113.196L187.478 100.459L181.645 107.623L167.079 101.623L182.321 113.227L188.216 105.938L199.85 113.196Z" fill="#00CF71"/>
<path d="M333.6 124.459L344.85 103.997L354.738 111.036L371.115 98.3516L355.841 118.377L345.818 111.203L333.6 124.459Z" fill="#00CF71"/>
<path d="M354.24 136.135L365.874 131.176L367.735 137.476L378.953 137.55L365.749 140.97L363.877 134.565L354.24 136.135Z" fill="#00CF71"/>
<path d="M273.536 56.6371L274.939 55.7741C276.338 54.9607 277.786 54.235 279.275 53.6011C285.077 51.1172 291.362 49.9695 297.667 50.2428C298.707 50.2428 299.746 50.3572 300.786 50.5028C301.903 50.6122 303.009 50.814 304.093 51.1058C305.237 51.4068 306.338 51.8542 307.368 52.4366C308.465 53.0477 309.386 53.9324 310.04 55.0047C310.701 56.1559 310.93 57.5053 310.685 58.8101C310.377 60.1507 309.713 61.383 308.762 62.3764C306.731 64.4204 304.234 65.9373 301.484 66.7952C295.479 69.0011 289.078 69.9186 282.695 69.488C275.472 69.0515 268.453 66.914 262.213 63.2497L262.068 63.1665L262.161 63.021C264.824 58.8227 268.546 55.4012 272.953 53.1021C277.61 50.633 282.73 49.1668 287.988 48.7976C293.534 48.449 299.102 48.9008 304.52 50.1389C307.296 50.7315 310.082 51.4697 312.838 52.3327C315.701 53.1106 318.486 54.1549 321.155 55.4518C323.914 56.8032 326.227 58.9178 327.819 61.5446C328.609 62.8988 329.1 64.4049 329.265 65.9634C329.407 67.5494 329.142 69.1455 328.495 70.6005C327.195 73.5533 324.534 75.6432 321.737 77.13C318.852 78.5837 315.791 79.6567 312.63 80.3219C299.498 83.512 285.838 83.8664 272.558 81.3616C271.695 81.2161 270.853 81.0185 270.001 80.8314C269.148 80.6442 268.296 80.4571 267.443 80.2387C265.716 79.8581 264.023 79.3401 262.38 78.6896C260.701 78.0394 259.139 77.1231 257.752 75.9759C256.307 74.8087 255.318 73.1713 254.956 71.3491C254.651 69.4945 255.067 67.5932 256.12 66.0362C257.155 64.5094 258.472 63.1933 259.999 62.158C261.511 61.1195 263.116 60.2216 264.792 59.4755C265.613 59.0596 266.456 58.7061 267.307 58.3422C268.16 57.9783 269.002 57.6248 269.876 57.3025C280.494 53.3442 291.952 52.1876 303.147 53.9442C304.093 54.0898 305.04 54.2457 305.975 54.4537C306.911 54.6616 307.856 54.8384 308.783 55.0983C310.672 55.5313 312.519 56.1296 314.303 56.8866C316.118 57.6393 317.803 58.6745 319.293 59.9538C320.821 61.2529 321.911 62.9922 322.412 64.9341L322.569 65.6723L322.631 66.4209C322.675 66.9224 322.675 67.4269 322.631 67.9285C322.5 68.9299 322.206 69.9029 321.758 70.8085C320.84 72.5787 319.561 74.137 318.005 75.3832C316.472 76.6622 314.797 77.7612 313.014 78.6584C312.13 79.1262 311.215 79.5213 310.3 79.906C309.386 80.2907 308.471 80.6754 307.535 81.0393C303.838 82.486 300.039 83.6606 296.171 84.5536C288.255 86.3849 280.116 87.0573 272.007 86.5498C267.864 86.396 263.807 85.331 260.124 83.4307C258.258 82.4439 256.662 81.0162 255.475 79.2718C254.341 77.4595 253.817 75.3317 253.979 73.1998C254.132 71.4705 254.695 69.8025 255.621 68.3339C256.54 66.8862 257.664 65.5799 258.959 64.4558C261.537 62.255 264.465 60.4981 267.619 59.2572C276.864 55.3554 286.923 53.7741 296.919 54.6512C298.562 54.7968 300.194 55.0047 301.806 55.2855C303.424 55.5235 305.018 55.9064 306.568 56.4292C308.135 56.9486 309.62 57.691 310.975 58.6334C312.371 59.5655 313.475 60.874 314.158 62.4075C314.813 63.9682 314.868 65.716 314.313 67.315C313.759 68.8785 312.811 70.2718 311.558 71.3595C309.063 73.5637 305.84 74.4787 302.772 75.2273C299.706 75.9759 296.607 76.6933 293.529 77.3691C287.465 78.7995 281.31 79.8104 275.105 80.3947C268.987 80.9504 262.822 80.653 256.786 79.5109C250.863 78.3948 245.227 76.0962 240.213 72.7528L239.943 72.5656L240.181 72.3473C248.633 65.032 259.022 60.3195 270.095 58.7789C280.598 57.176 291.34 58.5408 301.109 62.7195C302.276 63.2704 303.366 63.9693 304.353 64.7989C305.36 65.6258 306.134 66.7009 306.599 67.9181C307.012 69.1797 306.945 70.5494 306.411 71.765C305.848 72.9271 305.005 73.931 303.958 74.6866C301.897 76.0863 299.621 77.1399 297.221 77.8058C294.9 78.5473 292.526 79.1104 290.119 79.4901C285.414 80.2227 280.623 80.2227 275.917 79.4901C274.743 79.3806 273.617 78.9764 272.641 78.3153C272.168 77.9253 271.808 77.4161 271.598 76.8404C271.388 76.2646 271.335 75.6431 271.446 75.0401C271.752 73.8897 272.397 72.8575 273.297 72.0769C274.131 71.288 275.077 70.6259 276.104 70.1119C284.022 66.5647 292.742 65.1832 301.369 66.1089C303.423 66.2942 305.44 66.7595 307.368 67.4918C309.289 68.1919 310.972 69.421 312.223 71.0372C313.452 72.6417 314.032 74.65 313.846 76.6621C313.535 78.6031 312.493 80.3516 310.935 81.5488C309.487 82.6946 307.935 83.7007 306.297 84.5536C304.702 85.4275 303.057 86.2052 301.369 86.8825C298.153 88.1641 294.806 89.088 291.388 89.6378C285.159 90.649 278.79 90.3731 272.673 88.8268H272.486L272.6 88.6709C275.225 85.1148 278.842 82.4129 282.998 80.9042C286.619 79.5443 290.534 79.1607 294.35 79.7917C296.065 80.0261 297.707 80.6406 299.154 81.5904C299.825 82.0559 300.4 82.6453 300.849 83.3267C301.268 83.9905 301.53 84.7405 301.618 85.5205C301.729 86.9779 301.324 88.4276 300.474 89.617C299.748 90.6899 298.84 91.629 297.792 92.3931C296.015 93.5883 294.079 94.5296 292.043 95.1899C290.603 95.7002 289.202 96.3153 287.853 97.0302C287.039 97.4829 286.282 98.0309 285.597 98.6626C285.357 98.8705 285.211 99.0577 285.097 99.1616L284.931 99.328C285.133 99.0842 285.348 98.8516 285.576 98.6314C286.261 97.9736 287.026 97.4042 287.853 96.9366C289.189 96.1963 290.579 95.5569 292.012 95.0236C294.035 94.3563 295.956 93.4115 297.72 92.2163C298.748 91.4591 299.637 90.5306 300.35 89.4715C301.172 88.3137 301.562 86.9047 301.452 85.4893C301.361 84.7489 301.105 84.0383 300.703 83.4099C300.264 82.7521 299.702 82.1841 299.05 81.7359C297.627 80.8067 296.014 80.2065 294.331 79.9788C290.549 79.3641 286.673 79.755 283.091 81.1121C278.982 82.6127 275.409 85.2928 272.818 88.8164L272.745 88.6085C278.825 90.1307 285.152 90.3926 291.335 89.3779C294.729 88.8251 298.053 87.9011 301.244 86.6226C302.91 85.9573 304.535 85.1934 306.11 84.3352C307.738 83.4788 309.28 82.4692 310.716 81.32C312.206 80.1797 313.202 78.5134 313.502 76.6621C313.654 74.7466 313.083 72.8435 311.902 71.3283C310.7 69.7644 309.082 68.5716 307.232 67.8869C305.339 67.1702 303.355 66.7154 301.338 66.5352C292.765 65.6075 284.099 66.9746 276.229 70.4966C275.239 70.9919 274.329 71.6295 273.526 72.3889C272.7 73.1191 272.11 74.0781 271.831 75.1441C271.732 75.6733 271.777 76.2191 271.959 76.7254C272.141 77.2316 272.457 77.68 272.87 78.0241C273.787 78.6946 274.861 79.1171 275.989 79.251C280.651 79.9762 285.396 79.9762 290.057 79.251C292.443 78.8732 294.796 78.3136 297.096 77.5771C299.452 76.9045 301.682 75.8509 303.697 74.4579C304.682 73.7473 305.474 72.8043 306.006 71.713C306.491 70.6018 306.55 69.3509 306.173 68.1988C305.748 67.0507 305.03 66.033 304.093 65.246C303.147 64.4213 302.099 63.7224 300.974 63.1665C291.276 59.0096 280.609 57.6483 270.178 59.2364C259.199 60.7857 248.904 65.4801 240.535 72.7528V72.3577C245.496 75.6621 251.072 77.9323 256.931 79.0327C262.921 80.1607 269.037 80.4511 275.105 79.8956C281.289 79.3067 287.424 78.2924 293.467 76.8596C296.586 76.1838 299.612 75.456 302.7 74.7178C305.787 73.9796 308.938 73.0543 311.257 70.9644C312.433 69.9366 313.326 68.6223 313.846 67.1487C314.359 65.6714 314.306 64.0567 313.7 62.6155C313.064 61.1762 312.033 59.9468 310.727 59.07C309.412 58.1578 307.973 57.4399 306.453 56.9386C304.921 56.4196 303.345 56.0403 301.743 55.8053C300.143 55.5246 298.52 55.3167 296.898 55.1815C286.991 54.3126 277.022 55.8795 267.859 59.7459C264.756 60.9668 261.878 62.6955 259.343 64.8613C256.89 67.0447 254.769 69.9247 254.488 73.2518C254.338 75.2633 254.833 77.27 255.902 78.9807C257.04 80.6504 258.567 82.0172 260.352 82.9628C263.966 84.825 267.945 85.8686 272.007 86.0196C280.063 86.5261 288.15 85.8607 296.014 84.0441C299.908 83.1598 303.73 81.9886 307.451 80.5403C308.376 80.1868 309.292 79.8125 310.196 79.4174C311.1 79.0223 312.006 78.6376 312.878 78.1801C314.625 77.3029 316.264 76.2285 317.765 74.9778C319.273 73.769 320.509 72.2563 321.394 70.5382C321.815 69.6849 322.092 68.7681 322.215 67.8245C322.257 67.354 322.257 66.8809 322.215 66.4105L322.164 65.7035L322.018 65.0068C321.535 63.1711 320.496 61.5296 319.044 60.3073C317.592 59.0662 315.954 58.0626 314.189 57.3337C312.431 56.5894 310.612 56.0015 308.751 55.5766C307.836 55.3167 306.901 55.1295 305.965 54.9424C305.029 54.7552 304.093 54.5681 303.158 54.4329C292.037 52.68 280.654 53.8223 270.105 57.7496C269.242 58.0511 268.389 58.3942 267.557 58.7893C266.725 59.1844 265.873 59.4963 265.062 59.9122C263.411 60.6466 261.831 61.5306 260.341 62.5531C258.866 63.5488 257.592 64.8154 256.589 66.2857C255.603 67.738 255.211 69.5132 255.496 71.2452C255.838 72.954 256.769 74.4886 258.127 75.5808C259.473 76.6929 260.989 77.5811 262.619 78.2113C264.242 78.8535 265.915 79.3646 267.619 79.7397C268.461 79.958 269.314 80.166 270.167 80.3323C271.02 80.4987 271.862 80.717 272.714 80.8522C285.924 83.36 299.518 83.0232 312.588 79.8644C315.711 79.2185 318.737 78.17 321.591 76.7453C324.347 75.2897 326.915 73.2414 328.152 70.4342C328.769 69.0475 329.022 67.5271 328.89 66.0154C328.728 64.4825 328.235 63.0033 327.445 61.6797C325.897 59.1195 323.645 57.0586 320.957 55.7429C318.329 54.4511 315.586 53.407 312.764 52.6238C309.988 51.7608 307.223 51.0226 304.446 50.43C299.068 49.1943 293.539 48.7392 288.029 49.0783C282.825 49.4518 277.757 50.9111 273.151 53.362C268.794 55.6239 265.111 58.995 262.473 63.1354L262.411 62.8962C268.6 66.5471 275.565 68.6846 282.737 69.1345C289.091 69.5823 295.468 68.6859 301.452 66.504C304.166 65.6678 306.635 64.1834 308.647 62.1788C309.569 61.2209 310.215 60.032 310.519 58.7373C310.759 57.4879 310.546 56.1935 309.916 55.0879C309.284 54.0454 308.391 53.1855 307.327 52.5926C306.313 52.0153 305.23 51.5714 304.104 51.2721C303.03 50.9813 301.935 50.7795 300.828 50.6691C299.789 50.5236 298.749 50.4508 297.709 50.3988C291.423 50.1184 285.154 51.2443 279.359 53.6947C277.87 54.3025 276.419 54.9968 275.012 55.7741L273.536 56.6371Z" fill="#4E36D7"/>
</svg>
