<svg width="289" height="427" viewBox="0 0 289 427" fill="none" xmlns="http://www.w3.org/2000/svg">
<g opacity="0.7">
<g clip-path="url(#clip0_1_1287)">
<path fill-rule="evenodd" clip-rule="evenodd" d="M323.906 324.647C300.484 347.496 271.16 364.6 238.642 368.238C207 371.779 176.135 360.247 148.599 344.263C122.288 328.989 99.4758 307.8 86.8474 280.122C74.571 253.216 77.3016 223.298 79.967 193.843C82.8348 162.152 81.1724 126.884 102.824 103.565C124.704 79.9989 160.015 77.2629 191.923 73.2618C222.824 69.3867 255.471 65.9537 282.736 81.0045C309.587 95.8272 321.549 126.131 336.355 152.992C351.731 180.889 372.581 208.054 370.277 239.824C367.887 272.769 347.55 301.581 323.906 324.647Z" fill="white"/>
</g>
</g>
<defs>
<clipPath id="clip0_1_1287">
<rect width="289.996" height="312.8" fill="white" transform="translate(427.119 221.461) rotate(135)"/>
</clipPath>
</defs>
</svg>
