<svg width="70" height="70" viewBox="0 0 70 70" fill="none" xmlns="http://www.w3.org/2000/svg">
<g clip-path="url(#clip0_1_181)">
<mask id="mask0_1_181" style="mask-type:luminance" maskUnits="userSpaceOnUse" x="0" y="0" width="70" height="70">
<path d="M70 0H0V70H70V0Z" fill="white"/>
</mask>
<g mask="url(#mask0_1_181)">
<path d="M61.7311 16.7034V16.7333H52.5149C49.1933 16.734 46.4999 14.0413 46.5012 10.7196V6.01374H47.1178V2.1048L61.7311 16.7034Z" fill="#D4E1F4"/>
<path d="M44.2162 27.3626V27.3925H35C31.6783 27.3936 28.985 24.7004 28.9863 21.3788V18.2068H29.0162V12.1931L44.2162 27.3626Z" fill="#D4E1F4"/>
<path d="M47.1178 2.12009V6.01374H46.5012V1.53339H46.5464L47.1178 2.12009Z" fill="#D4E1F4"/>
<path d="M47.1178 1.53339V2.12009L46.5463 1.53339H46.5311H47.1178Z" fill="#D4E1F4"/>
<path d="M46.501 1.53337V6.01373H31.136C27.8145 6.01255 25.1211 8.70582 25.1223 12.0275H19.1086V7.51716C19.1074 4.19551 21.8006 1.50224 25.1223 1.50342L46.501 1.53337Z" fill="#D4E1F4"/>
<path d="M29.0015 12.1931H29.0314V18.2068H29.0015V12.1931Z" fill="#D4E1F4"/>
<path d="M19.1086 12.1778L29.0013 12.1931V18.2068L27.2119 18.1763H13.6211C10.2995 18.1756 7.60619 20.8683 7.60737 24.19V68.4968C4.28572 68.4973 1.59245 65.8046 1.59363 62.4831V18.1763C1.59245 14.8546 4.28572 12.162 7.60737 12.1625L19.1086 12.1778Z" fill="#D4E1F4"/>
<path d="M47.5989 0.480982L47.5688 0.451031C47.287 0.165025 46.9029 0.00234912 46.5012 0H25.1225C20.9715 0.00176185 17.6065 3.36629 17.6053 7.51718V10.6591H7.60743C3.45652 10.6609 0.0914152 14.0254 0.0902405 18.1763V62.4831C0.0914152 66.634 3.45652 69.9985 7.60743 70.0003H38.2023C42.3533 69.9985 45.7178 66.634 45.7196 62.4831V59.3404H55.7174C59.8683 59.3394 63.2328 55.9743 63.2346 51.8234V16.7035C63.2316 16.3047 63.0755 15.9223 62.7982 15.6357L47.5989 0.480982ZM48.0047 5.12695L58.123 15.2299H52.5149C50.0273 15.2223 48.0116 13.2073 48.0047 10.7196V5.12695ZM38.2023 66.9934H7.60743C5.11912 66.9858 3.10416 64.9708 3.09712 62.4831V18.1763C3.10416 15.6886 5.11912 13.6737 7.60743 13.666H27.498V21.3787C27.4992 25.5296 30.8637 28.8947 35.0152 28.8959H42.7273V62.4831C42.7132 64.9737 40.693 66.9869 38.2023 66.9934ZM40.6225 25.8891H35.0152C32.5269 25.882 30.5119 23.867 30.5048 21.3787V15.7861L40.6225 25.8891ZM55.7174 56.3336H45.7196V27.3625C45.7165 26.9638 45.5604 26.5821 45.2831 26.2948L30.0985 11.1254L30.0839 11.1102C29.8002 10.8177 29.4085 10.655 29.0014 10.6591H20.6121V7.51718C20.6192 5.02946 22.6342 3.01392 25.1225 3.00687H45.013V10.7196C45.0142 14.8705 48.3787 18.235 52.5302 18.2368H60.2277V51.8234C60.2201 54.3117 58.2051 56.3266 55.7174 56.3336Z" fill="url(#paint0_linear_1_181)"/>
<path d="M12.2075 38.0218H24.4305C25.261 38.0218 25.934 37.3487 25.934 36.5183C25.934 35.6884 25.261 35.0148 24.4305 35.0148H12.2075C11.3777 35.0148 10.7041 35.6884 10.7041 36.5183C10.7041 37.3487 11.3777 38.0218 12.2075 38.0218Z" fill="#6872E3"/>
<path d="M36.6085 45.6746H12.2075C11.3777 45.6746 10.7041 46.3475 10.7041 47.1779C10.7041 48.0083 11.3777 48.6814 12.2075 48.6814H36.6085C37.4388 48.6814 38.1118 48.0083 38.1118 47.1779C38.1118 46.3475 37.4388 45.6746 36.6085 45.6746Z" fill="#6872E3"/>
<path d="M36.6085 56.3337H12.2075C11.3777 56.3337 10.7041 57.0067 10.7041 57.8371C10.7041 58.6675 11.3777 59.3406 12.2075 59.3406H36.6085C37.4388 59.3406 38.1118 58.6675 38.1118 57.8371C38.1118 57.0067 37.4388 56.3337 36.6085 56.3337Z" fill="#6872E3"/>
<path d="M54.1237 35.0148H49.5381C48.7078 35.0148 48.0348 35.6884 48.0348 36.5183C48.0348 37.3487 48.7078 38.0218 49.5381 38.0218H54.1237C54.9541 38.0218 55.627 37.3487 55.627 36.5183C55.627 35.6884 54.9541 35.0148 54.1237 35.0148Z" fill="#6872E3"/>
<path d="M54.1237 45.6746H49.5381C48.7078 45.6746 48.0348 46.3475 48.0348 47.1779C48.0348 48.0083 48.7078 48.6814 49.5381 48.6814H54.1237C54.9541 48.6814 55.627 48.0083 55.627 47.1779C55.627 46.3475 54.9541 45.6746 54.1237 45.6746Z" fill="#6872E3"/>
</g>
</g>
<defs>
<linearGradient id="paint0_linear_1_181" x1="11950.1" y1="6740.32" x2="1205.87" y2="12444.2" gradientUnits="userSpaceOnUse">
<stop stop-color="#00CF91"/>
<stop offset="1" stop-color="#00CF60"/>
</linearGradient>
<clipPath id="clip0_1_181">
<rect width="70" height="70" fill="white"/>
</clipPath>
</defs>
</svg>
