<svg width="20" height="17" viewBox="0 0 20 17" fill="none" xmlns="http://www.w3.org/2000/svg">
<g clip-path="url(#clip0_1_27)">
<mask id="mask0_1_27" style="mask-type:luminance" maskUnits="userSpaceOnUse" x="0" y="0" width="20" height="17">
<path d="M20 0H0V16.5H20V0Z" fill="white"/>
</mask>
<g mask="url(#mask0_1_27)">
<path d="M1.12423 6.6922L1.09301 6.69898H14.4761L10.269 2.51095C10.0629 2.30648 9.94993 2.02949 9.94993 1.73878C9.94993 1.44807 10.0629 1.17302 10.269 0.96807L10.9236 0.317522C11.1294 0.113054 11.4037 0 11.6962 0C11.9889 0 12.2634 0.112247 12.4693 0.316715L19.6811 7.47937C19.8878 7.68465 20.0008 7.95808 20 8.24895C20.0008 8.54145 19.8878 8.81502 19.6811 9.01997L12.4693 16.1833C12.2634 16.3876 11.9891 16.5 11.6962 16.5C11.4037 16.5 11.1294 16.3874 10.9236 16.1833L10.269 15.5327C10.0629 15.3286 9.94993 15.056 9.94993 14.7653C9.94993 14.4747 10.0629 14.2164 10.269 14.0121L14.5236 9.8007H1.10927C0.506502 9.8007 0 9.2847 0 8.6863V7.7662C0 7.16783 0.521463 6.6922 1.12423 6.6922Z" fill="url(#paint0_linear_1_27)"/>
</g>
</g>
<defs>
<linearGradient id="paint0_linear_1_27" x1="3785" y1="1588.79" x2="893.985" y2="3651.1" gradientUnits="userSpaceOnUse">
<stop stop-color="#00CF91"/>
<stop offset="1" stop-color="#00CF60"/>
</linearGradient>
<clipPath id="clip0_1_27">
<rect width="20" height="16.5" fill="white"/>
</clipPath>
</defs>
</svg>
