<svg width="42" height="25" viewBox="0 0 42 25" fill="none" xmlns="http://www.w3.org/2000/svg">
<g clip-path="url(#clip0_1_1796)">
<path d="M38.7113 18.9776C39.0264 18.8781 39.3625 19.0528 39.462 19.3679C39.5616 19.683 39.3869 20.0191 39.0718 20.1187L38.7113 18.9776ZM2.42085 6.90723C2.12378 6.76265 1.99995 6.40451 2.14452 6.10736L4.50085 1.26525C4.64543 0.968095 5.00346 0.844405 5.30054 0.988976C5.59762 1.13353 5.72144 1.49169 5.57687 1.78881L3.48256 6.09301L7.78664 8.18734C8.08372 8.33189 8.20755 8.69003 8.06276 8.9871C7.91818 9.28424 7.56014 9.40793 7.26307 9.26336L2.42085 6.90723ZM39.0718 20.1187C33.1586 21.9868 29.4021 21.5615 26.7401 19.8313C24.1327 18.1365 22.7065 15.2504 21.2918 12.6295C19.8431 9.94569 18.3928 7.49749 15.7886 6.20348C13.2023 4.91837 9.32671 4.70758 2.87795 6.93474L2.48735 5.80365C9.06576 3.53168 13.3168 3.63898 16.321 5.13178C19.3072 6.61564 20.9111 9.40499 22.3448 12.0611C23.8124 14.7799 25.0967 17.3359 27.3923 18.8279C29.6332 20.2845 32.9722 20.7907 38.7113 18.9776L39.0718 20.1187Z" fill="white"/>
</g>
<defs>
<clipPath id="clip0_1_1796">
<rect width="39.9687" height="10.77" fill="white" transform="translate(37.9353 24.2744) rotate(-160)"/>
</clipPath>
</defs>
</svg>
