<svg width="90" height="91" viewBox="0 0 90 91" fill="none" xmlns="http://www.w3.org/2000/svg">
<g clip-path="url(#clip0_1_1222)">
<path d="M11.2499 76.3401V15.5901C11.2484 11.4475 14.6073 8.08863 18.7499 8.09009H87.881C87.0314 4.77735 84.0445 2.46217 80.6249 2.46509H9.37489C5.2323 2.46363 1.87342 5.82251 1.87488 9.9651V70.7151C1.87342 74.8577 5.2323 78.2165 9.37489 78.2151H11.4938C11.3261 77.6043 11.244 76.9736 11.2499 76.3401Z" fill="#D4E1F4"/>
<path d="M80.6251 0.590088H9.37499C4.19824 0.592285 0.00219728 4.78832 0 9.96508V70.715C0.00219728 75.8918 4.19824 80.0879 9.37499 80.0901H80.6251C85.8018 80.0879 89.9979 75.8918 90 70.715V9.96508C89.9979 4.78832 85.8018 0.592285 80.6251 0.590088ZM9.37499 4.34008H80.6251C83.7276 4.34887 86.2413 6.86254 86.2501 9.96508V17.7837H3.74999V9.96508C3.75878 6.86254 6.27246 4.34887 9.37499 4.34008ZM80.6251 76.34H9.37499C6.27246 76.3312 3.75878 73.8176 3.74999 70.715V21.5337H86.2501V70.715C86.2413 73.8176 83.7276 76.3312 80.6251 76.34Z" fill="url(#paint0_linear_1_1222)"/>
<path d="M76.012 53.2966H52.2933C51.2583 53.2966 50.4183 54.136 50.4183 55.1715C50.4183 56.2065 51.2583 57.0466 52.2933 57.0466H76.012C77.0477 57.0466 77.8871 56.2065 77.8871 55.1715C77.8871 54.136 77.0477 53.2966 76.012 53.2966Z" fill="url(#paint1_linear_1_1222)"/>
<path d="M76.012 64.209H52.2933C51.2583 64.209 50.4183 65.0483 50.4183 66.084C50.4183 67.1196 51.2583 67.9589 52.2933 67.9589H76.012C77.0477 67.9589 77.8871 67.1196 77.8871 66.084C77.8871 65.0483 77.0477 64.209 76.012 64.209Z" fill="url(#paint2_linear_1_1222)"/>
<path d="M76.012 31.4712H52.2933C51.2583 31.4712 50.4183 32.3105 50.4183 33.3462C50.4183 34.382 51.2583 35.2213 52.2933 35.2213H76.012C77.0477 35.2213 77.8871 34.382 77.8871 33.3462C77.8871 32.3105 77.0477 31.4712 76.012 31.4712Z" fill="url(#paint3_linear_1_1222)"/>
<path d="M76.012 42.3835H52.2933C51.2583 42.3835 50.4183 43.2236 50.4183 44.2586C50.4183 45.2943 51.2583 46.1337 52.2933 46.1337H76.012C77.0477 46.1337 77.8871 45.2943 77.8871 44.2586C77.8871 43.2236 77.0477 42.3835 76.012 42.3835Z" fill="url(#paint4_linear_1_1222)"/>
<path d="M26.887 48.965C32.236 48.9701 36.5762 44.6387 36.5813 39.2898C36.5866 33.9417 32.255 29.6013 26.9061 29.5962C21.5573 29.5911 17.2176 33.9225 17.2125 39.2714C17.2191 44.6144 21.5441 48.9474 26.887 48.965ZM26.887 33.3461C29.2894 33.3424 31.4566 34.7868 32.3773 37.0054C33.2986 39.2239 32.7911 41.7785 31.0925 43.4769C29.3948 45.1755 26.8395 45.6823 24.6217 44.7617C22.4031 43.8403 20.9588 41.6731 20.9624 39.2714C20.9712 36.0027 23.619 33.3556 26.887 33.3461Z" fill="#6872E3"/>
<path d="M26.8873 52.5467C22.9221 52.521 19.1171 54.1119 16.35 56.953C13.5375 59.8211 12.0002 63.7213 12.0002 67.959C12.0031 68.9933 12.841 69.8311 13.8752 69.8341H39.9187C40.9535 69.8311 41.7908 68.9933 41.7936 67.959C41.7936 63.7213 40.2562 59.8211 37.4437 56.953C34.6693 54.1112 30.8586 52.5203 26.8873 52.5467ZM15.8813 66.0842C16.2028 63.6327 17.3073 61.3504 19.0315 59.578C21.1064 57.4781 23.9358 56.2966 26.8873 56.2966C29.8397 56.2966 32.6691 57.4781 34.744 59.578C36.4646 61.3526 37.569 63.6334 37.8942 66.0842H15.8813Z" fill="#6872E3"/>
</g>
<defs>
<linearGradient id="paint0_linear_1_1222" x1="17032.5" y1="7655.65" x2="3437.35" y2="16713.4" gradientUnits="userSpaceOnUse">
<stop stop-color="#00CF91"/>
<stop offset="1" stop-color="#00CF60"/>
</linearGradient>
<linearGradient id="paint1_linear_1_1222" x1="5248.88" y1="414.384" x2="4942.95" y2="1733.2" gradientUnits="userSpaceOnUse">
<stop stop-color="#00CF91"/>
<stop offset="1" stop-color="#00CF60"/>
</linearGradient>
<linearGradient id="paint2_linear_1_1222" x1="5248.88" y1="425.297" x2="4942.95" y2="1744.11" gradientUnits="userSpaceOnUse">
<stop stop-color="#00CF91"/>
<stop offset="1" stop-color="#00CF60"/>
</linearGradient>
<linearGradient id="paint3_linear_1_1222" x1="5248.88" y1="392.559" x2="4942.95" y2="1711.37" gradientUnits="userSpaceOnUse">
<stop stop-color="#00CF91"/>
<stop offset="1" stop-color="#00CF60"/>
</linearGradient>
<linearGradient id="paint4_linear_1_1222" x1="5248.88" y1="403.47" x2="4942.95" y2="1722.28" gradientUnits="userSpaceOnUse">
<stop stop-color="#00CF91"/>
<stop offset="1" stop-color="#00CF60"/>
</linearGradient>
<clipPath id="clip0_1_1222">
<rect width="90" height="90" fill="white" transform="translate(0 0.590088)"/>
</clipPath>
</defs>
</svg>
