<svg width="74" height="66" viewBox="0 0 74 66" fill="none" xmlns="http://www.w3.org/2000/svg">
<g clip-path="url(#clip0_1_1735)">
<path d="M1.43475 2.86196C2.22558 2.86196 2.8667 2.22131 2.8667 1.43099C2.8667 0.64067 2.22558 0 1.43475 0C0.643917 0 0.00286865 0.64067 0.00286865 1.43099C0.00286865 2.22131 0.643917 2.86196 1.43475 2.86196Z" fill="#6872E3"/>
<path d="M1.43475 2.86196C2.22558 2.86196 2.8667 2.22131 2.8667 1.43099C2.8667 0.64067 2.22558 0 1.43475 0C0.643917 0 0.00286865 0.64067 0.00286865 1.43099C0.00286865 2.22131 0.643917 2.86196 1.43475 2.86196Z" fill="white"/>
<path d="M19.0183 2.86196C19.8092 2.86196 20.4501 2.22131 20.4501 1.43099C20.4501 0.64067 19.8092 0 19.0183 0C18.2274 0 17.5863 0.64067 17.5863 1.43099C17.5863 2.22131 18.2274 2.86196 19.0183 2.86196Z" fill="#6872E3"/>
<path d="M19.0183 2.86196C19.8092 2.86196 20.4501 2.22131 20.4501 1.43099C20.4501 0.64067 19.8092 0 19.0183 0C18.2274 0 17.5863 0.64067 17.5863 1.43099C17.5863 2.22131 18.2274 2.86196 19.0183 2.86196Z" fill="white"/>
<path d="M36.6068 2.86196C37.3978 2.86196 38.0388 2.22131 38.0388 1.43099C38.0388 0.64067 37.3978 0 36.6068 0C35.8159 0 35.1749 0.64067 35.1749 1.43099C35.1749 2.22131 35.8159 2.86196 36.6068 2.86196Z" fill="#6872E3"/>
<path d="M36.6068 2.86196C37.3978 2.86196 38.0388 2.22131 38.0388 1.43099C38.0388 0.64067 37.3978 0 36.6068 0C35.8159 0 35.1749 0.64067 35.1749 1.43099C35.1749 2.22131 35.8159 2.86196 36.6068 2.86196Z" fill="white"/>
<path d="M54.19 2.86196C54.9808 2.86196 55.6218 2.22131 55.6218 1.43099C55.6218 0.64067 54.9808 0 54.19 0C53.3989 0 52.7579 0.64067 52.7579 1.43099C52.7579 2.22131 53.3989 2.86196 54.19 2.86196Z" fill="#6872E3"/>
<path d="M54.19 2.86196C54.9808 2.86196 55.6218 2.22131 55.6218 1.43099C55.6218 0.64067 54.9808 0 54.19 0C53.3989 0 52.7579 0.64067 52.7579 1.43099C52.7579 2.22131 53.3989 2.86196 54.19 2.86196Z" fill="white"/>
<path d="M71.7894 2.86196C72.5803 2.86196 73.2213 2.22131 73.2213 1.43099C73.2213 0.64067 72.5803 0 71.7894 0C70.9986 0 70.3574 0.64067 70.3574 1.43099C70.3574 2.22131 70.9986 2.86196 71.7894 2.86196Z" fill="#6872E3"/>
<path d="M71.7894 2.86196C72.5803 2.86196 73.2213 2.22131 73.2213 1.43099C73.2213 0.64067 72.5803 0 71.7894 0C70.9986 0 70.3574 0.64067 70.3574 1.43099C70.3574 2.22131 70.9986 2.86196 71.7894 2.86196Z" fill="white"/>
<path d="M1.43475 18.2848C2.22558 18.2848 2.8667 17.6442 2.8667 16.8539C2.8667 16.0635 2.22558 15.4229 1.43475 15.4229C0.643917 15.4229 0.00286865 16.0635 0.00286865 16.8539C0.00286865 17.6442 0.643917 18.2848 1.43475 18.2848Z" fill="#6872E3"/>
<path d="M1.43475 18.2848C2.22558 18.2848 2.8667 17.6442 2.8667 16.8539C2.8667 16.0635 2.22558 15.4229 1.43475 15.4229C0.643917 15.4229 0.00286865 16.0635 0.00286865 16.8539C0.00286865 17.6442 0.643917 18.2848 1.43475 18.2848Z" fill="white"/>
<path d="M19.0183 18.2834C19.8092 18.2834 20.4501 17.6427 20.4501 16.8524C20.4501 16.0621 19.8092 15.4214 19.0183 15.4214C18.2274 15.4214 17.5863 16.0621 17.5863 16.8524C17.5863 17.6427 18.2274 18.2834 19.0183 18.2834Z" fill="#6872E3"/>
<path d="M19.0183 18.2834C19.8092 18.2834 20.4501 17.6427 20.4501 16.8524C20.4501 16.0621 19.8092 15.4214 19.0183 15.4214C18.2274 15.4214 17.5863 16.0621 17.5863 16.8524C17.5863 17.6427 18.2274 18.2834 19.0183 18.2834Z" fill="white"/>
<path d="M36.6068 18.2834C37.3978 18.2834 38.0388 17.6427 38.0388 16.8524C38.0388 16.0621 37.3978 15.4214 36.6068 15.4214C35.8159 15.4214 35.1749 16.0621 35.1749 16.8524C35.1749 17.6427 35.8159 18.2834 36.6068 18.2834Z" fill="#6872E3"/>
<path d="M36.6068 18.2834C37.3978 18.2834 38.0388 17.6427 38.0388 16.8524C38.0388 16.0621 37.3978 15.4214 36.6068 15.4214C35.8159 15.4214 35.1749 16.0621 35.1749 16.8524C35.1749 17.6427 35.8159 18.2834 36.6068 18.2834Z" fill="white"/>
<path d="M54.19 18.2834C54.9808 18.2834 55.6218 17.6427 55.6218 16.8524C55.6218 16.0621 54.9808 15.4214 54.19 15.4214C53.3989 15.4214 52.7579 16.0621 52.7579 16.8524C52.7579 17.6427 53.3989 18.2834 54.19 18.2834Z" fill="#6872E3"/>
<path d="M54.19 18.2834C54.9808 18.2834 55.6218 17.6427 55.6218 16.8524C55.6218 16.0621 54.9808 15.4214 54.19 15.4214C53.3989 15.4214 52.7579 16.0621 52.7579 16.8524C52.7579 17.6427 53.3989 18.2834 54.19 18.2834Z" fill="white"/>
<path d="M71.7894 18.2834C72.5803 18.2834 73.2213 17.6427 73.2213 16.8524C73.2213 16.0621 72.5803 15.4214 71.7894 15.4214C70.9986 15.4214 70.3574 16.0621 70.3574 16.8524C70.3574 17.6427 70.9986 18.2834 71.7894 18.2834Z" fill="#6872E3"/>
<path d="M71.7894 18.2834C72.5803 18.2834 73.2213 17.6427 73.2213 16.8524C73.2213 16.0621 72.5803 15.4214 71.7894 15.4214C70.9986 15.4214 70.3574 16.0621 70.3574 16.8524C70.3574 17.6427 70.9986 18.2834 71.7894 18.2834Z" fill="white"/>
<path d="M1.43475 33.693C2.22558 33.693 2.8667 33.0524 2.8667 32.2621C2.8667 31.4716 2.22558 30.8311 1.43475 30.8311C0.643917 30.8311 0.00286865 31.4716 0.00286865 32.2621C0.00286865 33.0524 0.643917 33.693 1.43475 33.693Z" fill="#6872E3"/>
<path d="M1.43475 33.693C2.22558 33.693 2.8667 33.0524 2.8667 32.2621C2.8667 31.4716 2.22558 30.8311 1.43475 30.8311C0.643917 30.8311 0.00286865 31.4716 0.00286865 32.2621C0.00286865 33.0524 0.643917 33.693 1.43475 33.693Z" fill="white"/>
<path d="M19.0183 33.693C19.8092 33.693 20.4501 33.0524 20.4501 32.2621C20.4501 31.4716 19.8092 30.8311 19.0183 30.8311C18.2274 30.8311 17.5863 31.4716 17.5863 32.2621C17.5863 33.0524 18.2274 33.693 19.0183 33.693Z" fill="#6872E3"/>
<path d="M19.0183 33.693C19.8092 33.693 20.4501 33.0524 20.4501 32.2621C20.4501 31.4716 19.8092 30.8311 19.0183 30.8311C18.2274 30.8311 17.5863 31.4716 17.5863 32.2621C17.5863 33.0524 18.2274 33.693 19.0183 33.693Z" fill="white"/>
<path d="M36.6068 33.693C37.3978 33.693 38.0388 33.0524 38.0388 32.2621C38.0388 31.4716 37.3978 30.8311 36.6068 30.8311C35.8159 30.8311 35.1749 31.4716 35.1749 32.2621C35.1749 33.0524 35.8159 33.693 36.6068 33.693Z" fill="#6872E3"/>
<path d="M36.6068 33.693C37.3978 33.693 38.0388 33.0524 38.0388 32.2621C38.0388 31.4716 37.3978 30.8311 36.6068 30.8311C35.8159 30.8311 35.1749 31.4716 35.1749 32.2621C35.1749 33.0524 35.8159 33.693 36.6068 33.693Z" fill="white"/>
<path d="M54.19 33.693C54.9808 33.693 55.6218 33.0524 55.6218 32.2621C55.6218 31.4716 54.9808 30.8311 54.19 30.8311C53.3989 30.8311 52.7579 31.4716 52.7579 32.2621C52.7579 33.0524 53.3989 33.693 54.19 33.693Z" fill="#6872E3"/>
<path d="M54.19 33.693C54.9808 33.693 55.6218 33.0524 55.6218 32.2621C55.6218 31.4716 54.9808 30.8311 54.19 30.8311C53.3989 30.8311 52.7579 31.4716 52.7579 32.2621C52.7579 33.0524 53.3989 33.693 54.19 33.693Z" fill="white"/>
<path d="M71.7894 33.693C72.5803 33.693 73.2213 33.0524 73.2213 32.2621C73.2213 31.4716 72.5803 30.8311 71.7894 30.8311C70.9986 30.8311 70.3574 31.4716 70.3574 32.2621C70.3574 33.0524 70.9986 33.693 71.7894 33.693Z" fill="#6872E3"/>
<path d="M71.7894 33.693C72.5803 33.693 73.2213 33.0524 73.2213 32.2621C73.2213 31.4716 72.5803 30.8311 71.7894 30.8311C70.9986 30.8311 70.3574 31.4716 70.3574 32.2621C70.3574 33.0524 70.9986 33.693 71.7894 33.693Z" fill="white"/>
<path d="M1.43475 49.1036C2.22558 49.1036 2.8667 48.4631 2.8667 47.6728C2.8667 46.8823 2.22558 46.2417 1.43475 46.2417C0.643917 46.2417 0.00286865 46.8823 0.00286865 47.6728C0.00286865 48.4631 0.643917 49.1036 1.43475 49.1036Z" fill="#6872E3"/>
<path d="M1.43475 49.1036C2.22558 49.1036 2.8667 48.4631 2.8667 47.6728C2.8667 46.8823 2.22558 46.2417 1.43475 46.2417C0.643917 46.2417 0.00286865 46.8823 0.00286865 47.6728C0.00286865 48.4631 0.643917 49.1036 1.43475 49.1036Z" fill="white"/>
<path d="M19.0183 49.1022C19.8092 49.1022 20.4501 48.4616 20.4501 47.6713C20.4501 46.8808 19.8092 46.2402 19.0183 46.2402C18.2274 46.2402 17.5863 46.8808 17.5863 47.6713C17.5863 48.4616 18.2274 49.1022 19.0183 49.1022Z" fill="#6872E3"/>
<path d="M19.0183 49.1022C19.8092 49.1022 20.4501 48.4616 20.4501 47.6713C20.4501 46.8808 19.8092 46.2402 19.0183 46.2402C18.2274 46.2402 17.5863 46.8808 17.5863 47.6713C17.5863 48.4616 18.2274 49.1022 19.0183 49.1022Z" fill="white"/>
<path d="M36.6068 49.1022C37.3978 49.1022 38.0388 48.4616 38.0388 47.6713C38.0388 46.8808 37.3978 46.2402 36.6068 46.2402C35.8159 46.2402 35.1749 46.8808 35.1749 47.6713C35.1749 48.4616 35.8159 49.1022 36.6068 49.1022Z" fill="#6872E3"/>
<path d="M36.6068 49.1022C37.3978 49.1022 38.0388 48.4616 38.0388 47.6713C38.0388 46.8808 37.3978 46.2402 36.6068 46.2402C35.8159 46.2402 35.1749 46.8808 35.1749 47.6713C35.1749 48.4616 35.8159 49.1022 36.6068 49.1022Z" fill="white"/>
<path d="M54.19 49.1022C54.9808 49.1022 55.6218 48.4616 55.6218 47.6713C55.6218 46.8808 54.9808 46.2402 54.19 46.2402C53.3989 46.2402 52.7579 46.8808 52.7579 47.6713C52.7579 48.4616 53.3989 49.1022 54.19 49.1022Z" fill="#6872E3"/>
<path d="M54.19 49.1022C54.9808 49.1022 55.6218 48.4616 55.6218 47.6713C55.6218 46.8808 54.9808 46.2402 54.19 46.2402C53.3989 46.2402 52.7579 46.8808 52.7579 47.6713C52.7579 48.4616 53.3989 49.1022 54.19 49.1022Z" fill="white"/>
<path d="M71.7894 49.1022C72.5803 49.1022 73.2213 48.4616 73.2213 47.6713C73.2213 46.8808 72.5803 46.2402 71.7894 46.2402C70.9986 46.2402 70.3574 46.8808 70.3574 47.6713C70.3574 48.4616 70.9986 49.1022 71.7894 49.1022Z" fill="#6872E3"/>
<path d="M71.7894 49.1022C72.5803 49.1022 73.2213 48.4616 73.2213 47.6713C73.2213 46.8808 72.5803 46.2402 71.7894 46.2402C70.9986 46.2402 70.3574 46.8808 70.3574 47.6713C70.3574 48.4616 70.9986 49.1022 71.7894 49.1022Z" fill="white"/>
<path d="M1.43475 64.5265C2.22558 64.5265 2.8667 63.8859 2.8667 63.0954C2.8667 62.3051 2.22558 61.6646 1.43475 61.6646C0.643917 61.6646 0.00286865 62.3051 0.00286865 63.0954C0.00286865 63.8859 0.643917 64.5265 1.43475 64.5265Z" fill="#6872E3"/>
<path d="M1.43475 64.5265C2.22558 64.5265 2.8667 63.8859 2.8667 63.0954C2.8667 62.3051 2.22558 61.6646 1.43475 61.6646C0.643917 61.6646 0.00286865 62.3051 0.00286865 63.0954C0.00286865 63.8859 0.643917 64.5265 1.43475 64.5265Z" fill="white"/>
<path d="M19.0183 64.5255C19.8092 64.5255 20.4501 63.8849 20.4501 63.0945C20.4501 62.3043 19.8092 61.6636 19.0183 61.6636C18.2274 61.6636 17.5863 62.3043 17.5863 63.0945C17.5863 63.8849 18.2274 64.5255 19.0183 64.5255Z" fill="#6872E3"/>
<path d="M19.0183 64.5255C19.8092 64.5255 20.4501 63.8849 20.4501 63.0945C20.4501 62.3043 19.8092 61.6636 19.0183 61.6636C18.2274 61.6636 17.5863 62.3043 17.5863 63.0945C17.5863 63.8849 18.2274 64.5255 19.0183 64.5255Z" fill="white"/>
<path d="M36.6068 64.5255C37.3978 64.5255 38.0388 63.8849 38.0388 63.0945C38.0388 62.3043 37.3978 61.6636 36.6068 61.6636C35.8159 61.6636 35.1749 62.3043 35.1749 63.0945C35.1749 63.8849 35.8159 64.5255 36.6068 64.5255Z" fill="#6872E3"/>
<path d="M36.6068 64.5255C37.3978 64.5255 38.0388 63.8849 38.0388 63.0945C38.0388 62.3043 37.3978 61.6636 36.6068 61.6636C35.8159 61.6636 35.1749 62.3043 35.1749 63.0945C35.1749 63.8849 35.8159 64.5255 36.6068 64.5255Z" fill="white"/>
<path d="M54.19 64.5255C54.9808 64.5255 55.6218 63.8849 55.6218 63.0945C55.6218 62.3043 54.9808 61.6636 54.19 61.6636C53.3989 61.6636 52.7579 62.3043 52.7579 63.0945C52.7579 63.8849 53.3989 64.5255 54.19 64.5255Z" fill="#6872E3"/>
<path d="M54.19 64.5255C54.9808 64.5255 55.6218 63.8849 55.6218 63.0945C55.6218 62.3043 54.9808 61.6636 54.19 61.6636C53.3989 61.6636 52.7579 62.3043 52.7579 63.0945C52.7579 63.8849 53.3989 64.5255 54.19 64.5255Z" fill="white"/>
<path d="M71.7894 64.5255C72.5803 64.5255 73.2213 63.8849 73.2213 63.0945C73.2213 62.3043 72.5803 61.6636 71.7894 61.6636C70.9986 61.6636 70.3574 62.3043 70.3574 63.0945C70.3574 63.8849 70.9986 64.5255 71.7894 64.5255Z" fill="#6872E3"/>
<path d="M71.7894 64.5255C72.5803 64.5255 73.2213 63.8849 73.2213 63.0945C73.2213 62.3043 72.5803 61.6636 71.7894 61.6636C70.9986 61.6636 70.3574 62.3043 70.3574 63.0945C70.3574 63.8849 70.9986 64.5255 71.7894 64.5255Z" fill="white"/>
</g>
<defs>
<clipPath id="clip0_1_1735">
<rect width="73.9943" height="65.73" fill="white" transform="translate(0.00286865)"/>
</clipPath>
</defs>
</svg>
