<svg width="90" height="90" viewBox="0 0 90 90" fill="none" xmlns="http://www.w3.org/2000/svg">
<g clip-path="url(#clip0_1_1257)">
<mask id="mask0_1_1257" style="mask-type:luminance" maskUnits="userSpaceOnUse" x="0" y="0" width="90" height="90">
<path d="M90 0H0V90H90V0Z" fill="white"/>
</mask>
<g mask="url(#mask0_1_1257)">
<path d="M2.91001 14.9136H8.94396V70.1951H2.91001V14.9136Z" fill="#D4E1F4"/>
<path d="M13.9919 2.81592H7.95795C5.17117 2.81906 2.91315 5.0771 2.91001 7.86465V12.0979H8.94396V7.86386C8.94711 5.0771 11.2051 2.81906 13.9919 2.81592Z" fill="#D4E1F4"/>
<path d="M13.9919 83.1609C11.2051 83.1577 8.94711 80.8996 8.94396 78.113V73.0107H2.91001V82.1355C2.91315 84.9224 5.17117 87.1812 7.95795 87.1843H45.7307C48.1222 87.1812 50.1855 85.5021 50.6742 83.1616L13.9919 83.1609Z" fill="#D4E1F4"/>
<path d="M25.212 48.7369C24.7994 48.7378 24.4074 48.5571 24.1402 48.2435L21.6819 45.3649C21.1767 44.7732 21.2467 43.8847 21.8382 43.3795C22.4299 42.8743 23.3184 42.9442 23.8228 43.5359L25.3886 45.3688L30.0477 41.5788C30.4374 41.259 30.9684 41.1725 31.4399 41.3516C31.912 41.5301 32.2515 41.9479 32.3309 42.4461C32.4102 42.9442 32.217 43.4463 31.8248 43.7637L26.1005 48.4212C25.8492 48.6255 25.5356 48.7369 25.212 48.7369Z" fill="#6872E3"/>
<path d="M26.8448 57.4706C19.9575 57.4706 14.3746 51.8877 14.3746 45.0004C14.3746 38.1133 19.9575 32.5303 26.8448 32.5303C33.7319 32.5303 39.3149 38.1133 39.3149 45.0004C39.3071 51.8836 33.7289 57.4627 26.8448 57.4706ZM26.8448 35.3461C21.5125 35.3461 17.1904 39.668 17.1904 45.0004C17.1904 50.332 21.5125 54.6548 26.8448 54.6548C32.1764 54.6548 36.499 50.332 36.499 45.0004C36.4929 39.6703 32.1739 35.3516 26.8448 35.3461Z" fill="#6872E3"/>
<path d="M45.7307 0H7.95786C3.61703 0.00471403 0.0987844 3.52296 0.0940704 7.86458V82.1357C0.0987844 86.4773 3.61703 89.9949 7.95786 90.0004H45.7307C50.0723 89.9949 53.5904 86.4773 53.5952 82.1357V7.8638C53.5897 3.52296 50.0723 0.00471403 45.7307 0ZM2.90992 14.9136H50.7793V70.1951H2.90992V14.9136ZM7.95786 2.81586H45.7307C48.5174 2.81899 50.7762 5.07702 50.7793 7.86458V12.0978H2.90992V7.8638C2.91306 5.07702 5.17108 2.81899 7.95786 2.81586ZM45.7307 87.1836H7.95786C5.17108 87.1806 2.91306 84.9226 2.90992 82.1357V73.0109H50.7793V82.1357C50.7762 84.9226 48.5174 87.1806 45.7307 87.1836Z" fill="url(#paint0_linear_1_1257)"/>
<path d="M32.5406 78.7495H21.1475C20.3697 78.7495 19.7397 79.3804 19.7397 80.1575C19.7397 80.9353 20.3697 81.5653 21.1475 81.5653H32.5406C33.3185 81.5653 33.9486 80.9353 33.9486 80.1575C33.9486 79.3804 33.3185 78.7495 32.5406 78.7495Z" fill="url(#paint1_linear_1_1257)"/>
<path d="M45.6507 43.5923H43.5387C42.7609 43.5923 42.1309 44.2223 42.1309 45.0001C42.1309 45.7772 42.7609 46.4081 43.5387 46.4081H45.6507C46.4277 46.4081 47.0586 45.7772 47.0586 45.0001C47.0586 44.2223 46.4277 43.5923 45.6507 43.5923Z" fill="url(#paint2_linear_1_1257)"/>
<path d="M10.1508 46.4081C10.9278 46.4081 11.5587 45.7772 11.5587 45.0001C11.5587 44.2223 10.9278 43.5923 10.1508 43.5923H8.03886C7.26105 43.5923 6.63094 44.2223 6.63094 45.0001C6.63094 45.7772 7.26105 46.4081 8.03886 46.4081H10.1508Z" fill="url(#paint3_linear_1_1257)"/>
<path d="M45.0833 49.796L42.1355 48.78C41.4 48.5264 40.5995 48.9168 40.3457 49.6522C40.0927 50.3875 40.4831 51.1889 41.2179 51.4419L44.1656 52.4579C44.6418 52.6252 45.1714 52.5238 45.5532 52.1939C45.935 51.863 46.1102 51.354 46.0128 50.8583C45.9162 50.3633 45.5611 49.9577 45.0833 49.796Z" fill="url(#paint4_linear_1_1257)"/>
<path d="M12.4707 38.5579L9.52362 37.542C9.04672 37.3754 8.51795 37.4759 8.13612 37.806C7.75429 38.1367 7.57907 38.6459 7.67572 39.1416C7.77313 39.6366 8.12747 40.0429 8.60595 40.2046L11.553 41.2197C12.2884 41.4735 13.0898 41.083 13.3436 40.3477C13.5965 39.6122 13.2061 38.8108 12.4707 38.5579Z" fill="url(#paint5_linear_1_1257)"/>
<path d="M41.825 41.7508C41.9672 41.7508 42.1079 41.7296 42.2437 41.6872L45.2199 40.7617C45.7031 40.6147 46.07 40.2203 46.1823 39.7285C46.2946 39.2359 46.1345 38.7212 45.7636 38.3795C45.392 38.0376 44.8655 37.9206 44.3848 38.0731L41.4077 38.9986C40.7424 39.2045 40.3276 39.8659 40.432 40.5543C40.5366 41.2432 41.1289 41.7515 41.825 41.7508Z" fill="url(#paint6_linear_1_1257)"/>
<path d="M11.4454 48.3124L8.46847 49.2379C7.98529 49.3849 7.61838 49.7793 7.50602 50.2719C7.39445 50.7637 7.55394 51.2784 7.92557 51.6201C8.29719 51.9627 8.82281 52.0789 9.30442 51.9265L12.2813 51.0017C13.0238 50.7707 13.4386 49.982 13.2076 49.2388C12.9767 48.4963 12.1878 48.0815 11.4454 48.3124Z" fill="url(#paint7_linear_1_1257)"/>
</g>
</g>
<defs>
<linearGradient id="paint0_linear_1_1257" x1="10125.2" y1="8666.14" x2="-271.436" y2="12303.4" gradientUnits="userSpaceOnUse">
<stop stop-color="#00CF91"/>
<stop offset="1" stop-color="#00CF60"/>
</linearGradient>
<linearGradient id="paint1_linear_1_1257" x1="2708.77" y1="349.887" x2="2393.16" y2="1287.18" gradientUnits="userSpaceOnUse">
<stop stop-color="#00CF91"/>
<stop offset="1" stop-color="#00CF60"/>
</linearGradient>
<linearGradient id="paint2_linear_1_1257" x1="974.705" y1="314.731" x2="453.146" y2="851.89" gradientUnits="userSpaceOnUse">
<stop stop-color="#00CF91"/>
<stop offset="1" stop-color="#00CF60"/>
</linearGradient>
<linearGradient id="paint3_linear_1_1257" x1="939.204" y1="314.731" x2="417.644" y2="851.89" gradientUnits="userSpaceOnUse">
<stop stop-color="#00CF91"/>
<stop offset="1" stop-color="#00CF60"/>
</linearGradient>
<linearGradient id="paint4_linear_1_1257" x1="1132.35" y1="417.936" x2="426.999" y2="1042.63" gradientUnits="userSpaceOnUse">
<stop stop-color="#00CF91"/>
<stop offset="1" stop-color="#00CF60"/>
</linearGradient>
<linearGradient id="paint5_linear_1_1257" x1="1099.82" y1="406.661" x2="394.509" y2="1031.42" gradientUnits="userSpaceOnUse">
<stop stop-color="#00CF91"/>
<stop offset="1" stop-color="#00CF60"/>
</linearGradient>
<linearGradient id="paint6_linear_1_1257" x1="1138.38" y1="398.463" x2="447.636" y2="1028.49" gradientUnits="userSpaceOnUse">
<stop stop-color="#00CF91"/>
<stop offset="1" stop-color="#00CF60"/>
</linearGradient>
<linearGradient id="paint7_linear_1_1257" x1="1105.22" y1="408.744" x2="414.413" y2="1038.63" gradientUnits="userSpaceOnUse">
<stop stop-color="#00CF91"/>
<stop offset="1" stop-color="#00CF60"/>
</linearGradient>
<clipPath id="clip0_1_1257">
<rect width="90" height="90" fill="white"/>
</clipPath>
</defs>
</svg>
