<svg width="28" height="28" viewBox="0 0 28 28" fill="none" xmlns="http://www.w3.org/2000/svg">
<g clip-path="url(#clip0_1_1626)">
<mask id="mask0_1_1626" style="mask-type:luminance" maskUnits="userSpaceOnUse" x="0" y="0" width="28" height="28">
<path d="M28 0H0V28H28V0Z" fill="white"/>
</mask>
<g mask="url(#mask0_1_1626)">
<path d="M3.90738 16.0176C3.90738 8.6458 9.88563 2.66755 17.2574 2.66755C19.0305 2.66679 20.786 3.01859 22.4217 3.70315C20.0434 1.76551 17.0689 0.70956 14.0013 0.71388C6.62954 0.71388 0.651279 6.69213 0.651279 14.0639C0.652042 19.4424 3.87813 24.296 8.8371 26.3786C5.71504 23.8455 3.90332 20.0381 3.90738 16.0176Z" fill="#D4E1F4"/>
<path d="M14.0013 0.06254C8.33819 0.0615225 3.23246 3.47255 1.06536 8.70471C-1.10147 13.9369 0.0971835 19.9591 4.10271 23.9624C9.56967 29.4293 18.4331 29.4293 23.8999 23.9624C29.3668 18.4957 29.3668 9.63217 23.8999 4.16524C21.2805 1.53084 17.7163 0.0536366 14.0013 0.06254ZM14.0013 26.7626C7.00065 26.7626 1.30245 21.0645 1.30245 14.0638C1.30245 7.06315 7.00065 1.36498 14.0013 1.36498C21.0019 1.36498 26.7001 7.06315 26.7001 14.0638C26.7001 21.0645 21.0019 26.7626 14.0013 26.7626Z" fill="url(#paint0_linear_1_1626)"/>
<path d="M19.3087 8.7238C19.1871 8.60201 19.022 8.53329 18.8495 8.53329C18.6773 8.53329 18.5122 8.60201 18.3906 8.7238L13.9817 13.1325L9.34502 8.49589C9.09139 8.24226 8.68033 8.24226 8.42696 8.49589C8.17333 8.74952 8.17333 9.16058 8.42696 9.41421L13.0636 14.0509L8.42696 18.6875C8.30484 18.8091 8.23637 18.9745 8.23637 19.1467C8.23637 19.3189 8.30484 19.484 8.42696 19.6058C8.54901 19.7287 8.7159 19.7969 8.88912 19.7946C9.06188 19.7939 9.22773 19.7262 9.35161 19.6058L13.9883 14.9692L18.397 19.3779C18.5191 19.5008 18.686 19.5689 18.8595 19.5667C19.0322 19.5659 19.198 19.4983 19.3216 19.3779C19.4437 19.256 19.5122 19.091 19.5122 18.9187C19.5122 18.7466 19.4437 18.5812 19.3216 18.4596L14.913 14.0509L19.3216 9.64213C19.5656 9.38242 19.5598 8.97646 19.3087 8.7238Z" fill="#6872E3"/>
</g>
</g>
<defs>
<linearGradient id="paint0_linear_1_1626" x1="5299.08" y1="2696.19" x2="763.043" y2="5365.77" gradientUnits="userSpaceOnUse">
<stop stop-color="#C61818"/>
<stop offset="1" stop-color="#ED3822"/>
</linearGradient>
<clipPath id="clip0_1_1626">
<rect width="28" height="28" fill="white"/>
</clipPath>
</defs>
</svg>
