<svg width="329" height="478" viewBox="0 0 329 478" fill="none" xmlns="http://www.w3.org/2000/svg">
<g opacity="0.7">
<g clip-path="url(#clip0_1_1149)">
<path fill-rule="evenodd" clip-rule="evenodd" d="M367.888 360.731C343.327 383.903 306.949 384.665 273.731 390.73C239.579 396.965 202.316 413.87 172.29 396.442C142.415 379.102 144.89 335.656 127.463 305.832C108.375 273.164 67.5494 251.743 65.6596 213.955C63.6833 174.446 88.2064 136.906 117.695 110.539C146.274 84.9855 185.079 74.178 223.395 72.9181C258.484 71.7637 291.351 85.649 321.379 103.839C349.5 120.874 373.559 143.54 388.406 172.875C403.224 202.15 407.819 234.966 404.257 267.583C400.547 301.55 392.741 337.283 367.888 360.731Z" fill="#F6F9FC"/>
</g>
</g>
<defs>
<clipPath id="clip0_1_1149">
<rect width="319.996" height="354.3" fill="white" transform="translate(477.399 251.271) rotate(135)"/>
</clipPath>
</defs>
</svg>
