<svg width="40" height="11" viewBox="0 0 40 11" fill="none" xmlns="http://www.w3.org/2000/svg">
<g clip-path="url(#clip0_1_20)">
<path d="M1.09816 5.26232C0.836113 5.46364 0.460482 5.41441 0.259166 5.15234C0.0578508 4.8903 0.107085 4.51466 0.369135 4.31336L1.09816 5.26232ZM39.3283 4.19274C39.6569 4.22696 39.8958 4.52117 39.8615 4.84983L39.3034 10.2059C39.2692 10.5345 38.975 10.7732 38.6464 10.739C38.3178 10.7047 38.079 10.4105 38.1132 10.0819L38.6091 5.32095L33.8483 4.82503C33.5197 4.79081 33.2808 4.49659 33.3153 4.16792C33.3495 3.83927 33.6437 3.60058 33.9723 3.6348L39.3283 4.19274ZM0.369135 4.31336C5.28677 0.535455 8.96212 -0.349686 12.0554 0.365749C15.0852 1.06651 17.4125 3.29076 19.6383 5.26978C21.9175 7.29624 24.1177 9.10077 27.0074 9.42607C29.8773 9.7491 33.5912 8.62165 38.8894 4.3232L39.6433 5.25248C34.2386 9.6374 30.2073 10.9905 26.8736 10.6152C23.56 10.2422 21.0989 8.16962 18.8432 6.1641C16.5342 4.11115 14.4531 2.14857 11.7857 1.53164C9.18178 0.929376 5.87099 1.59567 1.09816 5.26232L0.369135 4.31336Z" fill="#00CF60"/>
</g>
<defs>
<clipPath id="clip0_1_20">
<rect width="39.9687" height="10.77" fill="white" transform="translate(0.0156555)"/>
</clipPath>
</defs>
</svg>
