<svg width="88" height="79" viewBox="0 0 88 79" fill="none" xmlns="http://www.w3.org/2000/svg">
<g clip-path="url(#clip0_1_828)">
<path d="M1.7091 3.40318C2.64948 3.40318 3.41184 2.64137 3.41184 1.7016C3.41184 0.761825 2.64948 0 1.7091 0C0.768714 0 0.00643921 0.761825 0.00643921 1.7016C0.00643921 2.64137 0.768714 3.40318 1.7091 3.40318Z" fill="#6872E3"/>
<path d="M1.7091 3.40318C2.64948 3.40318 3.41184 2.64137 3.41184 1.7016C3.41184 0.761825 2.64948 0 1.7091 0C0.768714 0 0.00643921 0.761825 0.00643921 1.7016C0.00643921 2.64137 0.768714 3.40318 1.7091 3.40318Z" fill="url(#paint0_radial_1_828)"/>
<path d="M22.6177 3.40318C23.5582 3.40318 24.3204 2.64137 24.3204 1.7016C24.3204 0.761825 23.5582 0 22.6177 0C21.6773 0 20.915 0.761825 20.915 1.7016C20.915 2.64137 21.6773 3.40318 22.6177 3.40318Z" fill="#6872E3"/>
<path d="M22.6177 3.40318C23.5582 3.40318 24.3204 2.64137 24.3204 1.7016C24.3204 0.761825 23.5582 0 22.6177 0C21.6773 0 20.915 0.761825 20.915 1.7016C20.915 2.64137 21.6773 3.40318 22.6177 3.40318Z" fill="url(#paint1_radial_1_828)"/>
<path d="M43.5324 3.40318C44.4731 3.40318 45.2352 2.64137 45.2352 1.7016C45.2352 0.761825 44.4731 0 43.5324 0C42.592 0 41.8298 0.761825 41.8298 1.7016C41.8298 2.64137 42.592 3.40318 43.5324 3.40318Z" fill="#6872E3"/>
<path d="M43.5324 3.40318C44.4731 3.40318 45.2352 2.64137 45.2352 1.7016C45.2352 0.761825 44.4731 0 43.5324 0C42.592 0 41.8298 0.761825 41.8298 1.7016C41.8298 2.64137 42.592 3.40318 43.5324 3.40318Z" fill="url(#paint2_radial_1_828)"/>
<path d="M64.4407 3.40318C65.3811 3.40318 66.1433 2.64137 66.1433 1.7016C66.1433 0.761825 65.3811 0 64.4407 0C63.5 0 62.7379 0.761825 62.7379 1.7016C62.7379 2.64137 63.5 3.40318 64.4407 3.40318Z" fill="#6872E3"/>
<path d="M64.4407 3.40318C65.3811 3.40318 66.1433 2.64137 66.1433 1.7016C66.1433 0.761825 65.3811 0 64.4407 0C63.5 0 62.7379 0.761825 62.7379 1.7016C62.7379 2.64137 63.5 3.40318 64.4407 3.40318Z" fill="url(#paint3_radial_1_828)"/>
<path d="M85.3684 3.40318C86.3088 3.40318 87.071 2.64137 87.071 1.7016C87.071 0.761825 86.3088 0 85.3684 0C84.4279 0 83.6655 0.761825 83.6655 1.7016C83.6655 2.64137 84.4279 3.40318 85.3684 3.40318Z" fill="#6872E3"/>
<path d="M85.3684 3.40318C86.3088 3.40318 87.071 2.64137 87.071 1.7016C87.071 0.761825 86.3088 0 85.3684 0C84.4279 0 83.6655 0.761825 83.6655 1.7016C83.6655 2.64137 84.4279 3.40318 85.3684 3.40318Z" fill="url(#paint4_radial_1_828)"/>
<path d="M1.7091 21.7425C2.64948 21.7425 3.41184 20.9808 3.41184 20.041C3.41184 19.1012 2.64948 18.3394 1.7091 18.3394C0.768714 18.3394 0.00643921 19.1012 0.00643921 20.041C0.00643921 20.9808 0.768714 21.7425 1.7091 21.7425Z" fill="#6872E3"/>
<path d="M1.7091 21.7425C2.64948 21.7425 3.41184 20.9808 3.41184 20.041C3.41184 19.1012 2.64948 18.3394 1.7091 18.3394C0.768714 18.3394 0.00643921 19.1012 0.00643921 20.041C0.00643921 20.9808 0.768714 21.7425 1.7091 21.7425Z" fill="url(#paint5_radial_1_828)"/>
<path d="M22.6177 21.7411C23.5582 21.7411 24.3204 20.9793 24.3204 20.0395C24.3204 19.0998 23.5582 18.3379 22.6177 18.3379C21.6773 18.3379 20.915 19.0998 20.915 20.0395C20.915 20.9793 21.6773 21.7411 22.6177 21.7411Z" fill="#6872E3"/>
<path d="M22.6177 21.7411C23.5582 21.7411 24.3204 20.9793 24.3204 20.0395C24.3204 19.0998 23.5582 18.3379 22.6177 18.3379C21.6773 18.3379 20.915 19.0998 20.915 20.0395C20.915 20.9793 21.6773 21.7411 22.6177 21.7411Z" fill="url(#paint6_radial_1_828)"/>
<path d="M43.5324 21.7411C44.4731 21.7411 45.2352 20.9793 45.2352 20.0395C45.2352 19.0998 44.4731 18.3379 43.5324 18.3379C42.592 18.3379 41.8298 19.0998 41.8298 20.0395C41.8298 20.9793 42.592 21.7411 43.5324 21.7411Z" fill="#6872E3"/>
<path d="M43.5324 21.7411C44.4731 21.7411 45.2352 20.9793 45.2352 20.0395C45.2352 19.0998 44.4731 18.3379 43.5324 18.3379C42.592 18.3379 41.8298 19.0998 41.8298 20.0395C41.8298 20.9793 42.592 21.7411 43.5324 21.7411Z" fill="url(#paint7_radial_1_828)"/>
<path d="M64.4407 21.7411C65.3811 21.7411 66.1433 20.9793 66.1433 20.0395C66.1433 19.0998 65.3811 18.3379 64.4407 18.3379C63.5 18.3379 62.7379 19.0998 62.7379 20.0395C62.7379 20.9793 63.5 21.7411 64.4407 21.7411Z" fill="#6872E3"/>
<path d="M64.4407 21.7411C65.3811 21.7411 66.1433 20.9793 66.1433 20.0395C66.1433 19.0998 65.3811 18.3379 64.4407 18.3379C63.5 18.3379 62.7379 19.0998 62.7379 20.0395C62.7379 20.9793 63.5 21.7411 64.4407 21.7411Z" fill="url(#paint8_radial_1_828)"/>
<path d="M85.3684 21.7411C86.3088 21.7411 87.071 20.9793 87.071 20.0395C87.071 19.0998 86.3088 18.3379 85.3684 18.3379C84.4279 18.3379 83.6655 19.0998 83.6655 20.0395C83.6655 20.9793 84.4279 21.7411 85.3684 21.7411Z" fill="#6872E3"/>
<path d="M85.3684 21.7411C86.3088 21.7411 87.071 20.9793 87.071 20.0395C87.071 19.0998 86.3088 18.3379 85.3684 18.3379C84.4279 18.3379 83.6655 19.0998 83.6655 20.0395C83.6655 20.9793 84.4279 21.7411 85.3684 21.7411Z" fill="url(#paint9_radial_1_828)"/>
<path d="M1.7091 40.0645C2.64948 40.0645 3.41184 39.3028 3.41184 38.3631C3.41184 37.4231 2.64948 36.6614 1.7091 36.6614C0.768714 36.6614 0.00643921 37.4231 0.00643921 38.3631C0.00643921 39.3028 0.768714 40.0645 1.7091 40.0645Z" fill="#6872E3"/>
<path d="M1.7091 40.0645C2.64948 40.0645 3.41184 39.3028 3.41184 38.3631C3.41184 37.4231 2.64948 36.6614 1.7091 36.6614C0.768714 36.6614 0.00643921 37.4231 0.00643921 38.3631C0.00643921 39.3028 0.768714 40.0645 1.7091 40.0645Z" fill="url(#paint10_radial_1_828)"/>
<path d="M22.6177 40.0645C23.5582 40.0645 24.3204 39.3028 24.3204 38.3631C24.3204 37.4231 23.5582 36.6614 22.6177 36.6614C21.6773 36.6614 20.915 37.4231 20.915 38.3631C20.915 39.3028 21.6773 40.0645 22.6177 40.0645Z" fill="#6872E3"/>
<path d="M22.6177 40.0645C23.5582 40.0645 24.3204 39.3028 24.3204 38.3631C24.3204 37.4231 23.5582 36.6614 22.6177 36.6614C21.6773 36.6614 20.915 37.4231 20.915 38.3631C20.915 39.3028 21.6773 40.0645 22.6177 40.0645Z" fill="url(#paint11_radial_1_828)"/>
<path d="M43.5324 40.0645C44.4731 40.0645 45.2352 39.3028 45.2352 38.3631C45.2352 37.4231 44.4731 36.6614 43.5324 36.6614C42.592 36.6614 41.8298 37.4231 41.8298 38.3631C41.8298 39.3028 42.592 40.0645 43.5324 40.0645Z" fill="#6872E3"/>
<path d="M43.5324 40.0645C44.4731 40.0645 45.2352 39.3028 45.2352 38.3631C45.2352 37.4231 44.4731 36.6614 43.5324 36.6614C42.592 36.6614 41.8298 37.4231 41.8298 38.3631C41.8298 39.3028 42.592 40.0645 43.5324 40.0645Z" fill="url(#paint12_radial_1_828)"/>
<path d="M64.4407 40.0645C65.3811 40.0645 66.1433 39.3028 66.1433 38.3631C66.1433 37.4231 65.3811 36.6614 64.4407 36.6614C63.5 36.6614 62.7379 37.4231 62.7379 38.3631C62.7379 39.3028 63.5 40.0645 64.4407 40.0645Z" fill="#6872E3"/>
<path d="M64.4407 40.0645C65.3811 40.0645 66.1433 39.3028 66.1433 38.3631C66.1433 37.4231 65.3811 36.6614 64.4407 36.6614C63.5 36.6614 62.7379 37.4231 62.7379 38.3631C62.7379 39.3028 63.5 40.0645 64.4407 40.0645Z" fill="url(#paint13_radial_1_828)"/>
<path d="M85.3684 40.0645C86.3088 40.0645 87.071 39.3028 87.071 38.3631C87.071 37.4231 86.3088 36.6614 85.3684 36.6614C84.4279 36.6614 83.6655 37.4231 83.6655 38.3631C83.6655 39.3028 84.4279 40.0645 85.3684 40.0645Z" fill="#6872E3"/>
<path d="M85.3684 40.0645C86.3088 40.0645 87.071 39.3028 87.071 38.3631C87.071 37.4231 86.3088 36.6614 85.3684 36.6614C84.4279 36.6614 83.6655 37.4231 83.6655 38.3631C83.6655 39.3028 84.4279 40.0645 85.3684 40.0645Z" fill="url(#paint14_radial_1_828)"/>
<path d="M1.7091 58.3897C2.64948 58.3897 3.41184 57.628 3.41184 56.6883C3.41184 55.7483 2.64948 54.9866 1.7091 54.9866C0.768714 54.9866 0.00643921 55.7483 0.00643921 56.6883C0.00643921 57.628 0.768714 58.3897 1.7091 58.3897Z" fill="#6872E3"/>
<path d="M1.7091 58.3897C2.64948 58.3897 3.41184 57.628 3.41184 56.6883C3.41184 55.7483 2.64948 54.9866 1.7091 54.9866C0.768714 54.9866 0.00643921 55.7483 0.00643921 56.6883C0.00643921 57.628 0.768714 58.3897 1.7091 58.3897Z" fill="url(#paint15_radial_1_828)"/>
<path d="M22.6177 58.388C23.5582 58.388 24.3204 57.6263 24.3204 56.6866C24.3204 55.7466 23.5582 54.9849 22.6177 54.9849C21.6773 54.9849 20.915 55.7466 20.915 56.6866C20.915 57.6263 21.6773 58.388 22.6177 58.388Z" fill="#6872E3"/>
<path d="M22.6177 58.388C23.5582 58.388 24.3204 57.6263 24.3204 56.6866C24.3204 55.7466 23.5582 54.9849 22.6177 54.9849C21.6773 54.9849 20.915 55.7466 20.915 56.6866C20.915 57.6263 21.6773 58.388 22.6177 58.388Z" fill="url(#paint16_radial_1_828)"/>
<path d="M43.5324 58.388C44.4731 58.388 45.2352 57.6263 45.2352 56.6866C45.2352 55.7466 44.4731 54.9849 43.5324 54.9849C42.592 54.9849 41.8298 55.7466 41.8298 56.6866C41.8298 57.6263 42.592 58.388 43.5324 58.388Z" fill="#6872E3"/>
<path d="M43.5324 58.388C44.4731 58.388 45.2352 57.6263 45.2352 56.6866C45.2352 55.7466 44.4731 54.9849 43.5324 54.9849C42.592 54.9849 41.8298 55.7466 41.8298 56.6866C41.8298 57.6263 42.592 58.388 43.5324 58.388Z" fill="url(#paint17_radial_1_828)"/>
<path d="M64.4407 58.388C65.3811 58.388 66.1433 57.6263 66.1433 56.6866C66.1433 55.7466 65.3811 54.9849 64.4407 54.9849C63.5 54.9849 62.7379 55.7466 62.7379 56.6866C62.7379 57.6263 63.5 58.388 64.4407 58.388Z" fill="#6872E3"/>
<path d="M64.4407 58.388C65.3811 58.388 66.1433 57.6263 66.1433 56.6866C66.1433 55.7466 65.3811 54.9849 64.4407 54.9849C63.5 54.9849 62.7379 55.7466 62.7379 56.6866C62.7379 57.6263 63.5 58.388 64.4407 58.388Z" fill="url(#paint18_radial_1_828)"/>
<path d="M85.3684 58.388C86.3088 58.388 87.071 57.6263 87.071 56.6866C87.071 55.7466 86.3088 54.9849 85.3684 54.9849C84.4279 54.9849 83.6655 55.7466 83.6655 56.6866C83.6655 57.6263 84.4279 58.388 85.3684 58.388Z" fill="#6872E3"/>
<path d="M85.3684 58.388C86.3088 58.388 87.071 57.6263 87.071 56.6866C87.071 55.7466 86.3088 54.9849 85.3684 54.9849C84.4279 54.9849 83.6655 55.7466 83.6655 56.6866C83.6655 57.6263 84.4279 58.388 85.3684 58.388Z" fill="url(#paint19_radial_1_828)"/>
<path d="M1.7091 76.7291C2.64948 76.7291 3.41184 75.9674 3.41184 75.0274C3.41184 74.0876 2.64948 73.3259 1.7091 73.3259C0.768714 73.3259 0.00643921 74.0876 0.00643921 75.0274C0.00643921 75.9674 0.768714 76.7291 1.7091 76.7291Z" fill="#6872E3"/>
<path d="M1.7091 76.7291C2.64948 76.7291 3.41184 75.9674 3.41184 75.0274C3.41184 74.0876 2.64948 73.3259 1.7091 73.3259C0.768714 73.3259 0.00643921 74.0876 0.00643921 75.0274C0.00643921 75.9674 0.768714 76.7291 1.7091 76.7291Z" fill="url(#paint20_radial_1_828)"/>
<path d="M22.6177 76.7276C23.5582 76.7276 24.3204 75.9659 24.3204 75.0259C24.3204 74.0864 23.5582 73.3245 22.6177 73.3245C21.6773 73.3245 20.915 74.0864 20.915 75.0259C20.915 75.9659 21.6773 76.7276 22.6177 76.7276Z" fill="#6872E3"/>
<path d="M22.6177 76.7276C23.5582 76.7276 24.3204 75.9659 24.3204 75.0259C24.3204 74.0864 23.5582 73.3245 22.6177 73.3245C21.6773 73.3245 20.915 74.0864 20.915 75.0259C20.915 75.9659 21.6773 76.7276 22.6177 76.7276Z" fill="url(#paint21_radial_1_828)"/>
<path d="M43.5324 76.7276C44.4731 76.7276 45.2352 75.9659 45.2352 75.0259C45.2352 74.0864 44.4731 73.3245 43.5324 73.3245C42.592 73.3245 41.8298 74.0864 41.8298 75.0259C41.8298 75.9659 42.592 76.7276 43.5324 76.7276Z" fill="#6872E3"/>
<path d="M43.5324 76.7276C44.4731 76.7276 45.2352 75.9659 45.2352 75.0259C45.2352 74.0864 44.4731 73.3245 43.5324 73.3245C42.592 73.3245 41.8298 74.0864 41.8298 75.0259C41.8298 75.9659 42.592 76.7276 43.5324 76.7276Z" fill="url(#paint22_radial_1_828)"/>
<path d="M64.4407 76.7276C65.3811 76.7276 66.1433 75.9659 66.1433 75.0259C66.1433 74.0864 65.3811 73.3245 64.4407 73.3245C63.5 73.3245 62.7379 74.0864 62.7379 75.0259C62.7379 75.9659 63.5 76.7276 64.4407 76.7276Z" fill="#6872E3"/>
<path d="M64.4407 76.7276C65.3811 76.7276 66.1433 75.9659 66.1433 75.0259C66.1433 74.0864 65.3811 73.3245 64.4407 73.3245C63.5 73.3245 62.7379 74.0864 62.7379 75.0259C62.7379 75.9659 63.5 76.7276 64.4407 76.7276Z" fill="url(#paint23_radial_1_828)"/>
<path d="M85.3684 76.7276C86.3088 76.7276 87.071 75.9659 87.071 75.0259C87.071 74.0864 86.3088 73.3245 85.3684 73.3245C84.4279 73.3245 83.6655 74.0864 83.6655 75.0259C83.6655 75.9659 84.4279 76.7276 85.3684 76.7276Z" fill="#6872E3"/>
<path d="M85.3684 76.7276C86.3088 76.7276 87.071 75.9659 87.071 75.0259C87.071 74.0864 86.3088 73.3245 85.3684 73.3245C84.4279 73.3245 83.6655 74.0864 83.6655 75.0259C83.6655 75.9659 84.4279 76.7276 85.3684 76.7276Z" fill="url(#paint24_radial_1_828)"/>
</g>
<defs>
<radialGradient id="paint0_radial_1_828" cx="0" cy="0" r="1" gradientUnits="userSpaceOnUse" gradientTransform="translate(0.446165 -0.991807) scale(4.08752 6.12742)">
<stop stop-color="#00CF91"/>
<stop offset="1" stop-color="#00CF60"/>
</radialGradient>
<radialGradient id="paint1_radial_1_828" cx="0" cy="0" r="1" gradientUnits="userSpaceOnUse" gradientTransform="translate(21.3547 -0.991807) scale(4.08752 6.12742)">
<stop stop-color="#00CF91"/>
<stop offset="1" stop-color="#00CF60"/>
</radialGradient>
<radialGradient id="paint2_radial_1_828" cx="0" cy="0" r="1" gradientUnits="userSpaceOnUse" gradientTransform="translate(42.2695 -0.991807) scale(4.08756 6.12742)">
<stop stop-color="#00CF91"/>
<stop offset="1" stop-color="#00CF60"/>
</radialGradient>
<radialGradient id="paint3_radial_1_828" cx="0" cy="0" r="1" gradientUnits="userSpaceOnUse" gradientTransform="translate(63.1776 -0.991807) scale(4.08756 6.12742)">
<stop stop-color="#00CF91"/>
<stop offset="1" stop-color="#00CF60"/>
</radialGradient>
<radialGradient id="paint4_radial_1_828" cx="0" cy="0" r="1" gradientUnits="userSpaceOnUse" gradientTransform="translate(84.1055 -0.991807) scale(4.08756 6.12742)">
<stop stop-color="#00CF91"/>
<stop offset="1" stop-color="#00CF60"/>
</radialGradient>
<radialGradient id="paint5_radial_1_828" cx="0" cy="0" r="1" gradientUnits="userSpaceOnUse" gradientTransform="translate(0.446165 17.3475) scale(4.08752 6.12743)">
<stop stop-color="#00CF91"/>
<stop offset="1" stop-color="#00CF60"/>
</radialGradient>
<radialGradient id="paint6_radial_1_828" cx="0" cy="0" r="1" gradientUnits="userSpaceOnUse" gradientTransform="translate(21.3547 17.3461) scale(4.08752 6.12742)">
<stop stop-color="#00CF91"/>
<stop offset="1" stop-color="#00CF60"/>
</radialGradient>
<radialGradient id="paint7_radial_1_828" cx="0" cy="0" r="1" gradientUnits="userSpaceOnUse" gradientTransform="translate(42.2695 17.3461) scale(4.08756 6.12742)">
<stop stop-color="#00CF91"/>
<stop offset="1" stop-color="#00CF60"/>
</radialGradient>
<radialGradient id="paint8_radial_1_828" cx="0" cy="0" r="1" gradientUnits="userSpaceOnUse" gradientTransform="translate(63.1776 17.3461) scale(4.08756 6.12742)">
<stop stop-color="#00CF91"/>
<stop offset="1" stop-color="#00CF60"/>
</radialGradient>
<radialGradient id="paint9_radial_1_828" cx="0" cy="0" r="1" gradientUnits="userSpaceOnUse" gradientTransform="translate(84.1055 17.3461) scale(4.08756 6.12742)">
<stop stop-color="#00CF91"/>
<stop offset="1" stop-color="#00CF60"/>
</radialGradient>
<radialGradient id="paint10_radial_1_828" cx="0" cy="0" r="1" gradientUnits="userSpaceOnUse" gradientTransform="translate(0.446165 35.6695) scale(4.08752 6.12747)">
<stop stop-color="#00CF91"/>
<stop offset="1" stop-color="#00CF60"/>
</radialGradient>
<radialGradient id="paint11_radial_1_828" cx="0" cy="0" r="1" gradientUnits="userSpaceOnUse" gradientTransform="translate(21.3547 35.6695) scale(4.08752 6.12747)">
<stop stop-color="#00CF91"/>
<stop offset="1" stop-color="#00CF60"/>
</radialGradient>
<radialGradient id="paint12_radial_1_828" cx="0" cy="0" r="1" gradientUnits="userSpaceOnUse" gradientTransform="translate(42.2695 35.6695) scale(4.08756 6.12747)">
<stop stop-color="#00CF91"/>
<stop offset="1" stop-color="#00CF60"/>
</radialGradient>
<radialGradient id="paint13_radial_1_828" cx="0" cy="0" r="1" gradientUnits="userSpaceOnUse" gradientTransform="translate(63.1776 35.6695) scale(4.08756 6.12747)">
<stop stop-color="#00CF91"/>
<stop offset="1" stop-color="#00CF60"/>
</radialGradient>
<radialGradient id="paint14_radial_1_828" cx="0" cy="0" r="1" gradientUnits="userSpaceOnUse" gradientTransform="translate(84.1055 35.6695) scale(4.08756 6.12747)">
<stop stop-color="#00CF91"/>
<stop offset="1" stop-color="#00CF60"/>
</radialGradient>
<radialGradient id="paint15_radial_1_828" cx="0" cy="0" r="1" gradientUnits="userSpaceOnUse" gradientTransform="translate(0.446165 53.9947) scale(4.08752 6.12747)">
<stop stop-color="#00CF91"/>
<stop offset="1" stop-color="#00CF60"/>
</radialGradient>
<radialGradient id="paint16_radial_1_828" cx="0" cy="0" r="1" gradientUnits="userSpaceOnUse" gradientTransform="translate(21.3547 53.993) scale(4.08752 6.12747)">
<stop stop-color="#00CF91"/>
<stop offset="1" stop-color="#00CF60"/>
</radialGradient>
<radialGradient id="paint17_radial_1_828" cx="0" cy="0" r="1" gradientUnits="userSpaceOnUse" gradientTransform="translate(42.2695 53.993) scale(4.08756 6.12747)">
<stop stop-color="#00CF91"/>
<stop offset="1" stop-color="#00CF60"/>
</radialGradient>
<radialGradient id="paint18_radial_1_828" cx="0" cy="0" r="1" gradientUnits="userSpaceOnUse" gradientTransform="translate(63.1776 53.993) scale(4.08756 6.12747)">
<stop stop-color="#00CF91"/>
<stop offset="1" stop-color="#00CF60"/>
</radialGradient>
<radialGradient id="paint19_radial_1_828" cx="0" cy="0" r="1" gradientUnits="userSpaceOnUse" gradientTransform="translate(84.1055 53.993) scale(4.08756 6.12747)">
<stop stop-color="#00CF91"/>
<stop offset="1" stop-color="#00CF60"/>
</radialGradient>
<radialGradient id="paint20_radial_1_828" cx="0" cy="0" r="1" gradientUnits="userSpaceOnUse" gradientTransform="translate(0.446165 72.3341) scale(4.08752 6.1275)">
<stop stop-color="#00CF91"/>
<stop offset="1" stop-color="#00CF60"/>
</radialGradient>
<radialGradient id="paint21_radial_1_828" cx="0" cy="0" r="1" gradientUnits="userSpaceOnUse" gradientTransform="translate(21.3547 72.3326) scale(4.08752 6.12747)">
<stop stop-color="#00CF91"/>
<stop offset="1" stop-color="#00CF60"/>
</radialGradient>
<radialGradient id="paint22_radial_1_828" cx="0" cy="0" r="1" gradientUnits="userSpaceOnUse" gradientTransform="translate(42.2695 72.3326) scale(4.08756 6.12747)">
<stop stop-color="#00CF91"/>
<stop offset="1" stop-color="#00CF60"/>
</radialGradient>
<radialGradient id="paint23_radial_1_828" cx="0" cy="0" r="1" gradientUnits="userSpaceOnUse" gradientTransform="translate(63.1776 72.3326) scale(4.08756 6.12747)">
<stop stop-color="#00CF91"/>
<stop offset="1" stop-color="#00CF60"/>
</radialGradient>
<radialGradient id="paint24_radial_1_828" cx="0" cy="0" r="1" gradientUnits="userSpaceOnUse" gradientTransform="translate(84.1055 72.3326) scale(4.08756 6.12747)">
<stop stop-color="#00CF91"/>
<stop offset="1" stop-color="#00CF60"/>
</radialGradient>
<clipPath id="clip0_1_828">
<rect width="87.9871" height="78.16" fill="white" transform="translate(0.00643921)"/>
</clipPath>
</defs>
</svg>
