<svg width="101" height="90" viewBox="0 0 101 90" fill="none" xmlns="http://www.w3.org/2000/svg">
<g clip-path="url(#clip0_1_153)">
<path d="M2.92992 4.85994C3.99858 4.85994 4.86493 3.99363 4.86493 2.92497C4.86493 1.8563 3.99858 0.98999 2.92992 0.98999C1.86125 0.98999 0.994987 1.8563 0.994987 2.92497C0.994987 3.99363 1.86125 4.85994 2.92992 4.85994Z" fill="#05BA84"/>
<path d="M26.6907 4.85994C27.7593 4.85994 28.6256 3.99363 28.6256 2.92497C28.6256 1.8563 27.7593 0.98999 26.6907 0.98999C25.622 0.98999 24.7556 1.8563 24.7556 2.92497C24.7556 3.99363 25.622 4.85994 26.6907 4.85994Z" fill="#05BA84"/>
<path d="M50.4586 4.85994C51.5273 4.85994 52.3935 3.99363 52.3935 2.92497C52.3935 1.8563 51.5273 0.98999 50.4586 0.98999C49.3898 0.98999 48.5236 1.8563 48.5236 2.92497C48.5236 3.99363 49.3898 4.85994 50.4586 4.85994Z" fill="#05BA84"/>
<path d="M74.2191 4.85994C75.2879 4.85994 76.1541 3.99363 76.1541 2.92497C76.1541 1.8563 75.2879 0.98999 74.2191 0.98999C73.1504 0.98999 72.2841 1.8563 72.2841 2.92497C72.2841 3.99363 73.1504 4.85994 74.2191 4.85994Z" fill="#05BA84"/>
<path d="M98.0016 4.85994C99.0704 4.85994 99.9366 3.99363 99.9366 2.92497C99.9366 1.8563 99.0704 0.98999 98.0016 0.98999C96.9328 0.98999 96.0666 1.8563 96.0666 2.92497C96.0666 3.99363 96.9328 4.85994 98.0016 4.85994Z" fill="#05BA84"/>
<path d="M2.92992 25.7147C3.99858 25.7147 4.86493 24.8485 4.86493 23.7798C4.86493 22.7111 3.99858 21.8448 2.92992 21.8448C1.86125 21.8448 0.994987 22.7111 0.994987 23.7798C0.994987 24.8485 1.86125 25.7147 2.92992 25.7147Z" fill="#05BA84"/>
<path d="M26.6907 25.7129C27.7593 25.7129 28.6256 24.8467 28.6256 23.778C28.6256 22.7093 27.7593 21.843 26.6907 21.843C25.622 21.843 24.7556 22.7093 24.7556 23.778C24.7556 24.8467 25.622 25.7129 26.6907 25.7129Z" fill="#05BA84"/>
<path d="M50.4586 25.7129C51.5273 25.7129 52.3935 24.8467 52.3935 23.778C52.3935 22.7093 51.5273 21.843 50.4586 21.843C49.3898 21.843 48.5236 22.7093 48.5236 23.778C48.5236 24.8467 49.3898 25.7129 50.4586 25.7129Z" fill="#05BA84"/>
<path d="M74.2191 25.7129C75.2879 25.7129 76.1541 24.8467 76.1541 23.778C76.1541 22.7093 75.2879 21.843 74.2191 21.843C73.1504 21.843 72.2841 22.7093 72.2841 23.778C72.2841 24.8467 73.1504 25.7129 74.2191 25.7129Z" fill="#05BA84"/>
<path d="M98.0016 25.7129C99.0704 25.7129 99.9366 24.8467 99.9366 23.778C99.9366 22.7093 99.0704 21.843 98.0016 21.843C96.9328 21.843 96.0666 22.7093 96.0666 23.778C96.0666 24.8467 96.9328 25.7129 98.0016 25.7129Z" fill="#05BA84"/>
<path d="M2.92992 46.5495C3.99858 46.5495 4.86493 45.6833 4.86493 44.6145C4.86493 43.5457 3.99858 42.6795 2.92992 42.6795C1.86125 42.6795 0.994987 43.5457 0.994987 44.6145C0.994987 45.6833 1.86125 46.5495 2.92992 46.5495Z" fill="#05BA84"/>
<path d="M26.6907 46.5495C27.7593 46.5495 28.6256 45.6833 28.6256 44.6145C28.6256 43.5457 27.7593 42.6795 26.6907 42.6795C25.622 42.6795 24.7556 43.5457 24.7556 44.6145C24.7556 45.6833 25.622 46.5495 26.6907 46.5495Z" fill="#05BA84"/>
<path d="M50.4586 46.5495C51.5273 46.5495 52.3935 45.6833 52.3935 44.6145C52.3935 43.5457 51.5273 42.6795 50.4586 42.6795C49.3898 42.6795 48.5236 43.5457 48.5236 44.6145C48.5236 45.6833 49.3898 46.5495 50.4586 46.5495Z" fill="#05BA84"/>
<path d="M74.2191 46.5495C75.2879 46.5495 76.1541 45.6833 76.1541 44.6145C76.1541 43.5457 75.2879 42.6795 74.2191 42.6795C73.1504 42.6795 72.2841 43.5457 72.2841 44.6145C72.2841 45.6833 73.1504 46.5495 74.2191 46.5495Z" fill="#05BA84"/>
<path d="M98.0016 46.5495C99.0704 46.5495 99.9366 45.6833 99.9366 44.6145C99.9366 43.5457 99.0704 42.6795 98.0016 42.6795C96.9328 42.6795 96.0666 43.5457 96.0666 44.6145C96.0666 45.6833 96.9328 46.5495 98.0016 46.5495Z" fill="#05BA84"/>
<path d="M2.92992 67.3882C3.99858 67.3882 4.86493 66.522 4.86493 65.4532C4.86493 64.3844 3.99858 63.5182 2.92992 63.5182C1.86125 63.5182 0.994987 64.3844 0.994987 65.4532C0.994987 66.522 1.86125 67.3882 2.92992 67.3882Z" fill="#05BA84"/>
<path d="M26.6907 67.3863C27.7593 67.3863 28.6256 66.5201 28.6256 65.4513C28.6256 64.3825 27.7593 63.5163 26.6907 63.5163C25.622 63.5163 24.7556 64.3825 24.7556 65.4513C24.7556 66.5201 25.622 67.3863 26.6907 67.3863Z" fill="#05BA84"/>
<path d="M50.4586 67.3863C51.5273 67.3863 52.3935 66.5201 52.3935 65.4513C52.3935 64.3825 51.5273 63.5163 50.4586 63.5163C49.3898 63.5163 48.5236 64.3825 48.5236 65.4513C48.5236 66.5201 49.3898 67.3863 50.4586 67.3863Z" fill="#05BA84"/>
<path d="M74.2191 67.3863C75.2879 67.3863 76.1541 66.5201 76.1541 65.4513C76.1541 64.3825 75.2879 63.5163 74.2191 63.5163C73.1504 63.5163 72.2841 64.3825 72.2841 65.4513C72.2841 66.5201 73.1504 67.3863 74.2191 67.3863Z" fill="#05BA84"/>
<path d="M98.0016 67.3863C99.0704 67.3863 99.9366 66.5201 99.9366 65.4513C99.9366 64.3825 99.0704 63.5163 98.0016 63.5163C96.9328 63.5163 96.0666 64.3825 96.0666 65.4513C96.0666 66.5201 96.9328 67.3863 98.0016 67.3863Z" fill="#05BA84"/>
<path d="M2.92992 88.2428C3.99858 88.2428 4.86493 87.3765 4.86493 86.3078C4.86493 85.239 3.99858 84.3728 2.92992 84.3728C1.86125 84.3728 0.994987 85.239 0.994987 86.3078C0.994987 87.3765 1.86125 88.2428 2.92992 88.2428Z" fill="#05BA84"/>
<path d="M26.6907 88.2409C27.7593 88.2409 28.6256 87.3747 28.6256 86.3059C28.6256 85.2375 27.7593 84.3709 26.6907 84.3709C25.622 84.3709 24.7556 85.2375 24.7556 86.3059C24.7556 87.3747 25.622 88.2409 26.6907 88.2409Z" fill="#05BA84"/>
<path d="M50.4586 88.2409C51.5273 88.2409 52.3935 87.3747 52.3935 86.3059C52.3935 85.2375 51.5273 84.3709 50.4586 84.3709C49.3898 84.3709 48.5236 85.2375 48.5236 86.3059C48.5236 87.3747 49.3898 88.2409 50.4586 88.2409Z" fill="#05BA84"/>
<path d="M74.2191 88.2409C75.2879 88.2409 76.1541 87.3747 76.1541 86.3059C76.1541 85.2375 75.2879 84.3709 74.2191 84.3709C73.1504 84.3709 72.2841 85.2375 72.2841 86.3059C72.2841 87.3747 73.1504 88.2409 74.2191 88.2409Z" fill="#05BA84"/>
<path d="M98.0016 88.2409C99.0704 88.2409 99.9366 87.3747 99.9366 86.3059C99.9366 85.2375 99.0704 84.3709 98.0016 84.3709C96.9328 84.3709 96.0666 85.2375 96.0666 86.3059C96.0666 87.3747 96.9328 88.2409 98.0016 88.2409Z" fill="#05BA84"/>
</g>
<defs>
<clipPath id="clip0_1_153">
<rect width="99.99" height="88.88" fill="white" transform="translate(0.994987 0.98999)"/>
</clipPath>
</defs>
</svg>
