<svg width="633" height="421" viewBox="0 0 633 421" fill="none" xmlns="http://www.w3.org/2000/svg">
<g clip-path="url(#clip0_1_83)">
<mask id="mask0_1_83" style="mask-type:luminance" maskUnits="userSpaceOnUse" x="0" y="0" width="633" height="421">
<path d="M632.54 0H0.460052V421H632.54V0Z" fill="white"/>
</mask>
<g mask="url(#mask0_1_83)">
<path d="M632.295 0.313171H0.609543V421.429H632.295V0.313171Z" fill="url(#paint0_radial_1_83)"/>
<g style="mix-blend-mode:soft-light">
<path d="M145.664 -271.191C145.664 -271.191 223.718 -92.9217 111.323 131.055C-1.07085 355.032 159.048 520.637 374.245 521.901" stroke="white" stroke-width="1.15978" stroke-miterlimit="10"/>
</g>
<g style="mix-blend-mode:soft-light">
<path d="M197.761 -217.064C197.761 -217.064 277.646 -98.9641 206.714 38.8293C135.782 176.623 30.1492 329.934 320.048 468.319" stroke="white" stroke-width="1.15978" stroke-miterlimit="10"/>
</g>
<g style="mix-blend-mode:soft-light">
<path d="M236.823 677.253C233.842 674.273 -61.3916 575.947 20.8716 367.082C103.135 158.217 40.3791 64.0198 -136.081 -50.404" stroke="white" stroke-width="1.15978" stroke-miterlimit="10"/>
</g>
<g style="mix-blend-mode:soft-light">
<path d="M790.269 -345.614C790.269 -345.614 796.195 -151.096 608.346 14.822C420.496 180.74 507.294 394.07 706.475 475.591" stroke="white" stroke-width="1.15978" stroke-miterlimit="10"/>
</g>
<g style="mix-blend-mode:soft-light">
<path d="M835.987 -247.775C835.987 -247.775 866.142 -108.37 748.83 -7.00525C631.518 94.3595 476.421 197.163 693.775 433.758" stroke="white" stroke-width="1.15978" stroke-miterlimit="10"/>
</g>
<g style="mix-blend-mode:soft-light">
<path d="M601.632 464.967C599.973 461.082 312.012 277.895 466.239 114.795C620.467 -48.3048 597.399 -159.11 476.364 -331.094" stroke="white" stroke-width="1.15978" stroke-miterlimit="10"/>
</g>
<path d="M521.687 247.462C522.462 247.462 523.09 246.834 523.09 246.059C523.09 245.284 522.462 244.656 521.687 244.656C520.912 244.656 520.284 245.284 520.284 246.059C520.284 246.834 520.912 247.462 521.687 247.462Z" fill="white"/>
<path d="M538.92 247.462C539.696 247.462 540.324 246.834 540.324 246.059C540.324 245.284 539.696 244.656 538.92 244.656C538.145 244.656 537.517 245.284 537.517 246.059C537.517 246.834 538.145 247.462 538.92 247.462Z" fill="white"/>
<path d="M556.157 247.462C556.932 247.462 557.56 246.834 557.56 246.059C557.56 245.284 556.932 244.656 556.157 244.656C555.381 244.656 554.753 245.284 554.753 246.059C554.753 246.834 555.381 247.462 556.157 247.462Z" fill="white"/>
<path d="M573.39 247.462C574.165 247.462 574.793 246.834 574.793 246.059C574.793 245.284 574.165 244.656 573.39 244.656C572.615 244.656 571.987 245.284 571.987 246.059C571.987 246.834 572.615 247.462 573.39 247.462Z" fill="white"/>
<path d="M590.635 247.462C591.41 247.462 592.038 246.834 592.038 246.059C592.038 245.284 591.41 244.656 590.635 244.656C589.86 244.656 589.231 245.284 589.231 246.059C589.231 246.834 589.86 247.462 590.635 247.462Z" fill="white"/>
<path d="M521.687 262.586C522.462 262.586 523.09 261.958 523.09 261.182C523.09 260.408 522.462 259.779 521.687 259.779C520.912 259.779 520.284 260.408 520.284 261.182C520.284 261.958 520.912 262.586 521.687 262.586Z" fill="white"/>
<path d="M538.92 262.586C539.696 262.586 540.324 261.958 540.324 261.182C540.324 260.408 539.696 259.779 538.92 259.779C538.145 259.779 537.517 260.408 537.517 261.182C537.517 261.958 538.145 262.586 538.92 262.586Z" fill="white"/>
<path d="M556.157 262.586C556.932 262.586 557.56 261.958 557.56 261.182C557.56 260.408 556.932 259.779 556.157 259.779C555.381 259.779 554.753 260.408 554.753 261.182C554.753 261.958 555.381 262.586 556.157 262.586Z" fill="white"/>
<path d="M573.39 262.586C574.165 262.586 574.793 261.958 574.793 261.182C574.793 260.408 574.165 259.779 573.39 259.779C572.615 259.779 571.987 260.408 571.987 261.182C571.987 261.958 572.615 262.586 573.39 262.586Z" fill="white"/>
<path d="M590.635 262.586C591.41 262.586 592.038 261.958 592.038 261.182C592.038 260.408 591.41 259.779 590.635 259.779C589.86 259.779 589.231 260.408 589.231 261.182C589.231 261.958 589.86 262.586 590.635 262.586Z" fill="white"/>
<path d="M521.687 277.698C522.462 277.698 523.09 277.069 523.09 276.294C523.09 275.52 522.462 274.891 521.687 274.891C520.912 274.891 520.284 275.52 520.284 276.294C520.284 277.069 520.912 277.698 521.687 277.698Z" fill="white"/>
<path d="M538.92 277.698C539.696 277.698 540.324 277.069 540.324 276.294C540.324 275.52 539.696 274.891 538.92 274.891C538.145 274.891 537.517 275.52 537.517 276.294C537.517 277.069 538.145 277.698 538.92 277.698Z" fill="white"/>
<path d="M556.157 277.698C556.932 277.698 557.56 277.069 557.56 276.294C557.56 275.52 556.932 274.891 556.157 274.891C555.381 274.891 554.753 275.52 554.753 276.294C554.753 277.069 555.381 277.698 556.157 277.698Z" fill="white"/>
<path d="M573.39 277.698C574.165 277.698 574.793 277.069 574.793 276.294C574.793 275.52 574.165 274.891 573.39 274.891C572.615 274.891 571.987 275.52 571.987 276.294C571.987 277.069 572.615 277.698 573.39 277.698Z" fill="white"/>
<path d="M590.635 277.698C591.41 277.698 592.038 277.069 592.038 276.294C592.038 275.52 591.41 274.891 590.635 274.891C589.86 274.891 589.231 275.52 589.231 276.294C589.231 277.069 589.86 277.698 590.635 277.698Z" fill="white"/>
<path d="M521.687 292.81C522.462 292.81 523.09 292.182 523.09 291.406C523.09 290.631 522.462 290.003 521.687 290.003C520.912 290.003 520.284 290.631 520.284 291.406C520.284 292.182 520.912 292.81 521.687 292.81Z" fill="white"/>
<path d="M538.92 292.81C539.696 292.81 540.324 292.182 540.324 291.406C540.324 290.631 539.696 290.003 538.92 290.003C538.145 290.003 537.517 290.631 537.517 291.406C537.517 292.182 538.145 292.81 538.92 292.81Z" fill="white"/>
<path d="M556.157 292.81C556.932 292.81 557.56 292.182 557.56 291.406C557.56 290.631 556.932 290.003 556.157 290.003C555.381 290.003 554.753 290.631 554.753 291.406C554.753 292.182 555.381 292.81 556.157 292.81Z" fill="white"/>
<path d="M573.39 292.81C574.165 292.81 574.793 292.182 574.793 291.406C574.793 290.631 574.165 290.003 573.39 290.003C572.615 290.003 571.987 290.631 571.987 291.406C571.987 292.182 572.615 292.81 573.39 292.81Z" fill="white"/>
<path d="M590.635 292.81C591.41 292.81 592.038 292.182 592.038 291.406C592.038 290.631 591.41 290.003 590.635 290.003C589.86 290.003 589.231 290.631 589.231 291.406C589.231 292.182 589.86 292.81 590.635 292.81Z" fill="white"/>
<path d="M521.687 307.933C522.462 307.933 523.09 307.306 523.09 306.53C523.09 305.755 522.462 305.126 521.687 305.126C520.912 305.126 520.284 305.755 520.284 306.53C520.284 307.306 520.912 307.933 521.687 307.933Z" fill="white"/>
<path d="M538.92 307.933C539.696 307.933 540.324 307.306 540.324 306.53C540.324 305.755 539.696 305.126 538.92 305.126C538.145 305.126 537.517 305.755 537.517 306.53C537.517 307.306 538.145 307.933 538.92 307.933Z" fill="white"/>
<path d="M556.157 307.933C556.932 307.933 557.56 307.306 557.56 306.53C557.56 305.755 556.932 305.126 556.157 305.126C555.381 305.126 554.753 305.755 554.753 306.53C554.753 307.306 555.381 307.933 556.157 307.933Z" fill="white"/>
<path d="M573.39 307.933C574.165 307.933 574.793 307.306 574.793 306.53C574.793 305.755 574.165 305.126 573.39 305.126C572.615 305.126 571.987 305.755 571.987 306.53C571.987 307.306 572.615 307.933 573.39 307.933Z" fill="white"/>
<path d="M590.635 307.933C591.41 307.933 592.038 307.306 592.038 306.53C592.038 305.755 591.41 305.126 590.635 305.126C589.86 305.126 589.231 305.755 589.231 306.53C589.231 307.306 589.86 307.933 590.635 307.933Z" fill="white"/>
<path d="M105.511 246.778C106.005 246.778 106.404 246.379 106.404 245.885C106.404 245.392 106.005 244.992 105.511 244.992C105.018 244.992 104.618 245.392 104.618 245.885C104.618 246.379 105.018 246.778 105.511 246.778Z" fill="white"/>
<path d="M116.54 246.778C117.034 246.778 117.433 246.379 117.433 245.885C117.433 245.392 117.034 244.992 116.54 244.992C116.047 244.992 115.647 245.392 115.647 245.885C115.647 246.379 116.047 246.778 116.54 246.778Z" fill="white"/>
<path d="M127.581 246.778C128.074 246.778 128.474 246.379 128.474 245.885C128.474 245.392 128.074 244.992 127.581 244.992C127.088 244.992 126.688 245.392 126.688 245.885C126.688 246.379 127.088 246.778 127.581 246.778Z" fill="white"/>
<path d="M138.623 246.778C139.118 246.778 139.516 246.379 139.516 245.885C139.516 245.392 139.118 244.992 138.623 244.992C138.131 244.992 137.73 245.392 137.73 245.885C137.73 246.379 138.131 246.778 138.623 246.778Z" fill="white"/>
<path d="M149.665 246.778C150.157 246.778 150.558 246.379 150.558 245.885C150.558 245.392 150.157 244.992 149.665 244.992C149.172 244.992 148.772 245.392 148.772 245.885C148.772 246.379 149.172 246.778 149.665 246.778Z" fill="white"/>
<path d="M105.511 256.45C106.005 256.45 106.404 256.05 106.404 255.557C106.404 255.065 106.005 254.664 105.511 254.664C105.018 254.664 104.618 255.065 104.618 255.557C104.618 256.05 105.018 256.45 105.511 256.45Z" fill="white"/>
<path d="M116.54 256.45C117.034 256.45 117.433 256.05 117.433 255.557C117.433 255.065 117.034 254.664 116.54 254.664C116.047 254.664 115.647 255.065 115.647 255.557C115.647 256.05 116.047 256.45 116.54 256.45Z" fill="white"/>
<path d="M127.581 256.45C128.074 256.45 128.474 256.05 128.474 255.557C128.474 255.065 128.074 254.664 127.581 254.664C127.088 254.664 126.688 255.065 126.688 255.557C126.688 256.05 127.088 256.45 127.581 256.45Z" fill="white"/>
<path d="M138.623 256.45C139.118 256.45 139.516 256.05 139.516 255.557C139.516 255.065 139.118 254.664 138.623 254.664C138.131 254.664 137.73 255.065 137.73 255.557C137.73 256.05 138.131 256.45 138.623 256.45Z" fill="white"/>
<path d="M149.665 256.45C150.157 256.45 150.558 256.05 150.558 255.557C150.558 255.065 150.157 254.664 149.665 254.664C149.172 254.664 148.772 255.065 148.772 255.557C148.772 256.05 149.172 256.45 149.665 256.45Z" fill="white"/>
<path d="M105.511 266.135C106.005 266.135 106.404 265.735 106.404 265.242C106.404 264.749 106.005 264.349 105.511 264.349C105.018 264.349 104.618 264.749 104.618 265.242C104.618 265.735 105.018 266.135 105.511 266.135Z" fill="white"/>
<path d="M116.54 266.135C117.034 266.135 117.433 265.735 117.433 265.242C117.433 264.749 117.034 264.349 116.54 264.349C116.047 264.349 115.647 264.749 115.647 265.242C115.647 265.735 116.047 266.135 116.54 266.135Z" fill="white"/>
<path d="M127.581 266.135C128.074 266.135 128.474 265.735 128.474 265.242C128.474 264.749 128.074 264.349 127.581 264.349C127.088 264.349 126.688 264.749 126.688 265.242C126.688 265.735 127.088 266.135 127.581 266.135Z" fill="white"/>
<path d="M138.623 266.135C139.118 266.135 139.516 265.735 139.516 265.242C139.516 264.749 139.118 264.349 138.623 264.349C138.131 264.349 137.73 264.749 137.73 265.242C137.73 265.735 138.131 266.135 138.623 266.135Z" fill="white"/>
<path d="M149.665 266.135C150.157 266.135 150.558 265.735 150.558 265.242C150.558 264.749 150.157 264.349 149.665 264.349C149.172 264.349 148.772 264.749 148.772 265.242C148.772 265.735 149.172 266.135 149.665 266.135Z" fill="white"/>
<path d="M105.511 275.819C106.005 275.819 106.404 275.419 106.404 274.926C106.404 274.433 106.005 274.033 105.511 274.033C105.018 274.033 104.618 274.433 104.618 274.926C104.618 275.419 105.018 275.819 105.511 275.819Z" fill="white"/>
<path d="M116.54 275.819C117.034 275.819 117.433 275.419 117.433 274.926C117.433 274.433 117.034 274.033 116.54 274.033C116.047 274.033 115.647 274.433 115.647 274.926C115.647 275.419 116.047 275.819 116.54 275.819Z" fill="white"/>
<path d="M127.581 275.819C128.074 275.819 128.474 275.419 128.474 274.926C128.474 274.433 128.074 274.033 127.581 274.033C127.088 274.033 126.688 274.433 126.688 274.926C126.688 275.419 127.088 275.819 127.581 275.819Z" fill="white"/>
<path d="M138.623 275.819C139.118 275.819 139.516 275.419 139.516 274.926C139.516 274.433 139.118 274.033 138.623 274.033C138.131 274.033 137.73 274.433 137.73 274.926C137.73 275.419 138.131 275.819 138.623 275.819Z" fill="white"/>
<path d="M149.665 275.819C150.157 275.819 150.558 275.419 150.558 274.926C150.558 274.433 150.157 274.033 149.665 274.033C149.172 274.033 148.772 274.433 148.772 274.926C148.772 275.419 149.172 275.819 149.665 275.819Z" fill="white"/>
<path d="M105.511 285.503C106.005 285.503 106.404 285.104 106.404 284.61C106.404 284.117 106.005 283.717 105.511 283.717C105.018 283.717 104.618 284.117 104.618 284.61C104.618 285.104 105.018 285.503 105.511 285.503Z" fill="white"/>
<path d="M116.54 285.503C117.034 285.503 117.433 285.104 117.433 284.61C117.433 284.117 117.034 283.717 116.54 283.717C116.047 283.717 115.647 284.117 115.647 284.61C115.647 285.104 116.047 285.503 116.54 285.503Z" fill="white"/>
<path d="M127.581 285.503C128.074 285.503 128.474 285.104 128.474 284.61C128.474 284.117 128.074 283.717 127.581 283.717C127.088 283.717 126.688 284.117 126.688 284.61C126.688 285.104 127.088 285.503 127.581 285.503Z" fill="white"/>
<path d="M138.623 285.503C139.118 285.503 139.516 285.104 139.516 284.61C139.516 284.117 139.118 283.717 138.623 283.717C138.131 283.717 137.73 284.117 137.73 284.61C137.73 285.104 138.131 285.503 138.623 285.503Z" fill="white"/>
<path d="M149.665 285.503C150.157 285.503 150.558 285.104 150.558 284.61C150.558 284.117 150.157 283.717 149.665 283.717C149.172 283.717 148.772 284.117 148.772 284.61C148.772 285.104 149.172 285.503 149.665 285.503Z" fill="white"/>
</g>
</g>
<defs>
<radialGradient id="paint0_radial_1_83" cx="0" cy="0" r="1" gradientUnits="userSpaceOnUse" gradientTransform="translate(82.1768 -122.415) scale(758.218 758.217)">
<stop stop-color="#00CF91"/>
<stop offset="1" stop-color="#00CF60"/>
</radialGradient>
<clipPath id="clip0_1_83">
<rect width="632.08" height="421" fill="white" transform="translate(0.460052)"/>
</clipPath>
</defs>
</svg>
