<svg width="184" height="164" viewBox="0 0 184 164" fill="none" xmlns="http://www.w3.org/2000/svg">
<g clip-path="url(#clip0_1_1085)">
<path d="M3.56569 7.11638C5.53212 7.11638 7.12628 5.52336 7.12628 3.5582C7.12628 1.59305 5.53212 0 3.56569 0C1.59925 0 0.00526428 1.59305 0.00526428 3.5582C0.00526428 5.52336 1.59925 7.11638 3.56569 7.11638Z" fill="#6872E3"/>
<path d="M3.56569 7.11638C5.53212 7.11638 7.12628 5.52336 7.12628 3.5582C7.12628 1.59305 5.53212 0 3.56569 0C1.59925 0 0.00526428 1.59305 0.00526428 3.5582C0.00526428 5.52336 1.59925 7.11638 3.56569 7.11638Z" fill="url(#paint0_radial_1_1085)"/>
<path d="M47.2876 7.11638C49.2542 7.11638 50.848 5.52336 50.848 3.5582C50.848 1.59305 49.2542 0 47.2876 0C45.3212 0 43.727 1.59305 43.727 3.5582C43.727 5.52336 45.3212 7.11638 47.2876 7.11638Z" fill="#6872E3"/>
<path d="M47.2876 7.11638C49.2542 7.11638 50.848 5.52336 50.848 3.5582C50.848 1.59305 49.2542 0 47.2876 0C45.3212 0 43.727 1.59305 43.727 3.5582C43.727 5.52336 45.3212 7.11638 47.2876 7.11638Z" fill="url(#paint1_radial_1_1085)"/>
<path d="M91.0222 7.11638C92.9892 7.11638 94.583 5.52336 94.583 3.5582C94.583 1.59305 92.9892 0 91.0222 0C89.0557 0 87.4619 1.59305 87.4619 3.5582C87.4619 5.52336 89.0557 7.11638 91.0222 7.11638Z" fill="#6872E3"/>
<path d="M91.0222 7.11638C92.9892 7.11638 94.583 5.52336 94.583 3.5582C94.583 1.59305 92.9892 0 91.0222 0C89.0557 0 87.4619 1.59305 87.4619 3.5582C87.4619 5.52336 89.0557 7.11638 91.0222 7.11638Z" fill="url(#paint2_radial_1_1085)"/>
<path d="M134.743 7.11638C136.71 7.11638 138.304 5.52336 138.304 3.5582C138.304 1.59305 136.71 0 134.743 0C132.776 0 131.183 1.59305 131.183 3.5582C131.183 5.52336 132.776 7.11638 134.743 7.11638Z" fill="#6872E3"/>
<path d="M134.743 7.11638C136.71 7.11638 138.304 5.52336 138.304 3.5582C138.304 1.59305 136.71 0 134.743 0C132.776 0 131.183 1.59305 131.183 3.5582C131.183 5.52336 132.776 7.11638 134.743 7.11638Z" fill="url(#paint3_radial_1_1085)"/>
<path d="M178.505 7.11638C180.472 7.11638 182.065 5.52336 182.065 3.5582C182.065 1.59305 180.472 0 178.505 0C176.539 0 174.944 1.59305 174.944 3.5582C174.944 5.52336 176.539 7.11638 178.505 7.11638Z" fill="#6872E3"/>
<path d="M178.505 7.11638C180.472 7.11638 182.065 5.52336 182.065 3.5582C182.065 1.59305 180.472 0 178.505 0C176.539 0 174.944 1.59305 174.944 3.5582C174.944 5.52336 176.539 7.11638 178.505 7.11638Z" fill="url(#paint4_radial_1_1085)"/>
<path d="M3.56569 45.4657C5.53212 45.4657 7.12628 43.8728 7.12628 41.9077C7.12628 39.9425 5.53212 38.3494 3.56569 38.3494C1.59925 38.3494 0.00526428 39.9425 0.00526428 41.9077C0.00526428 43.8728 1.59925 45.4657 3.56569 45.4657Z" fill="#6872E3"/>
<path d="M3.56569 45.4657C5.53212 45.4657 7.12628 43.8728 7.12628 41.9077C7.12628 39.9425 5.53212 38.3494 3.56569 38.3494C1.59925 38.3494 0.00526428 39.9425 0.00526428 41.9077C0.00526428 43.8728 1.59925 45.4657 3.56569 45.4657Z" fill="url(#paint5_radial_1_1085)"/>
<path d="M47.2876 45.4626C49.2542 45.4626 50.848 43.8697 50.848 41.9045C50.848 39.9393 49.2542 38.3462 47.2876 38.3462C45.3212 38.3462 43.727 39.9393 43.727 41.9045C43.727 43.8697 45.3212 45.4626 47.2876 45.4626Z" fill="#6872E3"/>
<path d="M47.2876 45.4626C49.2542 45.4626 50.848 43.8697 50.848 41.9045C50.848 39.9393 49.2542 38.3462 47.2876 38.3462C45.3212 38.3462 43.727 39.9393 43.727 41.9045C43.727 43.8697 45.3212 45.4626 47.2876 45.4626Z" fill="url(#paint6_radial_1_1085)"/>
<path d="M91.0222 45.4626C92.9892 45.4626 94.583 43.8697 94.583 41.9045C94.583 39.9393 92.9892 38.3462 91.0222 38.3462C89.0557 38.3462 87.4619 39.9393 87.4619 41.9045C87.4619 43.8697 89.0557 45.4626 91.0222 45.4626Z" fill="#6872E3"/>
<path d="M91.0222 45.4626C92.9892 45.4626 94.583 43.8697 94.583 41.9045C94.583 39.9393 92.9892 38.3462 91.0222 38.3462C89.0557 38.3462 87.4619 39.9393 87.4619 41.9045C87.4619 43.8697 89.0557 45.4626 91.0222 45.4626Z" fill="url(#paint7_radial_1_1085)"/>
<path d="M134.743 45.4626C136.71 45.4626 138.304 43.8697 138.304 41.9045C138.304 39.9393 136.71 38.3462 134.743 38.3462C132.776 38.3462 131.183 39.9393 131.183 41.9045C131.183 43.8697 132.776 45.4626 134.743 45.4626Z" fill="#6872E3"/>
<path d="M134.743 45.4626C136.71 45.4626 138.304 43.8697 138.304 41.9045C138.304 39.9393 136.71 38.3462 134.743 38.3462C132.776 38.3462 131.183 39.9393 131.183 41.9045C131.183 43.8697 132.776 45.4626 134.743 45.4626Z" fill="url(#paint8_radial_1_1085)"/>
<path d="M178.505 45.4626C180.472 45.4626 182.065 43.8697 182.065 41.9045C182.065 39.9393 180.472 38.3462 178.505 38.3462C176.539 38.3462 174.944 39.9393 174.944 41.9045C174.944 43.8697 176.539 45.4626 178.505 45.4626Z" fill="#6872E3"/>
<path d="M178.505 45.4626C180.472 45.4626 182.065 43.8697 182.065 41.9045C182.065 39.9393 180.472 38.3462 178.505 38.3462C176.539 38.3462 174.944 39.9393 174.944 41.9045C174.944 43.8697 176.539 45.4626 178.505 45.4626Z" fill="url(#paint9_radial_1_1085)"/>
<path d="M3.56569 83.7788C5.53212 83.7788 7.12628 82.186 7.12628 80.2209C7.12628 78.2553 5.53212 76.6625 3.56569 76.6625C1.59925 76.6625 0.00526428 78.2553 0.00526428 80.2209C0.00526428 82.186 1.59925 83.7788 3.56569 83.7788Z" fill="#6872E3"/>
<path d="M3.56569 83.7788C5.53212 83.7788 7.12628 82.186 7.12628 80.2209C7.12628 78.2553 5.53212 76.6625 3.56569 76.6625C1.59925 76.6625 0.00526428 78.2553 0.00526428 80.2209C0.00526428 82.186 1.59925 83.7788 3.56569 83.7788Z" fill="url(#paint10_radial_1_1085)"/>
<path d="M47.2876 83.7788C49.2542 83.7788 50.848 82.186 50.848 80.2209C50.848 78.2553 49.2542 76.6625 47.2876 76.6625C45.3212 76.6625 43.727 78.2553 43.727 80.2209C43.727 82.186 45.3212 83.7788 47.2876 83.7788Z" fill="#6872E3"/>
<path d="M47.2876 83.7788C49.2542 83.7788 50.848 82.186 50.848 80.2209C50.848 78.2553 49.2542 76.6625 47.2876 76.6625C45.3212 76.6625 43.727 78.2553 43.727 80.2209C43.727 82.186 45.3212 83.7788 47.2876 83.7788Z" fill="url(#paint11_radial_1_1085)"/>
<path d="M91.0222 83.7788C92.9892 83.7788 94.583 82.186 94.583 80.2209C94.583 78.2553 92.9892 76.6625 91.0222 76.6625C89.0557 76.6625 87.4619 78.2553 87.4619 80.2209C87.4619 82.186 89.0557 83.7788 91.0222 83.7788Z" fill="#6872E3"/>
<path d="M91.0222 83.7788C92.9892 83.7788 94.583 82.186 94.583 80.2209C94.583 78.2553 92.9892 76.6625 91.0222 76.6625C89.0557 76.6625 87.4619 78.2553 87.4619 80.2209C87.4619 82.186 89.0557 83.7788 91.0222 83.7788Z" fill="url(#paint12_radial_1_1085)"/>
<path d="M134.743 83.7788C136.71 83.7788 138.304 82.186 138.304 80.2209C138.304 78.2553 136.71 76.6625 134.743 76.6625C132.776 76.6625 131.183 78.2553 131.183 80.2209C131.183 82.186 132.776 83.7788 134.743 83.7788Z" fill="#6872E3"/>
<path d="M134.743 83.7788C136.71 83.7788 138.304 82.186 138.304 80.2209C138.304 78.2553 136.71 76.6625 134.743 76.6625C132.776 76.6625 131.183 78.2553 131.183 80.2209C131.183 82.186 132.776 83.7788 134.743 83.7788Z" fill="url(#paint13_radial_1_1085)"/>
<path d="M178.505 83.7788C180.472 83.7788 182.065 82.186 182.065 80.2209C182.065 78.2553 180.472 76.6625 178.505 76.6625C176.539 76.6625 174.944 78.2553 174.944 80.2209C174.944 82.186 176.539 83.7788 178.505 83.7788Z" fill="#6872E3"/>
<path d="M178.505 83.7788C180.472 83.7788 182.065 82.186 182.065 80.2209C182.065 78.2553 180.472 76.6625 178.505 76.6625C176.539 76.6625 174.944 78.2553 174.944 80.2209C174.944 82.186 176.539 83.7788 178.505 83.7788Z" fill="url(#paint14_radial_1_1085)"/>
<path d="M3.56569 122.098C5.53212 122.098 7.12628 120.505 7.12628 118.54C7.12628 116.575 5.53212 114.982 3.56569 114.982C1.59925 114.982 0.00526428 116.575 0.00526428 118.54C0.00526428 120.505 1.59925 122.098 3.56569 122.098Z" fill="#6872E3"/>
<path d="M3.56569 122.098C5.53212 122.098 7.12628 120.505 7.12628 118.54C7.12628 116.575 5.53212 114.982 3.56569 114.982C1.59925 114.982 0.00526428 116.575 0.00526428 118.54C0.00526428 120.505 1.59925 122.098 3.56569 122.098Z" fill="url(#paint15_radial_1_1085)"/>
<path d="M47.2876 122.095C49.2542 122.095 50.848 120.502 50.848 118.537C50.848 116.571 49.2542 114.979 47.2876 114.979C45.3212 114.979 43.727 116.571 43.727 118.537C43.727 120.502 45.3212 122.095 47.2876 122.095Z" fill="#6872E3"/>
<path d="M47.2876 122.095C49.2542 122.095 50.848 120.502 50.848 118.537C50.848 116.571 49.2542 114.979 47.2876 114.979C45.3212 114.979 43.727 116.571 43.727 118.537C43.727 120.502 45.3212 122.095 47.2876 122.095Z" fill="url(#paint16_radial_1_1085)"/>
<path d="M91.0222 122.095C92.9892 122.095 94.583 120.502 94.583 118.537C94.583 116.571 92.9892 114.979 91.0222 114.979C89.0557 114.979 87.4619 116.571 87.4619 118.537C87.4619 120.502 89.0557 122.095 91.0222 122.095Z" fill="#6872E3"/>
<path d="M91.0222 122.095C92.9892 122.095 94.583 120.502 94.583 118.537C94.583 116.571 92.9892 114.979 91.0222 114.979C89.0557 114.979 87.4619 116.571 87.4619 118.537C87.4619 120.502 89.0557 122.095 91.0222 122.095Z" fill="url(#paint17_radial_1_1085)"/>
<path d="M134.743 122.095C136.71 122.095 138.304 120.502 138.304 118.537C138.304 116.571 136.71 114.979 134.743 114.979C132.776 114.979 131.183 116.571 131.183 118.537C131.183 120.502 132.776 122.095 134.743 122.095Z" fill="#6872E3"/>
<path d="M134.743 122.095C136.71 122.095 138.304 120.502 138.304 118.537C138.304 116.571 136.71 114.979 134.743 114.979C132.776 114.979 131.183 116.571 131.183 118.537C131.183 120.502 132.776 122.095 134.743 122.095Z" fill="url(#paint18_radial_1_1085)"/>
<path d="M178.505 122.095C180.472 122.095 182.065 120.502 182.065 118.537C182.065 116.571 180.472 114.979 178.505 114.979C176.539 114.979 174.944 116.571 174.944 118.537C174.944 120.502 176.539 122.095 178.505 122.095Z" fill="#6872E3"/>
<path d="M178.505 122.095C180.472 122.095 182.065 120.502 182.065 118.537C182.065 116.571 180.472 114.979 178.505 114.979C176.539 114.979 174.944 116.571 174.944 118.537C174.944 120.502 176.539 122.095 178.505 122.095Z" fill="url(#paint19_radial_1_1085)"/>
<path d="M3.56569 160.448C5.53212 160.448 7.12628 158.855 7.12628 156.889C7.12628 154.924 5.53212 153.332 3.56569 153.332C1.59925 153.332 0.00526428 154.924 0.00526428 156.889C0.00526428 158.855 1.59925 160.448 3.56569 160.448Z" fill="#6872E3"/>
<path d="M3.56569 160.448C5.53212 160.448 7.12628 158.855 7.12628 156.889C7.12628 154.924 5.53212 153.332 3.56569 153.332C1.59925 153.332 0.00526428 154.924 0.00526428 156.889C0.00526428 158.855 1.59925 160.448 3.56569 160.448Z" fill="url(#paint20_radial_1_1085)"/>
<path d="M47.2876 160.444C49.2542 160.444 50.848 158.852 50.848 156.886C50.848 154.921 49.2542 153.328 47.2876 153.328C45.3212 153.328 43.727 154.921 43.727 156.886C43.727 158.852 45.3212 160.444 47.2876 160.444Z" fill="#6872E3"/>
<path d="M47.2876 160.444C49.2542 160.444 50.848 158.852 50.848 156.886C50.848 154.921 49.2542 153.328 47.2876 153.328C45.3212 153.328 43.727 154.921 43.727 156.886C43.727 158.852 45.3212 160.444 47.2876 160.444Z" fill="url(#paint21_radial_1_1085)"/>
<path d="M91.0222 160.444C92.9892 160.444 94.583 158.852 94.583 156.886C94.583 154.921 92.9892 153.328 91.0222 153.328C89.0557 153.328 87.4619 154.921 87.4619 156.886C87.4619 158.852 89.0557 160.444 91.0222 160.444Z" fill="#6872E3"/>
<path d="M91.0222 160.444C92.9892 160.444 94.583 158.852 94.583 156.886C94.583 154.921 92.9892 153.328 91.0222 153.328C89.0557 153.328 87.4619 154.921 87.4619 156.886C87.4619 158.852 89.0557 160.444 91.0222 160.444Z" fill="url(#paint22_radial_1_1085)"/>
<path d="M134.743 160.444C136.71 160.444 138.304 158.852 138.304 156.886C138.304 154.921 136.71 153.328 134.743 153.328C132.776 153.328 131.183 154.921 131.183 156.886C131.183 158.852 132.776 160.444 134.743 160.444Z" fill="#6872E3"/>
<path d="M134.743 160.444C136.71 160.444 138.304 158.852 138.304 156.886C138.304 154.921 136.71 153.328 134.743 153.328C132.776 153.328 131.183 154.921 131.183 156.886C131.183 158.852 132.776 160.444 134.743 160.444Z" fill="url(#paint23_radial_1_1085)"/>
<path d="M178.505 160.444C180.472 160.444 182.065 158.852 182.065 156.886C182.065 154.921 180.472 153.328 178.505 153.328C176.539 153.328 174.944 154.921 174.944 156.886C174.944 158.852 176.539 160.444 178.505 160.444Z" fill="#6872E3"/>
<path d="M178.505 160.444C180.472 160.444 182.065 158.852 182.065 156.886C182.065 154.921 180.472 153.328 178.505 153.328C176.539 153.328 174.944 154.921 174.944 156.886C174.944 158.852 176.539 160.444 178.505 160.444Z" fill="url(#paint24_radial_1_1085)"/>
</g>
<defs>
<radialGradient id="paint0_radial_1_1085" cx="0" cy="0" r="1" gradientUnits="userSpaceOnUse" gradientTransform="translate(0.924772 -2.07396) scale(8.54739 12.813)">
<stop stop-color="#00CF91"/>
<stop offset="1" stop-color="#00CF60"/>
</radialGradient>
<radialGradient id="paint1_radial_1_1085" cx="0" cy="0" r="1" gradientUnits="userSpaceOnUse" gradientTransform="translate(44.6466 -2.07396) scale(8.54739 12.813)">
<stop stop-color="#00CF91"/>
<stop offset="1" stop-color="#00CF60"/>
</radialGradient>
<radialGradient id="paint2_radial_1_1085" cx="0" cy="0" r="1" gradientUnits="userSpaceOnUse" gradientTransform="translate(88.3814 -2.07396) scale(8.54748 12.813)">
<stop stop-color="#00CF91"/>
<stop offset="1" stop-color="#00CF60"/>
</radialGradient>
<radialGradient id="paint3_radial_1_1085" cx="0" cy="0" r="1" gradientUnits="userSpaceOnUse" gradientTransform="translate(132.102 -2.07396) scale(8.54748 12.813)">
<stop stop-color="#00CF91"/>
<stop offset="1" stop-color="#00CF60"/>
</radialGradient>
<radialGradient id="paint4_radial_1_1085" cx="0" cy="0" r="1" gradientUnits="userSpaceOnUse" gradientTransform="translate(175.864 -2.07396) scale(8.54748 12.813)">
<stop stop-color="#00CF91"/>
<stop offset="1" stop-color="#00CF60"/>
</radialGradient>
<radialGradient id="paint5_radial_1_1085" cx="0" cy="0" r="1" gradientUnits="userSpaceOnUse" gradientTransform="translate(0.924772 36.2754) scale(8.54739 12.813)">
<stop stop-color="#00CF91"/>
<stop offset="1" stop-color="#00CF60"/>
</radialGradient>
<radialGradient id="paint6_radial_1_1085" cx="0" cy="0" r="1" gradientUnits="userSpaceOnUse" gradientTransform="translate(44.6466 36.2723) scale(8.54739 12.813)">
<stop stop-color="#00CF91"/>
<stop offset="1" stop-color="#00CF60"/>
</radialGradient>
<radialGradient id="paint7_radial_1_1085" cx="0" cy="0" r="1" gradientUnits="userSpaceOnUse" gradientTransform="translate(88.3814 36.2723) scale(8.54748 12.813)">
<stop stop-color="#00CF91"/>
<stop offset="1" stop-color="#00CF60"/>
</radialGradient>
<radialGradient id="paint8_radial_1_1085" cx="0" cy="0" r="1" gradientUnits="userSpaceOnUse" gradientTransform="translate(132.102 36.2723) scale(8.54748 12.813)">
<stop stop-color="#00CF91"/>
<stop offset="1" stop-color="#00CF60"/>
</radialGradient>
<radialGradient id="paint9_radial_1_1085" cx="0" cy="0" r="1" gradientUnits="userSpaceOnUse" gradientTransform="translate(175.864 36.2723) scale(8.54748 12.813)">
<stop stop-color="#00CF91"/>
<stop offset="1" stop-color="#00CF60"/>
</radialGradient>
<radialGradient id="paint10_radial_1_1085" cx="0" cy="0" r="1" gradientUnits="userSpaceOnUse" gradientTransform="translate(0.924772 74.5884) scale(8.54739 12.8131)">
<stop stop-color="#00CF91"/>
<stop offset="1" stop-color="#00CF60"/>
</radialGradient>
<radialGradient id="paint11_radial_1_1085" cx="0" cy="0" r="1" gradientUnits="userSpaceOnUse" gradientTransform="translate(44.6466 74.5884) scale(8.54739 12.8131)">
<stop stop-color="#00CF91"/>
<stop offset="1" stop-color="#00CF60"/>
</radialGradient>
<radialGradient id="paint12_radial_1_1085" cx="0" cy="0" r="1" gradientUnits="userSpaceOnUse" gradientTransform="translate(88.3814 74.5884) scale(8.54748 12.8131)">
<stop stop-color="#00CF91"/>
<stop offset="1" stop-color="#00CF60"/>
</radialGradient>
<radialGradient id="paint13_radial_1_1085" cx="0" cy="0" r="1" gradientUnits="userSpaceOnUse" gradientTransform="translate(132.102 74.5884) scale(8.54748 12.8131)">
<stop stop-color="#00CF91"/>
<stop offset="1" stop-color="#00CF60"/>
</radialGradient>
<radialGradient id="paint14_radial_1_1085" cx="0" cy="0" r="1" gradientUnits="userSpaceOnUse" gradientTransform="translate(175.864 74.5884) scale(8.54748 12.8131)">
<stop stop-color="#00CF91"/>
<stop offset="1" stop-color="#00CF60"/>
</radialGradient>
<radialGradient id="paint15_radial_1_1085" cx="0" cy="0" r="1" gradientUnits="userSpaceOnUse" gradientTransform="translate(0.924772 112.908) scale(8.54739 12.8131)">
<stop stop-color="#00CF91"/>
<stop offset="1" stop-color="#00CF60"/>
</radialGradient>
<radialGradient id="paint16_radial_1_1085" cx="0" cy="0" r="1" gradientUnits="userSpaceOnUse" gradientTransform="translate(44.6466 112.904) scale(8.54739 12.8131)">
<stop stop-color="#00CF91"/>
<stop offset="1" stop-color="#00CF60"/>
</radialGradient>
<radialGradient id="paint17_radial_1_1085" cx="0" cy="0" r="1" gradientUnits="userSpaceOnUse" gradientTransform="translate(88.3814 112.904) scale(8.54748 12.8131)">
<stop stop-color="#00CF91"/>
<stop offset="1" stop-color="#00CF60"/>
</radialGradient>
<radialGradient id="paint18_radial_1_1085" cx="0" cy="0" r="1" gradientUnits="userSpaceOnUse" gradientTransform="translate(132.102 112.904) scale(8.54748 12.8131)">
<stop stop-color="#00CF91"/>
<stop offset="1" stop-color="#00CF60"/>
</radialGradient>
<radialGradient id="paint19_radial_1_1085" cx="0" cy="0" r="1" gradientUnits="userSpaceOnUse" gradientTransform="translate(175.864 112.904) scale(8.54748 12.8131)">
<stop stop-color="#00CF91"/>
<stop offset="1" stop-color="#00CF60"/>
</radialGradient>
<radialGradient id="paint20_radial_1_1085" cx="0" cy="0" r="1" gradientUnits="userSpaceOnUse" gradientTransform="translate(0.924772 151.257) scale(8.54739 12.8132)">
<stop stop-color="#00CF91"/>
<stop offset="1" stop-color="#00CF60"/>
</radialGradient>
<radialGradient id="paint21_radial_1_1085" cx="0" cy="0" r="1" gradientUnits="userSpaceOnUse" gradientTransform="translate(44.6466 151.254) scale(8.54739 12.8131)">
<stop stop-color="#00CF91"/>
<stop offset="1" stop-color="#00CF60"/>
</radialGradient>
<radialGradient id="paint22_radial_1_1085" cx="0" cy="0" r="1" gradientUnits="userSpaceOnUse" gradientTransform="translate(88.3814 151.254) scale(8.54748 12.8131)">
<stop stop-color="#00CF91"/>
<stop offset="1" stop-color="#00CF60"/>
</radialGradient>
<radialGradient id="paint23_radial_1_1085" cx="0" cy="0" r="1" gradientUnits="userSpaceOnUse" gradientTransform="translate(132.102 151.254) scale(8.54748 12.8131)">
<stop stop-color="#00CF91"/>
<stop offset="1" stop-color="#00CF60"/>
</radialGradient>
<radialGradient id="paint24_radial_1_1085" cx="0" cy="0" r="1" gradientUnits="userSpaceOnUse" gradientTransform="translate(175.864 151.254) scale(8.54748 12.8131)">
<stop stop-color="#00CF91"/>
<stop offset="1" stop-color="#00CF60"/>
</radialGradient>
<clipPath id="clip0_1_1085">
<rect width="183.989" height="163.44" fill="white" transform="translate(0.00526428)"/>
</clipPath>
</defs>
</svg>
