<svg width="431" height="441" viewBox="0 0 431 441" fill="none" xmlns="http://www.w3.org/2000/svg">
<g clip-path="url(#clip0_1_905)">
<path d="M325.96 152.554C320.332 160.104 312.592 165.816 303.718 168.968C294.844 172.12 285.235 172.571 276.105 170.262C266.975 167.954 258.735 162.991 252.425 156.001C246.115 149.01 242.02 140.306 240.656 130.988C239.293 121.67 240.722 112.157 244.764 103.652C248.806 95.146 255.278 88.0296 263.364 83.202C271.449 78.3744 280.785 76.0523 290.19 76.5291C299.594 77.006 308.647 80.2605 316.203 85.8812H316.256C321.274 89.6187 325.507 94.3086 328.712 99.6828C331.917 105.057 334.032 111.01 334.935 117.202C335.838 123.394 335.513 129.703 333.976 135.769C332.44 141.835 329.723 147.539 325.981 152.554H325.96Z" fill="#F0F0F0"/>
<path d="M316.869 145.77C312.578 151.53 306.676 155.888 299.908 158.292C293.14 160.697 285.811 161.04 278.848 159.279C271.885 157.518 265.6 153.731 260.789 148.398C255.979 143.065 252.858 136.424 251.821 129.317C250.785 122.21 251.879 114.955 254.967 108.47C258.054 101.985 262.995 96.5612 269.165 92.8847C275.335 89.2082 282.457 87.4442 289.63 87.8157C296.803 88.1873 303.704 90.6777 309.461 94.972C313.288 97.8175 316.515 101.39 318.959 105.485C321.403 109.579 323.015 114.116 323.703 118.834C324.392 123.553 324.142 128.361 322.969 132.983C321.797 137.605 319.724 141.951 316.869 145.77Z" fill="#F5F5F5"/>
<path d="M317.547 144.839C317.367 144.723 318.192 143.347 319.388 140.775C321.071 137.161 322.189 133.31 322.701 129.356C323.029 126.644 323.06 123.905 322.796 121.186C322.486 118.081 321.774 115.028 320.679 112.106C319.486 108.878 317.813 105.849 315.716 103.121C314.63 101.663 313.423 100.3 312.107 99.0464C310.756 97.7547 309.313 96.5627 307.789 95.4799C306.246 94.4214 304.63 93.4736 302.953 92.6437C301.323 91.841 299.632 91.1721 297.894 90.6435C296.222 90.11 294.509 89.717 292.772 89.4688C291.11 89.1974 289.429 89.0629 287.745 89.0666C284.625 89.0104 281.512 89.3662 278.485 90.1249C275.838 90.8 273.275 91.7691 270.844 93.0141C267.304 94.8473 264.07 97.2178 261.256 100.041C259.245 102.052 258.25 103.301 258.081 103.216C257.911 103.131 258.642 101.66 260.462 99.3639C263.074 96.1272 266.264 93.4036 269.87 91.3314C275.061 88.3825 280.888 86.7353 286.854 86.5307C292.82 86.3262 298.747 87.5703 304.127 90.1567C305.941 91.0404 307.685 92.0592 309.345 93.2046C310.986 94.3805 312.542 95.6714 314.001 97.0674C315.411 98.4273 316.703 99.9036 317.864 101.481C319.003 102.991 320.012 104.594 320.88 106.275C324.692 113.435 326.013 121.659 324.637 129.652C323.93 133.763 322.474 137.709 320.341 141.294C318.817 143.781 317.674 144.987 317.547 144.839Z" fill="#E0E0E0"/>
<path d="M278.114 143.844L274.4 148.956L269.87 145.643L273.479 140.659C269.161 137.103 265.838 132.542 264.759 128.753L271.31 124.996C272.605 128.732 274.852 132.066 277.829 134.669L283.364 127.039C279.183 122.128 274.738 116.318 279.48 109.788C282.993 104.941 289.533 103.333 297.354 107.746L301.037 102.655L305.609 105.968L301.947 110.952C305.092 113.503 307.581 116.769 309.207 120.477L302.857 124.446C301.598 121.652 299.8 119.135 297.566 117.038L291.936 124.71C296.169 129.578 300.497 135.293 295.82 141.759C292.38 146.585 285.914 148.162 278.114 143.844ZM288.189 120.318L292.899 113.831C290.084 112.614 288.158 113.249 287.068 114.762C285.978 116.276 286.644 118.223 288.189 120.318ZM288.062 137.039C289.227 135.441 288.528 133.611 287.068 131.494L282.485 137.844C285.142 138.966 287.004 138.489 288.062 137.039Z" fill="#E0E0E0"/>
<path d="M155.478 222.984C157.059 233.742 155.415 244.726 150.752 254.549C146.089 264.371 138.618 272.591 129.284 278.167C119.949 283.743 109.171 286.425 98.3117 285.875C87.4526 285.324 77.0007 281.565 68.2779 275.074C59.5552 268.583 52.9536 259.65 49.308 249.407C45.6625 239.163 45.1368 228.068 47.7976 217.526C50.4583 206.983 56.1859 197.467 64.2558 190.18C72.3257 182.893 82.3755 178.163 93.1339 176.588H93.2715C100.407 175.539 107.679 175.906 114.673 177.669C121.666 179.431 128.244 182.555 134.03 186.86C139.816 191.166 144.697 196.57 148.393 202.763C152.09 208.956 154.53 215.816 155.574 222.952L155.478 222.984Z" fill="#F0F0F0"/>
<path d="M142.535 224.857C143.746 233.053 142.5 241.424 138.953 248.911C135.407 256.398 129.72 262.665 122.611 266.92C115.503 271.175 107.293 273.227 99.0182 272.815C90.7439 272.404 82.7773 269.548 76.1259 264.61C69.4745 259.671 64.4371 252.87 61.6506 245.068C58.8641 237.266 58.4537 228.813 60.4713 220.778C62.489 212.743 66.844 205.487 72.9856 199.927C79.1273 194.367 86.7798 190.753 94.9754 189.542H95.0706C106.048 187.931 117.216 190.747 126.117 197.37C135.018 203.993 140.924 213.88 142.535 224.857Z" fill="#F5F5F5"/>
<path d="M142.334 223.566C142.08 223.566 141.646 221.82 140.514 218.74C138.942 214.417 136.707 210.365 133.889 206.729C131.948 204.248 129.74 201.987 127.307 199.987C124.512 197.715 121.435 195.816 118.152 194.336C116.385 193.527 114.56 192.851 112.691 192.315C110.753 191.737 108.771 191.316 106.765 191.055C104.69 190.766 102.594 190.646 100.5 190.695C98.3427 190.741 96.192 190.946 94.0653 191.309C91.9552 191.705 89.8758 192.25 87.8425 192.939C85.8567 193.621 83.9281 194.46 82.0747 195.447C80.2829 196.369 78.5667 197.43 76.942 198.622C75.372 199.765 73.893 201.028 72.5183 202.4C69.945 204.922 67.7108 207.768 65.8721 210.867C64.271 213.576 62.9754 216.454 62.0093 219.449C60.6143 223.833 59.9004 228.406 59.8927 233.006C59.8927 236.287 60.1044 238.118 59.8927 238.16C59.6811 238.202 59.0778 236.435 58.6863 233.07C58.189 228.287 58.5801 223.454 59.8398 218.814C61.714 211.839 65.3596 205.466 70.4228 200.315C71.8713 198.812 73.4392 197.428 75.1111 196.177C78.6353 193.48 82.5644 191.359 86.7524 189.891C88.9523 189.123 91.2102 188.532 93.5044 188.124C95.7992 187.732 98.1195 187.51 100.447 187.457C102.709 187.436 104.97 187.584 107.209 187.901C109.361 188.211 111.484 188.693 113.559 189.341C115.557 189.943 117.503 190.704 119.38 191.616C122.858 193.289 126.094 195.425 129 197.966C131.519 200.158 133.764 202.645 135.688 205.374C138.481 209.29 140.516 213.694 141.689 218.359C142.493 221.661 142.514 223.534 142.334 223.566Z" fill="#E0E0E0"/>
<path d="M109.358 254.902L110.511 262.11L104.087 263.168L102.966 256.162C96.5311 256.797 90.0966 255.781 86.1174 253.58L88.4033 245.113C92.5047 247.104 97.0498 248.004 101.6 247.727L99.8753 236.975C92.4672 236.393 84.1066 235.282 82.6356 226.085C81.5773 219.269 85.5565 212.623 95.5363 209.84L94.3933 202.696L100.828 201.638L101.95 208.644C106.59 208.154 111.28 208.774 115.633 210.454L113.686 218.92C110.379 217.641 106.849 217.036 103.304 217.142L105.061 228.085C112.469 228.614 120.692 229.736 122.142 238.806C123.232 245.526 119.263 252.087 109.358 254.902ZM98.4254 227.535L96.9544 218.402C93.6737 219.714 92.6154 221.799 92.954 223.926C93.2927 226.053 95.3987 227.08 98.4254 227.535ZM111.972 241.293C111.601 239.039 109.548 238.118 106.68 237.589L108.098 246.468C111.125 245.219 112.257 243.293 111.929 241.272L111.972 241.293Z" fill="#E0E0E0"/>
<path d="M266.759 32.0666C265.79 37.3492 263.276 42.2258 259.535 46.0797C255.794 49.9336 250.994 52.5918 245.743 53.718C240.492 54.8442 235.024 54.3879 230.032 52.4068C225.04 50.4257 220.747 47.0088 217.697 42.5881C214.647 38.1674 212.976 32.9416 212.896 27.5713C212.816 22.2011 214.329 16.9276 217.246 12.4178C220.163 7.90803 224.352 4.36441 229.282 2.23507C234.213 0.105728 239.664 -0.513697 244.947 0.45512H245.011C248.511 1.09825 251.851 2.42486 254.839 4.35915C257.827 6.29344 260.404 8.7975 262.424 11.7282C264.443 14.659 265.866 17.959 266.61 21.4396C267.353 24.9203 267.404 28.5134 266.759 32.0137V32.0666Z" fill="#F0F0F0"/>
<path d="M260.409 30.8813C259.67 34.9059 257.754 38.6211 254.904 41.5569C252.053 44.4927 248.396 46.5173 244.395 47.3748C240.394 48.2323 236.229 47.8841 232.425 46.3742C228.622 44.8644 225.352 42.2607 223.029 38.8924C220.705 35.5241 219.433 31.5425 219.372 27.451C219.311 23.3595 220.465 19.3419 222.688 15.9063C224.911 12.4706 228.102 9.77112 231.859 8.14923C235.616 6.52733 239.769 6.05584 243.794 6.79437C246.465 7.28108 249.014 8.28966 251.295 9.7624C253.577 11.2352 255.545 13.1432 257.088 15.3774C258.632 17.6115 259.719 20.128 260.289 22.7829C260.859 25.4378 260.9 28.1789 260.409 30.8496V30.8813Z" fill="#F5F5F5"/>
<path d="M260.515 30.2463C260.406 29.4007 260.381 28.5463 260.441 27.6958C260.398 25.4242 260.009 23.1723 259.287 21.0179C258.777 19.5383 258.106 18.1188 257.287 16.7847C256.342 15.2773 255.204 13.9003 253.9 12.6891C253.208 12.0219 252.461 11.4131 251.667 10.8688C250.842 10.2943 249.968 9.79494 249.053 9.37663C248.131 8.90664 247.172 8.51373 246.185 8.20191C245.17 7.87394 244.129 7.62971 243.074 7.47169C242.024 7.30963 240.962 7.23177 239.899 7.23886C238.864 7.23884 237.83 7.32379 236.809 7.49285C235.821 7.63799 234.847 7.86814 233.899 8.18075C232.979 8.4598 232.083 8.81375 231.221 9.23905C228.193 10.6903 225.575 12.8726 223.601 15.5889C222.235 17.4144 221.164 19.4427 220.426 21.6C220.224 22.4267 219.94 23.2313 219.58 24.0023C219.473 23.1369 219.56 22.2585 219.834 21.4307C220.349 19.1102 221.301 16.9087 222.638 14.9433C223.541 13.574 224.607 12.3195 225.813 11.2075C227.219 9.9393 228.793 8.87094 230.491 8.03259C231.406 7.55758 232.358 7.15764 233.338 6.83671C234.373 6.49136 235.435 6.22947 236.513 6.05356C237.613 5.85956 238.729 5.76042 239.846 5.75724C242.154 5.73191 244.45 6.08953 246.641 6.81554C247.713 7.12076 248.758 7.51731 249.763 8.00084C252.291 9.2959 254.531 11.0883 256.35 13.2706C258.169 15.4529 259.528 17.9801 260.346 20.7004C261.024 22.977 261.276 25.3595 261.086 27.7276C261.076 28.5981 260.881 29.4565 260.515 30.2463Z" fill="#E0E0E0"/>
<path d="M240.111 39.6651L239.497 43.2422L236.322 42.7025L236.915 39.2418C234.11 38.6719 231.521 37.3262 229.443 35.3578L231.845 31.749C233.455 33.3294 235.445 34.4669 237.624 35.0509L238.523 29.7594C235.147 28.299 231.412 26.4575 232.174 21.9174C232.745 18.552 235.677 16.0862 240.788 16.3719L241.391 12.8478L244.566 13.3875L243.974 16.9328C246.228 17.4519 248.323 18.5085 250.08 20.0125L247.826 23.6424C246.505 22.483 244.959 21.6076 243.286 21.0708L242.354 26.4575C245.741 27.8862 249.403 29.7171 248.641 34.1937C248.09 37.4744 245.191 39.9191 240.111 39.6651ZM239.328 25.1029L240.1 20.5945C238.354 20.6898 237.529 21.4941 237.349 22.5418C237.169 23.5895 238.015 24.4256 239.328 25.1029ZM243.487 33.7175C243.667 32.6592 242.852 31.8443 241.571 31.1352L240.82 35.506C242.471 35.4002 243.307 34.7017 243.487 33.7175Z" fill="#E0E0E0"/>
<path d="M430.997 440.592C430.997 440.751 294.306 440.867 203.282 440.867C112.257 440.867 0.00341797 440.751 0.00341797 440.592C0.00341797 440.433 112.183 440.317 203.282 440.317C294.38 440.317 430.997 440.444 430.997 440.592Z" fill="#263238"/>
<path d="M79.1432 397.35C97.3036 384.65 101.431 361.103 100.711 339.926C100.595 336.392 100.976 332.666 99.3038 329.555C97.6317 326.443 93.6948 324.337 90.5305 325.83C87.9059 327.068 86.7629 330.116 85.239 332.645C83.2663 336.006 80.3922 338.749 76.9419 340.561C74.6983 341.725 71.915 342.445 69.6925 341.217C66.6446 339.535 66.2848 335.323 66.306 331.809C66.3483 325.248 66.3871 318.693 66.4224 312.146C66.4224 308.632 66.4224 305.045 65.3641 301.711C64.3058 298.377 61.8505 295.266 58.5063 294.303C55.1621 293.34 51.0241 295.298 50.3256 298.737C50.19 300.19 50.1546 301.65 50.2198 303.108C50.1245 304.568 49.4472 306.188 48.1032 306.59C46.7592 306.992 45.2881 306.008 44.2404 304.981C40.6104 301.425 38.1446 296.853 35.8481 292.282C33.5515 287.71 31.3079 283.074 28.0166 279.201C24.7253 275.328 20.1746 272.258 15.1371 271.973C10.0996 271.687 4.73401 274.798 3.4958 279.741C2.25758 284.683 5.115 289.731 8.25815 293.742C12.9276 299.693 18.431 304.94 24.5983 309.32C25.8009 309.977 26.7588 311.005 27.3287 312.252C28.0907 314.601 25.8789 316.929 23.5612 317.702C20.9366 318.57 18.1004 318.295 15.3594 318.623C12.6184 318.951 9.64453 320.157 8.60739 322.739C7.1681 326.338 10.1737 330.148 13.1263 332.571C19.0562 337.504 25.785 341.387 33.0224 344.054C35.6152 345.006 38.3139 345.832 40.4305 347.652C42.5471 349.472 43.7747 352.626 42.5471 355.06C41.3195 357.494 38.0493 358.33 35.3401 357.833C32.6308 357.335 30.2073 355.854 27.6251 354.88C22.7992 353.06 16.5552 353.388 13.465 357.568C11.4225 360.309 11.2531 364.14 12.2797 367.41C13.4461 370.631 15.2453 373.585 17.5712 376.099C25.2359 385.291 35.1966 392.29 46.4417 396.387C57.6491 400.271 68.031 401.318 79.1749 397.244" fill="#00CF60"/>
<path d="M8.5545 275.01C8.65379 275.136 8.76745 275.249 8.89316 275.349L9.95146 276.28C10.8722 277.095 12.2268 278.291 13.9307 279.889C18.7662 284.376 23.2556 289.223 27.3605 294.388C29.9851 297.647 32.652 301.33 35.5412 305.341C38.4303 309.352 41.3936 313.68 44.3886 318.337C47.5468 323.186 50.4402 328.203 53.0561 333.365C54.4107 336.053 55.6277 338.857 56.8554 341.725L60.5912 350.446C65.3971 361.49 69.577 372.797 73.1109 384.311C75.966 393.723 77.929 403.382 78.9739 413.161C79.6598 419.756 79.7696 426.4 79.3019 433.014C79.122 435.364 78.9421 437.174 78.7728 438.401C78.7093 438.994 78.6564 439.459 78.614 439.798C78.6035 439.96 78.6035 440.123 78.614 440.285C78.6559 440.128 78.6878 439.969 78.7093 439.809C78.7594 439.342 78.8371 438.879 78.9421 438.422C79.1432 437.195 79.3654 435.385 79.5877 433.036C80.154 426.407 80.1115 419.74 79.4607 413.118C78.4797 403.304 76.5552 393.608 73.7141 384.163C70.19 372.594 66.0028 361.237 61.1732 350.149L57.4374 341.429C56.1992 338.561 54.9822 335.725 53.617 333.026C50.9824 327.853 48.0641 322.829 44.8754 317.977C41.8592 313.31 38.8325 309.003 35.9751 304.992C33.1177 300.981 30.3555 297.308 27.7098 294.059C23.5602 288.907 19.0056 284.094 14.0894 279.667C12.3538 278.1 10.978 276.926 10.0255 276.153L8.96724 275.264L8.5545 275.01Z" fill="#263238"/>
<path d="M53.4264 333.016C53.5939 332.528 53.7109 332.024 53.7757 331.513C53.9556 330.539 54.1778 329.132 54.4212 327.375C54.9186 323.882 55.4795 319.025 55.9981 313.617C56.5167 308.209 57.1411 303.425 57.6914 299.944C57.9559 298.197 58.1888 296.769 58.3687 295.816C58.4944 295.318 58.5584 294.806 58.5592 294.292C58.3654 294.767 58.22 295.26 58.1253 295.763C57.8713 296.726 57.5644 298.123 57.2469 299.859C56.5696 303.341 55.9134 308.188 55.3525 313.553C54.7916 318.919 54.2942 323.618 53.9662 327.311C53.7968 328.962 53.6487 330.349 53.5217 331.47C53.437 331.981 53.405 332.499 53.4264 333.016Z" fill="#263238"/>
<path d="M8.22638 324.57C8.81954 324.688 9.42113 324.759 10.0255 324.782C11.1896 324.888 12.8723 325.025 14.936 325.269C19.074 325.713 24.7782 326.528 31.0222 327.703C37.2662 328.878 42.8752 330.211 46.8967 331.28C48.9181 331.798 50.5373 332.264 51.6696 332.582C52.2426 332.773 52.8301 332.918 53.4264 333.015C52.8922 332.728 52.3279 332.501 51.7437 332.338C50.6854 331.947 49.0345 331.417 47.0237 330.835C43.0127 329.65 37.4037 328.253 31.1492 327.068C25.8062 326.028 20.4119 325.272 14.9889 324.803C12.8723 324.623 11.2214 324.549 10.0572 324.528C9.44749 324.468 8.8327 324.482 8.22638 324.57Z" fill="#263238"/>
<path d="M73.1214 383.243C73.2479 383.074 73.3512 382.889 73.4283 382.692L74.2009 381.062C74.8676 379.634 75.7777 377.549 76.8678 374.967C79.0479 369.781 81.8312 362.532 84.805 354.499C87.7789 346.467 90.4881 339.185 92.5518 333.979L95.0282 327.798C95.2928 327.131 95.5045 326.571 95.6844 326.115C95.7777 325.925 95.842 325.722 95.8749 325.512C95.744 325.678 95.6404 325.864 95.568 326.063L94.7954 327.703C94.1287 329.121 93.2185 331.206 92.1285 333.799C89.9484 338.974 87.1651 346.223 84.1912 354.266C81.2174 362.309 78.5082 369.569 76.4445 374.787L73.968 380.988L73.3119 382.671C73.2187 382.85 73.1544 383.043 73.1214 383.243Z" fill="#263238"/>
<path d="M13.0522 363.907C13.2402 364.01 13.439 364.092 13.6449 364.151L15.3911 364.733L21.8256 366.849C27.2546 368.617 34.7263 371.083 42.9916 373.929C51.2569 376.776 58.7497 379.221 64.2211 380.829C66.9621 381.655 69.174 382.301 70.7191 382.713L72.497 383.179C72.7042 383.239 72.9169 383.278 73.132 383.295C72.9447 383.184 72.7412 383.101 72.5288 383.052L70.7932 382.47L64.3587 380.353C58.9296 378.586 51.458 376.12 43.1927 373.273C34.9273 370.426 27.4346 367.982 22.0266 366.384C19.2856 365.558 17.0738 364.913 15.5287 364.489L13.7613 364.055C13.5342 363.969 13.2949 363.919 13.0522 363.907Z" fill="#263238"/>
<path d="M251.71 387.762L134.238 387.222C127.455 387.188 120.963 384.463 116.188 379.645C111.414 374.826 108.747 368.31 108.776 361.526L110.067 67.0435C110.1 60.2575 112.827 53.7625 117.647 48.9859C122.467 44.2094 128.987 41.542 135.773 41.5702L253.244 42.1099C260.029 42.1407 266.524 44.8649 271.301 49.6835C276.078 54.502 278.746 61.0204 278.718 67.8055L277.469 362.288C277.456 365.646 276.783 368.968 275.486 372.066C274.19 375.163 272.296 377.975 269.913 380.34C267.53 382.706 264.704 384.578 261.597 385.852C258.49 387.125 255.163 387.774 251.805 387.762H251.71Z" fill="#263238"/>
<path d="M253.022 52.2801L230.258 52.1743C229.516 52.1853 228.784 52.3425 228.103 52.6369C227.422 52.9313 226.806 53.3571 226.29 53.8899C225.774 54.4227 225.368 55.052 225.096 55.7419C224.823 56.4318 224.689 57.1686 224.702 57.9103V62.0483C224.727 63.5481 224.157 64.9968 223.115 66.0763C222.073 67.1557 220.646 67.7776 219.146 67.8054L174.761 67.5937C173.263 67.5494 171.843 66.9151 170.81 65.829C169.777 64.7428 169.216 63.2927 169.247 61.7943V57.6669C169.284 56.1687 168.725 54.717 167.694 53.6299C166.662 52.5427 165.242 51.909 163.744 51.8674H155.732L135.805 51.7086C133.452 51.6989 131.12 52.1527 128.942 53.0441C126.765 53.9355 124.784 55.2471 123.114 56.904C121.443 58.5609 120.115 60.5306 119.206 62.7007C118.296 64.8707 117.823 67.1987 117.814 69.5516L116.596 356.986C116.596 361.73 118.47 366.283 121.81 369.652C125.149 373.021 129.685 374.935 134.429 374.977L251.657 375.517C256.408 375.534 260.971 373.664 264.345 370.319C267.718 366.973 269.626 362.425 269.648 357.674L270.865 70.2395C270.879 65.4922 269.007 60.9337 265.662 57.5659C262.316 54.1982 257.769 52.2969 253.022 52.2801Z" fill="white"/>
<path d="M226.395 194.431H150.896V267.158H226.395V194.431Z" fill="#00CF60"/>
<path d="M171.713 174.154L150.885 194.431H226.385L240.82 174.154H171.713Z" fill="#00CF60"/>
<path opacity="0.1" d="M171.713 174.154L150.885 194.431H226.385L240.82 174.154H171.713Z" fill="black"/>
<path d="M226.385 267.147L240.82 246.616V174.154L226.385 194.431V267.147Z" fill="#00CF60"/>
<path opacity="0.3" d="M226.385 267.147L240.82 246.616V174.154L226.385 194.431V267.147Z" fill="black"/>
<path d="M206.637 224.625H167.226V229.091H206.637V224.625Z" fill="#00CF60"/>
<path opacity="0.2" d="M206.637 224.625H167.226V229.091H206.637V224.625Z" fill="black"/>
<path d="M199.514 232.435H174.359V236.647H199.514V232.435Z" fill="#00CF60"/>
<path opacity="0.2" d="M199.514 232.435H174.359V236.647H199.514V232.435Z" fill="black"/>
<path d="M166.284 171.297C166.185 170.378 166.033 169.467 165.829 168.566C165.173 166.125 163.715 163.974 161.691 162.46C160.319 161.41 158.714 160.706 157.013 160.407C155.066 160.055 153.06 160.23 151.203 160.915C150.196 161.264 149.252 161.775 148.409 162.428C147.508 163.077 146.721 163.871 146.081 164.778C144.687 166.66 143.932 168.939 143.927 171.281C143.921 173.623 144.665 175.905 146.049 177.795C147.3 179.483 149.002 180.784 150.96 181.548C152.917 182.311 155.051 182.506 157.114 182.11C159.178 181.715 161.088 180.744 162.624 179.31C164.16 177.876 165.26 176.037 165.797 174.006C166.001 173.102 166.153 172.187 166.252 171.265C166.324 172.203 166.242 173.147 166.009 174.059C165.411 176.582 163.966 178.824 161.913 180.409C160.381 181.577 158.58 182.344 156.676 182.64C154.772 182.935 152.824 182.75 151.01 182.1C149.195 181.451 147.572 180.358 146.288 178.921C145.004 177.484 144.099 175.749 143.657 173.874C143.214 171.998 143.248 170.042 143.754 168.182C144.26 166.323 145.224 164.62 146.556 163.228C147.889 161.836 149.549 160.799 151.384 160.212C153.22 159.625 155.173 159.507 157.066 159.867C159.223 160.281 161.214 161.309 162.801 162.828C164.387 164.347 165.501 166.292 166.009 168.429C166.262 169.362 166.355 170.332 166.284 171.297Z" fill="#263238"/>
<path d="M149.901 169.73C149.901 168.143 150.79 167.085 152.102 167.085C153.415 167.085 154.304 168.143 154.304 169.73C154.304 171.318 153.394 172.376 152.102 172.376C151.481 172.341 150.899 172.06 150.484 171.596C150.069 171.131 149.856 170.521 149.891 169.9C149.889 169.843 149.892 169.786 149.901 169.73ZM153.605 169.73C153.605 168.461 153.002 167.709 152.102 167.709C151.203 167.709 150.6 168.471 150.6 169.73C150.6 170.99 151.182 171.741 152.102 171.741C153.023 171.741 153.605 170.99 153.605 169.73ZM157.997 167.148H158.823L152.166 176.895H151.34L157.997 167.148ZM155.881 174.323C155.881 172.736 156.791 171.678 158.082 171.678C159.373 171.678 160.283 172.736 160.283 174.323C160.283 175.911 159.394 176.969 158.082 176.969C156.77 176.969 155.87 175.911 155.87 174.323H155.881ZM159.585 174.323C159.585 173.064 159.003 172.302 158.082 172.302C157.161 172.302 156.579 173.054 156.579 174.323C156.579 175.593 157.182 176.334 158.082 176.334C158.981 176.334 159.574 175.53 159.574 174.323H159.585Z" fill="#263238"/>
<path d="M214.532 291.753C214.532 293.869 212.997 295.668 209.611 295.668C208.016 295.694 206.449 295.253 205.102 294.398L206.16 292.282C207.143 292.98 208.321 293.35 209.526 293.34C210.891 293.34 211.738 292.769 211.738 291.806C211.738 290.842 211.134 290.26 208.986 290.26H205.959L206.573 283.614H213.78V285.805H208.849L208.669 288.049H209.632C213.145 288.08 214.532 289.657 214.532 291.753Z" fill="#263238"/>
<path d="M215.643 289.551C215.643 285.646 217.812 283.434 220.712 283.434C223.612 283.434 225.781 285.646 225.781 289.551C225.781 293.456 223.665 295.668 220.712 295.668C217.759 295.668 215.643 293.456 215.643 289.551ZM223.051 289.551C223.051 286.863 222.109 285.752 220.733 285.752C219.358 285.752 218.437 286.863 218.437 289.551C218.437 292.239 219.389 293.351 220.733 293.351C222.077 293.351 223.03 292.239 223.03 289.551H223.051Z" fill="#263238"/>
<path d="M232.83 286.228C232.895 286.844 232.715 287.46 232.329 287.944C231.942 288.427 231.381 288.739 230.766 288.81C230.636 288.821 230.505 288.821 230.374 288.81C229.91 288.814 229.451 288.701 229.041 288.482L229.454 287.667C229.728 287.833 230.044 287.914 230.364 287.9C230.702 287.921 231.034 287.806 231.288 287.582C231.542 287.358 231.697 287.042 231.718 286.704C231.729 286.638 231.729 286.57 231.718 286.503C231.386 286.797 230.955 286.952 230.512 286.937C230.11 286.97 229.711 286.842 229.402 286.583C229.093 286.323 228.899 285.953 228.861 285.551V285.434C228.865 285.217 228.912 285.003 229 284.804C229.088 284.605 229.214 284.426 229.371 284.276C229.529 284.126 229.715 284.01 229.918 283.932C230.121 283.855 230.337 283.819 230.554 283.826H230.713C232.047 283.847 232.83 284.683 232.83 286.228ZM231.591 285.392C231.586 285.197 231.504 285.011 231.364 284.874C231.224 284.738 231.036 284.662 230.84 284.662H230.713C230.53 284.638 230.344 284.685 230.194 284.793C230.043 284.901 229.94 285.061 229.903 285.243C229.867 285.424 229.901 285.613 229.998 285.77C230.095 285.927 230.249 286.042 230.427 286.091H230.713C230.906 286.122 231.104 286.076 231.264 285.963C231.424 285.85 231.534 285.68 231.57 285.487V285.371L231.591 285.392Z" fill="#263238"/>
<path d="M237.243 286.228C237.308 286.844 237.128 287.46 236.742 287.944C236.355 288.427 235.794 288.739 235.179 288.81C235.049 288.821 234.918 288.821 234.788 288.81C234.323 288.814 233.864 288.701 233.454 288.482L233.888 287.71C234.157 287.877 234.471 287.958 234.788 287.943C234.953 287.956 235.119 287.936 235.277 287.884C235.435 287.833 235.581 287.751 235.707 287.642C235.833 287.534 235.936 287.402 236.011 287.254C236.085 287.106 236.13 286.944 236.142 286.779C236.153 286.705 236.153 286.63 236.142 286.556C235.982 286.705 235.793 286.819 235.588 286.894C235.383 286.968 235.164 287.001 234.946 286.99C234.541 287.023 234.14 286.894 233.829 286.633C233.518 286.371 233.322 285.998 233.285 285.593V285.487C233.289 285.27 233.336 285.056 233.424 284.857C233.511 284.658 233.637 284.479 233.795 284.329C233.953 284.179 234.138 284.063 234.341 283.985C234.544 283.908 234.761 283.872 234.978 283.879H235.116C236.428 283.847 237.243 284.683 237.243 286.228ZM235.994 285.392C235.988 285.197 235.907 285.011 235.767 284.875C235.626 284.738 235.438 284.662 235.243 284.662H235.158C235.063 284.661 234.969 284.678 234.881 284.714C234.793 284.749 234.713 284.802 234.646 284.87C234.579 284.937 234.526 285.017 234.49 285.105C234.454 285.192 234.437 285.287 234.438 285.382C234.441 285.572 234.518 285.753 234.652 285.887C234.786 286.022 234.968 286.099 235.158 286.101C235.35 286.129 235.545 286.08 235.701 285.965C235.858 285.85 235.963 285.679 235.994 285.487V285.392Z" fill="#263238"/>
<path d="M237.2 290.472H228.755V291.541H237.2V290.472Z" fill="#263238"/>
<path d="M189.175 287.107H145.573V288.461H189.175V287.107Z" fill="#263238"/>
<path d="M172.041 291.425H145.573V292.779H172.041V291.425Z" fill="#263238"/>
<path d="M239.381 347.271L152.208 346.869C151.309 346.869 150.578 345.874 150.589 344.668L150.684 321.861C150.684 320.655 151.425 319.681 152.325 319.681L239.497 320.094C240.397 320.094 241.127 321.078 241.127 322.285L241.032 345.091C241.021 346.297 240.291 347.271 239.381 347.271Z" fill="#493FCF"/>
<path d="M192.244 334.497C192.244 335.661 191.418 336.318 189.789 336.307H186.783V329.481H189.609C191.059 329.481 191.895 330.137 191.895 331.248C191.905 331.585 191.808 331.916 191.618 332.194C191.427 332.471 191.154 332.681 190.836 332.793C191.244 332.844 191.617 333.049 191.879 333.365C192.141 333.682 192.271 334.087 192.244 334.497ZM191.556 334.423C191.556 333.534 190.942 333.143 189.789 333.143H187.481V335.704H189.789C190.932 335.725 191.556 335.333 191.556 334.423ZM187.492 330.031V332.508H189.609C190.667 332.508 191.26 332.095 191.27 331.28C191.281 330.465 190.667 330.042 189.619 330.031H187.492Z" fill="white"/>
<path d="M193.778 333.365V329.46H194.466V333.365C194.466 334.984 195.186 335.725 196.456 335.735C197.726 335.746 198.467 335.005 198.467 333.386V329.502H199.133V333.418C199.133 335.376 198.075 336.381 196.445 336.381C194.815 336.381 193.768 335.333 193.778 333.365Z" fill="white"/>
<path d="M203.367 334.011V336.392H202.689V334.032L200.096 329.555H200.827L203.06 333.397L205.314 329.576H206.002L203.367 334.011Z" fill="white"/>
<path d="M167.278 116.106H134.323V132.933H167.278V116.106Z" fill="#00CF60"/>
<path d="M141.435 110.212L134.323 116.096H167.278L172.136 110.212H141.435Z" fill="#00CF60"/>
<path opacity="0.2" d="M141.435 110.212L134.323 116.096H167.278L172.136 110.212H141.435Z" fill="black"/>
<path d="M167.279 132.933L172.136 126.52V110.212L167.279 116.096V132.933Z" fill="#00CF60"/>
<path opacity="0.1" d="M167.279 132.933L172.136 126.52V110.212L167.279 116.096V132.933Z" fill="black"/>
<path d="M161.669 121.578H139.202V123.313H161.669V121.578Z" fill="#00CF60"/>
<path opacity="0.1" d="M161.669 121.578H139.202V123.313H161.669V121.578Z" fill="black"/>
<path d="M157.595 124.71H143.647V126.446H157.595V124.71Z" fill="#00CF60"/>
<path opacity="0.1" d="M157.595 124.71H143.647V126.446H157.595V124.71Z" fill="black"/>
<path d="M158.664 142.003H143.647V144.299H158.664V142.003Z" fill="#263238"/>
<path d="M134.323 116.106C134.851 116.023 135.386 115.988 135.921 116L140.271 115.905C143.943 115.905 149.023 115.831 154.621 115.831L167.321 115.895L167.152 115.969L170.771 111.736C171.195 111.191 171.666 110.685 172.178 110.222C171.817 110.81 171.41 111.37 170.961 111.894L167.448 116.265L167.384 116.339H167.278L154.579 116.403C148.98 116.403 143.901 116.403 140.228 116.318L135.879 116.233C135.357 116.244 134.836 116.201 134.323 116.106Z" fill="#00CF60"/>
<g opacity="0.2">
<path d="M134.323 116.106C134.851 116.023 135.386 115.988 135.921 116L140.271 115.905C143.943 115.905 149.023 115.831 154.621 115.831L167.321 115.895L167.152 115.969L170.771 111.736C171.195 111.191 171.666 110.685 172.178 110.222C171.817 110.81 171.41 111.37 170.961 111.894L167.448 116.265L167.384 116.339H167.278L154.579 116.403C148.98 116.403 143.901 116.403 140.228 116.318L135.879 116.233C135.357 116.244 134.836 116.201 134.323 116.106Z" fill="black"/>
</g>
<path d="M167.278 132.933C167 130.12 166.908 127.292 167.003 124.467C166.904 121.642 166.996 118.813 167.278 116C167.564 118.813 167.66 121.642 167.564 124.467C167.662 127.292 167.566 130.121 167.278 132.933Z" fill="#00CF60"/>
<g opacity="0.2">
<path d="M167.278 132.933C167 130.12 166.908 127.292 167.003 124.467C166.904 121.642 166.996 118.813 167.278 116C167.564 118.813 167.66 121.642 167.564 124.467C167.662 127.292 167.566 130.121 167.278 132.933Z" fill="black"/>
</g>
<path d="M205.674 142.003H190.656V144.299H205.674V142.003Z" fill="#263238"/>
<path d="M185.898 106.764L185.68 132.819L209.311 133.017L209.529 106.962L185.898 106.764Z" fill="#493FCF"/>
<path d="M192.773 101.512L185.799 106.867H209.431L214.288 101.512H192.773Z" fill="#493FCF"/>
<path d="M209.431 132.933L214.288 126.52V101.512L209.431 106.867V132.933Z" fill="#493FCF"/>
<path d="M202.869 117.408H190.921V119.144H202.869V117.408Z" fill="#00CF60"/>
<path opacity="0.2" d="M202.869 117.408H190.921V119.144H202.869V117.408Z" fill="black"/>
<path d="M200.71 120.551H193.292V122.287H200.71V120.551Z" fill="#00CF60"/>
<path opacity="0.2" d="M200.71 120.551H193.292V122.287H200.71V120.551Z" fill="black"/>
<path d="M185.799 106.889C186.199 106.806 186.607 106.77 187.016 106.783L190.318 106.687C193.112 106.687 196.964 106.603 201.229 106.603H209.431L209.251 106.677C210.732 105.079 211.971 103.767 212.849 102.856C213.278 102.348 213.761 101.886 214.288 101.481C213.924 102.037 213.514 102.561 213.061 103.047C212.235 104.01 211.05 105.365 209.611 106.994L209.536 107.079H201.229C196.996 107.079 193.112 107.079 190.318 106.994L187.016 106.91C186.611 106.945 186.203 106.938 185.799 106.889Z" fill="#00CF60"/>
<g opacity="0.3">
<path d="M185.799 106.889C186.199 106.806 186.607 106.77 187.016 106.783L190.318 106.687C193.112 106.687 196.964 106.603 201.229 106.603H209.431L209.251 106.677C210.732 105.079 211.971 103.767 212.849 102.856C213.278 102.348 213.761 101.886 214.288 101.481C213.924 102.037 213.514 102.561 213.061 103.047C212.235 104.01 211.05 105.365 209.611 106.994L209.536 107.079H201.229C196.996 107.079 193.112 107.079 190.318 106.994L187.016 106.91C186.611 106.945 186.203 106.938 185.799 106.889Z" fill="black"/>
</g>
<path d="M209.431 132.933C209.272 132.933 209.145 127.102 209.145 119.906C209.145 112.709 209.272 106.878 209.431 106.878C209.589 106.878 209.716 112.709 209.716 119.906C209.716 127.102 209.547 132.933 209.431 132.933Z" fill="#00CF60"/>
<g opacity="0.3">
<path d="M209.431 132.933C209.272 132.933 209.145 127.102 209.145 119.906C209.145 112.709 209.272 106.878 209.431 106.878C209.589 106.878 209.716 112.709 209.716 119.906C209.716 127.102 209.547 132.933 209.431 132.933Z" fill="#493FCF"/>
</g>
<path d="M247.519 142.003H232.502V144.299H247.519V142.003Z" fill="#263238"/>
<path d="M229.284 116.54C230.511 116.362 231.75 116.295 232.988 116.339C235.285 116.339 238.449 116.254 241.952 116.254C245.053 116.254 247.9 116.254 250.059 116.318L249.9 116.392C250.863 115.334 251.646 114.551 252.207 113.99C252.469 113.672 252.775 113.394 253.117 113.164C252.915 113.521 252.67 113.851 252.387 114.148C251.89 114.762 251.149 115.63 250.27 116.678L250.207 116.752H250.101C247.985 116.752 245.095 116.815 241.995 116.815C238.492 116.815 235.327 116.815 233.031 116.731C231.779 116.763 230.526 116.699 229.284 116.54Z" fill="#00CF60"/>
<path d="M250.069 116.54H229.284V132.944H250.069V116.54Z" fill="#00CF60"/>
<path opacity="0.2" d="M250.069 116.54H229.284V132.944H250.069V116.54Z" fill="black"/>
<path d="M233.676 113.154L229.284 116.53H250.069L253.117 113.154H233.676Z" fill="#00CF60"/>
<path d="M250.069 132.933L253.117 128.901V113.154L250.069 116.53V132.933Z" fill="#00CF60"/>
<path opacity="0.1" d="M250.069 132.933L253.117 128.901V113.154L250.069 116.53V132.933Z" fill="black"/>
<path d="M244.683 122.795H235.169V124.065H244.683V122.795Z" fill="#00CF60"/>
<path d="M242.958 125.102H237.052V126.372H242.958V125.102Z" fill="#00CF60"/>
<path d="M250.069 132.933C249.777 130.21 249.674 127.469 249.762 124.731C249.667 121.998 249.762 119.261 250.048 116.54C250.32 119.262 250.412 121.998 250.323 124.731C250.419 127.468 250.334 130.208 250.069 132.933Z" fill="#00CF60"/>
<path d="M279.734 37.5062L277.575 41.4431L273.638 43.5915L277.575 45.7504L279.734 49.6767L281.882 45.7504L285.819 43.5915L281.882 41.4431L279.734 37.5062Z" fill="#493FCF"/>
<path d="M95.6209 138.775L93.462 142.701L89.5251 144.86L93.462 147.009L95.6209 150.945L97.7693 147.009L101.706 144.86L97.7693 142.701L95.6209 138.775Z" fill="#493FCF"/>
<path d="M295.418 54.2062L294.095 56.6085L291.682 57.9314L294.095 59.2543L295.418 61.6778L296.751 59.2543L299.164 57.9314L296.751 56.6085L295.418 54.2062Z" fill="#493FCF"/>
<path d="M83.8103 116.149L82.4874 118.561L80.0745 119.884L82.4874 121.207L83.8103 123.62L85.1332 121.207L87.5461 119.884L85.1332 118.561L83.8103 116.149Z" fill="#493FCF"/>
<path d="M382.78 391.423L374.991 385.296L386.368 370.638L397.851 379.475L397.205 380.428C394.295 384.661 382.092 401.678 379.214 403.71C375.912 406.092 382.78 391.423 382.78 391.423Z" fill="#00CF60"/>
<path d="M378.187 403.573C378.05 403.467 382.23 397.921 387.522 391.191C392.813 384.46 397.216 379.094 397.353 379.2C397.491 379.306 393.31 384.851 388.019 391.582C382.727 398.313 378.325 403.679 378.187 403.573Z" fill="#263238"/>
<path d="M384.167 392.968C384.167 393.138 383.627 393.201 383.034 393.201C382.442 393.201 381.923 393.117 381.902 392.947C381.881 392.778 382.378 392.556 383.034 392.566C383.69 392.577 384.167 392.799 384.167 392.968Z" fill="#263238"/>
<path d="M383.944 394.302C383.892 394.471 383.331 394.461 382.675 394.365C382.018 394.27 381.468 394.143 381.468 393.974C381.468 393.805 382.05 393.646 382.759 393.741C383.468 393.836 383.997 394.133 383.944 394.302Z" fill="#263238"/>
<path d="M393.84 383.55C393.755 383.55 393.575 383.243 393.363 382.671C393.079 381.906 392.94 381.095 392.951 380.279C392.96 379.426 393.267 378.602 393.818 377.951C394.252 377.464 394.655 377.348 394.697 377.422C394.739 377.496 394.464 377.74 394.178 378.216C393.802 378.859 393.598 379.588 393.586 380.332C393.588 381.089 393.659 381.843 393.797 382.587C393.893 383.105 393.924 383.528 393.84 383.55Z" fill="#263238"/>
<path d="M382.664 391.857C382.6 391.699 382.918 391.413 383.331 391.148C383.743 390.884 384.146 390.714 384.262 390.841C384.378 390.968 384.146 391.381 383.68 391.688C383.214 391.995 382.727 392.027 382.664 391.857Z" fill="#263238"/>
<path d="M382.05 391.042C381.923 390.915 382.124 390.439 382.495 389.984C382.865 389.529 383.299 389.211 383.447 389.317C383.595 389.423 383.384 389.889 382.992 390.376C382.6 390.862 382.219 391.159 382.05 391.042Z" fill="#263238"/>
<path d="M331.178 265.486C331.178 265.486 307.895 327.227 311.07 338.762C314.245 350.298 376.875 396.101 376.875 396.101L393.882 371.612C393.882 371.612 345.01 332.931 344.851 330.804C344.692 328.677 364.26 277.37 364.26 277.37L331.178 265.486Z" fill="#493FCF"/>
<path d="M375.796 377.274L375.573 377.157C375.415 377.041 375.213 376.914 374.959 376.755L372.631 375.157C370.631 373.75 367.731 371.697 364.165 369.093C357.117 363.886 347.539 356.457 337.379 347.758C334.839 345.578 332.373 343.429 329.971 341.344L326.51 338.244C325.329 337.294 324.319 336.149 323.526 334.857C322.873 333.526 322.719 332.006 323.092 330.571C323.357 329.206 323.706 327.925 324.034 326.666C324.701 324.179 325.368 321.872 325.971 319.766L328.87 309.807C329.188 308.664 329.442 307.754 329.632 307.087L329.823 306.378C329.791 306.366 329.765 306.344 329.747 306.316C329.73 306.287 329.723 306.253 329.728 306.219C329.731 306.202 329.738 306.186 329.749 306.172C329.759 306.158 329.772 306.146 329.786 306.137C329.801 306.129 329.818 306.123 329.835 306.12C329.852 306.118 329.87 306.119 329.886 306.124C329.904 306.126 329.921 306.132 329.936 306.142C329.952 306.152 329.964 306.165 329.973 306.18C329.983 306.195 329.988 306.213 329.99 306.23C329.991 306.248 329.988 306.266 329.982 306.283C329.974 306.305 329.962 306.325 329.946 306.342C329.929 306.359 329.909 306.371 329.886 306.378C329.857 306.622 329.808 306.863 329.738 307.098C329.601 307.722 329.389 308.654 329.082 309.839C328.479 312.22 327.537 315.638 326.362 319.861C325.78 321.978 325.135 324.274 324.489 326.772C324.172 328.01 323.833 329.312 323.579 330.634C323.242 331.961 323.388 333.364 323.992 334.592C324.77 335.802 325.743 336.875 326.87 337.767L330.342 340.847C332.702 342.964 335.167 345.08 337.75 347.25C347.899 355.938 357.423 363.41 364.408 368.691L372.726 374.903L374.991 376.586L375.573 377.03C375.7 377.21 375.806 377.274 375.796 377.274Z" fill="#455A64"/>
<path d="M370.123 384.735C369.996 384.64 373.224 380.184 377.33 374.787C381.436 369.39 384.876 365.082 385.003 365.178C385.13 365.273 381.891 369.728 377.785 375.136C373.679 380.544 370.25 384.83 370.123 384.735Z" fill="#455A64"/>
<path d="M372.218 148.078C374.335 152.226 375.393 155.824 379.5 157.962C381.352 158.936 383.616 159.486 384.791 161.243C386.008 163.169 385.437 165.952 386.971 167.593C389.215 170.037 393.787 168.058 396.295 170.207C398.538 172.133 397.819 176.26 400.242 177.953C401.597 178.917 403.417 178.705 405.005 179.298C407.545 180.282 408.751 183.213 409.079 185.912C409.428 188.078 409.152 190.299 408.285 192.315C407.842 193.314 407.153 194.186 406.284 194.85C405.415 195.514 404.393 195.949 403.311 196.114C400.422 196.421 397.163 194.431 394.845 196.114C394.092 196.812 393.436 197.61 392.898 198.485C391.703 199.998 389.958 200.976 388.043 201.205C386.128 201.433 384.202 200.892 382.685 199.702C382.011 199.157 381.438 198.497 380.992 197.754C379.383 195.066 379.489 191.404 377.129 189.288C375.791 188.345 374.292 187.657 372.705 187.256C371.171 186.684 369.583 185.732 369.128 184.166C368.599 182.78 367.849 181.49 366.906 180.345C365.731 178.588 364.165 180.737 362.599 179.869C361.032 179.001 361.635 177.308 361.54 175.53" fill="#263238"/>
<path d="M344.84 208.062L324.733 201.342C324.733 201.342 315.853 226.91 313.091 227.164C298.021 228.54 281.893 223.534 276.241 221.566C275.659 220.92 275.003 220.148 274.273 219.195C273.653 218.378 273.173 217.462 272.855 216.486C272.419 215.287 272.149 214.033 272.05 212.761C272.076 212.517 272.025 212.27 271.903 212.057C271.782 211.843 271.597 211.673 271.374 211.57C271.151 211.467 270.901 211.437 270.66 211.484C270.418 211.53 270.198 211.651 270.029 211.83C269.383 212.676 269.214 215.904 270.696 219.386C272.177 222.868 266.918 220.095 264.981 219.121C263.044 218.148 256.917 215.417 256.144 215.777C255.012 216.306 255.371 217.608 257.329 218.539C259.287 219.471 264.96 222.656 264.388 223.651C263.817 224.646 254.049 219.545 254.049 219.545C254.049 219.545 252.123 218.127 251.435 219.259C250.196 221.301 260.959 225.937 262.018 226.35C262.748 226.646 262.176 227.747 261.414 227.408C260.652 227.069 251.89 222.116 250.577 224.233C249.583 225.82 259.425 228.138 260.695 230.181C261.965 232.223 253.414 227.672 252.535 229.228C252.207 229.8 252.038 230.286 257.329 232.191C261.209 233.394 265.147 234.397 269.129 235.197C269.129 235.197 321.981 258.839 333.389 236.054C345.454 211.851 344.84 208.062 344.84 208.062Z" fill="#E5BAAB"/>
<path d="M364.705 186.885L373.478 187.044L380.442 207.014L374.769 229.895C373.108 236.573 380.643 250.003 380.442 257.326L331.252 265.295L330.193 232.435V231.376L313.165 222.91L318.785 209.152C327.431 188.896 342.533 187.669 342.533 187.669L364.705 186.885Z" fill="#00CF60"/>
<g opacity="0.2">
<path d="M364.705 186.885L373.478 187.044L380.442 207.014L374.769 229.895C373.108 236.573 380.643 250.003 380.442 257.326L331.252 265.295L330.193 232.435V231.376L313.165 222.91L318.785 209.152C327.431 188.896 342.533 187.669 342.533 187.669L364.705 186.885Z" fill="white"/>
</g>
<path d="M373.838 187.097C373.734 187.109 373.635 187.149 373.552 187.214C373.266 187.309 372.98 187.383 372.695 187.457C371.569 187.655 370.43 187.768 369.287 187.796L369.393 187.595L372.748 193.045L372.98 193.405L372.547 193.331C370.604 192.992 368.623 192.928 366.662 193.14L366.863 192.886C366.937 195.123 367.256 197.344 367.816 199.511L367.964 199.956L367.498 199.85C365.266 199.367 363.111 198.577 361.096 197.5L361.508 197.32C361.106 199.289 360.694 201.352 360.27 203.459L360.175 203.914L359.815 203.628C358.928 202.92 358.083 202.16 357.286 201.352C356.504 200.56 355.766 199.727 355.074 198.855H355.476L349.846 203.289L349.497 203.564L349.402 203.13C348.999 201.173 348.618 199.268 348.248 197.447L348.587 197.638L342.565 199.754L342.152 199.903L342.269 199.479C342.904 197.077 343.486 194.897 344.015 192.96L344.163 193.193L338.935 192.293H338.723L338.84 192.114L341.126 188.769L341.739 187.912C341.877 187.722 341.962 187.626 341.972 187.637C341.926 187.748 341.869 187.854 341.803 187.954L341.253 188.843L339.083 192.262L338.988 192.05L344.226 192.844H344.438V193.055L342.766 199.596L342.47 199.31L348.46 197.193L348.745 197.088L348.809 197.384L349.994 203.067L349.55 202.908L355.169 198.453L355.392 198.273L355.571 198.495C356.231 199.328 356.938 200.123 357.688 200.876C358.473 201.664 359.3 202.41 360.164 203.109L359.72 203.279C360.143 201.162 360.567 199.109 360.969 197.14L361.043 196.759L361.382 196.961C363.347 198.013 365.448 198.79 367.625 199.268L367.319 199.596C366.763 197.393 366.458 195.136 366.408 192.865V192.632H366.641C368.647 192.423 370.673 192.513 372.652 192.897L372.451 193.193C371.171 191.076 370.081 189.171 369.192 187.679L369.086 187.489H369.298C370.433 187.492 371.568 187.422 372.695 187.277C373.071 187.192 373.453 187.132 373.838 187.097Z" fill="#455A64"/>
<path d="M383.553 195.489C383.212 195.338 382.857 195.218 382.495 195.13C381.475 194.86 380.403 194.86 379.383 195.13L379.468 195.013C379.669 196.177 379.986 197.574 380.42 199.172C380.854 200.77 381.383 202.58 381.86 204.623L381.934 204.919L381.627 204.834C379.119 204.104 376.166 203.554 373.065 202.506L373.351 202.273C373.679 205.289 373.658 208.623 373.838 212.221V212.528H373.52C370.694 212.033 367.915 211.3 365.213 210.337C364.874 210.242 364.482 210.105 364.387 210.253C364.175 210.508 364.017 210.803 363.921 211.121L363.043 213.237C362.461 214.666 361.858 216.116 361.254 217.576L361.075 218.021L360.778 217.65L355.148 210.666L354.725 210.147H355.106L346.068 216.317L345.772 216.518L345.645 216.179C344.586 213.237 343.634 210.401 342.681 207.649L343.083 207.787C339.919 209.837 336.541 211.537 333.008 212.856L332.638 213.004V212.57C333.284 207.988 333.866 203.871 334.363 200.315L334.628 200.516C332.055 201.533 329.293 201.977 326.532 201.818H326.352L326.415 201.649L328.31 196.548C328.532 196.008 328.691 195.574 328.818 195.246C328.867 195.094 328.935 194.948 329.019 194.812C328.986 194.966 328.944 195.118 328.892 195.267C328.775 195.606 328.627 196.04 328.447 196.601C328.024 197.807 327.389 199.532 326.659 201.744L326.542 201.564C329.256 201.668 331.961 201.195 334.479 200.178L334.786 200.051V200.379C334.31 203.945 333.728 208.052 333.157 212.645L332.829 212.391C336.317 211.062 339.652 209.362 342.777 207.321L343.062 207.141L343.179 207.459L346.163 215.925L345.74 215.798L354.788 209.565L355.011 209.417L355.169 209.618L355.593 210.136L361.212 217.132L360.736 217.195L362.535 212.856L363.413 210.74C363.538 210.339 363.76 209.975 364.059 209.681C364.166 209.586 364.298 209.524 364.44 209.501H364.8C364.999 209.533 365.194 209.586 365.382 209.66C368.059 210.615 370.809 211.351 373.605 211.861L373.309 212.126C373.15 208.549 373.182 205.194 372.885 202.199V201.85L373.213 201.966C376.282 203.025 379.214 203.607 381.743 204.369L381.51 204.58C381.066 202.559 380.547 200.749 380.145 199.13C379.743 197.511 379.447 196.114 379.267 194.897V194.802H379.362C380.414 194.559 381.512 194.611 382.537 194.95C382.899 195.083 383.24 195.264 383.553 195.489Z" fill="#455A64"/>
<path d="M330.469 231.091C330.082 230.977 329.722 230.786 329.41 230.53C328.513 229.898 327.742 229.105 327.135 228.191C326.242 226.795 325.836 225.143 325.981 223.492C326.048 221.693 326.581 219.942 327.527 218.409C328.473 216.877 329.8 215.617 331.379 214.751L331.231 214.962C331.633 211.946 332.003 209.353 332.289 207.554C332.394 206.572 332.574 205.599 332.829 204.644C332.837 205.636 332.766 206.627 332.617 207.607C332.437 209.448 332.13 212.052 331.76 215.079V215.206L331.622 215.28C330.147 216.126 328.907 217.327 328.014 218.774C327.121 220.221 326.604 221.868 326.51 223.566C326.351 225.117 326.692 226.679 327.484 228.022C328.047 228.931 328.763 229.737 329.601 230.403C329.904 230.614 330.194 230.844 330.469 231.091Z" fill="#455A64"/>
<path d="M332.31 208.919C332.172 208.993 331.686 208.284 331.252 207.353C330.818 206.422 330.532 205.607 330.68 205.533C330.828 205.459 331.305 206.168 331.738 207.11C332.172 208.052 332.469 208.856 332.31 208.919Z" fill="#455A64"/>
<path d="M364.112 187.171L365.625 152.597L351.867 142.193L339.39 148.289C339.39 148.289 338.967 163.963 339.39 170.768C339.813 177.572 346.661 178.282 346.661 178.282C346.661 178.282 346.502 182.271 346.343 186.452C346.251 188.794 347.09 191.077 348.677 192.802C350.263 194.527 352.468 195.554 354.81 195.659H355.254C357.539 195.656 359.735 194.772 361.384 193.191C363.034 191.61 364.011 189.454 364.112 187.171Z" fill="#F5C0A2"/>
<path d="M340.776 159.719C340.776 159.952 340.869 160.175 341.034 160.34C341.198 160.505 341.422 160.597 341.655 160.597C341.888 160.597 342.111 160.505 342.276 160.34C342.441 160.175 342.533 159.952 342.533 159.719C342.536 159.603 342.516 159.488 342.473 159.38C342.431 159.273 342.367 159.174 342.287 159.092C342.206 159.009 342.109 158.943 342.002 158.898C341.896 158.853 341.781 158.83 341.665 158.83C341.435 158.83 341.214 158.921 341.052 159.084C340.889 159.247 340.798 159.468 340.798 159.698L340.776 159.719Z" fill="#263238"/>
<path d="M339.93 158.745C340.036 158.862 340.681 158.311 341.612 158.258C342.544 158.206 343.253 158.661 343.359 158.534C343.464 158.407 343.285 158.28 342.978 158.068C342.565 157.794 342.075 157.661 341.581 157.69C341.086 157.719 340.615 157.907 340.237 158.227C339.961 158.502 339.866 158.745 339.93 158.745Z" fill="#263238"/>
<path d="M350.851 159.719C350.851 159.891 350.902 160.058 350.998 160.201C351.093 160.344 351.229 160.455 351.387 160.521C351.546 160.586 351.72 160.603 351.889 160.57C352.057 160.537 352.211 160.454 352.333 160.333C352.454 160.211 352.537 160.057 352.57 159.888C352.604 159.72 352.587 159.545 352.521 159.387C352.455 159.228 352.344 159.093 352.201 158.997C352.059 158.902 351.891 158.851 351.719 158.851C351.489 158.851 351.268 158.943 351.106 159.105C350.943 159.268 350.851 159.489 350.851 159.719Z" fill="#263238"/>
<path d="M350.301 158.745C350.407 158.862 351.052 158.311 351.994 158.258C352.936 158.206 353.624 158.661 353.73 158.534C353.836 158.407 353.656 158.28 353.349 158.068C352.937 157.794 352.446 157.661 351.952 157.69C351.458 157.719 350.986 157.907 350.608 158.227C350.519 158.282 350.444 158.358 350.39 158.448C350.337 158.538 350.306 158.64 350.301 158.745Z" fill="#263238"/>
<path d="M350.026 167.561C348.595 168.288 347.071 168.815 345.496 169.127C345.843 169.596 346.336 169.937 346.897 170.096C347.458 170.255 348.056 170.223 348.597 170.006C348.847 169.948 349.083 169.842 349.291 169.693C349.5 169.545 349.677 169.356 349.813 169.139C349.948 168.922 350.04 168.68 350.082 168.427C350.124 168.175 350.116 167.916 350.058 167.667L350.026 167.561Z" fill="white"/>
<path d="M346.671 178.281C349.9 178.143 353.024 177.089 355.677 175.244C355.677 175.244 353.635 180.239 346.819 179.954L346.671 178.281Z" fill="#D78776"/>
<path d="M385.405 172.133C384.548 172.16 383.699 171.967 382.939 171.572C381.818 170.971 380.887 170.069 380.251 168.968C379.462 167.591 378.789 166.15 378.24 164.661C376.97 161.486 376.018 158.576 375.362 156.438C375.266 156.099 375.171 155.793 375.086 155.496C375.002 155.2 374.97 154.808 374.907 154.565C371.192 140.394 358.767 137.749 356.27 137.749C353.772 137.749 349.01 136.299 342.269 143.294C341.248 144.342 340.385 145.533 339.707 146.829C338.222 148.681 337.192 150.856 336.702 153.179C336.395 154.303 336.341 155.481 336.543 156.629C336.67 156.629 336.691 155.337 337.22 153.369C337.538 152.211 337.978 151.09 338.533 150.025C337.942 152.643 338.182 155.381 339.221 157.856L341.634 157.19L350.29 154.247C349.507 151.559 350.661 148.236 351.349 146.681L351.412 146.628C351.911 149.443 353.287 152.029 355.343 154.015C357.4 156.001 360.032 157.287 362.863 157.687L364.461 179.911C375.965 177.456 375.7 162.058 375.626 158.925C376.155 160.692 376.833 162.714 377.679 164.841C378.243 166.366 378.951 167.833 379.796 169.222C380.515 170.39 381.555 171.327 382.791 171.921C383.627 172.308 384.557 172.444 385.468 172.313C385.805 172.274 386.125 172.15 386.4 171.953C386.073 172.039 385.741 172.1 385.405 172.133Z" fill="#263238"/>
<path d="M346.925 166.683C346.428 166.55 345.915 166.486 345.401 166.492C345.158 166.492 344.925 166.492 344.872 166.27C344.842 166.008 344.89 165.743 345.01 165.508L345.645 163.571C346.1 162.185 346.481 160.925 346.703 160.015C346.881 159.531 346.999 159.026 347.052 158.512C346.787 158.955 346.584 159.432 346.449 159.931C346.131 160.83 345.708 162.047 345.253 163.455C345.041 164.132 344.84 164.788 344.639 165.402C344.5 165.707 344.47 166.051 344.554 166.376C344.587 166.46 344.64 166.535 344.708 166.594C344.776 166.653 344.858 166.694 344.946 166.714C345.083 166.736 345.222 166.736 345.359 166.714C345.88 166.767 346.406 166.757 346.925 166.683Z" fill="#263238"/>
<path d="M366.345 166.397C366.239 165.265 366.365 164.124 366.715 163.042C366.896 162.503 367.218 162.021 367.648 161.649C368.078 161.277 368.6 161.027 369.16 160.925C369.812 160.898 370.451 161.11 370.958 161.522C371.465 161.933 371.804 162.515 371.912 163.158C371.989 163.808 371.872 164.466 371.574 165.048C371.276 165.631 370.812 166.111 370.239 166.429C369.658 166.73 369.017 166.896 368.363 166.914C367.708 166.933 367.058 166.803 366.461 166.534" fill="#E5BAAB"/>
<path d="M368.292 165.402C368.292 165.328 368.663 165.497 369.149 165.402C369.453 165.301 369.718 165.109 369.908 164.851C370.097 164.593 370.202 164.283 370.208 163.963C370.233 163.802 370.224 163.639 370.182 163.482C370.14 163.325 370.066 163.179 369.964 163.053C369.862 162.968 369.744 162.905 369.616 162.866C369.489 162.828 369.356 162.816 369.224 162.83C368.716 162.883 368.356 163.01 368.324 162.925C368.292 162.841 368.557 162.608 369.16 162.439C369.355 162.388 369.559 162.381 369.757 162.42C369.955 162.458 370.141 162.541 370.303 162.661C370.482 162.829 370.619 163.038 370.7 163.27C370.781 163.503 370.804 163.751 370.769 163.994C370.745 164.462 370.566 164.909 370.261 165.264C370.006 165.558 369.652 165.747 369.266 165.794C368.578 165.815 368.292 165.444 368.292 165.402Z" fill="#D78776"/>
<path d="M357.91 435.682V425.776L376.473 425.659L376.621 440.148L375.478 440.232C370.356 440.55 349.423 441.481 345.994 440.465C342.173 439.333 357.91 435.682 357.91 435.682Z" fill="#00CF60"/>
<path d="M345.56 439.555C345.56 439.385 352.502 439.237 361.064 439.237C369.626 439.237 376.558 439.385 376.558 439.555C376.558 439.724 369.626 439.872 361.064 439.872C352.502 439.872 345.56 439.735 345.56 439.555Z" fill="#263238"/>
<path d="M357.593 437.703C357.434 437.788 357.074 437.428 356.704 436.952C356.333 436.475 356.09 436.041 356.206 435.893C356.323 435.745 356.81 436.031 357.212 436.549C357.614 437.068 357.709 437.618 357.593 437.703Z" fill="#263238"/>
<path d="M356.408 438.359C356.238 438.423 355.91 437.967 355.571 437.396C355.233 436.824 355 436.338 355.138 436.2C355.275 436.063 355.751 436.454 356.111 437.079C356.471 437.703 356.566 438.296 356.408 438.359Z" fill="#263238"/>
<path d="M370.97 439.491C370.906 439.491 371.054 439.089 371.372 438.571C371.794 437.872 372.348 437.261 373.002 436.771C373.676 436.251 374.51 435.982 375.362 436.009C376.018 436.009 376.356 436.295 376.325 436.369C376.293 436.443 375.923 436.369 375.372 436.454C374.645 436.551 373.956 436.836 373.372 437.279C372.775 437.746 372.225 438.271 371.732 438.846C371.319 439.28 371.044 439.544 370.97 439.491Z" fill="#263238"/>
<path d="M357.529 435.872C357.625 435.724 358.037 435.798 358.503 435.957C358.969 436.115 359.35 436.327 359.318 436.496C359.286 436.666 358.82 436.74 358.26 436.56C357.699 436.38 357.445 436.02 357.529 435.872Z" fill="#263238"/>
<path d="M357.826 434.877C357.826 434.708 358.334 434.57 358.937 434.581C359.54 434.591 359.995 434.74 359.995 434.909C359.995 435.078 359.508 435.226 358.884 435.216C358.259 435.205 357.804 435.057 357.826 434.877Z" fill="#263238"/>
<path d="M341.337 263.792L331.178 265.496L337.03 272.692C338.713 306.558 338.3 339.418 339.856 355.79C340.088 358.277 350.587 436.221 349.539 434.433L380.452 435.724L371.224 357.409L375.594 287.858C380.334 279.638 381.721 269.908 379.468 260.691L378.706 257.569" fill="#493FCF"/>
<path d="M362.641 141.389C361.87 141.093 361.181 140.618 360.629 140.003C360.077 139.389 359.678 138.652 359.466 137.854C359.268 137.045 359.296 136.197 359.546 135.402C359.796 134.607 360.258 133.896 360.884 133.346C361.516 132.814 362.296 132.488 363.118 132.411C363.941 132.333 364.767 132.508 365.488 132.912C366.593 133.676 367.4 134.797 367.774 136.087C368.123 136.919 368.219 137.836 368.049 138.722C367.834 139.359 367.459 139.929 366.961 140.379C366.462 140.83 365.857 141.145 365.202 141.294C363.884 141.551 362.532 141.587 361.202 141.4" fill="#263238"/>
<path d="M389.913 160.248C390.029 159.795 390.051 159.323 389.977 158.862C389.862 158.336 389.61 157.851 389.247 157.454C388.753 156.935 388.122 156.567 387.426 156.396C386.572 156.183 385.687 156.122 384.812 156.216C383.849 156.279 382.823 156.449 381.701 156.47C380.499 156.544 379.302 156.26 378.261 155.655C377.222 154.872 376.491 153.748 376.198 152.48C375.501 150.243 374.348 148.174 372.811 146.405C371.555 144.959 370.076 143.723 368.43 142.744C366.877 141.892 365.238 141.207 363.54 140.701H363.911C364.272 140.724 364.628 140.795 364.969 140.913C366.253 141.233 367.488 141.725 368.641 142.373C370.36 143.329 371.905 144.567 373.213 146.035C374.824 147.83 376.033 149.948 376.759 152.247C377.007 153.397 377.652 154.423 378.579 155.147C379.541 155.703 380.644 155.967 381.754 155.909C382.812 155.909 383.87 155.75 384.844 155.708C385.77 155.632 386.701 155.721 387.596 155.972C388.35 156.184 389.026 156.611 389.543 157.2C389.923 157.654 390.172 158.203 390.263 158.788C390.315 159.143 390.283 159.506 390.167 159.846C390.019 160.153 389.924 160.259 389.913 160.248Z" fill="#263238"/>
<path d="M370.409 166.333C370.409 166.333 370.917 166.683 370.917 167.593C370.911 167.86 370.85 168.124 370.739 168.368C370.628 168.612 370.469 168.83 370.271 169.011C370.033 169.243 369.742 169.417 369.424 169.516C369.106 169.615 368.769 169.638 368.44 169.582C368.113 169.526 367.803 169.395 367.533 169.201C367.264 169.006 367.042 168.753 366.885 168.46C366.759 168.225 366.682 167.968 366.656 167.703C366.631 167.438 366.658 167.17 366.736 166.915C366.788 166.682 366.895 166.464 367.048 166.28C367.2 166.096 367.395 165.951 367.615 165.857C367.359 166.187 367.192 166.577 367.128 166.989C367.055 167.401 367.13 167.824 367.34 168.185C367.467 168.4 367.639 168.585 367.845 168.726C368.051 168.867 368.285 168.961 368.532 169.001C368.778 169.042 369.03 169.027 369.271 168.96C369.511 168.892 369.733 168.772 369.922 168.609C370.239 168.337 370.449 167.962 370.515 167.55C370.578 166.82 370.282 166.376 370.409 166.333Z" fill="#E0E0E0"/>
<path d="M367.625 142.723C365.362 140.461 362.471 138.931 359.328 138.331C360.976 138.265 362.612 138.636 364.069 139.408C365.527 140.179 366.754 141.323 367.625 142.723Z" fill="#00CF60"/>
<path d="M371.573 165.032C371.573 164.957 371.88 164.936 372.07 165.286C372.117 165.39 372.142 165.504 372.142 165.619C372.142 165.734 372.117 165.847 372.07 165.952C372.001 166.084 371.897 166.194 371.771 166.272C371.644 166.35 371.499 166.393 371.351 166.397C371.126 166.409 370.905 166.332 370.735 166.184C370.565 166.036 370.46 165.828 370.441 165.603C370.43 165.547 370.43 165.49 370.441 165.434C370.441 165.074 370.695 164.957 370.747 165C370.8 165.042 370.747 165.211 370.843 165.423C370.861 165.538 370.92 165.642 371.01 165.716C371.1 165.791 371.213 165.829 371.33 165.825C371.374 165.828 371.419 165.822 371.461 165.808C371.503 165.793 371.542 165.771 371.575 165.741C371.609 165.712 371.636 165.676 371.656 165.636C371.675 165.596 371.687 165.552 371.689 165.508V165.423C371.679 165.222 371.552 165.095 371.573 165.032Z" fill="#E0E0E0"/>
<path d="M364.334 186.113C364.442 186.484 364.482 186.871 364.451 187.256C364.427 188.31 364.219 189.352 363.837 190.336C363.402 191.468 362.748 192.504 361.912 193.383C361.077 194.262 360.075 194.968 358.966 195.46C357.857 195.951 356.662 196.219 355.449 196.248C354.237 196.276 353.03 196.066 351.899 195.627C349.85 194.837 348.155 193.334 347.126 191.394C346.627 190.464 346.294 189.454 346.142 188.409C346.068 188.032 346.068 187.644 346.142 187.266C346.365 188.645 346.82 189.976 347.486 191.203C348.252 192.49 349.311 193.578 350.576 194.378C352.163 195.32 353.999 195.757 355.841 195.63C357.682 195.504 359.441 194.82 360.884 193.669C362.046 192.719 362.967 191.508 363.572 190.134C364.037 188.843 364.295 187.485 364.334 186.113Z" fill="#455A64"/>
<path d="M362.112 428.612C362.081 428.519 362.059 428.424 362.048 428.326C362.048 428.104 361.974 427.829 361.932 427.48C361.826 426.696 361.678 425.606 361.498 424.231C361.138 421.405 360.662 417.32 360.101 412.251C358.969 402.133 357.582 388.143 356.333 372.66C355.085 357.177 354.217 343.122 353.73 332.952C353.465 327.872 353.296 323.756 353.201 320.909C353.158 319.498 353.127 318.408 353.106 317.639V316.781C353.095 316.686 353.095 316.591 353.106 316.496C353.116 316.591 353.116 316.686 353.106 316.781C353.095 317.065 353.117 317.349 353.169 317.628C353.222 318.422 353.286 319.512 353.381 320.898C353.55 323.787 353.783 327.883 354.079 332.931C354.693 343.091 355.624 357.124 356.863 372.607C358.101 388.09 359.434 402.091 360.45 412.208C360.969 417.246 361.382 421.331 361.678 424.209C361.815 425.585 361.921 426.675 361.995 427.469C362.005 427.752 362.029 428.035 362.069 428.316C362.1 428.411 362.114 428.512 362.112 428.612Z" fill="#263238"/>
<path d="M379.383 428.718C378.995 428.816 378.598 428.873 378.198 428.887C377.436 428.951 376.325 429.025 374.959 429.088C372.218 429.226 368.43 429.289 364.249 429.226C360.069 429.162 356.28 429.035 353.55 428.929L350.312 428.771C349.909 428.781 349.507 428.739 349.116 428.644C349.508 428.559 349.911 428.527 350.312 428.548H353.561C356.291 428.548 360.08 428.612 364.26 428.675C368.44 428.739 372.208 428.739 374.949 428.675H378.187C378.586 428.636 378.988 428.651 379.383 428.718Z" fill="#263238"/>
<path d="M373.838 187.097C372.378 187.626 370.839 187.902 369.287 187.912L369.488 187.531L371.531 190.844L372.822 192.96L373.129 193.479L372.536 193.362C370.58 193.07 368.608 192.904 366.631 192.865C367.166 192.688 367.728 192.602 368.292 192.611C369.736 192.514 371.185 192.592 372.61 192.844L372.335 193.246L371.023 191.129L369.044 187.785L368.821 187.415H369.245C370.599 187.351 371.753 187.266 372.547 187.192C372.972 187.112 373.405 187.08 373.838 187.097Z" fill="#455A64"/>
<path d="M383.553 195.489C383.553 195.585 382.018 195.214 379.383 195.151L379.563 194.95C380.188 197.426 381.013 200.728 381.976 204.538L382.082 204.982L381.648 204.866L374.917 203.046L373.086 202.538L373.446 202.252C373.594 205.903 373.732 209.29 373.848 212.2V212.518L373.552 212.433L367.086 210.602L365.297 210.073C365.085 210.014 364.879 209.932 364.683 209.829C364.907 209.827 365.128 209.863 365.34 209.935L367.16 210.348L373.647 211.957L373.361 212.2C373.213 209.29 373.044 205.903 372.864 202.263V201.871L373.245 201.977L375.076 202.485L381.786 204.358L381.457 204.686C380.569 200.844 379.807 197.521 379.224 195.024L379.172 194.812H379.404C380.44 194.858 381.47 194.989 382.484 195.204C382.85 195.257 383.209 195.353 383.553 195.489Z" fill="#455A64"/>
<path d="M384.886 222.328C384.588 222.11 384.33 221.841 384.124 221.534C383.68 220.973 383.193 220.042 382.495 218.963H382.78C381.067 222.307 379.063 225.494 376.79 228.487L376.579 228.773L376.356 228.487C375.298 227.168 374.24 225.757 373.182 224.254L370.747 221.079H371.15L367.234 224.529L365.477 226.043L364.662 226.752L364.271 227.09L364.175 227.175H364.059C364.059 227.27 363.71 227.048 363.784 226.953V226.889C363.784 226.889 363.858 227.069 363.89 227.059H363.71L363.646 226.858C363.022 224.741 362.588 223.069 362.323 221.862C362.143 221.248 362.071 220.607 362.112 219.968C362.228 220.582 362.366 221.196 362.546 221.809C362.874 222.984 363.371 224.667 364.059 226.731L363.816 226.582C363.892 226.561 363.972 226.561 364.048 226.582C364.101 226.6 364.147 226.634 364.18 226.68C364.212 226.726 364.229 226.78 364.228 226.836C364.239 226.885 364.239 226.936 364.228 226.984H364.175L364.027 226.921C364.019 226.879 363.997 226.842 363.964 226.815L363.9 226.752L363.985 226.667L364.376 226.318L365.181 225.598C365.731 225.101 366.303 224.54 366.906 224.053L370.769 220.614L370.991 220.412L371.181 220.656L373.615 223.831C374.737 225.291 375.817 226.709 376.79 228.064H376.356C378.627 225.101 380.675 221.974 382.484 218.709L382.632 218.455L382.78 218.698C383.458 219.83 383.839 220.815 384.273 221.354C384.537 221.637 384.745 221.968 384.886 222.328Z" fill="#455A64"/>
<path d="M366.176 207.279C366.168 207.639 366.108 207.995 365.996 208.337C365.837 208.993 365.594 209.925 365.255 211.078C364.588 213.375 363.551 216.528 362.218 219.926C360.884 223.323 359.487 226.339 358.408 228.477C357.868 229.535 357.413 230.403 357.074 230.985C356.921 231.298 356.733 231.593 356.513 231.863C356.955 230.649 357.467 229.462 358.048 228.307C359.032 226.127 360.355 223.111 361.688 219.725C363.022 216.338 364.112 213.216 364.863 210.951C365.218 209.699 365.657 208.472 366.176 207.279Z" fill="#455A64"/>
<path d="M373.838 187.097C372.378 187.626 370.839 187.902 369.287 187.912L369.488 187.531L371.531 190.844L372.822 192.96L373.129 193.479L372.536 193.362C370.58 193.07 368.608 192.904 366.631 192.865C367.166 192.688 367.728 192.602 368.292 192.611C369.736 192.514 371.185 192.592 372.61 192.844L372.335 193.246L371.023 191.129L369.044 187.785L368.821 187.415H369.245C370.599 187.351 371.753 187.266 372.547 187.192C372.972 187.112 373.405 187.08 373.838 187.097Z" fill="#455A64"/>
<path d="M366.176 207.279C366.168 207.639 366.108 207.995 365.996 208.337C365.837 208.993 365.594 209.925 365.255 211.078C364.588 213.375 363.551 216.528 362.218 219.926C360.884 223.323 359.487 226.339 358.408 228.477C357.868 229.535 357.413 230.403 357.074 230.985C356.921 231.298 356.733 231.593 356.513 231.863C356.955 230.649 357.467 229.462 358.048 228.307C359.032 226.127 360.355 223.111 361.688 219.725C363.022 216.338 364.112 213.216 364.863 210.951C365.218 209.699 365.657 208.472 366.176 207.279Z" fill="#455A64"/>
<path d="M268.14 193.821L243.539 278.222C242.27 282.576 244.771 287.135 249.125 288.404L387.396 328.706C391.75 329.975 396.309 327.474 397.578 323.12L422.179 238.719C423.448 234.365 420.947 229.806 416.592 228.537L278.322 188.234C273.968 186.965 269.409 189.466 268.14 193.821Z" fill="#00CF60"/>
<g opacity="0.3">
<path d="M268.14 193.821L243.539 278.222C242.27 282.576 244.771 287.135 249.125 288.404L387.396 328.706C391.75 329.975 396.309 327.474 397.578 323.12L422.179 238.719C423.448 234.365 420.947 229.806 416.592 228.537L278.322 188.234C273.968 186.965 269.409 189.466 268.14 193.821Z" fill="black"/>
</g>
<path d="M263.288 253.992L260.79 262.459L259.912 262.205L262.176 254.437L260.155 253.844L260.388 253.061L263.288 253.992Z" fill="white"/>
<path d="M271.987 264.279L271.754 265.062L265.711 263.369L265.891 262.745L270.463 260.3C271.712 259.633 272.061 259.104 272.23 258.522C272.516 257.527 271.997 256.723 270.696 256.342C270.269 256.184 269.811 256.126 269.358 256.172C268.905 256.218 268.469 256.367 268.082 256.606L267.616 255.887C268.121 255.585 268.686 255.399 269.272 255.34C269.857 255.282 270.448 255.353 271.003 255.548C272.738 256.056 273.574 257.263 273.119 258.723C272.886 259.538 272.41 260.194 270.939 260.988L267.193 262.999L271.987 264.279Z" fill="white"/>
<path d="M281.374 265.486L279.659 264.988L279.003 267.232L278.125 266.978L278.781 264.724L273.955 263.369L274.135 262.734L280.326 258.395L281.3 258.681L275.32 262.914L279.035 263.972L279.607 261.993L280.464 262.247L279.892 264.226L281.596 264.724L281.374 265.486Z" fill="white"/>
<path d="M294.476 269.264L292.761 268.756L292.105 271.01L291.227 270.756L291.883 268.502L287.057 267.094L287.248 266.459L293.428 262.11L294.402 262.395L288.422 266.629L292.137 267.687L292.708 265.708L293.566 265.951L292.994 267.941L294.698 268.438L294.476 269.264Z" fill="white"/>
<path d="M302.032 271.169C301.598 272.618 300.254 273.465 298.169 272.851C297.031 272.565 296.046 271.853 295.418 270.862L296.053 270.29C296.588 271.167 297.447 271.798 298.444 272.047C299.894 272.47 300.878 271.983 301.175 270.989C301.471 269.994 301.016 268.999 298.836 268.375L297.016 267.835L298.709 263.676L303.387 265.041L303.164 265.824L299.249 264.681L298.19 267.327L299.249 267.644C301.789 268.353 302.466 269.655 302.032 271.169Z" fill="white"/>
<path d="M310.488 273.592C310.272 274.293 309.79 274.882 309.144 275.23C308.499 275.579 307.742 275.659 307.038 275.455L306.805 275.37C304.53 274.714 303.757 272.777 304.54 270.079C305.387 267.179 307.419 266.12 309.736 266.798C310.456 266.963 311.113 267.331 311.631 267.856L311.07 268.459C310.658 268.012 310.119 267.702 309.525 267.57C307.683 267.031 306.149 267.877 305.482 270.195C305.419 270.428 305.355 270.661 305.313 270.904C305.695 270.503 306.186 270.222 306.726 270.096C307.265 269.971 307.83 270.005 308.35 270.195C308.699 270.254 309.033 270.381 309.333 270.57C309.633 270.758 309.893 271.004 310.097 271.293C310.302 271.582 310.447 271.909 310.525 272.254C310.603 272.6 310.612 272.957 310.551 273.306L310.488 273.592ZM309.609 273.37C309.683 273.126 309.707 272.87 309.681 272.617C309.655 272.363 309.58 272.118 309.459 271.893C309.338 271.669 309.174 271.471 308.977 271.311C308.779 271.15 308.552 271.03 308.308 270.957L307.969 270.925C307.737 270.81 307.485 270.741 307.226 270.724C306.968 270.707 306.709 270.741 306.464 270.825C306.219 270.908 305.993 271.04 305.799 271.212C305.605 271.383 305.447 271.592 305.334 271.825C305.106 272.294 305.073 272.834 305.242 273.327C305.41 273.821 305.767 274.228 306.233 274.46C306.447 274.561 306.676 274.625 306.911 274.65C307.383 274.858 307.917 274.871 308.399 274.687C308.88 274.502 309.27 274.136 309.482 273.666C309.537 273.573 309.579 273.473 309.609 273.37Z" fill="white"/>
<path d="M322.161 277.127C321.748 278.556 320.383 279.349 318.319 278.746C317.181 278.453 316.195 277.743 315.557 276.757L316.192 276.174C316.723 277.044 317.568 277.677 318.552 277.942C319.97 278.355 320.944 277.942 321.261 276.884C321.579 275.825 321.028 274.968 319.441 274.513L318.827 274.333L319.018 273.687L322.256 271.402L317.885 270.132L318.108 269.348L323.611 270.946L323.431 271.571L320.118 273.952C321.928 274.502 322.563 275.73 322.161 277.127Z" fill="white"/>
<path d="M330.765 279.508C330.543 280.211 330.053 280.798 329.402 281.143C328.75 281.488 327.989 281.562 327.283 281.35L327.071 281.275C324.807 280.619 324.034 278.683 324.817 275.984C325.664 273.074 327.696 272.026 330.013 272.693C330.729 272.868 331.384 273.233 331.908 273.751L331.347 274.354C330.93 273.912 330.393 273.603 329.802 273.465C327.96 272.936 326.426 273.772 325.748 276.09C325.685 276.323 325.632 276.555 325.59 276.799C325.969 276.394 326.461 276.111 327.002 275.987C327.543 275.862 328.109 275.902 328.627 276.1C328.976 276.159 329.31 276.287 329.61 276.475C329.91 276.664 330.17 276.909 330.374 277.199C330.579 277.488 330.724 277.814 330.802 278.16C330.88 278.505 330.889 278.863 330.828 279.212C330.818 279.313 330.797 279.412 330.765 279.508ZM329.886 279.275C329.958 279.028 329.979 278.769 329.95 278.513C329.921 278.257 329.842 278.01 329.717 277.785C329.592 277.56 329.424 277.361 329.223 277.201C329.021 277.041 328.79 276.922 328.542 276.852L328.299 276.799C328.067 276.683 327.815 276.615 327.556 276.598C327.298 276.581 327.039 276.615 326.794 276.698C326.548 276.782 326.322 276.914 326.129 277.085C325.935 277.257 325.777 277.465 325.664 277.698C325.436 278.168 325.403 278.708 325.572 279.201C325.74 279.694 326.097 280.101 326.563 280.334C326.777 280.434 327.006 280.499 327.241 280.524C327.475 280.628 327.727 280.685 327.983 280.691C328.239 280.697 328.494 280.653 328.733 280.56C328.972 280.468 329.19 280.329 329.375 280.152C329.561 279.975 329.709 279.764 329.812 279.529C329.812 279.434 329.886 279.339 329.908 279.244L329.886 279.275Z" fill="white"/>
<path d="M340.374 275.793L340.194 276.418L334.31 283.307L333.358 283.032L339.136 276.28L334.733 275.01L334.268 276.608L333.4 276.354L334.098 273.973L340.374 275.793Z" fill="white"/>
<path d="M352.598 279.392L352.418 280.016L346.534 286.895L345.581 286.62L351.359 279.878L346.957 278.598L346.491 280.196L345.623 279.942L346.322 277.561L352.598 279.392Z" fill="white"/>
<path d="M359.223 287.985C358.778 289.498 357.222 290.102 355.18 289.467C353.137 288.832 352.153 287.562 352.598 286.048C352.727 285.557 353.024 285.126 353.438 284.83C353.851 284.534 354.355 284.393 354.862 284.429C354.501 284.188 354.228 283.835 354.084 283.424C353.941 283.014 353.936 282.568 354.069 282.154C354.471 280.767 355.91 280.238 357.72 280.767C359.529 281.297 360.482 282.514 360.069 283.942C359.956 284.365 359.707 284.738 359.361 285.006C359.015 285.274 358.591 285.42 358.154 285.424C358.595 285.668 358.94 286.053 359.134 286.518C359.328 286.983 359.359 287.5 359.223 287.985ZM358.323 287.71C358.63 286.652 357.91 285.731 356.397 285.286C354.884 284.842 353.794 285.286 353.487 286.345C353.18 287.403 353.878 288.324 355.402 288.768C356.926 289.213 358.006 288.768 358.323 287.71ZM356.651 284.588C357.984 284.979 358.958 284.588 359.223 283.688C359.487 282.789 358.831 281.889 357.55 281.519C356.27 281.148 355.265 281.519 354.989 282.439C354.714 283.36 355.265 284.207 356.651 284.588Z" fill="white"/>
<path d="M368.102 288.43C367.255 291.34 365.223 292.398 362.895 291.721C362.185 291.54 361.535 291.175 361.011 290.663L361.572 290.059C361.989 290.495 362.521 290.804 363.107 290.948C364.959 291.488 366.482 290.641 367.16 288.324C367.223 288.091 367.287 287.858 367.329 287.615C366.949 288.018 366.457 288.3 365.916 288.425C365.376 288.549 364.81 288.51 364.292 288.313C363.945 288.253 363.613 288.125 363.316 287.937C363.018 287.748 362.761 287.503 362.559 287.215C362.356 286.927 362.212 286.602 362.136 286.258C362.059 285.914 362.051 285.559 362.112 285.212C362.12 285.115 362.142 285.019 362.175 284.927C362.384 284.225 362.862 283.635 363.504 283.286C364.147 282.937 364.902 282.857 365.604 283.064L365.858 283.149C368.112 283.794 368.885 285.741 368.102 288.43ZM367.382 286.387C367.491 285.837 367.377 285.266 367.066 284.8C366.754 284.333 366.27 284.01 365.721 283.9H365.657C365.182 283.722 364.656 283.737 364.192 283.942C363.727 284.146 363.361 284.523 363.171 284.994C362.98 285.464 362.981 285.99 363.173 286.46C363.364 286.929 363.732 287.306 364.197 287.509C364.327 287.559 364.462 287.598 364.599 287.625C364.856 287.731 365.132 287.784 365.411 287.782C365.689 287.781 365.965 287.724 366.221 287.616C366.478 287.508 366.711 287.35 366.906 287.152C367.102 286.954 367.256 286.719 367.361 286.461C367.361 286.435 367.369 286.409 367.382 286.387Z" fill="white"/>
<path d="M377.997 286.8L375.499 295.266L374.621 295.012L376.886 287.244L374.864 286.652L375.097 285.868L377.997 286.8Z" fill="white"/>
<path d="M382.78 297.086L382.548 297.87L376.547 296.176L376.727 295.552L381.299 293.107C382.548 292.441 382.897 291.911 383.066 291.329C383.352 290.345 382.833 289.53 381.532 289.149C381.104 288.992 380.647 288.934 380.194 288.98C379.741 289.025 379.304 289.174 378.918 289.414L378.452 288.694C378.958 288.395 379.523 288.21 380.109 288.153C380.694 288.097 381.284 288.169 381.838 288.366C383.574 288.863 384.41 290.07 383.955 291.541C383.712 292.356 383.246 293.012 381.775 293.806L378.029 295.816L382.78 297.086Z" fill="white"/>
<path d="M390.517 297.658C390.093 299.086 388.739 299.88 386.675 299.277C385.544 298.962 384.573 298.232 383.955 297.234L384.59 296.663C384.848 297.098 385.189 297.479 385.594 297.782C385.999 298.085 386.46 298.306 386.95 298.43C388.368 298.843 389.342 298.43 389.649 297.372C389.956 296.314 389.426 295.456 387.839 295.001L387.225 294.822L387.416 294.165L390.644 291.89L386.273 290.62L386.506 289.837L391.998 291.435L391.818 292.059L388.516 294.398C390.315 295.054 390.95 296.324 390.517 297.658Z" fill="white"/>
<path d="M324.417 287.321L323.337 291.03L391.831 310.981L392.911 307.272L324.417 287.321Z" fill="white"/>
<path d="M355.629 304.443L354.546 308.161L389.682 318.396L390.765 314.677L355.629 304.443Z" fill="white"/>
<path d="M264.971 228.663L261.652 240.052C260.84 242.836 262.439 245.749 265.222 246.561L283.887 252.001C286.67 252.812 289.584 251.213 290.395 248.43L293.715 237.041C294.526 234.257 292.927 231.344 290.144 230.532L271.48 225.092C268.697 224.281 265.783 225.88 264.971 228.663Z" fill="#263238"/>
<path d="M261.933 239.176L262.335 237.8L277.151 242.118C277.974 242.358 278.858 242.262 279.609 241.85C280.36 241.438 280.917 240.745 281.157 239.922C281.397 239.1 281.3 238.216 280.889 237.465C280.477 236.713 279.783 236.157 278.961 235.917L264.145 231.609L264.547 230.234L279.363 234.541C280.499 234.929 281.441 235.74 281.994 236.805C282.547 237.87 282.669 239.107 282.334 240.26C281.999 241.412 281.233 242.391 280.195 242.993C279.157 243.596 277.927 243.775 276.76 243.494L261.933 239.176Z" fill="white"/>
<path d="M282.009 239.38L281.605 240.761L291.763 243.731L292.167 242.35L282.009 239.38Z" fill="white"/>
<path d="M274.999 206.955L273.151 213.295L347.067 234.84L348.915 228.5L274.999 206.955Z" fill="white"/>
<path d="M385.405 222L367.234 210.062C367.234 210.062 358.355 235.631 355.593 235.885C340.522 237.261 324.394 232.255 318.743 230.286C318.171 229.641 317.515 228.868 316.785 227.916C316.168 227.097 315.692 226.182 315.377 225.207C314.938 224.008 314.667 222.754 314.573 221.481C314.599 221.237 314.547 220.991 314.426 220.777C314.305 220.564 314.119 220.393 313.896 220.291C313.673 220.188 313.423 220.158 313.182 220.204C312.941 220.251 312.72 220.372 312.551 220.55C311.895 221.397 311.726 224.624 313.218 228.106C314.71 231.588 309.44 228.815 307.503 227.842C305.567 226.868 299.429 224.138 298.656 224.497C297.534 225.027 297.883 226.328 299.841 227.26C301.799 228.191 307.472 231.376 306.911 232.371C306.35 233.366 296.561 228.265 296.561 228.265C296.561 228.265 294.645 226.847 293.957 227.979C292.708 230.022 303.482 234.657 304.54 235.07C305.26 235.366 304.688 236.467 303.926 236.128C303.164 235.79 294.275 230.837 292.994 232.89C292.01 234.477 301.852 236.795 303.122 238.837C304.392 240.88 295.83 236.329 294.952 237.874C294.624 238.456 294.465 238.933 299.757 240.848C303.633 242.051 307.568 243.054 311.546 243.854V243.907C311.546 243.907 365.583 268.099 375.806 244.764C386.738 219.894 385.405 222 385.405 222Z" fill="#E5BAAB"/>
<path d="M373.478 187.044C373.478 187.044 389.987 188.991 388.294 208.634C387.189 220.777 383.777 232.598 378.24 243.462L356.587 232.096C361.463 222.37 365.131 212.085 367.509 201.469L373.584 187.044H373.478Z" fill="#00CF60"/>
<g opacity="0.2">
<path d="M373.478 187.044C373.478 187.044 389.987 188.991 388.294 208.634C387.189 220.777 383.777 232.598 378.24 243.462L356.587 232.096C361.463 222.37 365.131 212.085 367.509 201.469L373.584 187.044H373.478Z" fill="white"/>
</g>
<path d="M383.553 195.489C383.553 195.585 382.018 195.214 379.383 195.151L379.563 194.95C380.188 197.426 381.013 200.728 381.976 204.538L382.082 204.982L381.648 204.866L374.917 203.046L373.086 202.538L373.446 202.252C373.594 205.903 373.732 209.29 373.848 212.2V212.518L373.552 212.433L367.086 210.602L365.297 210.073C365.085 210.014 364.879 209.932 364.683 209.829C364.907 209.827 365.128 209.863 365.34 209.935L367.16 210.348L373.647 211.957L373.361 212.2C373.213 209.29 373.044 205.903 372.864 202.263V201.871L373.245 201.977L375.076 202.485L381.786 204.358L381.457 204.686C380.569 200.844 379.807 197.521 379.224 195.024L379.172 194.812H379.404C380.44 194.858 381.47 194.989 382.484 195.204C382.85 195.257 383.209 195.353 383.553 195.489Z" fill="#455A64"/>
<path d="M384.886 222.328C384.588 222.11 384.33 221.841 384.124 221.534C383.68 220.973 383.193 220.042 382.495 218.963H382.78C381.067 222.307 379.063 225.494 376.79 228.487L376.579 228.773L376.356 228.487C375.298 227.168 374.24 225.757 373.182 224.254L370.747 221.079H371.15L367.234 224.529L365.477 226.043L364.662 226.752L364.271 227.09L364.175 227.175H364.059C364.059 227.27 363.71 227.048 363.784 226.953V226.889C363.784 226.889 363.858 227.069 363.89 227.059H363.71L363.646 226.858C363.022 224.741 362.588 223.069 362.323 221.862C362.143 221.248 362.071 220.607 362.112 219.968C362.228 220.582 362.366 221.196 362.546 221.809C362.874 222.984 363.371 224.667 364.059 226.731L363.816 226.582C363.892 226.561 363.972 226.561 364.048 226.582C364.101 226.6 364.147 226.634 364.18 226.68C364.212 226.726 364.229 226.78 364.228 226.836C364.239 226.885 364.239 226.936 364.228 226.984H364.175L364.027 226.921C364.019 226.879 363.997 226.842 363.964 226.815L363.9 226.752L363.985 226.667L364.376 226.318L365.181 225.598C365.731 225.101 366.303 224.54 366.906 224.053L370.769 220.614L370.991 220.412L371.181 220.656L373.615 223.831C374.737 225.291 375.817 226.709 376.79 228.064H376.356C378.627 225.101 380.675 221.974 382.484 218.709L382.632 218.455L382.78 218.698C383.458 219.83 383.839 220.815 384.273 221.354C384.537 221.637 384.745 221.968 384.886 222.328Z" fill="#455A64"/>
</g>
<defs>
<clipPath id="clip0_1_905">
<rect width="430.993" height="440.92" fill="white" transform="translate(0.00341797)"/>
</clipPath>
</defs>
</svg>
