<svg width="260" height="347" viewBox="0 0 260 347" fill="none" xmlns="http://www.w3.org/2000/svg">
<g opacity="0.7">
<g clip-path="url(#clip0_1_229)">
<path fill-rule="evenodd" clip-rule="evenodd" d="M189.495 345.207C153.357 338.098 149.062 284.886 118.891 263.764C87.7318 241.95 36.58 254.685 15.2269 223.209C-6.5509 191.106 -2.97833 144.382 14.3651 109.682C30.9026 76.5963 70.5409 65.264 103.019 47.5619C130.824 32.4067 158.331 19.854 189.495 14.229C227.361 7.39499 272.132 -12.5332 302.073 11.6351C332.218 35.9684 319.3 84.4133 324.07 122.859C327.79 152.833 333.698 181.796 326.837 211.211C319.44 242.927 306.958 273.433 283.647 296.176C257.685 321.506 225.085 352.209 189.495 345.207Z" fill="white"/>
</g>
</g>
<defs>
<clipPath id="clip0_1_229">
<rect width="329.991" height="346.22" fill="white" transform="matrix(-1 0 0 -1 329.995 346.22)"/>
</clipPath>
</defs>
</svg>
