<svg width="495" height="455" viewBox="0 0 495 455" fill="none" xmlns="http://www.w3.org/2000/svg">
<g clip-path="url(#clip0_1_375)">
<mask id="mask0_1_375" style="mask-type:luminance" maskUnits="userSpaceOnUse" x="0" y="0" width="495" height="455">
<path d="M494.995 0H0.00452065V454.52H494.995V0Z" fill="white"/>
</mask>
<g mask="url(#mask0_1_375)">
<path d="M72.5418 328.468C66.7445 324.834 60.1914 322.576 53.3855 321.869C50.2724 321.547 46.8375 321.64 44.3262 323.539C44.0375 323.706 43.7986 323.947 43.6344 324.238C43.4701 324.527 43.3866 324.856 43.3923 325.189C43.5426 325.659 43.8552 326.06 44.2744 326.32C52.0676 332.266 63.8665 333.014 72.5418 328.458" fill="#E0E0E0"/>
<path d="M72.0433 327.918C67.6046 324.665 63.4618 321.026 59.6634 317.043C55.853 313.029 53.1746 308.077 51.9013 302.692C51.5692 301.052 51.4654 299.184 52.5135 297.887C62.3822 305.587 70.1547 315.528 72.033 327.929" fill="#E0E0E0"/>
<path d="M72.4377 328.396C71.5214 323.01 71.5988 317.503 72.666 312.145C73.9009 306.842 76.8169 301.768 81.3205 298.738C83.0224 302.723 82.296 307.309 81.0923 311.481C79.2299 317.928 76.3314 324.03 72.5103 329.548" fill="#E0E0E0"/>
<path d="M82.1085 345.726C76.235 346.442 71.1294 349.534 66.7399 353.498C62.3324 357.508 59.264 362.776 57.9504 368.587C63.7098 368.234 68.5974 364.166 72.136 359.621C75.6746 355.076 78.134 350.074 82.0255 345.819" fill="#E0E0E0"/>
<path d="M84.2041 348.497C81.8948 342.629 81.0857 336.278 81.8504 330.02C82.6151 323.762 84.9293 317.793 88.5833 312.654C91.9248 324.546 90.6587 337.984 84.2041 348.497Z" fill="#E0E0E0"/>
<path d="M97.0197 363.709C91.6503 363.366 86.2985 364.611 81.6317 367.288C76.9647 369.966 73.1893 373.958 70.7759 378.766C70.4542 379.42 70.1636 380.24 70.5995 380.842C70.826 381.06 71.1018 381.221 71.4036 381.309C71.7054 381.397 72.0241 381.412 72.3325 381.35C77.521 381.018 82.0766 377.905 85.8228 374.367C89.5689 370.828 92.8896 366.739 97.0613 363.678" fill="#E0E0E0"/>
<path d="M96.5754 362.879C93.8245 354.023 93.6554 344.567 96.0877 335.618C97.0527 332.111 98.6612 328.417 101.909 326.767C102.039 326.681 102.186 326.623 102.339 326.596C102.493 326.569 102.65 326.575 102.802 326.611C103.065 326.75 103.265 326.983 103.362 327.265C104.452 329.722 104.922 332.409 104.732 335.089C104.54 337.757 104.131 340.405 103.507 343.007C102.47 347.843 101.94 353.042 99.2838 357.224C98.6567 358.226 98.0918 359.266 97.5924 360.337C97.0943 361.374 97.0839 361.769 96.6273 362.609" fill="#E0E0E0"/>
<path d="M130.393 367.922C127.892 358.396 130.548 346.836 136.557 339.022C137.003 338.451 137.594 337.829 138.31 337.901C139.421 338.005 139.701 339.479 139.649 340.589C139.195 350.392 135.986 359.869 130.393 367.933" fill="#E0E0E0"/>
<path d="M133.445 370.008C145.025 373.018 158.35 370.091 167.938 362.993C162.165 360.091 155.563 359.28 149.259 360.7C143.033 362.122 137.326 364.923 133.434 370.039" fill="#E0E0E0"/>
<path d="M136.018 363.657C142.504 353.083 154.936 346.182 167.326 345.549C165.894 350.593 161.753 354.505 157.084 356.871C152.414 359.237 147.194 360.264 142.058 361.271C140.055 361.655 137.315 362.091 136.018 363.657Z" fill="#E0E0E0"/>
<path d="M131.037 332.868C132.791 326.85 134.555 320.779 135.043 314.532C135.53 308.285 134.638 301.758 131.39 296.393C125.33 308.119 124.717 321.817 130.861 333.491" fill="#E0E0E0"/>
<path d="M151.439 322.553C158.526 309.675 172.982 299.392 187.603 297.949C181.958 312 166.579 322.854 151.439 322.553Z" fill="#E0E0E0"/>
<path d="M146.977 325.075C157.541 326.684 166.549 333.429 176.417 337.528C178.486 338.525 180.779 338.965 183.069 338.804C184.139 338.801 185.183 338.468 186.056 337.849C186.929 337.229 187.589 336.355 187.946 335.346C188.303 334.337 188.34 333.241 188.049 332.211C187.76 331.18 187.158 330.265 186.328 329.589C184.928 328.297 183.284 327.299 181.492 326.653C170.7 322.17 159.222 322.066 147.87 324.805" fill="#E0E0E0"/>
<path d="M140.864 332.484C143.251 333.169 144.071 334.404 145.97 336.023C152.429 341.513 160.068 345.437 168.291 347.49C169.142 347.697 170.263 347.791 170.688 347.012C171.114 346.234 170.595 345.528 170.107 344.937C166.517 340.727 161.856 337.565 156.617 335.784C151.428 333.865 146.997 331.55 140.854 332.049" fill="#E0E0E0"/>
<path d="M133.963 287.728C138.296 291.723 143.417 294.767 148.997 296.665C154.576 298.563 160.491 299.272 166.361 298.748C166.899 298.757 167.424 298.569 167.834 298.219C168.654 297.337 167.668 295.967 166.724 295.22C157.198 287.79 145.669 284.718 133.974 287.728" fill="#E0E0E0"/>
<path d="M142.151 284.739C147.892 280.511 154.552 277.702 161.585 276.542C168.62 275.382 175.829 275.905 182.622 278.067C177.527 283.079 170.47 285.787 163.362 286.524C156.26 287.172 149.097 286.568 142.203 284.739" fill="#E0E0E0"/>
<path d="M138.893 264.172C137.959 254.666 138.56 247.163 137.855 237.616C137.803 236.848 137.637 235.935 136.921 235.665C135.883 235.281 135.094 236.506 134.773 237.523C133.39 241.95 133.037 246.634 133.739 251.219C134.443 255.802 136.184 260.166 138.83 263.974" fill="#E0E0E0"/>
<path d="M138.208 265.22C144.652 261.235 149.488 256.036 153.95 249.913C157.063 245.659 159.678 240.574 158.972 235.385C154.604 235.302 150.453 237.71 147.609 241.031C144.894 244.473 142.922 248.441 141.819 252.684C140.553 256.835 139.671 261.162 138.197 265.272" fill="#E0E0E0"/>
<path d="M153.68 260.923C167.852 255.68 180.974 247.949 192.428 238.094C187.8 236.226 182.497 237.347 177.9 239.214C167.326 243.479 158.692 250.692 153.504 260.84" fill="#E0E0E0"/>
<path d="M142.567 270.419C149.717 271.197 156.991 271.705 164.089 270.522C171.187 269.339 177.663 266.59 184.18 263.85C184.75 263.689 185.239 263.319 185.549 262.812C185.653 262.509 185.662 262.182 185.575 261.874C185.488 261.567 185.309 261.293 185.062 261.09C184.559 260.695 183.974 260.421 183.349 260.291C176.262 258.309 168.614 259.253 161.64 261.588C154.996 263.859 148.607 266.819 142.577 270.419" fill="#E0E0E0"/>
<path d="M101.712 288.06C96.8343 278.212 97.1456 266.714 101.369 256.555C104.337 261.079 104.7 266.838 104.16 272.214C103.621 277.589 101.981 283.131 101.878 288.537" fill="#E0E0E0"/>
<path d="M82.2223 278.222C76.113 278.142 70.054 279.339 64.4328 281.733C58.8115 284.127 53.7515 287.668 49.5757 292.128C55.6568 293.082 61.9246 291.515 67.4556 288.817C72.9866 286.119 77.9054 282.321 82.7723 278.565" fill="#E0E0E0"/>
<path d="M69.1061 273.843C63.1496 273.355 57.411 272.619 51.6828 274.383C45.9546 276.147 40.7349 280.121 38.4 285.642C44.0286 286.088 49.6736 285.013 54.7441 282.529C59.7856 280.059 64.5956 277.141 69.1165 273.812" fill="#E0E0E0"/>
<path d="M88.5208 274.04C83.1558 270.522 77.6559 266.953 71.4089 265.49C65.1618 264.026 57.9186 265.106 53.5705 269.817C58.6242 272.785 64.7571 273.138 70.6202 273.127C76.4833 273.117 83.6643 273.055 89.185 275.016" fill="#E0E0E0"/>
<path d="M88.5526 274.32C79.3896 265.313 75.9132 249.145 79.5971 236.838C86.8377 247.917 90.0034 261.166 88.5526 274.32Z" fill="#E0E0E0"/>
<path d="M113.758 248.813C115.491 244.797 116.705 240.574 118.251 236.485C119.662 232.316 121.837 228.444 124.664 225.07C127.531 221.697 131.608 219.584 136.017 219.187C134.607 225.39 131.919 231.23 128.123 236.335C124.328 241.44 119.51 245.697 113.976 248.834" fill="#E0E0E0"/>
<path d="M109.192 254.127C106.328 250.183 103.028 244.839 99.1471 241.902C95.266 238.966 90.2123 237.181 85.4803 238.312C87.9322 242.609 91.3517 246.276 95.4677 249.021C99.5837 251.766 104.283 253.514 109.192 254.127Z" fill="#E0E0E0"/>
<path d="M110.107 249.145C108.239 244.382 106.361 239.567 105.593 234.524C104.825 229.481 105.292 224.053 107.887 219.633C112.92 229.149 114.538 239.349 110.377 249.28" fill="#E0E0E0"/>
<path d="M113.801 219.602C116.654 210.169 125.288 203.226 134.607 200.041C135.763 199.566 137.015 199.378 138.26 199.491C138.878 199.558 139.463 199.807 139.942 200.207C140.42 200.605 140.77 201.135 140.947 201.732C141.29 203.341 139.961 204.773 138.716 205.883C131.43 212.107 122.958 216.788 113.811 219.643" fill="#E0E0E0"/>
<path d="M113.903 211.891C114.267 205.81 114.64 199.646 116.622 193.877C118.604 188.107 122.413 182.711 127.954 180.189C128.898 186.332 126.19 192.445 122.921 197.727C119.652 203.009 115.719 208 113.748 213.894" fill="#E0E0E0"/>
<path d="M113.76 216.073C111.404 209.204 111.166 200.508 107.046 194.478C104.172 190.328 99.5639 187.443 97.0838 183.012C95.5871 187.265 95.7955 191.932 97.6649 196.035C99.5496 200.097 102.143 203.79 105.323 206.941C108.364 210.19 110.979 212.639 113.812 216.084" fill="#E0E0E0"/>
<path d="M113.802 418.48C113.615 418.48 113.459 372.634 113.449 316.088C113.438 259.543 113.573 213.687 113.76 213.687C113.947 213.687 114.103 259.522 114.113 316.088C114.123 372.654 113.988 418.48 113.802 418.48Z" fill="#E0E0E0"/>
<path d="M153.868 281.138C153.315 281.406 152.738 281.622 152.145 281.782L147.403 283.38C143.408 284.739 137.908 286.711 131.941 289.16C125.974 291.609 120.464 293.746 117.299 296.496C116.031 297.551 115.023 298.882 114.352 300.388C113.895 301.426 113.812 302.121 113.75 302.11C113.721 301.953 113.721 301.791 113.75 301.633C113.817 301.178 113.928 300.729 114.082 300.294C114.684 298.695 115.671 297.269 116.956 296.144C118.87 294.527 121.01 293.199 123.307 292.2C125.849 291.017 128.662 289.772 131.609 288.547C137.586 286.098 143.127 284.189 147.175 282.933C149.198 282.3 150.848 281.833 151.99 281.532C152.601 281.341 153.23 281.208 153.868 281.138Z" fill="#E0E0E0"/>
<path d="M167.005 248.875C166.864 249.069 166.701 249.243 166.518 249.394L165.044 250.775L159.555 255.766L141.27 272.048C134.13 278.399 127.966 284.5 123.691 289.035C121.553 291.318 119.862 293.186 118.72 294.525L117.392 296.04C117.247 296.225 117.08 296.394 116.894 296.538C117 296.325 117.133 296.126 117.288 295.946C117.569 295.573 117.973 295.033 118.523 294.348C119.613 292.978 121.252 291.028 123.349 288.703C128.866 282.678 134.699 276.949 140.824 271.539C147.984 265.199 154.501 259.512 159.233 255.403L164.868 250.567L166.424 249.28C166.6 249.121 166.795 248.985 167.005 248.875Z" fill="#E0E0E0"/>
<path d="M133.57 278.502C133.383 278.419 134.878 274.974 136.362 270.626C137.845 266.278 138.562 262.605 138.759 262.636C138.956 262.667 138.51 266.434 136.995 270.844C136.356 272.72 135.615 274.56 134.774 276.354C134.477 277.124 134.072 277.848 133.57 278.502Z" fill="#E0E0E0"/>
<path d="M113.851 306.251C113.443 305.864 113.074 305.436 112.751 304.975L109.939 301.363C107.573 298.302 104.304 294.099 100.6 289.461C96.8954 284.822 93.5644 280.692 91.1153 277.693L88.2409 274.134C87.8485 273.719 87.5007 273.262 87.2031 272.774C87.662 273.124 88.0828 273.52 88.4588 273.957C89.1956 274.756 90.2333 275.929 91.4993 277.382C94.0313 280.308 97.4662 284.407 101.14 289.035C104.813 293.663 108.03 297.939 110.302 301.062C111.444 302.629 112.378 303.906 112.949 304.798C113.299 305.25 113.602 305.736 113.851 306.251Z" fill="#E0E0E0"/>
<path d="M105.064 294.971C104.96 295.085 102.615 292.304 101.38 288.081C100.692 285.835 100.411 283.484 100.55 281.138H100.84C100.705 281.668 100.612 281.948 100.56 281.937C100.508 281.927 100.508 281.636 100.56 281.086H100.851C100.996 283.375 101.389 285.639 102.023 287.842C103.248 291.993 105.24 294.867 105.064 294.971Z" fill="#E0E0E0"/>
<path d="M93.7202 280.713C92.9284 280.109 92.0638 279.607 91.1466 279.219C88.8366 278.53 86.4076 278.336 84.0176 278.648C81.596 278.837 79.1941 279.226 76.8366 279.81C75.8684 280.114 74.8802 280.35 73.8791 280.516C74.7602 279.99 75.7151 279.597 76.712 279.353C79.074 278.625 81.5109 278.165 83.9761 277.984C86.4562 277.652 88.98 277.922 91.3334 278.772C92.3299 279.123 93.1737 279.809 93.7202 280.713Z" fill="#E0E0E0"/>
<path d="M91.0337 277.247C91.0337 277.351 89.5392 276.645 87.1006 275.815C80.7235 273.63 73.8944 273.108 67.2595 274.3C64.7171 274.756 63.1812 275.234 63.1086 275.119C63.43 274.919 63.7799 274.769 64.1463 274.673C65.1173 274.335 66.1085 274.058 67.1142 273.843C73.8168 272.376 80.8028 272.909 87.2044 275.379C88.1677 275.745 89.107 276.171 90.0166 276.655C90.3847 276.797 90.7278 276.998 91.0337 277.247Z" fill="#E0E0E0"/>
<path d="M113.754 262.641C113.931 262.596 112.934 258.056 111.525 252.5C110.117 246.945 108.83 242.478 108.652 242.524C108.475 242.568 109.472 247.108 110.881 252.664C112.29 258.219 113.576 262.687 113.754 262.641Z" fill="#E0E0E0"/>
<path d="M113.947 262.625C113.75 262.688 112.909 259.709 110.761 256.659C109.414 254.853 107.841 253.228 106.081 251.823C106.748 251.988 107.367 252.307 107.887 252.757C109.219 253.74 110.374 254.944 111.301 256.316C113.542 259.429 114.103 262.615 113.947 262.625Z" fill="#E0E0E0"/>
<path d="M113.802 394.031C113.729 394.031 113.594 392.932 113.075 390.981C112.3 388.239 111.257 385.58 109.962 383.042C106.797 376.567 101.027 368.358 93.7113 360.14C90.0793 355.989 86.5614 352.077 83.5728 348.341C80.8868 345.046 78.4582 341.549 76.3088 337.881C74.8683 335.403 73.6428 332.806 72.6456 330.119C72.3136 329.164 72.0645 328.417 71.9296 327.898C71.8388 327.643 71.7761 327.378 71.7428 327.109C71.8051 327.109 72.1372 328.147 72.8947 330.025C73.975 332.657 75.2516 335.202 76.7135 337.642C78.9007 341.252 81.3458 344.699 84.0294 347.957C87.0284 351.662 90.5566 355.553 94.1887 359.704C101.536 367.943 107.285 376.307 110.367 382.835C111.621 385.416 112.593 388.127 113.262 390.918C113.437 391.679 113.572 392.448 113.667 393.222C113.741 393.487 113.786 393.758 113.802 394.031Z" fill="#E0E0E0"/>
<path d="M150.007 353.146C149.396 353.533 148.762 353.879 148.107 354.183C146.393 355.151 144.749 356.24 143.189 357.442C140.885 359.237 138.723 361.208 136.724 363.336C134.451 365.733 132.116 368.524 129.73 371.503C124.956 377.49 120.504 382.783 117.827 387.006C116.467 389.082 115.482 390.867 114.838 392.112C114.535 392.771 114.189 393.409 113.801 394.021C113.832 393.833 113.891 393.652 113.977 393.482C114.122 393.139 114.309 392.631 114.61 391.998C115.444 390.212 116.387 388.48 117.433 386.809C120.027 382.482 124.448 377.117 129.211 371.14C131.597 368.151 133.963 365.359 136.278 362.973C138.317 360.839 140.531 358.881 142.898 357.12C144.5 355.938 146.201 354.896 147.983 354.007C148.616 353.696 149.124 353.498 149.467 353.353C149.635 353.256 149.817 353.186 150.007 353.146Z" fill="#E0E0E0"/>
<path d="M150.724 366.407C149.405 366.699 148.065 366.893 146.718 366.989C143.495 367.322 140.31 367.951 137.202 368.867C134.129 369.866 131.249 371.378 128.682 373.339C126.721 374.854 125.798 376.11 125.704 376.037C125.845 375.697 126.046 375.385 126.296 375.114C126.915 374.335 127.61 373.619 128.371 372.976C130.913 370.861 133.836 369.255 136.984 368.244C140.132 367.306 143.377 366.731 146.656 366.532C148.005 366.366 149.366 366.324 150.724 366.407Z" fill="#E0E0E0"/>
<path d="M126.876 374.616C126.668 374.502 128.474 371.741 129.875 368.026C131.276 364.311 131.494 360.991 131.732 361.032C131.833 361.746 131.812 362.472 131.67 363.18C131.471 364.907 131.078 366.606 130.497 368.244C129.889 369.871 129.11 371.43 128.173 372.893C127.84 373.536 127.401 374.118 126.876 374.616Z" fill="#E0E0E0"/>
<path d="M161.732 317.541C161.532 317.681 161.317 317.797 161.088 317.884L159.2 318.745C158.369 319.098 157.373 319.544 156.242 320.146C155.111 320.748 153.783 321.329 152.413 322.159L150.223 323.404C149.466 323.84 148.719 324.359 147.92 324.857C146.311 325.833 144.692 327.036 142.97 328.271C135.586 333.767 129.145 340.426 123.897 347.988C122.724 349.752 121.572 351.412 120.659 353.052C120.181 353.872 119.694 354.64 119.289 355.408L118.116 357.639C117.338 359.04 116.778 360.389 116.238 361.54C115.699 362.692 115.263 363.709 114.941 364.539L114.152 366.449C114.072 366.679 113.965 366.899 113.831 367.103C113.868 366.864 113.934 366.63 114.028 366.407L114.661 364.446C114.951 363.595 115.335 362.557 115.854 361.385C116.373 360.212 116.892 358.853 117.66 357.421L118.801 355.159C119.206 354.37 119.683 353.592 120.15 352.772C121.064 351.101 122.226 349.42 123.367 347.635C128.6 339.966 135.099 333.243 142.586 327.752C144.329 326.528 145.969 325.335 147.608 324.369C148.418 323.871 149.186 323.332 149.954 322.937L152.174 321.723C153.575 320.914 154.914 320.343 156.076 319.783C157.238 319.222 158.245 318.797 159.096 318.486L161.036 317.738C161.26 317.645 161.493 317.579 161.732 317.541Z" fill="#E0E0E0"/>
<path d="M133.081 336.729C133.349 335.801 133.9 334.981 134.659 334.384C136.423 332.849 138.672 331.985 141.009 331.945C143.302 331.936 145.573 332.38 147.692 333.253C148.589 333.534 149.439 333.947 150.214 334.477C149.3 334.295 148.404 334.031 147.537 333.688C145.439 332.989 143.242 332.638 141.03 332.651C138.836 332.701 136.714 333.445 134.97 334.778C134.294 335.382 133.662 336.034 133.081 336.729Z" fill="#E0E0E0"/>
<path d="M128.796 341.139C128.609 341.035 130.228 338.669 130.601 335.276C130.975 331.883 129.999 329.205 130.196 329.153C130.581 329.655 130.838 330.243 130.944 330.866C131.718 333.822 131.347 336.961 129.906 339.655C129.356 340.662 128.868 341.191 128.796 341.139Z" fill="#E0E0E0"/>
<path d="M82.1402 400.559C83.178 418.075 88.3665 435.903 96.5334 453.918H131.815C139.557 436.08 144.475 418.293 145.306 400.559H82.1402Z" fill="#E0E0E0"/>
<path d="M113.686 429.293C128.031 429.293 139.66 429.145 139.66 428.961C139.66 428.777 128.031 428.629 113.686 428.629C99.3408 428.629 87.7118 428.777 87.7118 428.961C87.7118 429.145 99.3408 429.293 113.686 429.293Z" fill="#FAFAFA"/>
<path d="M114.518 435.634C127.962 435.634 138.862 435.485 138.862 435.302C138.862 435.118 127.962 434.969 114.518 434.969C101.072 434.969 90.1724 435.118 90.1724 435.302C90.1724 435.485 101.072 435.634 114.518 435.634Z" fill="#FAFAFA"/>
<path d="M97.1037 428.38C97.2871 428.38 97.4358 424.737 97.4358 420.244C97.4358 415.751 97.2871 412.108 97.1037 412.108C96.9203 412.108 96.7716 415.751 96.7716 420.244C96.7716 424.737 96.9203 428.38 97.1037 428.38Z" fill="#FAFAFA"/>
<path d="M116.021 428.961C116.205 428.961 116.353 425.189 116.353 420.535C116.353 415.882 116.205 412.108 116.021 412.108C115.839 412.108 115.689 415.882 115.689 420.535C115.689 425.189 115.839 428.961 116.021 428.961Z" fill="#FAFAFA"/>
<path d="M133.787 429.148C133.97 429.148 134.119 425.301 134.119 420.555C134.119 415.81 133.97 411.963 133.787 411.963C133.603 411.963 133.455 415.81 133.455 420.555C133.455 425.301 133.603 429.148 133.787 429.148Z" fill="#FAFAFA"/>
<path d="M113.802 412.441C130.622 412.441 144.259 412.292 144.259 412.108C144.259 411.925 130.622 411.776 113.802 411.776C96.9802 411.776 83.3441 411.925 83.3441 412.108C83.3441 412.292 96.9802 412.441 113.802 412.441Z" fill="#FAFAFA"/>
<path d="M95.9531 65.397H12.6659V152.212H95.9531V65.397Z" fill="#E0E0E0"/>
<path d="M90.3165 65.397H7.02938V152.212H90.3165V65.397Z" fill="#FAFAFA"/>
<path d="M90.2861 152.244H6.99897V65.3762H90.2861V152.244ZM6.99897 152.244H90.2861V65.4489H7.05086L6.99897 152.244Z" fill="#E0E0E0"/>
<path d="M79.1206 77.0713H18.2273V140.548H79.1206V77.0713Z" fill="white"/>
<path d="M18.2266 140.963C17.7942 141.601 17.2893 142.186 16.7219 142.707C15.7465 143.744 14.3871 145.125 12.8512 146.629C11.3154 148.134 9.90417 149.504 8.86646 150.448C8.33817 151.003 7.74601 151.495 7.10234 151.911C7.52961 151.273 8.03123 150.688 8.59665 150.168C9.5721 149.13 10.9418 147.75 12.4777 146.235C14.0135 144.72 15.4248 143.371 16.4625 142.416C16.9901 141.863 17.5824 141.375 18.2266 140.963Z" fill="#E0E0E0"/>
<path d="M79.1203 140.808C79.7577 141.241 80.3427 141.745 80.8636 142.313C81.9014 143.288 83.2815 144.647 84.7862 146.183C86.2909 147.719 87.6399 149.12 88.5946 150.158C89.1502 150.686 89.6414 151.278 90.0578 151.922C89.4196 151.494 88.8344 150.993 88.3144 150.428C87.2767 149.452 85.8966 148.082 84.3815 146.546C82.8664 145.011 81.5174 143.599 80.5627 142.562C80.0138 142.037 79.5295 141.448 79.1203 140.808Z" fill="#E0E0E0"/>
<path d="M78.9541 77.2371C79.3865 76.5997 79.8915 76.0147 80.4588 75.4937C81.4343 74.456 82.7937 73.0759 84.3295 71.5712C85.8653 70.0665 87.2662 68.7174 88.304 67.7627C88.832 67.2068 89.4242 66.7157 90.0681 66.2996C89.6405 66.9377 89.1389 67.5228 88.5738 68.0429C87.5983 69.0806 86.2285 70.4608 84.6927 71.9759C83.1569 73.4909 81.7352 74.7881 80.6975 75.8258C80.1741 76.3633 79.5888 76.8371 78.9541 77.2371Z" fill="#E0E0E0"/>
<path d="M18.0604 77.393C17.4229 76.9607 16.8378 76.4557 16.317 75.8883C15.2793 74.9129 13.8991 73.5535 12.3944 72.0176C10.8898 70.4818 9.53036 69.0809 8.57566 68.0432C8.0198 67.5152 7.52863 66.923 7.11248 66.2791C7.75076 66.7064 8.33599 67.2079 8.85584 67.7734C9.89356 68.7488 11.2737 70.1186 12.7888 71.6544C14.3038 73.1903 15.6529 74.6015 16.6076 75.6393C17.1605 76.1634 17.6482 76.7523 18.0604 77.393Z" fill="#E0E0E0"/>
<path d="M78.9552 140.548C78.9498 140.445 78.9498 140.341 78.9552 140.237V139.355C78.9552 138.556 78.9552 137.415 78.9552 135.931C78.8721 132.9 78.8721 128.542 78.8721 122.99C78.8721 111.876 78.7995 96.0095 78.7476 77.0712L78.9863 77.3099H18.2695L18.5393 77.0401C18.5393 100.337 18.5393 122.139 18.5393 140.517L18.311 140.289L62.279 140.403L74.6279 140.465H77.8967H74.6694L62.3724 140.528L18.2591 140.642H18.0308V140.414C18.0308 122.036 18.0308 100.233 18.0308 76.9363V76.6665H18.311H79.0278H79.2665V76.9052C79.2665 95.9265 79.1731 111.824 79.1523 122.97C79.1523 128.501 79.1523 132.859 79.0901 135.858C79.0901 137.321 79.0901 138.452 79.0901 139.241C79.0901 139.604 79.0901 139.895 79.0901 140.102C79.0619 140.256 79.0167 140.405 78.9552 140.548Z" fill="#E0E0E0"/>
<path d="M58.8321 98.6455H38.5136V118.964H58.8321V98.6455Z" fill="#EBEBEB"/>
<path d="M164.877 101.708H116.414V152.226H164.877V101.708Z" fill="#E0E0E0"/>
<path d="M161.598 101.708H113.134V152.226H161.598V101.708Z" fill="#FAFAFA"/>
<path d="M161.579 152.243H113.116V101.696H161.579V152.243ZM113.116 152.243H161.579V101.739H113.146L113.116 152.243Z" fill="#E0E0E0"/>
<path d="M155.083 108.501H119.65V145.438H155.083V108.501Z" fill="white"/>
<path d="M119.649 145.68C119.398 146.05 119.104 146.391 118.774 146.695C118.207 147.298 117.415 148.101 116.521 148.977C115.628 149.853 114.807 150.65 114.203 151.199C113.896 151.522 113.552 151.808 113.177 152.05C113.425 151.679 113.717 151.339 114.047 151.036C114.613 150.432 115.411 149.629 116.305 148.747C117.198 147.865 118.019 147.081 118.623 146.526C118.93 146.203 119.275 145.92 119.649 145.68Z" fill="#E0E0E0"/>
<path d="M155.082 145.59C155.453 145.841 155.794 146.134 156.097 146.464C156.701 147.032 157.504 147.824 158.38 148.717C159.255 149.611 160.04 150.426 160.595 151.029C160.919 151.338 161.204 151.682 161.447 152.057C161.076 151.808 160.734 151.516 160.432 151.187C159.828 150.619 159.025 149.822 158.144 148.928C157.262 148.034 156.478 147.214 155.921 146.61C155.602 146.305 155.321 145.961 155.082 145.59Z" fill="#E0E0E0"/>
<path d="M154.985 108.598C155.237 108.228 155.53 107.886 155.86 107.583C156.428 106.979 157.22 106.177 158.113 105.301C159.007 104.426 159.822 103.641 160.425 103.085C160.733 102.762 161.078 102.476 161.453 102.234C161.203 102.605 160.912 102.946 160.583 103.248C160.015 103.852 159.218 104.655 158.325 105.537C157.43 106.418 156.603 107.173 155.999 107.777C155.695 108.09 155.355 108.366 154.985 108.598Z" fill="#E0E0E0"/>
<path d="M119.553 108.688C119.182 108.437 118.842 108.144 118.539 107.814C117.935 107.246 117.132 106.454 116.256 105.561C115.381 104.667 114.589 103.852 114.034 103.248C113.71 102.941 113.425 102.596 113.182 102.222C113.554 102.47 113.895 102.762 114.197 103.091C114.801 103.659 115.604 104.456 116.485 105.35C117.367 106.244 118.152 107.064 118.708 107.668C119.03 107.973 119.313 108.316 119.553 108.688Z" fill="#E0E0E0"/>
<path d="M154.985 145.438C154.982 145.378 154.982 145.318 154.985 145.257V144.744C154.985 144.279 154.985 143.615 154.985 142.752C154.938 140.987 154.938 138.451 154.938 135.221C154.938 128.754 154.895 119.521 154.865 108.502L155.004 108.641H119.673L119.831 108.483C119.831 122.04 119.831 134.726 119.831 145.419L119.698 145.287L145.282 145.353L152.468 145.389H154.37H152.492L145.337 145.426L119.668 145.492H119.535V145.359C119.535 134.666 119.535 121.98 119.535 108.423V108.266H119.698H155.028H155.167V108.405C155.167 119.473 155.112 128.724 155.101 135.209C155.101 138.427 155.101 140.964 155.064 142.709C155.064 143.56 155.064 144.219 155.064 144.678C155.064 144.888 155.064 145.057 155.064 145.179C155.048 145.268 155.022 145.355 154.985 145.438Z" fill="#E0E0E0"/>
<path d="M143.277 121.056H131.454V132.879H143.277V121.056Z" fill="#EBEBEB"/>
<path d="M494.701 0.208252H373.682V175.614H494.701V0.208252Z" fill="#E0E0E0"/>
<path d="M488.64 0.208252H367.622V175.614H488.64V0.208252Z" fill="#F5F5F5"/>
<path d="M473.594 19.2087H382.648V156.624H473.594V19.2087Z" fill="white"/>
<path d="M473.594 156.624C473.594 156.624 473.594 156.395 473.594 155.949V153.998C473.594 152.276 473.594 149.744 473.594 146.464C473.594 139.875 473.594 130.286 473.511 118.156C473.511 93.9245 473.428 59.6176 473.365 19.2089L473.666 19.5098H382.731L383.063 19.1778C383.063 71.0636 383.063 118.799 383.001 156.593L382.741 156.333L448.937 156.468L467.222 156.53H472.027H473.687H472.079H467.326L449.093 156.593L382.731 156.727H382.472V156.468C382.472 118.685 382.472 70.8976 382.409 19.0532V18.8872H382.752H473.687H473.988V19.1881C473.926 59.6591 473.874 94.0594 473.843 118.332C473.843 130.421 473.78 139.999 473.76 146.568V154.04V155.949C473.614 156.406 473.594 156.624 473.594 156.624Z" fill="#E0E0E0"/>
<path d="M488.973 0.208252C488.349 1.30889 487.627 2.35085 486.814 3.3214C485.413 5.19967 483.41 7.76283 481.138 10.5232C478.865 13.2835 476.727 15.7118 475.161 17.4759C474.356 18.4613 473.464 19.3713 472.494 20.1947C473.18 19.1249 473.954 18.1148 474.808 17.1749L480.629 10.1081L486.451 3.04121C487.212 2.02804 488.054 1.0804 488.973 0.208252Z" fill="#E0E0E0"/>
<path d="M474.061 156.177C478.584 163.368 483.907 170.024 489.927 176.019L474.061 156.177Z" fill="white"/>
<path d="M489.927 176.019C488.92 175.28 487.991 174.438 487.157 173.507C482.939 169.211 479.17 164.496 475.908 159.436C475.181 158.42 474.563 157.331 474.061 156.188C474.877 157.127 475.623 158.126 476.292 159.176C477.63 161.044 479.498 163.607 481.688 166.347C483.877 169.087 485.963 171.473 487.499 173.186C488.378 174.068 489.189 175.015 489.927 176.019Z" fill="#E0E0E0"/>
<path d="M375.803 165.936C380.18 160.536 383.614 156.064 383.472 155.949C383.329 155.834 379.665 160.118 375.288 165.518C370.909 170.918 367.476 175.39 367.618 175.506C367.761 175.621 371.425 171.336 375.803 165.936Z" fill="#E0E0E0"/>
<path d="M382.487 19.0076C382.63 18.8939 379.419 14.5928 375.312 9.40079C371.206 4.20884 367.761 0.0921491 367.617 0.205916C367.473 0.319682 370.685 4.62082 374.792 9.81276C378.898 15.0047 382.343 19.1214 382.487 19.0076Z" fill="#E0E0E0"/>
<path d="M445.255 47.113H414.808V133.576H445.255V47.113Z" fill="#E0E0E0"/>
<path d="M414.644 359.04C414.745 358.914 414.082 358.218 413.165 357.483C412.248 356.748 411.423 356.256 411.322 356.38C411.223 356.506 411.885 357.203 412.802 357.937C413.719 358.671 414.543 359.165 414.644 359.04Z" fill="#4E36D7"/>
<path d="M439.685 321.588C439.841 318.091 439.934 314.511 438.834 311.211C437.734 307.911 435.171 304.84 431.747 304.124C427.834 303.314 423.829 305.784 421.639 309.126C419.45 312.467 418.692 316.524 418.049 320.457C413.586 347.642 411.941 375.216 413.14 402.738L429.142 404.979C436.147 376.235 438.409 351.132 439.685 321.588Z" fill="#263238"/>
<path d="M429.516 303.978C429.504 304.068 429.479 304.155 429.443 304.238L429.183 304.964L428.146 307.724C427.917 308.326 427.627 308.98 427.388 309.727L426.61 312.155L425.717 314.937L424.887 318.112C423.545 323.325 422.505 328.614 421.774 333.948C420.913 339.966 420.342 346.628 419.896 353.664C419.076 367.684 418.952 380.416 418.588 389.621C418.422 394.229 418.256 397.923 418.08 400.517L417.883 403.475L417.82 404.242C417.833 404.329 417.833 404.416 417.82 404.502C417.808 404.416 417.808 404.329 417.82 404.242V403.475L417.914 400.507C418.018 397.933 418.121 394.208 418.236 389.611C418.495 380.406 418.557 367.673 419.377 353.633C419.823 346.618 420.415 339.935 421.307 333.916C422.058 328.567 423.136 323.267 424.534 318.05L425.406 314.874L426.351 312.093L427.17 309.675C427.43 308.928 427.741 308.285 427.98 307.683L429.152 304.954L429.474 304.248C429.474 304.157 429.488 304.065 429.516 303.978Z" fill="#4E36D7"/>
<path d="M430.957 303.989C431.789 304.974 432.449 306.093 432.908 307.299C434.138 310.613 434.637 314.152 434.371 317.676C433.946 326.518 433.157 338.711 432.098 352.16C431.04 365.608 429.919 377.729 428.964 386.55C428.498 390.949 428.082 394.498 427.782 396.927L427.418 399.749L427.315 400.486C427.344 400.493 427.37 400.512 427.386 400.537C427.404 400.562 427.411 400.592 427.407 400.622C427.403 400.652 427.388 400.68 427.365 400.7C427.343 400.72 427.313 400.731 427.283 400.731C427.253 400.731 427.224 400.72 427.201 400.7C427.179 400.68 427.164 400.652 427.16 400.622C427.156 400.592 427.163 400.562 427.181 400.537C427.197 400.512 427.223 400.493 427.252 400.486L427.304 399.749L427.564 396.916L428.601 386.539C429.442 377.739 430.552 365.567 431.611 352.118C432.669 338.669 433.52 326.476 434.049 317.666C434.344 314.198 433.913 310.706 432.783 307.413C432.279 306.219 431.668 305.073 430.957 303.989Z" fill="#4E36D7"/>
<path d="M442.087 345.385C442.141 345.235 440.869 344.64 439.245 344.058C437.621 343.476 436.262 343.126 436.207 343.277C436.153 343.428 437.425 344.023 439.049 344.605C440.673 345.187 442.034 345.537 442.087 345.385Z" fill="#4E36D7"/>
<path d="M441.149 330.682C442.808 329.94 444.099 329.22 444.033 329.074C443.967 328.926 442.57 329.41 440.912 330.152C439.253 330.894 437.962 331.614 438.028 331.76C438.093 331.907 439.49 331.424 441.149 330.682Z" fill="#4E36D7"/>
<path d="M443.043 315.791C443.055 315.631 442.002 315.428 440.693 315.337C439.383 315.247 438.313 315.303 438.302 315.464C438.29 315.624 439.343 315.826 440.652 315.917C441.962 316.008 443.032 315.951 443.043 315.791Z" fill="#4E36D7"/>
<path d="M426.498 307.249C426.634 307.164 426.152 306.156 425.423 304.995C424.693 303.836 423.992 302.966 423.856 303.052C423.72 303.137 424.201 304.146 424.931 305.306C425.66 306.465 426.362 307.335 426.498 307.249Z" fill="#4E36D7"/>
<path d="M421.06 315.302C421.063 315.141 420.05 314.99 418.795 314.963C417.539 314.936 416.519 315.045 416.516 315.204C416.513 315.365 417.527 315.517 418.782 315.544C420.037 315.571 421.057 315.462 421.06 315.302Z" fill="#4E36D7"/>
<path d="M417.113 331.376C417.173 331.228 416.201 330.696 414.941 330.187C413.681 329.68 412.611 329.388 412.551 329.537C412.491 329.686 413.463 330.218 414.723 330.727C415.983 331.234 417.053 331.526 417.113 331.376Z" fill="#4E36D7"/>
<path d="M414.678 345.677C415.833 345.434 416.743 345.11 416.71 344.954C416.678 344.796 415.714 344.865 414.559 345.108C413.403 345.35 412.493 345.674 412.526 345.832C412.559 345.988 413.522 345.919 414.678 345.677Z" fill="#4E36D7"/>
<path d="M412.702 367.793C413.926 367.573 414.896 367.268 414.867 367.109C414.839 366.951 413.824 367.001 412.6 367.221C411.375 367.44 410.406 367.746 410.434 367.904C410.463 368.062 411.478 368.012 412.702 367.793Z" fill="#4E36D7"/>
<path d="M411.829 380.676C412.898 380.11 413.703 379.538 413.628 379.395C413.553 379.253 412.626 379.597 411.557 380.162C410.488 380.727 409.682 381.301 409.756 381.443C409.832 381.584 410.759 381.24 411.829 380.676Z" fill="#4E36D7"/>
<path d="M423.645 393.191C423.784 393.111 423.304 392.01 422.571 390.733C421.84 389.454 421.133 388.483 420.994 388.563C420.855 388.643 421.335 389.743 422.068 391.021C422.799 392.3 423.506 393.271 423.645 393.191Z" fill="#4E36D7"/>
<path d="M423.285 370.798C424.355 369.743 425.132 368.795 425.019 368.681C424.907 368.568 423.948 369.331 422.878 370.386C421.808 371.44 421.031 372.389 421.144 372.502C421.256 372.616 422.215 371.853 423.285 370.798Z" fill="#4E36D7"/>
<path d="M425.873 358.073C425.991 357.965 425.455 357.195 424.677 356.353C423.897 355.512 423.171 354.919 423.053 355.028C422.935 355.138 423.471 355.908 424.25 356.748C425.029 357.589 425.756 358.182 425.873 358.073Z" fill="#4E36D7"/>
<path d="M425.709 347.277C426.635 346.255 427.289 345.339 427.17 345.232C427.051 345.124 426.205 345.866 425.28 346.888C424.354 347.91 423.7 348.825 423.818 348.933C423.938 349.04 424.784 348.299 425.709 347.277Z" fill="#4E36D7"/>
<path d="M428.976 331.364C429.089 331.25 428.358 330.349 427.345 329.353C426.331 328.356 425.418 327.641 425.305 327.757C425.192 327.871 425.923 328.771 426.937 329.768C427.951 330.764 428.864 331.479 428.976 331.364Z" fill="#4E36D7"/>
<path d="M430.133 318.429C430.831 317.257 431.286 316.24 431.148 316.158C431.011 316.076 430.332 316.959 429.634 318.131C428.935 319.302 428.481 320.318 428.618 320.4C428.756 320.483 429.435 319.6 430.133 318.429Z" fill="#4E36D7"/>
<path d="M434.387 304.407C435.024 303.227 435.426 302.209 435.285 302.132C435.144 302.057 434.512 302.951 433.875 304.131C433.237 305.311 432.835 306.329 432.976 306.406C433.117 306.481 433.748 305.587 434.387 304.407Z" fill="#4E36D7"/>
<path d="M438.541 309.499C439.399 309.089 440.038 308.639 439.968 308.494C439.899 308.349 439.148 308.564 438.289 308.975C437.431 309.386 436.792 309.836 436.86 309.981C436.93 310.126 437.682 309.91 438.541 309.499Z" fill="#4E36D7"/>
<path d="M440.068 359.05C437.898 358.893 435.843 358.017 434.226 356.56C436.194 357.34 438.143 358.17 440.068 359.05Z" fill="#4E36D7"/>
<path d="M436.009 370.423C437.229 370.188 438.195 369.869 438.164 369.712C438.134 369.554 437.119 369.617 435.899 369.853C434.677 370.088 433.712 370.407 433.742 370.565C433.772 370.722 434.787 370.659 436.009 370.423Z" fill="#4E36D7"/>
<path d="M435.812 388.054C433.929 386.923 432.52 385.146 431.848 383.052C433.161 384.726 434.483 386.394 435.812 388.054Z" fill="#4E36D7"/>
<path d="M411.9 395.305C412.806 394.53 413.457 393.803 413.352 393.681C413.248 393.559 412.43 394.088 411.523 394.863C410.617 395.638 409.967 396.364 410.071 396.487C410.176 396.608 410.994 396.079 411.9 395.305Z" fill="#4E36D7"/>
<path d="M402.691 356.404C401.653 353.156 399.692 349.358 396.277 349.306C395.262 349.363 394.28 349.691 393.434 350.256C392.589 350.823 391.912 351.605 391.473 352.523C390.54 354.34 390.094 356.367 390.176 358.407C390.596 372.892 393.066 387.244 397.512 401.036H409.965C409.832 385.875 407.379 370.823 402.691 356.404Z" fill="#263238"/>
<path d="M380.109 335.93C378.365 328.946 373.146 325.168 367.096 324.816C361.575 325.781 359.427 331.218 358.794 336.791C358.161 342.363 359.832 347.905 361.575 353.249L378.033 404.709L393.599 403.008C388.608 380.033 385.785 358.728 380.109 335.93Z" fill="#263238"/>
<path d="M396.276 349.316C395.886 349.877 395.539 350.466 395.239 351.08C394.604 352.848 394.404 354.741 394.658 356.601C394.896 358.977 395.176 361.79 395.571 364.975C395.965 368.161 396.546 371.554 397.242 375.145C398.653 382.326 400.251 388.77 401.257 393.461C401.766 395.806 402.16 397.715 402.399 399.033L402.658 400.559C402.701 400.735 402.719 400.917 402.71 401.098C402.631 400.934 402.575 400.759 402.544 400.579L402.181 399.075L400.863 393.554C399.753 388.884 398.103 382.461 396.712 375.259C396.007 371.658 395.457 368.203 395.073 365.048C394.876 363.471 394.741 361.935 394.616 360.555C394.492 359.174 394.346 357.846 394.284 356.642C394.063 354.725 394.334 352.781 395.073 350.997C395.352 350.358 395.762 349.785 396.276 349.316Z" fill="#4E36D7"/>
<path d="M367.303 324.38C366.614 325.172 365.987 326.014 365.425 326.902C363.992 329.383 363.179 332.174 363.059 335.037C362.988 339.288 363.637 343.52 364.979 347.552L369.41 362.589L377.369 389.943L379.714 398.245L380.327 400.507C380.41 400.767 380.469 401.035 380.503 401.306C380.383 401.06 380.285 400.803 380.213 400.538L379.497 398.296L376.975 389.995L368.86 362.692L364.47 347.646C363.142 343.017 362.395 338.648 362.654 334.954C362.813 332.038 363.701 329.208 365.238 326.725C365.794 325.836 366.492 325.044 367.303 324.38Z" fill="#4E36D7"/>
<path d="M390.145 401.347C390.004 401.11 389.886 400.86 389.792 400.6C389.584 400.102 389.252 399.376 388.91 398.411C388.173 396.501 387.218 393.689 386.232 390.109C385.247 386.529 384.271 382.326 383.337 377.573L380.411 362.163C379.373 356.694 378.128 351.516 376.727 346.888C375.519 342.788 374.003 338.784 372.192 334.913C370.981 332.304 369.595 329.779 368.041 327.358C367.512 326.486 367.003 325.853 366.734 325.407C366.568 325.189 366.421 324.957 366.298 324.712C366.494 324.906 366.671 325.118 366.827 325.345C367.149 325.781 367.668 326.383 368.228 327.244C369.875 329.63 371.336 332.138 372.597 334.747C374.469 338.615 376.031 342.627 377.266 346.743C378.774 351.781 380.021 356.894 381.002 362.059L383.887 377.532C384.8 382.284 385.724 386.529 386.658 390.067C387.592 393.606 388.474 396.429 389.148 398.369C389.47 399.345 389.761 400.081 389.937 400.59C390.029 400.836 390.098 401.089 390.145 401.347Z" fill="#4E36D7"/>
<path d="M359.903 351.474C360.984 351.212 361.829 350.873 361.791 350.717C361.754 350.56 360.847 350.647 359.766 350.909C358.686 351.172 357.84 351.51 357.879 351.667C357.916 351.822 358.823 351.736 359.903 351.474Z" fill="#4E36D7"/>
<path d="M360.165 340.07C358.429 340.38 356.658 340.45 354.904 340.278C356.598 339.688 358.43 339.617 360.165 340.07Z" fill="#4E36D7"/>
<path d="M361.916 330.401C362.019 330.278 361.342 329.532 360.403 328.735C359.462 327.938 358.617 327.391 358.513 327.514C358.409 327.636 359.087 328.381 360.026 329.178C360.966 329.975 361.812 330.522 361.916 330.401Z" fill="#4E36D7"/>
<path d="M366.621 321.412C366.776 321.412 366.735 322.201 366.714 323.114C366.693 324.027 366.714 324.785 366.527 324.816C366.34 324.847 366.112 324.079 366.143 323.103C366.174 322.128 366.517 321.371 366.621 321.412Z" fill="#4E36D7"/>
<path d="M375.517 327.375C376.115 326.521 376.493 325.753 376.363 325.661C376.231 325.569 375.639 326.188 375.041 327.042C374.443 327.896 374.064 328.664 374.196 328.755C374.327 328.847 374.918 328.229 375.517 327.375Z" fill="#4E36D7"/>
<path d="M380.849 337.606C381.9 337.177 382.702 336.709 382.642 336.561C382.581 336.412 381.68 336.638 380.63 337.067C379.578 337.496 378.775 337.964 378.837 338.112C378.897 338.26 379.797 338.034 380.849 337.606Z" fill="#4E36D7"/>
<path d="M386.461 347.801C384.946 348.842 383.088 349.261 381.272 348.974C382.98 348.493 384.712 348.102 386.461 347.801Z" fill="#4E36D7"/>
<path d="M369.746 343.069C370.033 342.156 370.141 341.377 369.988 341.329C369.834 341.281 369.478 341.983 369.192 342.896C368.906 343.809 368.798 344.588 368.951 344.636C369.104 344.685 369.46 343.983 369.746 343.069Z" fill="#4E36D7"/>
<path d="M372.625 356.638C373.159 355.408 373.473 354.358 373.325 354.295C373.178 354.231 372.626 355.176 372.091 356.406C371.557 357.637 371.244 358.686 371.391 358.749C371.538 358.813 372.09 357.868 372.625 356.638Z" fill="#4E36D7"/>
<path d="M365.342 362.589C364.57 362.581 363.807 362.415 363.101 362.101C361.907 361.727 360.942 361.385 361.025 361.229C361.805 361.12 362.599 361.231 363.319 361.551C364.543 361.935 365.404 362.443 365.342 362.589Z" fill="#4E36D7"/>
<path d="M367.343 375.495C368.257 374.842 368.923 374.207 368.83 374.076C368.736 373.945 367.92 374.369 367.006 375.022C366.091 375.674 365.425 376.308 365.519 376.439C365.612 376.57 366.429 376.146 367.343 375.495Z" fill="#4E36D7"/>
<path d="M369.762 386.328C370.815 386.073 371.637 385.739 371.6 385.583C371.561 385.427 370.677 385.509 369.625 385.764C368.573 386.02 367.75 386.354 367.788 386.51C367.825 386.666 368.709 386.585 369.762 386.328Z" fill="#4E36D7"/>
<path d="M386.761 357.39C386.844 357.525 386.138 358.085 385.111 358.427C384.083 358.77 383.191 358.863 383.16 358.708C383.129 358.552 383.938 358.261 384.913 357.898C385.889 357.535 386.688 357.255 386.761 357.39Z" fill="#4E36D7"/>
<path d="M388.932 375.225C389.001 375.08 388.27 374.592 387.301 374.135C386.331 373.68 385.489 373.428 385.421 373.572C385.352 373.717 386.084 374.205 387.053 374.661C388.023 375.118 388.864 375.37 388.932 375.225Z" fill="#4E36D7"/>
<path d="M392.744 388.003C392.803 387.854 391.79 387.319 390.483 386.806C389.175 386.293 388.068 386 388.01 386.149C387.952 386.298 388.964 386.835 390.271 387.347C391.579 387.859 392.686 388.153 392.744 388.003Z" fill="#4E36D7"/>
<path d="M372.235 398.016C372.162 397.871 373.179 397.186 374.31 396.252C375.441 395.318 376.385 394.498 376.52 394.612C376.655 394.727 375.887 395.744 374.663 396.688C373.99 397.345 373.15 397.804 372.235 398.016Z" fill="#4E36D7"/>
<path d="M382.331 391.52C382.165 391.52 381.947 390.68 381.563 389.683C381.179 388.687 380.764 387.899 380.899 387.805C381.033 387.712 381.677 388.397 382.092 389.476C382.507 390.555 382.486 391.51 382.331 391.52Z" fill="#4E36D7"/>
<path d="M379.659 376.177C379.753 376.047 379.252 375.527 378.539 375.015C377.827 374.504 377.174 374.194 377.08 374.325C376.986 374.455 377.488 374.976 378.2 375.487C378.912 375.998 379.566 376.307 379.659 376.177Z" fill="#4E36D7"/>
<path d="M401.771 353.507C402.648 352.86 403.281 352.231 403.186 352.103C403.09 351.974 402.302 352.393 401.427 353.039C400.55 353.685 399.917 354.314 400.012 354.444C400.108 354.572 400.895 354.153 401.771 353.507Z" fill="#4E36D7"/>
<path d="M406.737 361.79C406.737 361.945 405.761 362.153 404.526 362.018C403.291 361.883 402.368 361.468 402.451 361.323C402.534 361.177 403.489 361.323 404.62 361.447C405.751 361.572 406.726 361.624 406.737 361.79Z" fill="#4E36D7"/>
<path d="M391.526 363.969C391.526 364.124 390.644 364.446 389.45 364.529C388.257 364.612 387.302 364.405 387.313 364.249C387.323 364.093 388.267 364.031 389.388 363.958C390.509 363.886 391.463 363.803 391.526 363.969Z" fill="#4E36D7"/>
<path d="M392.8 354.795C392.8 354.951 391.856 354.972 390.839 354.505C389.822 354.038 389.23 353.322 389.334 353.208C389.438 353.093 390.144 353.56 391.077 353.986C392.011 354.411 392.821 354.629 392.8 354.795Z" fill="#4E36D7"/>
<path d="M408.05 372.205C408.136 372.069 407.321 371.402 406.229 370.715C405.139 370.028 404.184 369.582 404.099 369.718C404.014 369.854 404.828 370.52 405.92 371.207C407.012 371.894 407.965 372.341 408.05 372.205Z" fill="#4E36D7"/>
<path d="M445.268 399.417H363.901V413.841H445.268V399.417Z" fill="#FF725E"/>
<path d="M445.268 399.417H363.901V413.841H445.268V399.417Z" fill="url(#paint0_radial_1_375)"/>
<path d="M369.971 410.977L379.871 454.074H428.364L439.187 410.977H369.971Z" fill="#FF725E"/>
<path d="M369.971 410.977L379.871 454.074H428.364L439.187 410.977H369.971Z" fill="url(#paint1_radial_1_375)"/>
<path d="M404.225 414.153C426.864 414.153 445.215 414.023 445.215 413.862C445.215 413.701 426.864 413.572 404.225 413.572C381.588 413.572 363.236 413.701 363.236 413.862C363.236 414.023 381.588 414.153 404.225 414.153Z" fill="#4E36D7"/>
<path d="M399.963 364.313C400.099 364.228 399.762 363.442 399.209 362.557C398.657 361.673 398.098 361.025 397.962 361.11C397.826 361.195 398.164 361.98 398.716 362.866C399.269 363.75 399.827 364.398 399.963 364.313Z" fill="#4E36D7"/>
<path d="M400.962 373.854C401.347 372.695 401.536 371.715 401.383 371.664C401.23 371.614 400.796 372.512 400.411 373.67C400.026 374.829 399.838 375.809 399.989 375.86C400.142 375.911 400.578 375.012 400.962 373.854Z" fill="#4E36D7"/>
<path d="M403.985 388.033C404.129 387.965 403.753 386.877 403.144 385.606C402.536 384.334 401.925 383.36 401.779 383.429C401.635 383.498 402.011 384.585 402.62 385.856C403.229 387.128 403.839 388.103 403.985 388.033Z" fill="#4E36D7"/>
<path d="M396.892 396.598C397.61 395.771 398.092 395.015 397.972 394.91C397.851 394.804 397.171 395.39 396.453 396.217C395.736 397.043 395.252 397.798 395.374 397.904C395.494 398.009 396.175 397.424 396.892 396.598Z" fill="#4E36D7"/>
<path d="M393.585 380.07C393.613 379.912 392.876 379.65 391.939 379.485C391.002 379.32 390.22 379.314 390.192 379.471C390.164 379.629 390.901 379.892 391.838 380.057C392.775 380.223 393.557 380.228 393.585 380.07Z" fill="#4E36D7"/>
<path d="M251.134 117.76L267.25 111.793L307.16 108.877L317.673 112.073L303.497 173.101L268.682 180.625L252.535 159.186L251.134 117.76Z" fill="#FFBE9D"/>
<path d="M341.562 120.261L315.546 111.036C315.546 111.036 291.149 145.924 251.135 117.729C251.135 117.729 233.587 124.028 230.983 125.481C228.378 126.933 243.207 171.317 243.207 171.317L241.464 226.44C264.293 238.218 300.831 233.839 332.627 228.516L331.703 167.29L341.562 120.261Z" fill="#FF725E"/>
<path d="M341.562 120.261L315.546 111.036C315.546 111.036 291.149 145.924 251.135 117.729C251.135 117.729 233.587 124.028 230.983 125.481C228.378 126.933 243.207 171.317 243.207 171.317L241.464 226.44C264.293 238.218 300.831 233.839 332.627 228.516L331.703 167.29L341.562 120.261Z" fill="url(#paint2_radial_1_375)"/>
<path d="M331.485 70.2431C332.843 68.3038 333.442 65.9333 333.167 63.5818C332.893 61.2302 331.765 59.0612 329.996 57.4864C328.228 55.9118 325.944 55.0411 323.576 55.0398C321.209 55.0384 318.923 55.9065 317.154 57.4792L311.965 66.6837C309.044 70.1646 307.127 74.3769 306.424 78.8665C305.752 83.389 306.828 87.9976 309.433 91.7549C310.751 93.5531 312.44 95.0472 314.386 96.136C316.331 97.2249 318.488 97.883 320.71 98.0659C322.932 98.2489 325.167 97.9523 327.265 97.1964C329.362 96.4404 331.273 95.2428 332.868 93.6844C334.462 92.1259 335.703 90.2432 336.506 88.1636C337.31 86.0839 337.658 83.856 337.525 81.6303C337.393 79.4047 336.785 77.2333 335.741 75.2635C334.696 73.2934 333.241 71.5707 331.474 70.212L331.485 70.2431Z" fill="#263238"/>
<path d="M317.994 70.9485C317.839 67.8354 317.506 64.7222 318.389 61.7025C318.826 60.6158 319.113 59.474 319.239 58.3091C319.232 57.4611 318.964 56.6357 318.474 55.9441C317.983 55.2524 317.292 54.7278 316.494 54.4406C315.696 54.1535 314.829 54.1178 314.01 54.3381C313.192 54.5585 312.459 55.0245 311.913 55.6733L311.695 56.0365C309.9 57.4893 309.028 59.7827 308.333 61.9827C307.243 65.4108 306.356 68.9001 305.676 72.4325C305.198 74.3979 305.083 76.4339 305.334 78.4408C305.469 79.4456 305.84 80.4039 306.418 81.2373C306.995 82.0707 307.762 82.7554 308.655 83.2351C311.467 84.5426 314.954 82.7266 316.5 80.0389C318.046 77.3512 318.15 74.0513 317.994 70.9485Z" fill="#FF725E"/>
<path d="M317.994 70.9485C317.839 67.8354 317.506 64.7222 318.389 61.7025C318.826 60.6158 319.113 59.474 319.239 58.3091C319.232 57.4611 318.964 56.6357 318.474 55.9441C317.983 55.2524 317.292 54.7278 316.494 54.4406C315.696 54.1535 314.829 54.1178 314.01 54.3381C313.192 54.5585 312.459 55.0245 311.913 55.6733L311.695 56.0365C309.9 57.4893 309.028 59.7827 308.333 61.9827C307.243 65.4108 306.356 68.9001 305.676 72.4325C305.198 74.3979 305.083 76.4339 305.334 78.4408C305.469 79.4456 305.84 80.4039 306.418 81.2373C306.995 82.0707 307.762 82.7554 308.655 83.2351C311.467 84.5426 314.954 82.7266 316.5 80.0389C318.046 77.3512 318.15 74.0513 317.994 70.9485Z" fill="url(#paint3_radial_1_375)"/>
<path d="M314.123 60.2911C313.532 56.7629 312.048 53.4422 311.467 49.914C310.761 45.2754 311.809 40.5746 312.069 35.8841C312.328 31.1937 311.591 26.0361 308.157 22.8399C304.493 19.4258 298.983 19.2806 294.054 18.3777C288.45 17.34 283.137 15.1504 277.627 13.6873C272.117 12.2241 266.139 11.5288 260.847 13.4901C256.022 15.2957 252.244 19.0834 248.83 22.9333C243.299 29.1596 238.048 36.5586 238.111 44.9018C238.111 49.2395 239.636 53.4215 240.186 57.7176C240.715 61.8685 240.383 66.0712 241.348 70.1702C242.313 74.2692 245.043 78.2644 249.131 79.0116L293.981 83.4945C296.917 83.5706 299.834 82.9959 302.522 81.8116C305.209 80.6275 307.601 78.8632 309.526 76.6451C311.452 74.4272 312.863 71.8106 313.658 68.9832C314.452 66.1557 314.611 63.1874 314.123 60.2911Z" fill="#263238"/>
<path d="M301.929 38.2816L301.815 32.792L268.608 27.8629C258.418 27.1987 247.854 37.8146 247.626 48.0361C247.377 59.3783 247.511 73.2422 249.193 81.6374C252.575 98.5106 265.682 100.14 265.682 100.14V109.728C265.684 114.837 267.716 119.736 271.329 123.348C274.943 126.96 279.843 128.988 284.952 128.988C287.535 128.988 290.092 128.469 292.469 127.461C294.848 126.453 297 124.978 298.796 123.122C300.593 121.267 301.999 119.069 302.929 116.659C303.859 114.25 304.295 111.677 304.212 109.095L301.929 38.2816Z" fill="#FFBE9D"/>
<path d="M254.681 59.3573C254.708 59.9189 254.951 60.4485 255.359 60.8352C255.766 61.222 256.308 61.4361 256.871 61.4327C257.151 61.4454 257.431 61.4011 257.693 61.3024C257.956 61.2038 258.196 61.0529 258.399 60.8589C258.601 60.6649 258.762 60.4319 258.873 60.1738C258.983 59.9157 259.039 59.6379 259.039 59.3573C259.012 58.7957 258.77 58.2662 258.362 57.8795C257.954 57.4926 257.412 57.2785 256.85 57.2819C256.57 57.2693 256.289 57.3136 256.027 57.4122C255.764 57.5109 255.525 57.6618 255.321 57.8557C255.119 58.0498 254.957 58.2828 254.847 58.5409C254.737 58.799 254.681 59.0767 254.681 59.3573Z" fill="#263238"/>
<path d="M251.507 55.1131C251.787 55.3829 253.385 54.0754 255.73 54.0131C258.075 53.9509 259.881 55.0508 260.078 54.7292C260.203 54.5942 259.902 54.0961 259.134 53.5773C258.092 52.9156 256.87 52.593 255.637 52.6537C254.416 52.6983 253.243 53.1309 252.285 53.8886C251.621 54.4697 251.392 54.999 251.507 55.1131Z" fill="#263238"/>
<path d="M276.837 58.6103C276.864 59.1718 277.107 59.7013 277.515 60.0881C277.924 60.4748 278.465 60.6889 279.027 60.6857C279.308 60.6983 279.587 60.6539 279.851 60.5553C280.113 60.4567 280.353 60.3058 280.555 60.1118C280.759 59.9178 280.92 59.6847 281.03 59.4266C281.14 59.1686 281.197 58.8908 281.196 58.6103C281.17 58.0486 280.927 57.5191 280.519 57.1323C280.11 56.7456 279.569 56.5315 279.006 56.5348C278.726 56.5222 278.447 56.5665 278.183 56.6652C277.921 56.7638 277.681 56.9146 277.479 57.1086C277.275 57.3026 277.114 57.5357 277.004 57.7938C276.894 58.0519 276.837 58.3297 276.837 58.6103Z" fill="#263238"/>
<path d="M274.585 54.615C274.866 54.8848 276.474 53.5773 278.809 53.5151C281.144 53.4528 282.96 54.5528 283.157 54.2311C283.271 54.0962 282.981 53.5981 282.213 53.0792C281.17 52.4177 279.948 52.095 278.716 52.1556C277.499 52.2032 276.329 52.6355 275.374 53.3905C274.668 53.9613 274.451 54.4905 274.585 54.615Z" fill="#263238"/>
<path d="M266.781 72.3393C265.522 72.0019 264.225 71.824 262.92 71.81C262.319 71.81 261.748 71.6751 261.634 71.2704C261.576 70.6672 261.699 70.0602 261.987 69.5271L263.574 64.8988C265.764 58.3093 267.331 52.9028 267.061 52.8198C266.791 52.7368 264.799 58.0084 262.609 64.5875L261.104 69.2365C260.742 69.9698 260.65 70.8079 260.845 71.6025C260.944 71.8111 261.088 71.9944 261.267 72.1384C261.448 72.2823 261.659 72.383 261.883 72.4327C262.223 72.5116 262.572 72.5465 262.92 72.5364C264.21 72.6347 265.509 72.5684 266.781 72.3393Z" fill="#263238"/>
<path d="M265.713 100.192C273.904 99.988 281.884 97.5517 288.792 93.1455C288.792 93.1455 283.354 105.308 265.713 104.467V100.192Z" fill="#EB996E"/>
<path d="M268.005 77.9427C268.429 77.3625 268.992 76.8999 269.645 76.5985C270.297 76.2971 271.015 76.1669 271.731 76.2201C272.249 76.2458 272.757 76.3757 273.224 76.6021C273.691 76.8285 274.108 77.1469 274.45 77.538C274.777 77.9154 274.982 78.3843 275.036 78.8815C275.09 79.3786 274.99 79.8804 274.75 80.3191C274.391 80.7558 273.91 81.0751 273.368 81.2359C272.827 81.3969 272.248 81.392 271.71 81.2219C270.571 80.8792 269.512 80.311 268.597 79.5513C268.326 79.3749 268.089 79.1497 267.902 78.8871C267.815 78.7579 267.77 78.6062 267.77 78.4512C267.77 78.2962 267.815 78.1447 267.902 78.0154" fill="#EB996E"/>
<path d="M285.397 47.6418C285.263 46.9776 282.897 46.9361 280.209 46.2097C277.521 45.4833 275.435 44.4145 275.02 44.9333C274.823 45.1824 275.114 45.8258 275.913 46.5729C276.988 47.4957 278.258 48.1622 279.628 48.5217C280.997 48.8813 282.432 48.9246 283.82 48.6483C284.879 48.3785 285.46 47.9634 285.397 47.6418Z" fill="#263238"/>
<path d="M258.292 45.9604C257.555 45.7425 255.874 47.2265 253.56 48.4406C251.246 49.6547 249.098 50.3292 248.901 51.0556C248.828 51.3981 249.378 51.7094 250.468 51.7198C251.966 51.6633 253.43 51.2469 254.733 50.5056C256.053 49.8203 257.186 48.8229 258.033 47.6C258.604 46.6972 258.624 46.085 258.292 45.9604Z" fill="#263238"/>
<path d="M295.723 22.093L270.112 24.1062L248.891 31.3702C251.62 37.3163 252.139 42.204 258.645 42.837C261.914 43.1204 265.201 42.5615 268.193 41.2136C271.186 39.8657 273.782 37.7736 275.736 35.1371C276.826 39.9521 282.264 42.4011 287.151 43.086C290.607 43.7126 294.168 43.3898 297.456 42.1521C300.673 40.7823 303.381 37.8974 303.827 34.4315C304.273 30.9655 299.178 22.6534 295.723 22.093Z" fill="#263238"/>
<path d="M316.024 39.1115C314.599 36.4595 312.261 34.4135 309.444 33.3521C309.23 31.6986 309.015 30.0452 308.801 28.3918L289.821 34.3795C285.328 41.5397 287.383 51.8339 294.315 56.8668L294.398 60.4677C294.479 64.2435 295.522 67.9361 297.428 71.1977L303.395 84.2936C307.815 84.3974 308.832 79.6239 310.576 75.7014C312.319 71.7788 312.35 67.3996 312.194 63.1035C312.118 61.028 312.011 58.9526 311.873 56.8772C313.211 54.5838 315.141 52.4669 316.262 50.0386C317.056 48.319 317.446 46.441 317.406 44.5474C317.364 42.6539 316.891 40.7947 316.024 39.1115Z" fill="#263238"/>
<path d="M296.907 61.5677C297.156 61.4328 307.284 57.4168 307.896 68.0638C308.508 78.7107 297.737 77.1334 297.706 76.8221C297.675 76.5108 296.907 61.5677 296.907 61.5677Z" fill="#FFBE9D"/>
<path d="M300.706 72.64C300.706 72.64 300.903 72.7542 301.225 72.8787C301.674 73.0394 302.168 73.0209 302.605 72.8268C303.705 72.3494 304.545 70.5127 304.473 68.5929C304.446 67.6819 304.215 66.7883 303.798 65.9779C303.686 65.6497 303.497 65.3536 303.246 65.115C302.994 64.8763 302.689 64.7024 302.356 64.6081C302.143 64.5706 301.925 64.6067 301.736 64.7106C301.547 64.8144 301.4 64.9796 301.318 65.1788C301.194 65.4798 301.318 65.6873 301.214 65.7184C301.111 65.7496 300.976 65.5524 301.038 65.1062C301.078 64.8386 301.21 64.593 301.411 64.4109C301.554 64.2891 301.719 64.1969 301.896 64.1399C302.075 64.0829 302.262 64.0621 302.449 64.0788C302.897 64.1315 303.324 64.2997 303.688 64.5671C304.052 64.8345 304.34 65.1919 304.525 65.6043C305.032 66.4982 305.313 67.5029 305.344 68.5307C305.407 70.6787 304.431 72.7438 302.916 73.273C302.636 73.3742 302.336 73.4109 302.039 73.3804C301.744 73.3498 301.457 73.2529 301.204 73.0966C300.747 72.8579 300.675 72.64 300.706 72.64Z" fill="#EB996E"/>
<path d="M314.902 37.8453C315.068 37.8453 315.172 38.3746 315.006 39.2359C314.724 40.4667 314.136 41.6059 313.293 42.5462C312.029 44.0026 310.323 45.0051 308.437 45.3999C306.237 45.8669 304.047 45.3999 302.21 45.5867C301.243 45.73 300.291 45.9628 299.367 46.282C298.869 46.4376 298.329 46.5829 297.8 46.6971C297.271 46.8112 296.762 46.8942 296.264 46.9565C294.435 47.236 292.566 47.0832 290.806 46.5103C289.601 46.1094 288.526 45.3927 287.693 44.4349C287.132 43.7707 286.998 43.283 287.122 43.1792C287.423 42.8679 288.741 44.2169 291.273 44.6632C292.789 44.8886 294.333 44.8323 295.829 44.4971C296.264 44.4037 296.711 44.2999 297.157 44.1858C297.603 44.0717 298.039 43.9264 298.516 43.7603C299.598 43.3488 300.722 43.0599 301.868 42.899C304.4 42.6811 306.392 43.2 307.959 42.899C309.412 42.6879 310.777 42.0772 311.903 41.1349C313.968 39.4953 314.497 37.7312 314.902 37.8453Z" fill="white"/>
<path d="M276.07 76.6665C276.133 76.9778 274.068 77.6005 271.754 78.8354C269.439 80.0702 267.748 81.3985 267.53 81.1806C267.312 80.9627 268.765 79.1674 271.224 77.8288C273.684 76.4901 276.029 76.376 276.07 76.6665Z" fill="#263238"/>
<path d="M277.928 78.2748C277.793 78.2022 278.042 77.4654 277.835 76.5833C277.627 75.7013 277.098 75.1409 277.202 75.0164C277.305 74.8918 278.125 75.3692 278.364 76.4692C278.602 77.5691 278.042 78.3786 277.928 78.2748Z" fill="#EB996E"/>
<path d="M282.856 61.132C282.981 61.1942 282.472 62.1697 281.279 62.7508C280.944 62.9597 280.564 63.0857 280.17 63.1182C279.777 63.1506 279.382 63.0888 279.016 62.9376C279.016 62.7819 280.054 62.7612 281.092 62.2631C282.13 61.765 282.732 61.0386 282.856 61.132Z" fill="#EB996E"/>
<path d="M283.852 61.9517C283.966 62.0348 283.572 62.73 282.742 63.1866C281.912 63.6432 281.113 63.6017 281.102 63.4564C281.092 63.3111 281.756 63.114 282.482 62.7093C283.209 62.3046 283.676 61.8583 283.852 61.9517Z" fill="#EB996E"/>
<path d="M254.776 64.2035C254.776 64.3488 254.206 64.4422 253.604 64.1309C253.002 63.8196 252.743 63.3007 252.857 63.2177C252.971 63.1347 253.355 63.4045 253.894 63.6536C254.434 63.9026 254.787 64.0479 254.776 64.2035Z" fill="#EB996E"/>
<path d="M254.693 65.4591C254.693 65.6043 254.019 65.6147 253.313 65.293C252.608 64.9713 252.182 64.4732 252.276 64.3591C252.369 64.2449 252.888 64.5044 253.531 64.7949C254.175 65.0855 254.714 65.3138 254.693 65.4591Z" fill="#EB996E"/>
<path d="M269.761 44.6943C268.569 45.6565 267.121 46.2496 265.597 46.4008C264.072 46.552 262.537 46.2546 261.179 45.5453C262.615 45.8093 264.078 45.9137 265.538 45.8566C266.984 45.6264 268.401 45.2366 269.761 44.6943Z" fill="#EB996E"/>
<path d="M270.767 45.7839C270.891 45.8566 270.102 46.9877 268.556 47.465C268.114 47.6543 267.636 47.7441 267.155 47.7279C266.675 47.7118 266.204 47.5902 265.775 47.3716C266.654 47.275 267.527 47.133 268.39 46.9462C269.202 46.6 269.996 46.2121 270.767 45.7839Z" fill="#EB996E"/>
<path d="M252.183 39.2463C252.183 39.2463 252.079 39.1529 251.924 38.9454C251.695 38.6398 251.497 38.3131 251.332 37.9699C250.739 36.6944 250.45 35.298 250.492 33.8917C250.492 30.3323 252.567 25.4758 256.718 21.9372C260.237 18.8806 264.77 17.2453 269.43 17.3505C270.831 17.3719 272.224 17.5599 273.581 17.9108C273.932 18.0037 274.278 18.1146 274.619 18.2429C274.857 18.3363 274.982 18.3882 274.982 18.409C273.155 17.9956 271.292 17.7696 269.42 17.7344C267.395 17.7433 265.386 18.0689 263.463 18.6995C261.109 19.4784 258.933 20.7164 257.06 22.3419C253.055 25.7871 250.979 30.4672 250.907 33.9021C250.835 35.2619 251.058 36.6211 251.561 37.8869C251.903 38.769 252.225 39.2152 252.183 39.2463Z" fill="#263238"/>
<path d="M290.475 43.0652C290.164 43.0476 289.859 42.9774 289.572 42.8577C288.773 42.5839 288.002 42.2365 287.268 41.82C284.817 40.4466 282.721 38.5209 281.146 36.1955C280.356 34.8522 279.848 33.3623 279.652 31.8164C279.465 30.5769 279.391 29.3229 279.434 28.0702C279.456 27.2283 279.54 26.389 279.683 25.5589C279.708 25.2507 279.784 24.949 279.911 24.6665C280.004 24.6665 279.786 25.974 279.818 28.0806C279.829 29.3082 279.936 30.533 280.139 31.7437C280.353 33.2076 280.846 34.6169 281.592 35.8946C283.132 38.1587 285.134 40.0717 287.466 41.5086C289.24 42.5464 290.506 42.9718 290.475 43.0652Z" fill="#263238"/>
<path d="M260.288 39.0906C260.126 38.7637 260.018 38.4135 259.966 38.0529C259.754 37.0957 259.657 36.1169 259.676 35.1369C259.693 31.8564 260.873 28.6882 263.003 26.1942C265.135 23.7001 268.081 22.0412 271.319 21.5117C272.281 21.3422 273.259 21.2864 274.235 21.3457C274.586 21.3482 274.936 21.4041 275.272 21.5117C273.961 21.5444 272.653 21.6727 271.36 21.8956C268.255 22.5132 265.45 24.1608 263.399 26.5716C261.348 28.9824 260.172 32.0152 260.059 35.1784C260.04 36.4864 260.117 37.7939 260.288 39.0906Z" fill="#263238"/>
<path d="M294.667 19.0524C292.451 18.648 290.175 18.6988 287.979 19.2019C285.782 19.705 283.712 20.6498 281.893 21.9787C282.295 21.4332 282.803 20.9744 283.387 20.6297C286.12 18.7669 289.455 18.0035 292.727 18.492C293.404 18.5461 294.064 18.7367 294.667 19.0524Z" fill="#263238"/>
<path d="M332.127 70.461C331.598 71.0214 328.868 69.195 325.153 68.1054C321.438 67.0158 318.18 66.9535 318.045 66.1856C317.993 65.8328 318.803 65.3451 320.255 65.0857C322.157 64.8133 324.097 64.9611 325.937 65.5187C327.776 66.0763 329.471 67.03 330.902 68.313C331.961 69.3403 332.366 70.1912 332.127 70.461Z" fill="white"/>
<path d="M330.509 73.2212C330.509 73.2212 330.976 72.9929 331.785 72.5156C332.912 71.8511 333.913 70.9941 334.743 69.9836C335.977 68.5076 336.756 66.7051 336.984 64.795C337.219 62.4407 336.592 60.0814 335.22 58.1536C333.813 56.251 331.75 54.9384 329.43 54.4697C327.532 54.065 325.57 54.065 323.67 54.4697C321.903 54.8887 320.169 55.4367 318.482 56.1093C318.88 55.8227 319.313 55.5857 319.769 55.4036C320.979 54.8365 322.245 54.3983 323.546 54.0961C325.497 53.6275 327.527 53.5921 329.492 53.9923C331.946 54.4632 334.133 55.8416 335.615 57.8526C336.949 59.6873 337.614 61.9233 337.501 64.1888C337.388 66.4544 336.503 68.6128 334.992 70.3053C334.123 71.3214 333.066 72.16 331.879 72.775C331.545 72.9429 331.198 73.0852 330.841 73.2005C330.634 73.2109 330.509 73.242 330.509 73.2212Z" fill="#263238"/>
<path d="M244.7 228.91C244.7 228.91 222.618 275.462 222.836 296.891C222.97 310.381 241.867 453.97 241.867 453.97H282.11L285.379 320.198L288.139 316.514L289.851 320.727C289.851 320.727 283.781 450.66 285.202 453.97H330.187C330.187 453.97 344.497 350.945 346.386 335.338C348.275 319.731 350.537 312.249 349.562 289.554C348.586 266.859 332.667 228.931 332.667 228.931C332.667 228.931 271.66 238.841 244.7 228.91Z" fill="#4E36D7"/>
<path d="M246.734 229.211L243.009 242.068L253.77 244.382L256.81 231.452L246.734 229.211Z" fill="#263238"/>
<path d="M260.847 231.992L258.668 244.382C267.099 245.247 275.576 245.593 284.05 245.42C296.679 245.078 309.028 244.029 314.549 242.089L312.941 231.048C312.941 231.048 271.224 234.856 260.847 231.992Z" fill="#263238"/>
<path d="M318.369 230.373L321.036 241.3C321.036 241.3 329.649 240.366 333.198 238.291L330.23 228.505L318.369 230.373Z" fill="#263238"/>
<path d="M260.847 452.164L257.35 350.603C256.458 322.585 255.825 297.15 255.638 278.751V266.299L255.721 256.959L255.897 251.044L255.959 249.509C255.959 249.166 255.959 248.99 255.959 248.99C255.959 248.99 255.959 249.166 255.959 249.519C255.959 249.872 255.959 250.401 255.959 251.055L255.887 256.97C255.887 259.543 255.887 262.688 255.887 266.309L256.022 278.762C256.302 297.15 256.997 322.543 257.89 350.593L260.204 422.403C260.474 431.597 260.66 439.006 260.764 444.195L260.857 450.12V451.656C260.847 451.988 260.847 452.164 260.847 452.164Z" fill="#263238"/>
<path d="M287.06 246.25C287.084 246.454 287.084 246.659 287.06 246.862V248.606L287.132 255.009C287.195 260.415 287.299 267.876 287.537 276.116C287.776 284.355 288.087 291.816 288.347 297.213L288.637 303.605L288.699 305.348C288.723 305.552 288.723 305.757 288.699 305.96C288.644 305.764 288.613 305.562 288.606 305.359L288.44 303.626C288.305 302.121 288.149 299.942 287.973 297.244C287.62 291.848 287.247 284.386 287.008 276.136C286.769 267.887 286.728 260.425 286.769 255.019C286.769 252.321 286.821 250.131 286.863 248.616L286.925 246.873C286.944 246.66 286.989 246.452 287.06 246.25Z" fill="#263238"/>
<path d="M288.771 305.94C288.544 305.925 288.319 305.89 288.097 305.836L286.177 305.462C283.811 305.003 281.473 304.41 279.172 303.688C278.39 303.442 277.643 303.093 276.951 302.65C276.739 302.51 276.57 302.312 276.464 302.079C276.391 301.872 276.329 301.664 276.277 301.446C276.169 301.009 276.089 300.565 276.038 300.118C275.831 298.302 275.945 296.393 275.924 294.38C275.924 290.343 275.924 285.922 275.997 281.284L276.256 257.489L276.391 250.277L276.453 248.315C276.45 248.085 276.471 247.856 276.516 247.63C276.541 247.858 276.541 248.087 276.516 248.315V250.277V257.489L276.412 281.284V294.411C276.412 296.424 276.287 298.344 276.474 300.097C276.52 300.527 276.592 300.953 276.692 301.374C276.692 301.581 276.796 301.778 276.858 301.976C276.937 302.125 277.051 302.254 277.19 302.349C277.835 302.783 278.533 303.132 279.266 303.387C282.13 304.373 284.548 304.892 286.187 305.317L288.086 305.794C288.32 305.814 288.55 305.863 288.771 305.94Z" fill="#263238"/>
<path d="M311.218 452.164C311.218 452.164 311.218 451.978 311.218 451.625L311.301 450.058L311.685 444.018L313.273 421.821C314.642 403.08 316.552 377.2 318.077 348.579C319.603 319.959 320.153 293.985 319.551 275.213L319.26 268.52C319.167 266.444 319.105 264.369 318.918 262.553C318.586 258.838 318.409 255.631 318.077 253.026L317.247 247.039L317.05 245.482C317.05 245.129 317.05 244.943 317.05 244.943C317.05 244.943 317.05 245.119 317.154 245.472L317.413 247.028L318.347 253.006C318.71 255.61 318.918 258.817 319.281 262.532C319.478 264.389 319.561 266.382 319.665 268.499L319.997 275.192C320.744 293.985 320.132 319.959 318.689 348.6C317.247 377.241 315.192 403.111 313.729 421.842L311.965 444.018L311.477 450.047L311.342 451.614C311.249 451.988 311.218 452.164 311.218 452.164Z" fill="#263238"/>
<path d="M284.88 245.856V248.253L298.816 247.713C299.257 247.695 299.674 247.506 299.98 247.187C300.286 246.868 300.456 246.443 300.456 246.001V233.123C300.456 232.669 300.275 232.234 299.955 231.912C299.633 231.591 299.198 231.411 298.744 231.411H283.946V233.341L297.986 234.078V238.758H297.031C296.933 238.755 296.835 238.772 296.743 238.808C296.651 238.844 296.567 238.898 296.497 238.967C296.426 239.035 296.37 239.117 296.332 239.208C296.293 239.299 296.274 239.396 296.274 239.495C296.274 239.687 296.348 239.871 296.482 240.008C296.616 240.146 296.798 240.226 296.99 240.231H298.027V244.901L284.88 245.856Z" fill="#E0E0E0"/>
<path d="M276.797 232.293H272.853V245.783H276.797V232.293Z" fill="#4E36D7"/>
<path d="M296.742 241.031C296.742 241.031 296.472 240.968 296.254 240.667C295.969 240.256 295.83 239.761 295.862 239.261C295.894 238.762 296.094 238.288 296.43 237.917C296.69 237.648 296.918 237.565 296.96 237.616C297.001 237.668 296.451 238.343 296.389 239.298C296.327 240.252 296.856 240.937 296.742 241.031Z" fill="#4E36D7"/>
<path d="M285.545 238.291C285.545 238.291 285.617 238.208 285.763 238.218C285.87 238.237 285.97 238.279 286.058 238.343C286.146 238.405 286.219 238.487 286.271 238.581C286.357 238.724 286.408 238.884 286.419 239.052C286.43 239.218 286.401 239.384 286.333 239.536C286.236 239.724 286.086 239.88 285.902 239.984C285.718 240.09 285.507 240.139 285.296 240.128C285.082 240.1 284.882 240.005 284.724 239.859C284.565 239.711 284.457 239.52 284.414 239.308C284.38 239.142 284.393 238.971 284.45 238.812C284.506 238.653 284.606 238.512 284.735 238.405C285.182 238.063 285.545 238.229 285.514 238.291C285.483 238.353 285.223 238.395 284.995 238.675C284.936 238.746 284.896 238.83 284.878 238.921C284.86 239.012 284.864 239.105 284.891 239.194C284.916 239.293 284.969 239.385 285.045 239.454C285.12 239.525 285.215 239.57 285.316 239.588C285.424 239.587 285.531 239.56 285.627 239.51C285.722 239.459 285.805 239.387 285.866 239.297C285.903 239.21 285.921 239.117 285.921 239.022C285.921 238.928 285.903 238.835 285.866 238.747C285.825 238.405 285.545 238.363 285.545 238.291Z" fill="#4E36D7"/>
<path d="M324.438 241.03C324.702 240.33 325.051 239.664 325.476 239.048L326.701 236.973L327.437 235.759C327.709 235.358 327.952 234.939 328.164 234.503C328.226 234.299 328.24 234.084 328.205 233.873C328.172 233.663 328.09 233.463 327.967 233.289C327.66 232.966 327.311 232.687 326.929 232.459L324.968 231.048C324.339 230.649 323.76 230.175 323.245 229.636C323.934 229.923 324.586 230.292 325.186 230.736L327.209 232.044L327.79 232.428C328.024 232.568 328.228 232.75 328.392 232.967C328.569 233.207 328.687 233.485 328.737 233.779C328.787 234.072 328.769 234.373 328.683 234.659C328.586 234.924 328.453 235.176 328.288 235.406L327.884 236.039L327.116 237.232L325.798 239.245C325.42 239.894 324.963 240.494 324.438 241.03Z" fill="#4E36D7"/>
<path d="M348.067 272.442C348.067 272.442 347.953 272.525 347.704 272.639C347.335 272.798 346.949 272.912 346.552 272.982C345.081 273.179 343.583 272.993 342.204 272.442C340.184 271.639 338.267 270.594 336.497 269.329C334.301 267.838 332.248 266.146 330.364 264.275C326.939 260.874 324.106 256.924 321.979 252.591C321.35 251.276 320.792 249.929 320.308 248.554C320.115 248.056 319.966 247.542 319.862 247.018C320.119 247.486 320.335 247.976 320.505 248.481C320.9 249.426 321.543 250.785 322.321 252.425C324.525 256.661 327.367 260.531 330.748 263.902C332.611 265.749 334.632 267.429 336.787 268.924C338.518 270.168 340.384 271.212 342.349 272.037C343.659 272.594 345.083 272.828 346.5 272.722C347.528 272.639 348.015 272.38 348.067 272.442Z" fill="#263238"/>
<path d="M246.795 251.418C246.329 252.377 245.759 253.282 245.094 254.116C242.06 258.275 238.399 261.937 234.239 264.971C233.405 265.635 232.5 266.205 231.541 266.672C232.319 265.952 233.14 265.28 234 264.659C237.993 261.488 241.611 257.87 244.782 253.877C245.403 253.017 246.075 252.196 246.795 251.418Z" fill="#263238"/>
<path d="M283.002 147.21L282.276 112.561C281.913 108.109 278.063 108.939 278.063 108.939C278.063 108.939 277.824 121.226 276.786 128.127C275.749 135.028 272.044 142.655 271.93 144.201C271.816 145.747 271.328 158.874 270.892 163.087C270.312 166.647 269.427 170.15 268.246 173.558L278.115 181.133L281.124 176.92C281.124 176.92 284.497 174.513 285.275 171.503C286.053 168.494 283.002 147.21 283.002 147.21Z" fill="#FFBE9D"/>
<path d="M283.002 147.21C283.002 147.21 283.002 147.397 283.117 147.76L283.376 149.39C283.594 150.822 283.895 152.928 284.248 155.616C284.6 158.304 285.016 161.624 285.337 165.453C285.42 166.408 285.486 167.401 285.534 168.432C285.534 168.951 285.586 169.469 285.534 169.999C285.547 170.55 285.495 171.1 285.379 171.638C285.035 172.727 284.478 173.736 283.739 174.606C282.985 175.525 282.124 176.35 281.176 177.066L278.177 181.279L278.042 181.476L277.855 181.331L267.976 173.766L267.831 173.662L267.883 173.485C269.481 169.149 270.452 164.606 270.768 159.995C271.089 155.17 271.287 150.178 271.536 145.062C271.539 144.627 271.584 144.192 271.67 143.765C271.785 143.34 271.92 142.945 272.054 142.551L272.916 140.216C273.497 138.67 274.057 137.103 274.566 135.609C275.585 132.627 276.281 129.544 276.641 126.415C277.336 120.282 277.554 114.408 277.679 109.012V108.815H277.866C278.667 108.67 279.494 108.763 280.242 109.085C280.975 109.416 281.56 110.007 281.882 110.745C282.19 111.438 282.352 112.186 282.359 112.945V115.02L282.504 122.969L282.722 135.93L282.826 144.294C282.826 145.236 282.826 145.972 282.826 146.505V147.076C282.834 147.141 282.834 147.207 282.826 147.273C282.818 147.21 282.818 147.148 282.826 147.086V146.526L282.743 144.326L282.639 135.941L282.317 122.98L282.131 115.02C282.048 113.63 282.255 112.125 281.643 110.87C281.365 110.231 280.857 109.72 280.221 109.438C279.565 109.164 278.845 109.084 278.146 109.209L278.333 108.981C278.198 114.398 277.99 120.271 277.295 126.435C276.926 129.616 276.213 132.748 275.168 135.775C274.659 137.321 274.13 138.888 273.518 140.413L272.656 142.738C272.521 143.132 272.387 143.516 272.283 143.91C272.204 144.304 272.162 144.703 272.158 145.104C271.909 150.209 271.712 155.222 271.38 160.047C271.06 164.72 270.071 169.322 268.443 173.714L268.36 173.434L278.208 181.03H277.886L280.906 176.827C282.76 175.55 284.182 173.741 284.984 171.638C285.095 171.134 285.147 170.618 285.14 170.102C285.14 169.584 285.14 169.065 285.14 168.556C285.099 167.539 285.039 166.553 284.964 165.599C284.663 161.78 284.279 158.47 283.926 155.761L283.179 149.535L282.982 147.895C283.013 147.356 283.002 147.21 283.002 147.21Z" fill="#EB996E"/>
<path d="M282.317 115.643C282.05 115.246 281.759 114.865 281.446 114.502C281.063 114.114 280.613 113.797 280.118 113.568C279.833 113.406 279.504 113.342 279.179 113.384C278.856 113.428 278.555 113.576 278.322 113.806V113.64C278.457 114.678 278.665 115.923 278.768 117.252C278.876 118.66 278.908 120.073 278.862 121.486C278.735 124.625 278.35 127.749 277.71 130.825C277.482 131.998 277.264 132.9 277.108 133.596C277.056 133.954 276.956 134.303 276.807 134.633C276.9 133.344 277.073 132.062 277.326 130.794C277.865 127.737 278.211 124.649 278.364 121.548C278.364 120.085 278.364 118.673 278.302 117.397C278.239 116.121 278.042 114.875 277.938 113.806V113.713L278.001 113.64C278.148 113.471 278.331 113.336 278.534 113.243C278.738 113.15 278.959 113.102 279.184 113.101C279.566 113.102 279.944 113.194 280.284 113.371C280.799 113.626 281.261 113.979 281.643 114.408C281.885 114.69 282.084 115.004 282.234 115.342C282.317 115.508 282.338 115.633 282.317 115.643Z" fill="#EB996E"/>
<path d="M282.639 129.092C282.524 128.554 282.441 128.01 282.39 127.463C282.31 126.858 282.101 126.278 281.778 125.761C281.267 125.17 280.55 124.799 279.775 124.723L280.055 124.505C279.993 126.477 279.868 128.843 279.619 131.364C279.277 134.913 278.768 138.099 278.322 140.393C278.094 141.534 277.897 142.468 277.741 143.091C277.686 143.428 277.584 143.757 277.44 144.066C277.537 142.812 277.707 141.564 277.949 140.33C278.291 138.027 278.737 134.851 279.08 131.313C279.329 128.801 279.484 126.456 279.588 124.484V124.215L279.848 124.277C280.722 124.397 281.515 124.856 282.058 125.553C282.39 126.123 282.585 126.762 282.629 127.421C282.722 127.974 282.725 128.538 282.639 129.092Z" fill="#EB996E"/>
<path d="M277.451 147.823C277.357 147.937 276.786 147.501 276.703 146.681C276.62 145.861 277.108 145.322 277.222 145.415C277.336 145.509 277.222 146.007 277.222 146.629C277.222 147.252 277.575 147.719 277.451 147.823Z" fill="#EB996E"/>
<path d="M275.915 139.272C275.78 139.324 275.385 138.546 275.458 137.487C275.531 136.429 276.029 135.713 276.153 135.785C276.278 135.858 276.06 136.595 275.998 137.529C275.936 138.463 276.06 139.22 275.915 139.272Z" fill="#EB996E"/>
<path d="M297.032 166.865C296.254 162.714 294.853 149.649 294.625 148.103C294.396 146.557 290.163 139.22 288.648 132.413C287.132 125.605 286.022 113.36 286.022 113.36C286.022 113.36 282.12 112.81 282.079 117.272L283.791 151.891C283.791 151.891 282.255 173.351 283.262 176.287C284.268 179.224 287.797 181.393 287.797 181.393L291.097 185.378L300.436 177.076C299.012 173.776 297.874 170.36 297.032 166.865Z" fill="#FFBE9D"/>
<path d="M297.032 166.865C297.057 166.921 297.075 166.98 297.084 167.041L297.209 167.56C297.323 168.017 297.499 168.702 297.769 169.573C298.558 172.117 299.479 174.618 300.529 177.066V177.159L300.457 177.221L291.19 185.523L291.045 185.658L290.92 185.502L287.61 181.528C286.635 180.9 285.738 180.161 284.933 179.328C284.055 178.448 283.381 177.385 282.961 176.215C282.713 174.971 282.598 173.705 282.618 172.437C282.618 171.161 282.618 169.864 282.618 168.546C282.733 163.274 283.044 157.65 283.438 151.776L282.639 133.803L282.058 122.004L281.923 119.151C281.834 118.201 281.834 117.246 281.923 116.297C281.978 115.805 282.131 115.329 282.371 114.896C282.611 114.463 282.935 114.082 283.324 113.775C284.129 113.217 285.111 112.973 286.084 113.09H286.282V113.308C286.655 117.272 287.081 121.101 287.579 124.723C287.983 128.197 288.653 131.635 289.581 135.007C290.54 137.971 291.685 140.871 293.006 143.693C293.597 145.021 294.21 146.276 294.666 147.563C294.818 148.212 294.918 148.871 294.967 149.535L295.175 151.403C295.714 156.249 296.15 160.109 296.482 162.745L296.877 165.765L296.991 166.543C297 166.632 297 166.724 296.991 166.813C296.957 166.73 296.933 166.643 296.918 166.553L296.762 165.786C296.638 165.101 296.472 164.094 296.285 162.776C295.901 160.14 295.413 156.29 294.822 151.444L294.594 149.587C294.541 148.943 294.44 148.305 294.293 147.677C293.847 146.442 293.255 145.176 292.612 143.859C291.263 141.03 290.094 138.118 289.115 135.142C288.156 131.741 287.461 128.272 287.039 124.765C286.531 121.112 286.084 117.283 285.7 113.35L285.918 113.578C285.081 113.484 284.237 113.693 283.542 114.17C283.209 114.436 282.932 114.765 282.727 115.14C282.522 115.513 282.393 115.924 282.349 116.349C282.265 117.267 282.265 118.191 282.349 119.109L282.494 121.963L283.085 133.751L283.978 151.828C283.573 157.691 283.251 163.316 283.117 168.567C283.117 169.885 283.117 171.171 283.117 172.437C283.093 173.659 283.193 174.879 283.417 176.08C283.819 177.171 284.453 178.162 285.275 178.985C286.052 179.794 286.919 180.511 287.859 181.123L291.138 185.118H290.858L300.197 176.91V177.066C299.169 174.601 298.285 172.078 297.551 169.511C297.302 168.619 297.146 167.934 297.063 167.436L296.97 166.906C296.99 166.892 297.01 166.877 297.032 166.865Z" fill="#EB996E"/>
<path d="M282.235 120.427C282.32 120.092 282.461 119.772 282.651 119.483C282.845 119.119 283.071 118.771 283.325 118.445C283.657 117.972 284.146 117.63 284.705 117.48C285.073 117.427 285.448 117.502 285.769 117.69C286.09 117.878 286.337 118.17 286.469 118.518C286.661 119.263 286.725 120.035 286.656 120.801C286.656 122.357 286.739 124.059 286.905 125.854C287.214 128.908 287.692 131.944 288.337 134.945C288.65 136.183 288.896 137.436 289.074 138.701C288.909 138.397 288.788 138.072 288.711 137.736C288.514 137.103 288.254 136.18 287.964 135.038C287.204 132.042 286.67 128.992 286.366 125.917C286.205 124.22 286.135 122.515 286.158 120.811C286.23 120.118 286.194 119.418 286.054 118.736C285.964 118.473 285.789 118.248 285.555 118.097C285.322 117.946 285.044 117.878 284.768 117.905C284.287 118.022 283.86 118.296 283.553 118.684C283.291 118.978 283.048 119.291 282.827 119.618C282.658 119.907 282.46 120.178 282.235 120.427Z" fill="#EB996E"/>
<path d="M282.931 134.281C282.931 134.281 282.879 134.125 282.848 133.814C282.812 133.372 282.812 132.927 282.848 132.485C282.876 131.769 283.042 131.065 283.335 130.41C283.533 129.98 283.82 129.597 284.178 129.287C284.536 128.978 284.956 128.748 285.411 128.615L285.67 128.542V128.812C285.909 130.721 286.22 132.963 286.625 135.37C287.217 138.93 287.891 142.126 288.41 144.44C288.743 145.677 289.007 146.93 289.199 148.196C289.03 147.893 288.905 147.569 288.825 147.231C288.617 146.598 288.348 145.675 288.036 144.533C287.424 142.24 286.687 139.044 286.096 135.464C285.691 133.056 285.411 130.794 285.214 128.874L285.515 129.071C285.115 129.18 284.743 129.372 284.422 129.636C284.102 129.898 283.842 130.226 283.657 130.597C283.362 131.189 283.173 131.828 283.097 132.485C282.952 133.627 282.993 134.281 282.931 134.281Z" fill="#EB996E"/>
<path d="M289.405 151.994C289.281 151.901 289.519 151.413 289.53 150.791C289.54 150.168 289.343 149.67 289.467 149.576C289.592 149.483 290.09 149.981 290.069 150.801C290.048 151.621 289.509 152.098 289.405 151.994Z" fill="#EB996E"/>
<path d="M290.349 143.35C290.194 143.35 290.277 142.541 290.142 141.617C290.007 140.694 289.727 139.967 289.862 139.895C289.997 139.822 290.536 140.507 290.671 141.545C290.806 142.582 290.484 143.402 290.349 143.35Z" fill="#EB996E"/>
<g opacity="0.3">
<path opacity="0.3" d="M294.614 185.056C292.684 182.835 290.266 180.604 287.35 180.625C284.746 180.625 282.525 182.441 280.678 184.267C274.736 190.365 269.869 197.425 266.285 205.146C262.57 212.784 258.045 221.947 255.212 229.958C261.439 228.65 266.959 224.769 271.162 219.965C275.365 215.16 278.426 209.453 281.093 203.662C282.027 201.67 283.355 199.356 285.555 199.304C287.184 199.304 288.513 200.549 289.519 201.825C292.435 205.509 294.396 209.837 296.451 214.06C298.506 218.284 300.747 222.518 304.089 225.828C307.43 229.138 312.069 231.432 316.739 230.913C311.405 214.672 305.822 197.955 294.614 185.056Z" fill="#263238"/>
</g>
<path d="M230.982 125.564C230.982 125.564 217.377 134.146 216.972 151.019C216.568 167.892 217.574 212.908 220.594 218.937C223.614 224.967 225.783 246.665 245.312 237.616C256.26 232.532 268.142 216.063 275.925 202.251C279.573 195.797 282.737 189.082 285.389 182.161L267.011 170.31L243.901 197.633L243.206 171.317L230.982 125.564Z" fill="#FF725E"/>
<path d="M230.982 125.564C230.982 125.564 217.377 134.146 216.972 151.019C216.568 167.892 217.574 212.908 220.594 218.937C223.614 224.967 225.783 246.665 245.312 237.616C256.26 232.532 268.142 216.063 275.925 202.251C279.573 195.797 282.737 189.082 285.389 182.161L267.011 170.31L243.901 197.633L243.206 171.317L230.982 125.564Z" fill="url(#paint4_radial_1_375)"/>
<path d="M243.891 197.592C243.891 197.685 243.061 197.737 241.815 198.09C240.164 198.568 238.621 199.361 237.27 200.425C235.921 201.503 234.692 202.724 233.607 204.067C233.187 204.661 232.71 205.214 232.185 205.717C232.457 205.037 232.831 204.404 233.296 203.839C234.32 202.391 235.547 201.098 236.938 199.999C238.34 198.889 239.976 198.112 241.722 197.727C242.428 197.533 243.166 197.487 243.891 197.592Z" fill="#263238"/>
<path d="M243.776 197.384C241.968 197.338 240.158 197.41 238.359 197.602C236.6 197.976 234.866 198.464 233.17 199.065C234.717 198.039 236.467 197.358 238.301 197.068C240.134 196.778 242.008 196.886 243.796 197.384H243.776Z" fill="#263238"/>
<path d="M285.379 182.119C285.351 182.312 285.298 182.5 285.223 182.68L284.663 184.247C284.175 185.606 283.397 187.547 282.38 189.913C279.682 196.074 276.518 202.02 272.916 207.699C269.299 213.368 265.309 218.79 260.972 223.929C259.311 225.901 257.921 227.468 256.935 228.516L255.793 229.719C255.669 229.868 255.526 230.001 255.368 230.114C255.462 229.945 255.578 229.788 255.71 229.647L256.748 228.37C257.682 227.281 259.021 225.672 260.64 223.68C264.876 218.484 268.808 213.047 272.418 207.398C275.999 201.738 279.195 195.845 281.985 189.757C283.023 187.412 283.884 185.502 284.424 184.174L285.078 182.649C285.155 182.46 285.256 182.282 285.379 182.119Z" fill="#263238"/>
<path d="M243.207 171.317C243.242 171.481 243.26 171.648 243.259 171.815L243.342 173.257L243.56 178.674L244.172 197.592L243.726 197.436L253.844 185.44L266.846 170.113L266.981 169.957L267.157 170.071L280.419 178.736L284.124 181.206L285.089 181.87C285.205 181.94 285.313 182.024 285.411 182.119C285.282 182.073 285.16 182.009 285.048 181.933L284.01 181.331L280.233 178.975L266.867 170.466H267.178L254.228 185.751L244.079 197.716L243.653 198.225V197.561L243.238 178.643L243.165 173.226C243.165 172.635 243.165 172.188 243.165 171.784C243.162 171.627 243.177 171.47 243.207 171.317Z" fill="#263238"/>
<path d="M341.562 120.261C341.562 120.261 353.06 126.083 353.568 153.105C354.077 180.127 356.09 212.255 353.568 217.765C351.659 221.916 347.176 234.628 339.04 238.965C336.591 240.273 334.734 240.335 331.392 239.847C320.289 238.229 305.709 225.247 294.636 203.932C286.21 187.713 285.691 180.2 285.691 180.2L301.153 164.634L331.34 202.075L331.901 166.18L341.562 120.261Z" fill="#FF725E"/>
<path d="M341.562 120.261C341.562 120.261 353.06 126.083 353.568 153.105C354.077 180.127 356.09 212.255 353.568 217.765C351.659 221.916 347.176 234.628 339.04 238.965C336.591 240.273 334.734 240.335 331.392 239.847C320.289 238.229 305.709 225.247 294.636 203.932C286.21 187.713 285.691 180.2 285.691 180.2L301.153 164.634L331.34 202.075L331.901 166.18L341.562 120.261Z" fill="url(#paint5_radial_1_375)"/>
<path d="M331.672 167.259C331.672 167.259 331.672 167.467 331.672 167.882V169.698C331.672 171.317 331.672 173.662 331.672 176.661L331.527 202.064V202.635L331.164 202.189L300.935 164.831H301.329L289.385 176.858L285.878 180.386L285.951 180.137C288.797 192.188 293.884 203.598 300.946 213.77C306.548 222.112 313.548 229.425 321.638 235.385C323.253 236.603 324.993 237.646 326.826 238.499C327.668 238.88 328.544 239.182 329.441 239.401C330.291 239.579 331.15 239.711 332.015 239.796C334.883 240.144 337.789 239.578 340.316 238.177C341.865 237.217 343.202 235.953 344.249 234.462C344.613 233.953 344.882 233.559 345.048 233.289C345.215 233.019 345.318 232.884 345.318 232.884C345.009 233.45 344.661 233.994 344.281 234.514C343.257 236.048 341.925 237.353 340.368 238.343C337.812 239.806 334.858 240.416 331.932 240.086C331.061 240.008 330.195 239.884 329.337 239.713C328.419 239.496 327.522 239.194 326.66 238.81C324.806 237.959 323.046 236.916 321.409 235.697C313.247 229.752 306.182 222.429 300.53 214.06C293.406 203.845 288.28 192.373 285.421 180.251V180.106L285.525 180.002L289.033 176.474L300.997 164.426L301.205 164.219L301.392 164.457L331.486 201.929L331.122 202.054L331.454 176.651L331.579 169.688V167.872C331.652 167.467 331.672 167.259 331.672 167.259Z" fill="#263238"/>
<path d="M343.687 215.99C343.117 215.284 342.597 214.538 342.13 213.759C340.898 211.962 339.545 210.25 338.083 208.633C336.609 207.026 335.05 205.498 333.414 204.057C332.699 203.495 332.028 202.878 331.411 202.209C332.218 202.637 332.97 203.159 333.652 203.766C335.376 205.136 336.985 206.642 338.467 208.27C339.952 209.902 341.279 211.67 342.431 213.552C342.955 214.306 343.377 215.126 343.687 215.99Z" fill="#263238"/>
<path d="M340.337 125.678C340.41 125.74 339.507 126.851 338.262 128.791C334.976 133.834 332.826 139.531 331.963 145.488C331.631 147.771 331.569 149.203 331.475 149.203C331.408 148.862 331.39 148.512 331.423 148.165C331.428 147.246 331.483 146.329 331.589 145.415C332.253 139.348 334.442 133.547 337.95 128.552C338.475 127.799 339.039 127.076 339.642 126.384C340.057 125.906 340.306 125.657 340.337 125.678Z" fill="#263238"/>
<path d="M240.653 153.364C240.57 153.364 240.373 151.974 239.968 149.753C238.916 143.931 237.192 138.252 234.832 132.828C233.929 130.752 233.316 129.476 233.389 129.445C233.607 129.695 233.789 129.974 233.929 130.275C234.25 130.825 234.676 131.645 235.174 132.672C237.754 138.046 239.503 143.781 240.363 149.68C240.518 150.811 240.622 151.756 240.653 152.368C240.701 152.698 240.701 153.034 240.653 153.364Z" fill="#263238"/>
<g opacity="0.3">
<path opacity="0.3" d="M345.183 215.928C344.694 213.74 343.554 211.75 341.915 210.221C338.875 206.961 335.298 204.248 331.34 202.199C336.234 206.127 340.442 210.84 343.793 216.146C344.052 216.561 344.561 217.028 344.945 216.727C345.051 216.627 345.128 216.499 345.17 216.359C345.212 216.219 345.217 216.07 345.183 215.928Z" fill="#263238"/>
</g>
<g opacity="0.3">
<path opacity="0.3" d="M243.693 197.55C240.515 197.069 237.269 197.67 234.474 199.257C231.679 200.843 229.499 203.323 228.283 206.298C228.029 206.832 227.902 207.419 227.909 208.01C227.917 208.308 228.009 208.598 228.171 208.847C228.334 209.096 228.564 209.295 228.832 209.422C229.161 209.515 229.51 209.507 229.834 209.4C230.158 209.293 230.441 209.09 230.648 208.82C231.055 208.272 231.371 207.662 231.582 207.014C232.683 204.448 234.448 202.22 236.695 200.563C238.942 198.904 241.59 197.875 244.367 197.581L243.693 197.55Z" fill="#263238"/>
</g>
<path d="M477.354 453.576C477.354 453.721 370.542 453.846 238.73 453.846C106.919 453.846 0.00452065 453.721 0.00452065 453.576C0.00452065 453.43 106.817 453.306 238.685 453.306C370.554 453.306 477.354 453.42 477.354 453.576Z" fill="#4E36D7"/>
</g>
</g>
<defs>
<radialGradient id="paint0_radial_1_375" cx="0" cy="0" r="1" gradientUnits="userSpaceOnUse" gradientTransform="translate(374.408 395.213) scale(97.6659 25.9708)">
<stop stop-color="#00CF91"/>
<stop offset="1" stop-color="#00CF60"/>
</radialGradient>
<radialGradient id="paint1_radial_1_375" cx="0" cy="0" r="1" gradientUnits="userSpaceOnUse" gradientTransform="translate(378.908 398.418) scale(83.0802 77.5949)">
<stop stop-color="#00CF91"/>
<stop offset="1" stop-color="#00CF60"/>
</radialGradient>
<radialGradient id="paint2_radial_1_375" cx="0" cy="0" r="1" gradientUnits="userSpaceOnUse" gradientTransform="translate(244.994 75.223) scale(133.098 221.252)">
<stop stop-color="#00CF91"/>
<stop offset="1" stop-color="#00CF60"/>
</radialGradient>
<radialGradient id="paint3_radial_1_375" cx="0" cy="0" r="1" gradientUnits="userSpaceOnUse" gradientTransform="translate(307.017 45.6059) scale(16.8461 53.0669)">
<stop stop-color="#00CF91"/>
<stop offset="1" stop-color="#00CF60"/>
</radialGradient>
<radialGradient id="paint4_radial_1_375" cx="0" cy="0" r="1" gradientUnits="userSpaceOnUse" gradientTransform="translate(225.733 92.2731) scale(82.2235 205.67)">
<stop stop-color="#00CF91"/>
<stop offset="1" stop-color="#00CF60"/>
</radialGradient>
<radialGradient id="paint5_radial_1_375" cx="0" cy="0" r="1" gradientUnits="userSpaceOnUse" gradientTransform="translate(294.617 85.3275) scale(82.9648 215.82)">
<stop stop-color="#00CF91"/>
<stop offset="1" stop-color="#00CF60"/>
</radialGradient>
<clipPath id="clip0_1_375">
<rect width="494.991" height="454.52" fill="white" transform="translate(0.00452065)"/>
</clipPath>
</defs>
</svg>
