<svg width="120" height="107" viewBox="0 0 120 107" fill="none" xmlns="http://www.w3.org/2000/svg">
<g clip-path="url(#clip0_1_232)">
<path d="M2.32617 4.64106C3.60861 4.64106 4.64826 3.60215 4.64826 2.32054C4.64826 1.03893 3.60861 0 2.32617 0C1.04373 0 0.00418091 1.03893 0.00418091 2.32054C0.00418091 3.60215 1.04373 4.64106 2.32617 4.64106Z" fill="#6872E3"/>
<path d="M2.32617 4.64106C3.60861 4.64106 4.64826 3.60215 4.64826 2.32054C4.64826 1.03893 3.60861 0 2.32617 0C1.04373 0 0.00418091 1.03893 0.00418091 2.32054C0.00418091 3.60215 1.04373 4.64106 2.32617 4.64106Z" fill="#6872E3"/>
<path d="M30.8401 4.64106C32.1227 4.64106 33.1621 3.60215 33.1621 2.32054C33.1621 1.03893 32.1227 0 30.8401 0C29.5577 0 28.518 1.03893 28.518 2.32054C28.518 3.60215 29.5577 4.64106 30.8401 4.64106Z" fill="#6872E3"/>
<path d="M30.8401 4.64106C32.1227 4.64106 33.1621 3.60215 33.1621 2.32054C33.1621 1.03893 32.1227 0 30.8401 0C29.5577 0 28.518 1.03893 28.518 2.32054C28.518 3.60215 29.5577 4.64106 30.8401 4.64106Z" fill="#6872E3"/>
<path d="M59.3624 4.64106C60.6452 4.64106 61.6846 3.60215 61.6846 2.32054C61.6846 1.03893 60.6452 0 59.3624 0C58.0798 0 57.0404 1.03893 57.0404 2.32054C57.0404 3.60215 58.0798 4.64106 59.3624 4.64106Z" fill="#6872E3"/>
<path d="M59.3624 4.64106C60.6452 4.64106 61.6846 3.60215 61.6846 2.32054C61.6846 1.03893 60.6452 0 59.3624 0C58.0798 0 57.0404 1.03893 57.0404 2.32054C57.0404 3.60215 58.0798 4.64106 59.3624 4.64106Z" fill="#6872E3"/>
<path d="M87.8758 4.64106C89.1583 4.64106 90.1977 3.60215 90.1977 2.32054C90.1977 1.03893 89.1583 0 87.8758 0C86.593 0 85.5536 1.03893 85.5536 2.32054C85.5536 3.60215 86.593 4.64106 87.8758 4.64106Z" fill="#6872E3"/>
<path d="M87.8758 4.64106C89.1583 4.64106 90.1977 3.60215 90.1977 2.32054C90.1977 1.03893 89.1583 0 87.8758 0C86.593 0 85.5536 1.03893 85.5536 2.32054C85.5536 3.60215 86.593 4.64106 87.8758 4.64106Z" fill="#6872E3"/>
<path d="M116.416 4.64106C117.698 4.64106 118.738 3.60215 118.738 2.32054C118.738 1.03893 117.698 0 116.416 0C115.133 0 114.094 1.03893 114.094 2.32054C114.094 3.60215 115.133 4.64106 116.416 4.64106Z" fill="#6872E3"/>
<path d="M116.416 4.64106C117.698 4.64106 118.738 3.60215 118.738 2.32054C118.738 1.03893 117.698 0 116.416 0C115.133 0 114.094 1.03893 114.094 2.32054C114.094 3.60215 115.133 4.64106 116.416 4.64106Z" fill="#6872E3"/>
<path d="M2.32617 29.6512C3.60861 29.6512 4.64826 28.6123 4.64826 27.3307C4.64826 26.0491 3.60861 25.0101 2.32617 25.0101C1.04373 25.0101 0.00418091 26.0491 0.00418091 27.3307C0.00418091 28.6123 1.04373 29.6512 2.32617 29.6512Z" fill="#6872E3"/>
<path d="M2.32617 29.6512C3.60861 29.6512 4.64826 28.6123 4.64826 27.3307C4.64826 26.0491 3.60861 25.0101 2.32617 25.0101C1.04373 25.0101 0.00418091 26.0491 0.00418091 27.3307C0.00418091 28.6123 1.04373 29.6512 2.32617 29.6512Z" fill="#6872E3"/>
<path d="M30.8401 29.6491C32.1227 29.6491 33.1621 28.6103 33.1621 27.3287C33.1621 26.0471 32.1227 25.0081 30.8401 25.0081C29.5577 25.0081 28.518 26.0471 28.518 27.3287C28.518 28.6103 29.5577 29.6491 30.8401 29.6491Z" fill="#6872E3"/>
<path d="M30.8401 29.6491C32.1227 29.6491 33.1621 28.6103 33.1621 27.3287C33.1621 26.0471 32.1227 25.0081 30.8401 25.0081C29.5577 25.0081 28.518 26.0471 28.518 27.3287C28.518 28.6103 29.5577 29.6491 30.8401 29.6491Z" fill="#6872E3"/>
<path d="M59.3624 29.6491C60.6452 29.6491 61.6846 28.6103 61.6846 27.3287C61.6846 26.0471 60.6452 25.0081 59.3624 25.0081C58.0798 25.0081 57.0404 26.0471 57.0404 27.3287C57.0404 28.6103 58.0798 29.6491 59.3624 29.6491Z" fill="#6872E3"/>
<path d="M59.3624 29.6491C60.6452 29.6491 61.6846 28.6103 61.6846 27.3287C61.6846 26.0471 60.6452 25.0081 59.3624 25.0081C58.0798 25.0081 57.0404 26.0471 57.0404 27.3287C57.0404 28.6103 58.0798 29.6491 59.3624 29.6491Z" fill="#6872E3"/>
<path d="M87.8758 29.6491C89.1583 29.6491 90.1977 28.6103 90.1977 27.3287C90.1977 26.0471 89.1583 25.0081 87.8758 25.0081C86.593 25.0081 85.5536 26.0471 85.5536 27.3287C85.5536 28.6103 86.593 29.6491 87.8758 29.6491Z" fill="#6872E3"/>
<path d="M87.8758 29.6491C89.1583 29.6491 90.1977 28.6103 90.1977 27.3287C90.1977 26.0471 89.1583 25.0081 87.8758 25.0081C86.593 25.0081 85.5536 26.0471 85.5536 27.3287C85.5536 28.6103 86.593 29.6491 87.8758 29.6491Z" fill="#6872E3"/>
<path d="M116.416 29.6491C117.698 29.6491 118.738 28.6103 118.738 27.3287C118.738 26.0471 117.698 25.0081 116.416 25.0081C115.133 25.0081 114.094 26.0471 114.094 27.3287C114.094 28.6103 115.133 29.6491 116.416 29.6491Z" fill="#6872E3"/>
<path d="M116.416 29.6491C117.698 29.6491 118.738 28.6103 118.738 27.3287C118.738 26.0471 117.698 25.0081 116.416 25.0081C115.133 25.0081 114.094 26.0471 114.094 27.3287C114.094 28.6103 115.133 29.6491 116.416 29.6491Z" fill="#6872E3"/>
<path d="M2.32617 54.6376C3.60861 54.6376 4.64826 53.5988 4.64826 52.3173C4.64826 51.0354 3.60861 49.9966 2.32617 49.9966C1.04373 49.9966 0.00418091 51.0354 0.00418091 52.3173C0.00418091 53.5988 1.04373 54.6376 2.32617 54.6376Z" fill="#6872E3"/>
<path d="M2.32617 54.6376C3.60861 54.6376 4.64826 53.5988 4.64826 52.3173C4.64826 51.0354 3.60861 49.9966 2.32617 49.9966C1.04373 49.9966 0.00418091 51.0354 0.00418091 52.3173C0.00418091 53.5988 1.04373 54.6376 2.32617 54.6376Z" fill="#6872E3"/>
<path d="M30.8401 54.6376C32.1227 54.6376 33.1621 53.5988 33.1621 52.3173C33.1621 51.0354 32.1227 49.9966 30.8401 49.9966C29.5577 49.9966 28.518 51.0354 28.518 52.3173C28.518 53.5988 29.5577 54.6376 30.8401 54.6376Z" fill="#6872E3"/>
<path d="M30.8401 54.6376C32.1227 54.6376 33.1621 53.5988 33.1621 52.3173C33.1621 51.0354 32.1227 49.9966 30.8401 49.9966C29.5577 49.9966 28.518 51.0354 28.518 52.3173C28.518 53.5988 29.5577 54.6376 30.8401 54.6376Z" fill="#6872E3"/>
<path d="M59.3624 54.6376C60.6452 54.6376 61.6846 53.5988 61.6846 52.3173C61.6846 51.0354 60.6452 49.9966 59.3624 49.9966C58.0798 49.9966 57.0404 51.0354 57.0404 52.3173C57.0404 53.5988 58.0798 54.6376 59.3624 54.6376Z" fill="#6872E3"/>
<path d="M59.3624 54.6376C60.6452 54.6376 61.6846 53.5988 61.6846 52.3173C61.6846 51.0354 60.6452 49.9966 59.3624 49.9966C58.0798 49.9966 57.0404 51.0354 57.0404 52.3173C57.0404 53.5988 58.0798 54.6376 59.3624 54.6376Z" fill="#6872E3"/>
<path d="M87.8758 54.6376C89.1583 54.6376 90.1977 53.5988 90.1977 52.3173C90.1977 51.0354 89.1583 49.9966 87.8758 49.9966C86.593 49.9966 85.5536 51.0354 85.5536 52.3173C85.5536 53.5988 86.593 54.6376 87.8758 54.6376Z" fill="#6872E3"/>
<path d="M87.8758 54.6376C89.1583 54.6376 90.1977 53.5988 90.1977 52.3173C90.1977 51.0354 89.1583 49.9966 87.8758 49.9966C86.593 49.9966 85.5536 51.0354 85.5536 52.3173C85.5536 53.5988 86.593 54.6376 87.8758 54.6376Z" fill="#6872E3"/>
<path d="M116.416 54.6376C117.698 54.6376 118.738 53.5988 118.738 52.3173C118.738 51.0354 117.698 49.9966 116.416 49.9966C115.133 49.9966 114.094 51.0354 114.094 52.3173C114.094 53.5988 115.133 54.6376 116.416 54.6376Z" fill="#6872E3"/>
<path d="M116.416 54.6376C117.698 54.6376 118.738 53.5988 118.738 52.3173C118.738 51.0354 117.698 49.9966 116.416 49.9966C115.133 49.9966 114.094 51.0354 114.094 52.3173C114.094 53.5988 115.133 54.6376 116.416 54.6376Z" fill="#6872E3"/>
<path d="M2.32617 79.6283C3.60861 79.6283 4.64826 78.5895 4.64826 77.308C4.64826 76.0261 3.60861 74.9873 2.32617 74.9873C1.04373 74.9873 0.00418091 76.0261 0.00418091 77.308C0.00418091 78.5895 1.04373 79.6283 2.32617 79.6283Z" fill="#6872E3"/>
<path d="M2.32617 79.6283C3.60861 79.6283 4.64826 78.5895 4.64826 77.308C4.64826 76.0261 3.60861 74.9873 2.32617 74.9873C1.04373 74.9873 0.00418091 76.0261 0.00418091 77.308C0.00418091 78.5895 1.04373 79.6283 2.32617 79.6283Z" fill="#6872E3"/>
<path d="M30.8401 79.6261C32.1227 79.6261 33.1621 78.5874 33.1621 77.3058C33.1621 76.0239 32.1227 74.9851 30.8401 74.9851C29.5577 74.9851 28.518 76.0239 28.518 77.3058C28.518 78.5874 29.5577 79.6261 30.8401 79.6261Z" fill="#6872E3"/>
<path d="M30.8401 79.6261C32.1227 79.6261 33.1621 78.5874 33.1621 77.3058C33.1621 76.0239 32.1227 74.9851 30.8401 74.9851C29.5577 74.9851 28.518 76.0239 28.518 77.3058C28.518 78.5874 29.5577 79.6261 30.8401 79.6261Z" fill="#6872E3"/>
<path d="M59.3624 79.6261C60.6452 79.6261 61.6846 78.5874 61.6846 77.3058C61.6846 76.0239 60.6452 74.9851 59.3624 74.9851C58.0798 74.9851 57.0404 76.0239 57.0404 77.3058C57.0404 78.5874 58.0798 79.6261 59.3624 79.6261Z" fill="#6872E3"/>
<path d="M59.3624 79.6261C60.6452 79.6261 61.6846 78.5874 61.6846 77.3058C61.6846 76.0239 60.6452 74.9851 59.3624 74.9851C58.0798 74.9851 57.0404 76.0239 57.0404 77.3058C57.0404 78.5874 58.0798 79.6261 59.3624 79.6261Z" fill="#6872E3"/>
<path d="M87.8758 79.6261C89.1583 79.6261 90.1977 78.5874 90.1977 77.3058C90.1977 76.0239 89.1583 74.9851 87.8758 74.9851C86.593 74.9851 85.5536 76.0239 85.5536 77.3058C85.5536 78.5874 86.593 79.6261 87.8758 79.6261Z" fill="#6872E3"/>
<path d="M87.8758 79.6261C89.1583 79.6261 90.1977 78.5874 90.1977 77.3058C90.1977 76.0239 89.1583 74.9851 87.8758 74.9851C86.593 74.9851 85.5536 76.0239 85.5536 77.3058C85.5536 78.5874 86.593 79.6261 87.8758 79.6261Z" fill="#6872E3"/>
<path d="M116.416 79.6261C117.698 79.6261 118.738 78.5874 118.738 77.3058C118.738 76.0239 117.698 74.9851 116.416 74.9851C115.133 74.9851 114.094 76.0239 114.094 77.3058C114.094 78.5874 115.133 79.6261 116.416 79.6261Z" fill="#6872E3"/>
<path d="M116.416 79.6261C117.698 79.6261 118.738 78.5874 118.738 77.3058C118.738 76.0239 117.698 74.9851 116.416 74.9851C115.133 74.9851 114.094 76.0239 114.094 77.3058C114.094 78.5874 115.133 79.6261 116.416 79.6261Z" fill="#6872E3"/>
<path d="M2.32617 104.639C3.60861 104.639 4.64826 103.6 4.64826 102.318C4.64826 101.036 3.60861 99.9977 2.32617 99.9977C1.04373 99.9977 0.00418091 101.036 0.00418091 102.318C0.00418091 103.6 1.04373 104.639 2.32617 104.639Z" fill="#6872E3"/>
<path d="M2.32617 104.639C3.60861 104.639 4.64826 103.6 4.64826 102.318C4.64826 101.036 3.60861 99.9977 2.32617 99.9977C1.04373 99.9977 0.00418091 101.036 0.00418091 102.318C0.00418091 103.6 1.04373 104.639 2.32617 104.639Z" fill="#6872E3"/>
<path d="M30.8401 104.637C32.1227 104.637 33.1621 103.598 33.1621 102.316C33.1621 101.035 32.1227 99.9955 30.8401 99.9955C29.5577 99.9955 28.518 101.035 28.518 102.316C28.518 103.598 29.5577 104.637 30.8401 104.637Z" fill="#6872E3"/>
<path d="M30.8401 104.637C32.1227 104.637 33.1621 103.598 33.1621 102.316C33.1621 101.035 32.1227 99.9955 30.8401 99.9955C29.5577 99.9955 28.518 101.035 28.518 102.316C28.518 103.598 29.5577 104.637 30.8401 104.637Z" fill="#6872E3"/>
<path d="M59.3624 104.637C60.6452 104.637 61.6846 103.598 61.6846 102.316C61.6846 101.035 60.6452 99.9955 59.3624 99.9955C58.0798 99.9955 57.0404 101.035 57.0404 102.316C57.0404 103.598 58.0798 104.637 59.3624 104.637Z" fill="#6872E3"/>
<path d="M59.3624 104.637C60.6452 104.637 61.6846 103.598 61.6846 102.316C61.6846 101.035 60.6452 99.9955 59.3624 99.9955C58.0798 99.9955 57.0404 101.035 57.0404 102.316C57.0404 103.598 58.0798 104.637 59.3624 104.637Z" fill="#6872E3"/>
<path d="M87.8758 104.637C89.1583 104.637 90.1977 103.598 90.1977 102.316C90.1977 101.035 89.1583 99.9955 87.8758 99.9955C86.593 99.9955 85.5536 101.035 85.5536 102.316C85.5536 103.598 86.593 104.637 87.8758 104.637Z" fill="#6872E3"/>
<path d="M87.8758 104.637C89.1583 104.637 90.1977 103.598 90.1977 102.316C90.1977 101.035 89.1583 99.9955 87.8758 99.9955C86.593 99.9955 85.5536 101.035 85.5536 102.316C85.5536 103.598 86.593 104.637 87.8758 104.637Z" fill="#6872E3"/>
<path d="M116.416 104.637C117.698 104.637 118.738 103.598 118.738 102.316C118.738 101.035 117.698 99.9955 116.416 99.9955C115.133 99.9955 114.094 101.035 114.094 102.316C114.094 103.598 115.133 104.637 116.416 104.637Z" fill="#6872E3"/>
<path d="M116.416 104.637C117.698 104.637 118.738 103.598 118.738 102.316C118.738 101.035 117.698 99.9955 116.416 99.9955C115.133 99.9955 114.094 101.035 114.094 102.316C114.094 103.598 115.133 104.637 116.416 104.637Z" fill="#6872E3"/>
</g>
<defs>
<clipPath id="clip0_1_232">
<rect width="119.992" height="106.59" fill="white" transform="translate(0.00418091)"/>
</clipPath>
</defs>
</svg>
