<svg width="593" height="588" viewBox="0 0 593 588" fill="none" xmlns="http://www.w3.org/2000/svg">
<g opacity="0.05">
<g clip-path="url(#clip0_1_1574)">
<path fill-rule="evenodd" clip-rule="evenodd" d="M289.48 0.338497C347.755 2.89958 401.414 26.7215 449.551 59.667C498.928 93.4613 543.661 134.676 566.542 189.963C590.69 248.314 604.08 316.024 579.764 374.305C556.108 431.005 491.113 452.99 441.615 489.383C391.744 526.051 351.356 585.991 289.48 587.736C227.292 589.491 179.873 536.611 130.977 498.146C84.1172 461.285 33.2199 425.892 12.6158 369.945C-8.42695 312.806 -0.760177 249.705 18.168 191.831C37.0669 134.048 69.1792 80.1907 118.849 45.1333C168.097 10.3738 229.259 -2.30811 289.48 0.338497Z" fill="#C4C4C4"/>
<path fill-rule="evenodd" clip-rule="evenodd" d="M289.48 0.338497C347.755 2.89958 401.414 26.7215 449.551 59.667C498.928 93.4613 543.661 134.676 566.542 189.963C590.69 248.314 604.08 316.024 579.764 374.305C556.108 431.005 491.113 452.99 441.615 489.383C391.744 526.051 351.356 585.991 289.48 587.736C227.292 589.491 179.873 536.611 130.977 498.146C84.1172 461.285 33.2199 425.892 12.6158 369.945C-8.42695 312.806 -0.760177 249.705 18.168 191.831C37.0669 134.048 69.1792 80.1907 118.849 45.1333C168.097 10.3738 229.259 -2.30811 289.48 0.338497Z" fill="url(#paint0_linear_1_1574)"/>
</g>
</g>
<defs>
<linearGradient id="paint0_linear_1_1574" x1="112156" y1="56597.2" x2="16557.1" y2="113323" gradientUnits="userSpaceOnUse">
<stop stop-color="#C61818"/>
<stop offset="1" stop-color="#ED3822"/>
</linearGradient>
<clipPath id="clip0_1_1574">
<rect width="592.995" height="587.97" fill="white" transform="translate(0.00230789)"/>
</clipPath>
</defs>
</svg>
