<svg width="90" height="90" viewBox="0 0 90 90" fill="none" xmlns="http://www.w3.org/2000/svg">
<g clip-path="url(#clip0_1_1236)">
<mask id="mask0_1_1236" style="mask-type:luminance" maskUnits="userSpaceOnUse" x="0" y="0" width="90" height="90">
<path d="M90 0H0V90H90V0Z" fill="white"/>
</mask>
<g mask="url(#mask0_1_1236)">
<path d="M84.8177 26.328C84.1461 26.6091 83.8292 27.3813 84.1101 28.0527C91.4635 45.6847 86.0878 66.0575 70.9927 77.7665C55.8977 89.4755 34.8282 89.6159 19.5785 78.1086C18.9975 77.6695 18.1708 77.7841 17.7317 78.3652C17.2934 78.9455 17.4081 79.7722 17.9884 80.2113C34.1898 92.4291 56.5676 92.2769 72.6013 79.8398C88.6348 67.4028 94.3467 45.7655 86.5416 27.0357C86.2607 26.364 85.4892 26.0471 84.8177 26.328Z" fill="url(#paint0_linear_1_1236)"/>
<path d="M44.9344 2.62627C54.1367 2.59758 63.0928 5.59764 70.4213 11.1638C71.0022 11.6022 71.8289 11.4874 72.2681 10.9071C72.7064 10.3261 72.5917 9.49939 72.0114 9.06104C55.81 -3.15686 33.4322 -3.00462 17.3985 9.43173C1.36494 21.8688 -4.34686 43.506 3.45813 62.2368C3.74277 62.9009 4.51062 63.212 5.17769 62.9332C5.84478 62.6537 6.16252 61.8896 5.88966 61.2195C0.443371 48.1625 1.88492 33.2467 9.73035 21.4731C17.5758 9.69944 30.7867 2.62701 44.9344 2.62627Z" fill="url(#paint1_linear_1_1236)"/>
<path d="M59.9737 26.6143C57.4687 26.6019 55.2041 28.1014 54.2369 30.4116C53.2698 32.7226 53.7919 35.3879 55.5586 37.1633C57.3252 38.9389 59.9883 39.4736 62.303 38.5181C64.6182 37.562 66.1291 35.3048 66.1291 32.8004C66.1335 29.3936 63.3797 26.6268 59.9737 26.6143ZM59.9737 36.35C58.5351 36.3625 57.231 35.5048 56.672 34.1794C56.1131 32.8542 56.4096 31.3221 57.4223 30.3005C58.4351 29.279 59.9641 28.97 61.2946 29.5172C62.625 30.0653 63.4931 31.3618 63.4931 32.8004C63.4989 34.7509 61.9242 36.3389 59.9737 36.35Z" fill="url(#paint2_linear_1_1236)"/>
<path d="M67.2873 47.611C67.2873 46.7908 67.2372 44.4079 67.1122 43.3774L64.4954 43.6937C64.5961 44.5278 64.6513 46.7187 64.6513 47.6101C64.6499 52.5908 62.9177 57.4164 59.7516 61.2607C58.4615 60.0111 57.0382 58.9058 55.5077 57.9657C56.6051 54.6244 57.1516 51.1273 57.1273 47.6101C57.1273 46.946 57.1082 46.2759 57.0721 45.6185C57.0486 45.1463 56.7742 44.7227 56.3528 44.5079C55.9313 44.2938 55.4268 44.3217 55.0318 44.5821C54.6362 44.8417 54.4112 45.2933 54.4405 45.7656C54.4502 45.9398 54.4553 46.1163 54.4618 46.2921H43.6229V40.9267C45.8383 40.8179 48.0301 40.4178 50.1409 39.7382C50.371 39.6632 50.5999 39.586 50.8272 39.5052L49.9423 37.0214C49.7392 37.0941 49.5348 37.1632 49.329 37.2302C47.4799 37.8252 45.5618 38.1805 43.6222 38.2872V26.2745C45.5221 27.3474 47.224 28.7361 48.6566 30.3814L50.641 28.6463C50.0173 27.9329 49.3488 27.2592 48.639 26.6304C49.2516 26.8076 49.8577 27.0106 50.4557 27.2393L50.5763 27.2857L51.5391 24.8315L51.3986 24.777C48.4963 23.665 45.4131 23.0963 42.3042 23.1016C28.5293 23.1016 17.322 34.0964 17.322 47.611C17.322 61.1254 28.5293 72.1187 42.3049 72.1187C42.4735 72.1187 42.6412 72.1157 42.8089 72.1129C42.8404 72.115 42.8713 72.1194 42.9029 72.1194C42.9618 72.1187 43.0207 72.1143 43.0787 72.1062C56.497 71.7025 67.2873 60.8694 67.2873 47.611ZM57.9635 63.198C55.34 65.7215 52.1429 67.569 48.6478 68.5832C51.1647 66.3274 53.1703 63.5599 54.531 60.4664C55.7636 61.26 56.9132 62.175 57.9635 63.198ZM19.9999 48.9288H27.5085C27.6019 51.984 28.1322 55.0106 29.0846 57.9151C27.5416 58.8483 26.1067 59.9487 24.8056 61.1967C21.9593 57.7113 20.278 53.4205 19.9999 48.9288ZM24.8049 34.025C26.106 35.273 27.5409 36.3734 29.0839 37.306C28.1322 40.2111 27.6012 43.2377 27.5085 46.2929H19.9999C20.278 41.8012 21.9586 37.5097 24.8049 34.0234V34.025ZM40.9871 26.2766V38.29C38.0002 38.126 35.0736 37.3787 32.3738 36.0917C34.2301 31.8325 37.1712 28.4301 40.9871 26.2759V26.2766ZM30.0547 34.806C28.8088 34.0162 27.6467 33.1027 26.5855 32.0789C29.22 29.5261 32.4392 27.6578 35.9622 26.6362C33.4306 28.9045 31.4162 31.6904 30.0547 34.8053V34.806ZM32.3738 59.1294C35.0736 57.8423 38.0002 57.0949 40.9871 56.9309V68.9436C37.1712 66.7894 34.2301 63.3879 32.3738 59.1294ZM43.6229 68.9436V56.9309C46.6075 57.1009 49.5297 57.8606 52.2193 59.1661C50.3629 63.4077 47.4277 66.7961 43.6229 68.9436ZM40.9871 54.2898C37.6847 54.4531 34.4449 55.2555 31.4471 56.6514C30.6719 54.1463 30.2342 51.5486 30.146 48.9274H40.9871V54.2898ZM30.0547 60.4142C31.4162 63.529 33.4306 66.3143 35.9622 68.5832C32.4392 67.5616 29.22 65.6929 26.5855 63.1407C27.6467 62.1169 28.8095 61.2034 30.0547 60.4142ZM54.4641 48.9288C54.3744 51.5627 53.933 54.1729 53.1498 56.6897C50.1615 55.2747 46.9246 54.4597 43.6229 54.2913V48.9288H54.4641ZM30.146 46.2929C30.2342 43.6715 30.6719 41.0738 31.4471 38.5688C34.4449 39.9648 37.684 40.7671 40.9871 40.9304V46.2929H30.146Z" fill="#6872E3"/>
<path d="M25.3772 68.6757L11.2808 70.5062C10.924 70.5519 10.6019 70.7416 10.3886 71.0308C10.1753 71.3205 10.09 71.6838 10.151 72.0384L12.5789 86.0443C12.6693 86.5642 13.0614 86.9805 13.5747 87.1018C14.0888 87.2232 14.6257 87.026 14.9391 86.601L26.6076 70.7645C26.9202 70.3394 26.9495 69.768 26.6818 69.3134C26.4134 68.8588 25.8999 68.6073 25.3763 68.6757H25.3772ZM14.6493 82.5506L12.9841 72.9429L22.6536 71.6875L14.6493 82.5506Z" fill="#6872E3"/>
<path d="M64.4518 20.6075C63.9554 20.6068 63.5001 20.3273 63.2765 19.8838C63.0522 19.4396 63.0963 18.9078 63.3913 18.5078L75.0598 2.6712C75.3731 2.24535 75.9101 2.04825 76.4241 2.16961C76.9375 2.29097 77.3295 2.70725 77.42 3.22797L79.8477 17.2338C79.9089 17.5875 79.8235 17.9516 79.6103 18.2407C79.3969 18.5297 79.0748 18.7196 78.718 18.7658L64.6217 20.5966C64.5651 20.6038 64.5085 20.6075 64.4518 20.6075ZM75.3502 6.7208L67.346 17.5854L77.0154 16.3292L75.3502 6.7208Z" fill="#6872E3"/>
<path d="M59.9735 20.9196C56.666 20.9055 53.4874 22.1992 51.1309 24.519C48.8765 26.7312 47.5129 29.6932 47.2967 32.8439C47.1842 34.5709 47.4423 36.3015 48.055 37.9195C48.6993 39.6 49.6819 41.1298 50.941 42.4155L59.0226 50.8509C59.2711 51.1105 59.6146 51.2568 59.9742 51.2568C60.3332 51.2568 60.6774 51.1105 60.9261 50.8509L69.0075 42.4155C70.2668 41.1298 71.2494 39.6 71.8929 37.9195C72.5055 36.3015 72.7644 34.5709 72.6511 32.8439C72.4348 29.6932 71.0706 26.7312 68.8164 24.519C66.4599 22.1992 63.2803 20.9048 59.9735 20.9196ZM69.4223 36.9993C68.9031 38.3425 68.114 39.5649 67.1034 40.5916L59.9735 48.0331L52.8437 40.5923C51.8333 39.5656 51.044 38.3432 50.5248 36.9993C50.043 35.7321 49.8392 34.3767 49.9261 33.0233C50.0982 30.5162 51.1845 28.1589 52.979 26.3988C56.8714 22.6081 63.075 22.6081 66.9681 26.3988C68.7619 28.1589 69.8482 30.5162 70.021 33.0233C70.1079 34.3767 69.9034 35.7321 69.4223 36.9993Z" fill="url(#paint3_linear_1_1236)"/>
<path d="M25.3772 68.6757L11.2808 70.5062C10.924 70.5519 10.6019 70.7416 10.3886 71.0308C10.1753 71.3205 10.09 71.6838 10.151 72.0384L12.5789 86.0443C12.6693 86.5642 13.0614 86.9805 13.5747 87.1018C14.0888 87.2232 14.6257 87.026 14.9391 86.601L26.6076 70.7645C26.9202 70.3394 26.9495 69.768 26.6818 69.3134C26.4134 68.8588 25.8999 68.6073 25.3763 68.6757H25.3772ZM14.6493 82.5506L12.9841 72.9429L22.6536 71.6875L14.6493 82.5506Z" fill="#6872E3"/>
<path d="M67.2873 47.611C67.2873 46.7908 67.2372 44.4079 67.1122 43.3774L64.4954 43.6937C64.5961 44.5278 64.6513 46.7187 64.6513 47.6101C64.6499 52.5908 62.9177 57.4164 59.7516 61.2607C58.4615 60.0111 57.0382 58.9058 55.5077 57.9657C56.6051 54.6244 57.1516 51.1273 57.1273 47.6101C57.1273 46.946 57.1082 46.2759 57.0721 45.6185C57.0486 45.1463 56.7742 44.7227 56.3528 44.5079C55.9313 44.2938 55.4268 44.3217 55.0318 44.5821C54.6362 44.8417 54.4112 45.2933 54.4405 45.7656C54.4502 45.9398 54.4553 46.1163 54.4618 46.2921H43.6229V40.9267C45.8383 40.8179 48.0301 40.4178 50.1409 39.7382C50.371 39.6632 50.5999 39.586 50.8272 39.5052L49.9423 37.0214C49.7392 37.0941 49.5348 37.1632 49.329 37.2302C47.4799 37.8252 45.5618 38.1805 43.6222 38.2872V26.2745C45.5221 27.3474 47.224 28.7361 48.6566 30.3814L50.641 28.6463C50.0173 27.9329 49.3488 27.2592 48.639 26.6304C49.2516 26.8076 49.8577 27.0106 50.4557 27.2393L50.5763 27.2857L51.5391 24.8315L51.3986 24.777C48.4963 23.665 45.4131 23.0963 42.3042 23.1016C28.5293 23.1016 17.322 34.0964 17.322 47.611C17.322 61.1254 28.5293 72.1187 42.3049 72.1187C42.4735 72.1187 42.6412 72.1157 42.8089 72.1129C42.8404 72.115 42.8713 72.1194 42.9029 72.1194C42.9618 72.1187 43.0207 72.1143 43.0787 72.1062C56.497 71.7025 67.2873 60.8694 67.2873 47.611ZM57.9635 63.198C55.34 65.7215 52.1429 67.569 48.6478 68.5832C51.1647 66.3274 53.1703 63.5599 54.531 60.4664C55.7636 61.26 56.9132 62.175 57.9635 63.198ZM19.9999 48.9288H27.5085C27.6019 51.984 28.1322 55.0106 29.0846 57.9151C27.5416 58.8483 26.1067 59.9487 24.8056 61.1967C21.9593 57.7113 20.278 53.4205 19.9999 48.9288ZM24.8049 34.025C26.106 35.273 27.5409 36.3734 29.0839 37.306C28.1322 40.2111 27.6012 43.2377 27.5085 46.2929H19.9999C20.278 41.8012 21.9586 37.5097 24.8049 34.0234V34.025ZM40.9871 26.2766V38.29C38.0002 38.126 35.0736 37.3787 32.3738 36.0917C34.2301 31.8325 37.1712 28.4301 40.9871 26.2759V26.2766ZM30.0547 34.806C28.8088 34.0162 27.6467 33.1027 26.5855 32.0789C29.22 29.5261 32.4392 27.6578 35.9622 26.6362C33.4306 28.9045 31.4162 31.6904 30.0547 34.8053V34.806ZM32.3738 59.1294C35.0736 57.8423 38.0002 57.0949 40.9871 56.9309V68.9436C37.1712 66.7894 34.2301 63.3879 32.3738 59.1294ZM43.6229 68.9436V56.9309C46.6075 57.1009 49.5297 57.8606 52.2193 59.1661C50.3629 63.4077 47.4277 66.7961 43.6229 68.9436ZM40.9871 54.2898C37.6847 54.4531 34.4449 55.2555 31.4471 56.6514C30.6719 54.1463 30.2342 51.5486 30.146 48.9274H40.9871V54.2898ZM30.0547 60.4142C31.4162 63.529 33.4306 66.3143 35.9622 68.5832C32.4392 67.5616 29.22 65.6929 26.5855 63.1407C27.6467 62.1169 28.8095 61.2034 30.0547 60.4142ZM54.4641 48.9288C54.3744 51.5627 53.933 54.1729 53.1498 56.6897C50.1615 55.2747 46.9246 54.4597 43.6229 54.2913V48.9288H54.4641ZM30.146 46.2929C30.2342 43.6715 30.6719 41.0738 31.4471 38.5688C34.4449 39.9648 37.684 40.7671 40.9871 40.9304V46.2929H30.146Z" fill="#6872E3"/>
<path d="M59.9735 20.9196C56.666 20.9055 53.4874 22.1992 51.1309 24.519C48.8765 26.7312 47.5129 29.6932 47.2967 32.8439C47.1842 34.5709 47.4423 36.3015 48.055 37.9195C48.6993 39.6 49.6819 41.1298 50.941 42.4155L59.0226 50.8509C59.2711 51.1105 59.6146 51.2568 59.9742 51.2568C60.3332 51.2568 60.6774 51.1105 60.9261 50.8509L69.0075 42.4155C70.2668 41.1298 71.2494 39.6 71.8929 37.9195C72.5055 36.3015 72.7644 34.5709 72.6511 32.8439C72.4348 29.6932 71.0706 26.7312 68.8164 24.519C66.4599 22.1992 63.2803 20.9048 59.9735 20.9196ZM69.4223 36.9993C68.9031 38.3425 68.114 39.5649 67.1034 40.5916L59.9735 48.0331L52.8437 40.5923C51.8333 39.5656 51.044 38.3432 50.5248 36.9993C50.043 35.7321 49.8392 34.3767 49.9261 33.0233C50.0982 30.5162 51.1845 28.1589 52.979 26.3988C56.8714 22.6081 63.075 22.6081 66.9681 26.3988C68.7619 28.1589 69.8482 30.5162 70.021 33.0233C70.1079 34.3767 69.9034 35.7321 69.4223 36.9993Z" fill="url(#paint4_linear_1_1236)"/>
<path d="M35.9622 26.6364C33.4313 28.9047 31.4168 31.6906 30.0554 34.8055C28.8094 34.0164 27.6467 33.1029 26.5855 32.0791C29.2199 29.5262 32.4392 27.658 35.9622 26.6364ZM24.8048 34.0236C26.1066 35.2718 27.5415 36.372 29.0838 37.3054C28.1322 40.2106 27.6011 43.2372 27.5085 46.2931H19.9998C20.2779 41.8014 21.9585 37.5099 24.8048 34.0236ZM19.9998 48.929H27.5085C27.6018 51.9842 28.1322 55.0108 29.0845 57.9153C27.5415 58.8485 26.1066 59.9489 24.8055 61.1969C21.9593 57.7115 20.2779 53.4207 19.9998 48.929ZM26.5855 63.1409C27.6467 62.117 28.8094 61.2036 30.0547 60.4143C31.4161 63.5292 33.4306 66.3144 35.9622 68.5834C32.4392 67.5618 29.2199 65.693 26.5855 63.1409ZM49.2686 26.8255C49.2178 26.9057 49.17 26.9879 49.1208 27.0704C48.9626 26.9212 48.8016 26.7747 48.6397 26.6299C48.8508 26.6909 49.0596 26.7586 49.2686 26.8255Z" fill="#D4E1F4"/>
</g>
</g>
<defs>
<linearGradient id="paint0_linear_1_1236" x1="13745.2" y1="6096.97" x2="2897.53" y2="13442.1" gradientUnits="userSpaceOnUse">
<stop stop-color="#00CF91"/>
<stop offset="1" stop-color="#00CF60"/>
</linearGradient>
<linearGradient id="paint1_linear_1_1236" x1="13727.7" y1="6069.67" x2="2881.27" y2="13415.2" gradientUnits="userSpaceOnUse">
<stop stop-color="#00CF91"/>
<stop offset="1" stop-color="#00CF60"/>
</linearGradient>
<linearGradient id="paint2_linear_1_1236" x1="2395.12" y1="1217.91" x2="390.887" y2="2397.45" gradientUnits="userSpaceOnUse">
<stop stop-color="#00CF91"/>
<stop offset="1" stop-color="#00CF60"/>
</linearGradient>
<linearGradient id="paint3_linear_1_1236" x1="4855.36" y1="2942.12" x2="397.019" y2="5139.42" gradientUnits="userSpaceOnUse">
<stop stop-color="#00CF91"/>
<stop offset="1" stop-color="#00CF60"/>
</linearGradient>
<linearGradient id="paint4_linear_1_1236" x1="4855.36" y1="2942.12" x2="397.019" y2="5139.42" gradientUnits="userSpaceOnUse">
<stop stop-color="#00CF91"/>
<stop offset="1" stop-color="#00CF60"/>
</linearGradient>
<clipPath id="clip0_1_1236">
<rect width="90" height="90" fill="white"/>
</clipPath>
</defs>
</svg>
