<svg width="90" height="90" viewBox="0 0 90 90" fill="none" xmlns="http://www.w3.org/2000/svg">
<g clip-path="url(#clip0_1_1207)">
<path d="M8.39941 81.6991C7.99413 81.6983 7.66618 81.3695 7.66618 80.9635V73.8735H3.50846C3.10237 73.8744 2.77441 74.2031 2.77441 74.6085V85.8674C2.77441 86.2735 3.10237 86.6022 3.50846 86.6031H40.377C40.7822 86.6022 41.111 86.2735 41.111 85.8674V81.6991H8.39941Z" fill="#D4E1F4"/>
<path d="M15.0869 28.6923L29.1584 17.439V13.3513L9.97545 28.6923C8.8524 29.8829 8.22903 31.4593 8.23392 33.0958V70.787H13.3446V33.0958C13.3397 31.4593 13.9631 29.8829 15.0869 28.6923Z" fill="#D4E1F4"/>
<path d="M31.7951 10.2002C31.2792 9.58167 30.3597 9.49866 29.7411 10.0146L8.96072 27.3414C8.92328 27.3721 8.88747 27.4048 8.85411 27.4398C7.18744 29.1284 6.25483 31.407 6.26052 33.7793V72.4154C6.26052 73.2203 6.91401 73.8736 7.71886 73.8736C8.52452 73.8736 9.17719 73.2203 9.17719 72.4154V33.7793C9.17311 32.1956 9.7859 30.6729 10.8862 29.5328L31.6088 12.2542C32.2274 11.7382 32.3111 10.8187 31.7951 10.2002Z" fill="#6872E3"/>
<path d="M44.9054 40.6006C44.0998 40.6006 43.4471 41.2541 43.4471 42.0589V57.2372C43.4431 60.6217 40.6999 63.3643 37.3161 63.3676C36.5103 63.3676 35.8576 64.021 35.8576 64.8259V72.4154C35.8576 73.2203 36.5103 73.8737 37.3161 73.8737C38.1217 73.8737 38.7743 73.2203 38.7743 72.4154V66.1671C43.1469 65.4467 46.3574 61.6692 46.363 57.2372V42.0589C46.363 41.2541 45.7103 40.6006 44.9054 40.6006Z" fill="#6872E3"/>
<path d="M9.71184 84.8764C7.92392 84.9154 6.2898 83.8688 5.57854 82.2274C4.86728 80.5868 5.21966 78.6784 6.47047 77.3999C7.72128 76.1223 9.62151 75.7275 11.2776 76.4031C12.9337 77.0784 14.016 78.6891 14.016 80.4777C14.0388 82.8792 12.1142 84.8471 9.71184 84.8764ZM9.71184 78.995C9.10313 78.9551 8.53184 79.2904 8.27059 79.8422C8.01019 80.3931 8.11272 81.0474 8.5294 81.4926C8.94605 81.9377 9.59222 82.0834 10.1594 81.8597C10.7267 81.635 11.0994 81.0873 11.0994 80.4777C11.123 79.686 10.5029 79.0243 9.71184 78.9958V78.995Z" fill="#6872E3"/>
<path d="M73.838 24.095C72.8476 24.0925 71.871 24.3293 70.9921 24.7858C68.383 23.4383 65.1864 24.1055 63.3342 26.3851C61.482 28.6637 61.482 31.9287 63.3342 34.208C65.1864 36.4867 68.383 37.1541 70.9921 35.8064C73.2772 36.9864 76.0532 36.634 77.9704 34.9201C79.8878 33.2063 80.5486 30.4874 79.6314 28.0842C78.7143 25.6819 76.4095 24.095 73.838 24.095ZM64.8617 30.2962C64.8617 28.7516 65.9384 27.4153 67.448 27.0864C68.9576 26.7577 70.4916 27.5252 71.1338 28.9305C71.7766 30.3352 71.3526 31.9986 70.1165 32.9246C69.5493 33.3529 68.8567 33.5831 68.1462 33.5814C66.333 33.5791 64.8633 32.1092 64.8617 30.2962ZM73.838 33.5814C73.698 33.5814 73.5572 33.5726 73.418 33.5547C73.4326 33.5318 73.4449 33.5074 73.4586 33.4838C73.5026 33.4105 73.5449 33.3356 73.5864 33.2607C73.6093 33.2186 73.6321 33.1762 73.6548 33.1331C73.6963 33.0509 73.7362 32.967 73.7752 32.8832C73.7924 32.8466 73.8102 32.8107 73.8257 32.7733C73.8786 32.6529 73.929 32.53 73.9739 32.4063C73.9779 32.3948 73.9812 32.3843 73.9853 32.3729C74.0252 32.2598 74.0626 32.1451 74.0967 32.0296C74.109 31.9881 74.1196 31.9448 74.131 31.9018C74.1546 31.8163 74.1765 31.73 74.196 31.643C74.2066 31.5942 74.2164 31.5453 74.2261 31.4973C74.2431 31.4135 74.2579 31.3296 74.2716 31.2451C74.279 31.1962 74.2864 31.1473 74.292 31.0978C74.3043 31.0074 74.3133 30.9171 74.3214 30.8267C74.3245 30.7843 74.3295 30.7413 74.3328 30.6989C74.3418 30.5655 74.3465 30.4312 74.3465 30.2969C74.3465 30.1619 74.3418 30.0251 74.3328 29.89C74.3303 29.8469 74.3254 29.8045 74.3221 29.7615C74.314 29.6695 74.305 29.5776 74.2936 29.4872C74.2871 29.4375 74.2799 29.3888 74.2725 29.3399C74.2595 29.2545 74.2449 29.1698 74.2286 29.0859C74.2189 29.0372 74.209 28.9891 74.1985 28.9404C74.179 28.8525 74.157 28.7662 74.1342 28.6792C74.1227 28.6375 74.1138 28.5953 74.1008 28.5538C74.0674 28.4382 74.0308 28.3243 73.9909 28.2112C73.9869 28.2005 73.9837 28.1884 73.9795 28.1779C73.9348 28.0541 73.886 27.9328 73.8339 27.8133C73.8167 27.775 73.7989 27.7375 73.781 27.7001C73.7436 27.618 73.7053 27.5373 73.6638 27.4575C73.6409 27.4129 73.6174 27.3696 73.5938 27.3257C73.5539 27.2532 73.5133 27.1817 73.4701 27.1109C73.4555 27.0864 73.4432 27.0604 73.4286 27.0369C73.5645 27.0198 73.7012 27.0115 73.8387 27.0115C75.6527 27.0115 77.1233 28.4821 77.1233 30.2962C77.1233 32.111 75.6527 33.5814 73.8387 33.5814H73.838Z" fill="#6872E3"/>
<path d="M42.2494 70.957H1.45833C0.652669 70.957 0 71.6095 0 72.4153V88.1623C0 88.9672 0.652669 89.6206 1.45833 89.6206H42.2501C43.055 89.6206 43.7085 88.9672 43.7085 88.1623V72.4153C43.7085 71.6088 43.055 70.9562 42.2494 70.957ZM40.7911 86.704H2.91667V73.8736H40.7918L40.7911 86.704Z" fill="url(#paint0_linear_1_1207)"/>
<path d="M80.9529 0H38.2648C33.2705 0.00569663 29.2235 4.05274 29.2178 9.04704V28.4586C29.2178 29.2642 29.8705 29.9169 30.6761 29.9169C31.4817 29.9169 32.1344 29.2642 32.1344 28.4586V20.9408H87.0833V32.5733C87.079 35.9571 84.3367 38.6995 80.9529 38.7037H38.2648C36.874 38.7093 35.5231 38.2365 34.4392 37.3641C33.8101 36.8603 32.8929 36.9629 32.3891 37.5912C31.8862 38.2203 31.988 39.1382 32.6171 39.6411C34.2218 40.9205 36.2123 41.6187 38.2648 41.6203H80.9529C85.9472 41.6146 89.9942 37.5676 89.9998 32.5733V9.04704C89.9942 4.05274 85.9472 0.00569663 80.9529 0ZM87.0833 18.0241H32.1337V13.3512H87.0833V18.0241ZM87.0833 10.4346H32.1337V9.04704C32.1377 5.66325 34.8803 2.92073 38.2648 2.91667H80.952C84.3367 2.92073 87.079 5.66325 87.0824 9.04704L87.0833 10.4346Z" fill="url(#paint1_linear_1_1207)"/>
<path d="M31.1855 43.9966L31.2523 42.8402L38.9093 35.1831C41.6965 32.3893 41.6965 27.8654 38.9093 25.0717L37.5674 23.7298C37.0441 23.2056 36.2107 23.1576 35.6305 23.6181L17.4038 38.0494C16.7731 38.549 16.6657 39.4669 17.1662 40.0985C17.6658 40.7301 18.583 40.8366 19.2145 40.3362L36.4231 26.7115L36.8464 27.1346C38.4968 28.7891 38.4968 31.4673 36.8464 33.1217L28.797 41.1702C28.5439 41.4234 28.3925 41.7603 28.3721 42.1175L28.2705 43.8729C28.2689 43.9006 28.2681 43.9291 28.2681 43.9576C28.2761 45.2897 28.5797 46.6049 29.1575 47.806C30.4572 50.5965 30.2131 53.8623 28.5129 56.4291C28.3535 56.6683 28.2681 56.9499 28.2681 57.2381V61.0319C28.2681 61.8375 28.9207 62.4902 29.7263 62.4902C30.5321 62.4902 31.1846 61.8375 31.1846 61.0319V57.6627C33.2298 54.2978 33.4592 50.1344 31.7976 46.565C31.4093 45.7634 31.2001 44.887 31.1855 43.9966Z" fill="#6872E3"/>
</g>
<defs>
<linearGradient id="paint0_linear_1_1207" x1="8271.83" y1="1868.08" x2="4984.01" y2="6399.51" gradientUnits="userSpaceOnUse">
<stop stop-color="#00CF91"/>
<stop offset="1" stop-color="#00CF60"/>
</linearGradient>
<linearGradient id="paint1_linear_1_1207" x1="11532.2" y1="4007.62" x2="3907.42" y2="10560.9" gradientUnits="userSpaceOnUse">
<stop stop-color="#00CF91"/>
<stop offset="1" stop-color="#00CF60"/>
</linearGradient>
<clipPath id="clip0_1_1207">
<rect width="90" height="90" fill="white"/>
</clipPath>
</defs>
</svg>
