<svg width="321" height="502" viewBox="0 0 321 502" fill="none" xmlns="http://www.w3.org/2000/svg">
<g opacity="0.7">
<g clip-path="url(#clip0_1_2032)">
<path fill-rule="evenodd" clip-rule="evenodd" d="M372.345 403.67C342.529 429.976 300.133 441.746 260.715 436.525C225.785 431.898 205.079 397.627 176.041 377.67C152.109 361.221 120.774 354.8 105.695 329.983C90.0825 304.288 95.1703 272.809 94.0704 242.763C92.6561 204.123 73.0258 158.894 98.3626 129.688C123.523 100.684 170.8 106.739 209.037 110.238C240.393 113.106 263.586 137.125 293.307 147.521C330.2 160.425 377.802 148.79 403.485 178.251C429.928 208.585 427.053 254.767 421.546 294.63C415.953 335.121 402.997 376.628 372.345 403.67Z" fill="#F6F9FC"/>
</g>
</g>
<defs>
<clipPath id="clip0_1_2032">
<rect width="319.999" height="388.61" fill="white" transform="translate(501.53 275.56) rotate(135)"/>
</clipPath>
</defs>
</svg>
