<svg width="363" height="515" viewBox="0 0 363 515" fill="none" xmlns="http://www.w3.org/2000/svg">
<g opacity="0.7">
<g clip-path="url(#clip0_1_1920)">
<path fill-rule="evenodd" clip-rule="evenodd" d="M390.651 392.027C362.383 419.603 326.992 440.245 287.746 444.637C249.557 448.91 212.306 434.993 179.072 415.701C147.317 397.267 119.785 371.694 104.544 338.289C89.7274 305.816 93.023 269.708 96.2399 234.159C99.7011 195.91 97.6947 153.346 123.826 125.202C150.233 96.7594 192.851 93.4572 231.36 88.6283C268.654 83.9514 308.057 79.808 340.963 97.973C373.37 115.863 387.807 152.436 405.676 184.855C424.234 218.524 449.397 251.309 446.616 289.653C443.732 329.415 419.188 364.188 390.651 392.027Z" fill="white"/>
</g>
</g>
<defs>
<clipPath id="clip0_1_1920">
<rect width="349.998" height="377.52" fill="white" transform="translate(515.219 267.491) rotate(135)"/>
</clipPath>
</defs>
</svg>
