<svg width="70" height="70" viewBox="0 0 70 70" fill="none" xmlns="http://www.w3.org/2000/svg">
<g clip-path="url(#clip0_1_212)">
<mask id="mask0_1_212" style="mask-type:luminance" maskUnits="userSpaceOnUse" x="0" y="0" width="70" height="70">
<path d="M70 0H0V70H70V0Z" fill="white"/>
</mask>
<g mask="url(#mask0_1_212)">
<path d="M30.9509 43.0534C30.568 43.0543 30.2032 42.8861 29.9548 42.5945L23.036 34.4924C22.566 33.942 22.6311 33.1154 23.1815 32.6453C23.7318 32.1761 24.5585 32.2412 25.0284 32.7908L31.1162 39.9201L46.2365 27.6189C46.7979 27.1621 47.623 27.2468 48.0791 27.8082C48.536 28.3696 48.4512 29.1947 47.8899 29.6508L31.7762 42.7596C31.5438 42.9497 31.2521 43.0534 30.9509 43.0534Z" fill="#6872E3"/>
<path d="M30.5192 68.3437L34.0699 69.891C34.4017 70.0357 34.7796 70.0364 35.1121 69.8924L39.1132 68.1646C53.1612 62.2647 62.3005 48.5148 62.3019 33.2783V15.3293C62.3019 14.8455 62.0352 14.4004 61.6083 14.1731L35.2993 0.154245C34.9089 -0.0540637 34.4412 -0.0511403 34.0538 0.161554L8.47271 14.1803C8.05317 14.4106 7.79297 14.8507 7.79297 15.3293V33.6416C7.80832 48.6946 16.7269 62.3129 30.5192 68.3437ZM10.4125 16.1049L34.6918 2.79794L59.6824 16.1144V33.2783C59.6795 47.4645 51.1679 60.2649 38.0877 65.7547L38.0782 65.7591L34.5946 67.2633L31.5673 65.9426C18.7288 60.3292 10.4264 47.6539 10.4118 33.6416L10.4125 16.1049Z" fill="#4E36D7"/>
<path d="M30.5192 68.3437L34.0699 69.891C34.4017 70.0357 34.7796 70.0364 35.1121 69.8924L39.1132 68.1646C53.1612 62.2647 62.3005 48.5148 62.3019 33.2783V15.3293C62.3019 14.8455 62.0352 14.4004 61.6083 14.1731L35.2993 0.154245C34.9089 -0.0540637 34.4412 -0.0511403 34.0538 0.161554L8.47271 14.1803C8.05317 14.4106 7.79297 14.8507 7.79297 15.3293V33.6416C7.80832 48.6946 16.7269 62.3129 30.5192 68.3437ZM10.4125 16.1049L34.6918 2.79794L59.6824 16.1144V33.2783C59.6795 47.4645 51.1679 60.2649 38.0877 65.7547L38.0782 65.7591L34.5946 67.2633L31.5673 65.9426C18.7288 60.3292 10.4264 47.6539 10.4118 33.6416L10.4125 16.1049Z" fill="url(#paint0_linear_1_212)"/>
<path d="M43.7009 58.2695L43.6922 58.2732L40.2079 59.7781L37.1805 58.458C24.3421 52.8446 16.0397 40.1693 16.0251 26.157V13.0284L10.4117 16.1049V33.6415C10.4263 47.6538 18.7287 60.3292 31.5671 65.9426L34.5938 67.2626L38.0781 65.7576L38.0868 65.754C45.3374 62.701 51.3624 57.3171 55.2077 50.4547C51.9259 53.7935 48.0148 56.4495 43.7009 58.2695Z" fill="#D4E1F4"/>
</g>
</g>
<defs>
<linearGradient id="paint0_linear_1_212" x1="10323.6" y1="6740.3" x2="498.228" y2="11243.1" gradientUnits="userSpaceOnUse">
<stop stop-color="#00CF91"/>
<stop offset="1" stop-color="#00CF60"/>
</linearGradient>
<clipPath id="clip0_1_212">
<rect width="70" height="70" fill="white"/>
</clipPath>
</defs>
</svg>
