<svg width="359" height="478" viewBox="0 0 359 478" fill="none" xmlns="http://www.w3.org/2000/svg">
<g opacity="0.7">
<g clip-path="url(#clip0_1_1820)">
<path fill-rule="evenodd" clip-rule="evenodd" d="M117.409 368.038C94.2365 343.477 93.4748 307.099 87.41 273.881C81.1748 239.729 64.2699 202.466 81.6976 172.44C99.0379 142.565 142.484 145.04 172.308 127.613C204.976 108.525 226.397 67.6996 264.185 65.8098C303.694 63.8334 341.234 88.3566 367.601 117.845C393.154 146.424 403.962 185.229 405.222 223.545C406.376 258.634 392.491 291.501 374.301 321.529C357.266 349.651 334.6 373.709 305.265 388.556C275.99 403.374 243.174 407.969 210.556 404.407C176.59 400.697 140.856 392.891 117.409 368.038Z" fill="#F6F9FC"/>
</g>
</g>
<defs>
<clipPath id="clip0_1_1820">
<rect width="319.996" height="354.3" fill="white" transform="translate(226.869 477.549) rotate(-135)"/>
</clipPath>
</defs>
</svg>
