<svg width="50" height="45" viewBox="0 0 50 45" fill="none" xmlns="http://www.w3.org/2000/svg">
<g clip-path="url(#clip0_1_1396)">
<path d="M0.970552 1.93367C1.50487 1.93367 1.93804 1.50081 1.93804 0.966836C1.93804 0.432864 1.50487 0 0.970552 0C0.436232 0 0.00311279 0.432864 0.00311279 0.966836C0.00311279 1.50081 0.436232 1.93367 0.970552 1.93367Z" fill="#6872E3"/>
<path d="M12.8507 1.93367C13.3851 1.93367 13.8182 1.50081 13.8182 0.966836C13.8182 0.432864 13.3851 0 12.8507 0C12.3164 0 11.8832 0.432864 11.8832 0.966836C11.8832 1.50081 12.3164 1.93367 12.8507 1.93367Z" fill="#6872E3"/>
<path d="M24.7343 1.93367C25.2688 1.93367 25.7019 1.50081 25.7019 0.966836C25.7019 0.432864 25.2688 0 24.7343 0C24.2 0 23.7669 0.432864 23.7669 0.966836C23.7669 1.50081 24.2 1.93367 24.7343 1.93367Z" fill="#6872E3"/>
<path d="M36.6142 1.93367C37.1486 1.93367 37.5816 1.50081 37.5816 0.966836C37.5816 0.432864 37.1486 0 36.6142 0C36.0797 0 35.6467 0.432864 35.6467 0.966836C35.6467 1.50081 36.0797 1.93367 36.6142 1.93367Z" fill="#6872E3"/>
<path d="M48.5052 1.93367C49.0395 1.93367 49.4726 1.50081 49.4726 0.966836C49.4726 0.432864 49.0395 0 48.5052 0C47.9708 0 47.5377 0.432864 47.5377 0.966836C47.5377 1.50081 47.9708 1.93367 48.5052 1.93367Z" fill="#6872E3"/>
<path d="M0.970552 12.3541C1.50487 12.3541 1.93804 11.9212 1.93804 11.3873C1.93804 10.8533 1.50487 10.4204 0.970552 10.4204C0.436232 10.4204 0.00311279 10.8533 0.00311279 11.3873C0.00311279 11.9212 0.436232 12.3541 0.970552 12.3541Z" fill="#6872E3"/>
<path d="M12.8507 12.3531C13.3851 12.3531 13.8182 11.9203 13.8182 11.3863C13.8182 10.8523 13.3851 10.4194 12.8507 10.4194C12.3164 10.4194 11.8832 10.8523 11.8832 11.3863C11.8832 11.9203 12.3164 12.3531 12.8507 12.3531Z" fill="#6872E3"/>
<path d="M24.7343 12.3531C25.2688 12.3531 25.7019 11.9203 25.7019 11.3863C25.7019 10.8523 25.2688 10.4194 24.7343 10.4194C24.2 10.4194 23.7669 10.8523 23.7669 11.3863C23.7669 11.9203 24.2 12.3531 24.7343 12.3531Z" fill="#6872E3"/>
<path d="M36.6142 12.3531C37.1486 12.3531 37.5816 11.9203 37.5816 11.3863C37.5816 10.8523 37.1486 10.4194 36.6142 10.4194C36.0797 10.4194 35.6467 10.8523 35.6467 11.3863C35.6467 11.9203 36.0797 12.3531 36.6142 12.3531Z" fill="#6872E3"/>
<path d="M48.5052 12.3531C49.0395 12.3531 49.4726 11.9203 49.4726 11.3863C49.4726 10.8523 49.0395 10.4194 48.5052 10.4194C47.9708 10.4194 47.5377 10.8523 47.5377 11.3863C47.5377 11.9203 47.9708 12.3531 48.5052 12.3531Z" fill="#6872E3"/>
<path d="M0.970552 22.7642C1.50487 22.7642 1.93804 22.3314 1.93804 21.7975C1.93804 21.2634 1.50487 20.8306 0.970552 20.8306C0.436232 20.8306 0.00311279 21.2634 0.00311279 21.7975C0.00311279 22.3314 0.436232 22.7642 0.970552 22.7642Z" fill="#6872E3"/>
<path d="M12.8507 22.7642C13.3851 22.7642 13.8182 22.3314 13.8182 21.7975C13.8182 21.2634 13.3851 20.8306 12.8507 20.8306C12.3164 20.8306 11.8832 21.2634 11.8832 21.7975C11.8832 22.3314 12.3164 22.7642 12.8507 22.7642Z" fill="#6872E3"/>
<path d="M24.7343 22.7642C25.2688 22.7642 25.7019 22.3314 25.7019 21.7975C25.7019 21.2634 25.2688 20.8306 24.7343 20.8306C24.2 20.8306 23.7669 21.2634 23.7669 21.7975C23.7669 22.3314 24.2 22.7642 24.7343 22.7642Z" fill="#6872E3"/>
<path d="M36.6142 22.7642C37.1486 22.7642 37.5816 22.3314 37.5816 21.7975C37.5816 21.2634 37.1486 20.8306 36.6142 20.8306C36.0797 20.8306 35.6467 21.2634 35.6467 21.7975C35.6467 22.3314 36.0797 22.7642 36.6142 22.7642Z" fill="#6872E3"/>
<path d="M48.5052 22.7642C49.0395 22.7642 49.4726 22.3314 49.4726 21.7975C49.4726 21.2634 49.0395 20.8306 48.5052 20.8306C47.9708 20.8306 47.5377 21.2634 47.5377 21.7975C47.5377 22.3314 47.9708 22.7642 48.5052 22.7642Z" fill="#6872E3"/>
<path d="M0.970552 33.1768C1.50487 33.1768 1.93804 32.744 1.93804 32.2101C1.93804 31.676 1.50487 31.2432 0.970552 31.2432C0.436232 31.2432 0.00311279 31.676 0.00311279 32.2101C0.00311279 32.744 0.436232 33.1768 0.970552 33.1768Z" fill="#6872E3"/>
<path d="M12.8507 33.1758C13.3851 33.1758 13.8182 32.743 13.8182 32.2091C13.8182 31.675 13.3851 31.2422 12.8507 31.2422C12.3164 31.2422 11.8832 31.675 11.8832 32.2091C11.8832 32.743 12.3164 33.1758 12.8507 33.1758Z" fill="#6872E3"/>
<path d="M24.7343 33.1758C25.2688 33.1758 25.7019 32.743 25.7019 32.2091C25.7019 31.675 25.2688 31.2422 24.7343 31.2422C24.2 31.2422 23.7669 31.675 23.7669 32.2091C23.7669 32.743 24.2 33.1758 24.7343 33.1758Z" fill="#6872E3"/>
<path d="M36.6142 33.1758C37.1486 33.1758 37.5816 32.743 37.5816 32.2091C37.5816 31.675 37.1486 31.2422 36.6142 31.2422C36.0797 31.2422 35.6467 31.675 35.6467 32.2091C35.6467 32.743 36.0797 33.1758 36.6142 33.1758Z" fill="#6872E3"/>
<path d="M48.5052 33.1758C49.0395 33.1758 49.4726 32.743 49.4726 32.2091C49.4726 31.675 49.0395 31.2422 48.5052 31.2422C47.9708 31.2422 47.5377 31.675 47.5377 32.2091C47.5377 32.743 47.9708 33.1758 48.5052 33.1758Z" fill="#6872E3"/>
<path d="M0.970552 43.5967C1.50487 43.5967 1.93804 43.1639 1.93804 42.6298C1.93804 42.0959 1.50487 41.6631 0.970552 41.6631C0.436232 41.6631 0.00311279 42.0959 0.00311279 42.6298C0.00311279 43.1639 0.436232 43.5967 0.970552 43.5967Z" fill="#6872E3"/>
<path d="M12.8507 43.5962C13.3851 43.5962 13.8182 43.1634 13.8182 42.6294C13.8182 42.0955 13.3851 41.6626 12.8507 41.6626C12.3164 41.6626 11.8832 42.0955 11.8832 42.6294C11.8832 43.1634 12.3164 43.5962 12.8507 43.5962Z" fill="#6872E3"/>
<path d="M24.7343 43.5962C25.2688 43.5962 25.7019 43.1634 25.7019 42.6294C25.7019 42.0955 25.2688 41.6626 24.7343 41.6626C24.2 41.6626 23.7669 42.0955 23.7669 42.6294C23.7669 43.1634 24.2 43.5962 24.7343 43.5962Z" fill="#6872E3"/>
<path d="M36.6142 43.5962C37.1486 43.5962 37.5816 43.1634 37.5816 42.6294C37.5816 42.0955 37.1486 41.6626 36.6142 41.6626C36.0797 41.6626 35.6467 42.0955 35.6467 42.6294C35.6467 43.1634 36.0797 43.5962 36.6142 43.5962Z" fill="#6872E3"/>
<path d="M48.5052 43.5962C49.0395 43.5962 49.4726 43.1634 49.4726 42.6294C49.4726 42.0955 49.0395 41.6626 48.5052 41.6626C47.9708 41.6626 47.5377 42.0955 47.5377 42.6294C47.5377 43.1634 47.9708 43.5962 48.5052 43.5962Z" fill="#6872E3"/>
</g>
<defs>
<clipPath id="clip0_1_1396">
<rect width="49.9937" height="44.41" fill="white" transform="translate(0.00311279)"/>
</clipPath>
</defs>
</svg>
