<svg width="28" height="28" viewBox="0 0 28 28" fill="none" xmlns="http://www.w3.org/2000/svg">
<g clip-path="url(#clip0_1_1586)">
<path d="M3.96344 15.98C3.96344 8.6254 9.92778 2.66105 17.2824 2.66105C19.0514 2.66029 20.8028 3.01128 22.4347 3.69424C20.062 1.76111 17.0944 0.707617 14.0339 0.711927C6.67926 0.711927 0.714905 6.67627 0.714905 14.0309C0.715667 19.3969 3.93425 24.2392 8.88169 26.317C5.76689 23.7897 3.95938 19.9912 3.96344 15.98Z" fill="#D4E1F4"/>
<path d="M14.0339 0.0625399C8.38394 0.0615248 3.29008 3.46462 1.12803 8.68461C-1.03377 13.9046 0.162096 19.9129 4.1583 23.9068C9.61255 29.361 18.4554 29.361 23.9094 23.9068C29.3636 18.4528 29.3636 9.60991 23.9094 4.1557C21.2961 1.52743 17.7402 0.0536572 14.0339 0.0625399ZM14.0339 26.7005C7.04951 26.7005 1.36456 21.0156 1.36456 14.0312C1.36456 7.04687 7.04951 1.36195 14.0339 1.36195C21.0182 1.36195 26.7032 7.04687 26.7032 14.0312C26.7032 21.0156 21.0182 26.7005 14.0339 26.7005Z" fill="url(#paint0_radial_1_1586)"/>
<path d="M8.47311 12.4064C8.41516 12.4558 8.36756 12.5162 8.33298 12.584C8.2984 12.6518 8.2775 12.7259 8.27158 12.8017C8.26559 12.8776 8.27457 12.954 8.29814 13.0264C8.32165 13.0988 8.35922 13.1659 8.40865 13.2238L11.503 16.847C11.6013 16.9621 11.7407 17.0343 11.8915 17.0479C12.0422 17.0616 12.1924 17.0158 12.3098 16.9203L19.5163 11.0572C19.5754 11.0093 19.6244 10.95 19.6606 10.8831C19.6967 10.8161 19.7194 10.7426 19.7272 10.6669C19.735 10.5911 19.7277 10.5146 19.706 10.4416C19.6842 10.3687 19.6482 10.3008 19.6002 10.2417C19.5521 10.1827 19.4929 10.1336 19.426 10.0974C19.359 10.0613 19.2855 10.0386 19.2098 10.0309C19.1341 10.0231 19.0575 10.0303 18.9846 10.052C18.9116 10.0739 18.8437 10.1098 18.7847 10.1579L12.0172 15.6636L9.29012 12.4708C9.1903 12.354 9.04815 12.2816 8.89493 12.2695C8.74172 12.2574 8.58999 12.3066 8.47311 12.4064Z" fill="#0635C9"/>
<path d="M8.47311 12.4064C8.41516 12.4558 8.36756 12.5162 8.33298 12.584C8.2984 12.6518 8.2775 12.7259 8.27158 12.8017C8.26559 12.8776 8.27457 12.954 8.29814 13.0264C8.32165 13.0988 8.35922 13.1659 8.40865 13.2238L11.503 16.847C11.6013 16.9621 11.7407 17.0343 11.8915 17.0479C12.0422 17.0616 12.1924 17.0158 12.3098 16.9203L19.5163 11.0572C19.5754 11.0093 19.6244 10.95 19.6606 10.8831C19.6967 10.8161 19.7194 10.7426 19.7272 10.6669C19.735 10.5911 19.7277 10.5146 19.706 10.4416C19.6842 10.3687 19.6482 10.3008 19.6002 10.2417C19.5521 10.1827 19.4929 10.1336 19.426 10.0974C19.359 10.0613 19.2855 10.0386 19.2098 10.0309C19.1341 10.0231 19.0575 10.0303 18.9846 10.052C18.9116 10.0739 18.8437 10.1098 18.7847 10.1579L12.0172 15.6636L9.29012 12.4708C9.1903 12.354 9.04815 12.2816 8.89493 12.2695C8.74172 12.2574 8.58999 12.3066 8.47311 12.4064Z" fill="url(#paint1_radial_1_1586)"/>
</g>
<defs>
<radialGradient id="paint0_radial_1_1586" cx="0" cy="0" r="1" gradientUnits="userSpaceOnUse" gradientTransform="translate(3.67194 -8.07873) scale(33.531 50.2968)">
<stop stop-color="#00CF5F"/>
<stop offset="1" stop-color="#00CF60"/>
</radialGradient>
<radialGradient id="paint1_radial_1_1586" cx="0" cy="0" r="1" gradientUnits="userSpaceOnUse" gradientTransform="translate(9.74959 7.98122) scale(13.7561 12.644)">
<stop stop-color="#00CF91"/>
<stop offset="1" stop-color="#00CF60"/>
</radialGradient>
<clipPath id="clip0_1_1586">
<rect width="28" height="28" fill="white"/>
</clipPath>
</defs>
</svg>
