<svg width="70" height="70" viewBox="0 0 70 70" fill="none" xmlns="http://www.w3.org/2000/svg">
<g clip-path="url(#clip0_1_200)">
<mask id="mask0_1_200" style="mask-type:luminance" maskUnits="userSpaceOnUse" x="0" y="0" width="70" height="70">
<path d="M70 0H0V70H70V0Z" fill="white"/>
</mask>
<g mask="url(#mask0_1_200)">
<path d="M47.1267 63.6703L48.3075 56.7584L40.0411 48.6962L51.4727 47.0429L54.6057 40.6819L51.8503 35.1083L46.7489 45.4683L35.3175 47.1216L43.5839 55.1838L41.6317 66.5673L47.1267 63.6703Z" fill="#D4E1F4"/>
<path d="M19.4618 19.8818C19.4618 11.5601 26.2078 4.8135 34.5301 4.8135C35.0185 4.8135 35.4908 4.84486 35.9632 4.87686C30.9105 0.913409 23.9025 0.586812 18.503 4.0619C13.104 7.53759 10.4992 14.0524 12.0147 20.2921C13.5302 26.5319 18.8326 31.1263 25.2243 31.7383C21.5856 28.8802 19.4605 24.5089 19.4618 19.8818Z" fill="#D4E1F4"/>
<path d="M34.5142 41.8467C36.2924 41.8455 38.0655 42.0301 39.805 42.3978C35.8496 39.9579 31.2889 38.6755 26.6414 38.6977C12.77 38.7297 1.54337 49.7983 1.57474 64.8671L9.60495 64.8511C11.038 51.4202 21.6349 41.8787 34.5142 41.8467Z" fill="#D4E1F4"/>
<path d="M26.6573 33.3762C35.8487 33.3762 43.3002 25.9247 43.3002 16.7327C43.3002 7.54129 35.8487 0.0898438 26.6573 0.0898438C17.4658 0.0898438 10.0144 7.54129 10.0144 16.7327C10.023 25.921 17.469 33.367 26.6573 33.3762ZM26.6573 3.23895C34.11 3.23895 40.151 9.28068 40.151 16.7327C40.151 24.1854 34.11 30.2271 26.6573 30.2271C19.2046 30.2271 13.1635 24.1854 13.1635 16.7327C13.1721 9.28375 19.2083 3.24755 26.6573 3.23895Z" fill="url(#paint0_linear_1_200)"/>
<path d="M26.626 37.1231C19.4145 37.1391 12.7226 39.942 7.76273 45.0432C2.74016 50.1919 -0.0153125 57.2306 6.40084e-05 64.8672C0.00313929 65.2843 0.166745 65.6846 0.457054 65.9848C0.752896 66.2813 1.15576 66.4455 1.57462 66.4418L41.8831 66.363V63.214L3.19653 63.2927C3.52743 57.1046 5.92062 51.4515 10.0298 47.2477C14.3918 42.7602 20.2964 40.2883 26.6413 40.2883H26.6887C32.696 40.2568 38.4794 42.567 42.8125 46.7279L45.0008 44.4608C40.0791 39.7347 33.5122 37.109 26.6887 37.1391C26.6733 37.1231 26.6573 37.1231 26.626 37.1231Z" fill="url(#paint1_linear_1_200)"/>
<path d="M68.6505 45.6891L58.0537 44.0672L53.3773 34.4151C53.1159 33.8787 52.5727 33.5373 51.9762 33.5337C51.3759 33.5238 50.8242 33.8608 50.5591 34.3996L45.7408 43.9724L35.1285 45.4369C34.5343 45.5175 34.038 45.9302 33.8503 46.4997C33.6628 47.0692 33.8166 47.6959 34.2465 48.1136L41.8677 55.6561L39.9782 66.2056C39.8694 66.7949 40.108 67.3945 40.5921 67.7482C41.0711 68.1091 41.717 68.1584 42.2453 67.8743L51.7714 62.9618L61.2187 68.0163C61.4462 68.1394 61.7002 68.2039 61.9586 68.2051C62.2877 68.2076 62.6082 68.1024 62.8719 67.9056C63.3622 67.5557 63.6125 66.9578 63.5178 66.3631L61.7858 55.7816L69.5164 48.3659C69.9489 47.9524 70.1075 47.3294 69.926 46.7598C69.7305 46.1953 69.2403 45.7838 68.6505 45.6891ZM58.9984 54.113C58.6219 54.4678 58.4503 54.9888 58.5419 55.4986L59.8963 63.749L52.5273 59.8126C52.2997 59.6896 52.0457 59.6245 51.7874 59.6238C51.5359 59.627 51.2885 59.6859 51.0628 59.7966L43.6311 63.623L45.1109 55.4039C45.2007 54.8928 45.0365 54.37 44.6698 54.0028L38.7339 48.1296L47.0163 46.9961C47.5311 46.9272 47.979 46.6092 48.2126 46.1454L51.9602 38.6823L55.5976 46.2089C55.8197 46.6781 56.2637 47.0035 56.7786 47.0748L65.0289 48.3344L58.9984 54.113Z" fill="#6872E3"/>
</g>
</g>
<defs>
<linearGradient id="paint0_linear_1_200" x1="6309.35" y1="3205.23" x2="917" y2="6378.67" gradientUnits="userSpaceOnUse">
<stop stop-color="#00CF91"/>
<stop offset="1" stop-color="#00CF60"/>
</linearGradient>
<linearGradient id="paint1_linear_1_200" x1="8516.42" y1="2860.23" x2="3111.51" y2="7742.51" gradientUnits="userSpaceOnUse">
<stop stop-color="#00CF91"/>
<stop offset="1" stop-color="#00CF60"/>
</linearGradient>
<clipPath id="clip0_1_200">
<rect width="70" height="70" fill="white"/>
</clipPath>
</defs>
</svg>
